<?xml version="1.0" encoding="utf-8"?>
<!-- Generator: Adobe Illustrator 16.0.0, SVG Export Plug-In . SVG Version: 6.00 Build 0)  -->
<!DOCTYPE svg PUBLIC "-//W3C//DTD SVG 1.1//EN" "http://www.w3.org/Graphics/SVG/1.1/DTD/svg11.dtd">
<svg version="1.1" id="图层_1" xmlns="http://www.w3.org/2000/svg" xmlns:xlink="http://www.w3.org/1999/xlink" x="0px" y="0px"
	 width="287.178px" height="249.844px" viewBox="0 0 287.178 249.844" enable-background="new 0 0 287.178 249.844"
	 xml:space="preserve">
<g>
	<g>
		<path fill="#D3DAE5" d="M282.144,100.749c-0.364-3.463-3.152-6.299-6.605-6.746c-1.521-0.197-2.959,0.072-4.217,0.66
			c0.011-0.242,0.036-0.479,0.036-0.724c0-8.435-6.837-15.272-15.272-15.272c-3.233,0-6.227,1.011-8.696,2.726
			c-2.527-10.37-12.243-17.924-23.572-17.072c-10.787,0.812-19.577,9.42-20.63,20.187c-0.328,3.349,0.096,6.559,1.101,9.498
			c-0.315-0.04-0.635-0.067-0.96-0.067c-1.489,0-2.873,0.433-4.048,1.169c0.004-0.138,0.021-0.273,0.021-0.412
			c0-8.017-6.499-14.515-14.516-14.515s-14.515,6.499-14.515,14.515c0,0.784,0.079,1.547,0.199,2.297h-24.377
			c-3.374,0-6.108,2.735-6.108,6.109c0,3.374,2.735,6.109,6.108,6.109h131.096v-0.478
			C280.346,107.57,282.526,104.389,282.144,100.749z"/>
	</g>
	<path fill="#C3CDDD" d="M0,209.841c0,0,36.166-68.624,79.261-67.898c61.969,1.044,100.698,60.361,100.698,60.361L0,209.841z"/>
	<path fill="#CCD5E2" d="M90.473,209.841c0,0,51.121-87.323,94.215-86.597c61.969,1.044,94.212,85.14,94.212,85.14L90.473,209.841z"
		/>
	<path fill="#AFC0D8" d="M287.178,221.351c0,15.184-67.893,15.089-144.525,25.433C22.914,262.944,0,209.841,0,209.841
		c5.758-14.395,78.889-33.325,150.137-33.325C221.384,176.516,287.178,206.167,287.178,221.351z"/>
	<g>
		<path fill="#CAD3E0" d="M152.723,51.506h-23.601c0.643-2.459,0.597-5.197-0.887-8.122c-1.606-3.166-4.524-5.565-7.998-6.297
			c-2.167-0.457-4.237-0.277-6.108,0.341c0.002-0.126,0.01-0.251,0.01-0.378c0-11.482-9.308-20.79-20.791-20.79
			c-10.157,0-18.607,7.286-20.424,16.915c-0.836-0.16-1.697-0.251-2.58-0.251c-7.276,0-13.208,5.692-13.624,12.865l-32.069,0
			c-3.959,0-7.412,3.051-7.531,7.009c-0.123,4.095,3.161,7.454,7.229,7.454h128.373c2.415,0,4.373-1.958,4.373-4.373
			C157.096,53.464,155.138,51.506,152.723,51.506z"/>
	</g>
	<g>
		<path fill="#D9DFE8" d="M240.379,25.574h-14.043c0.382-1.463,0.354-3.092-0.528-4.833c-0.955-1.883-2.691-3.311-4.758-3.747
			c-1.289-0.272-2.521-0.165-3.635,0.203c0.002-0.075,0.006-0.15,0.006-0.225c0-6.832-5.538-12.37-12.37-12.37
			c-6.043,0-11.071,4.335-12.152,10.064c-0.497-0.095-1.01-0.15-1.535-0.15c-4.329,0-7.858,3.387-8.105,7.655h-19.081
			c-2.356,0-4.41,1.815-4.481,4.17c-0.073,2.437,1.881,4.435,4.301,4.435h76.383c1.437,0,2.602-1.165,2.602-2.602
			S241.815,25.574,240.379,25.574z"/>
	</g>
	<path fill="#8DADDB" d="M27.361,194.226c11.93,14.136,47.195,41.216,137.33,29.05c45.387-6.125,87.705-8.59,114.671-12.736
		c-19.46-15.307-72.618-34.023-129.225-34.023C103.568,176.516,56.2,184.604,27.361,194.226z"/>
	<g>
		<path fill="#E2E9F2" d="M209.853,71.474c0.361-1.744-1.148-3.671-1.902-5.27c-0.59-1.253-1.188-2.502-1.771-3.758
			c-0.09-0.194-0.234-0.737-0.308-0.587c0.127-0.423,0.571-0.941,0.761-1.287c1.017-1.848,2.396-3.51,2.396-5.644v-4.646
			c0-0.885,0.252-2.233,0-3.097c-0.291-0.993-1.296-1.938-1.912-2.759c-0.541-0.721-1.081-1.441-1.622-2.162
			c-0.314-0.419-0.684-1.272-0.788-0.878c0.203-1.004,1.641-2.621,2.113-3.408c0.721-1.202,1.442-2.404,2.164-3.606
			c0.299-0.499-0.393-0.768-0.742-0.768h-53.658c0.058-0.082,0.093-0.173,0.093-0.274V1.436c0.434-0.515-0.038-1.578-0.922-1.42
			c-7.486,1.336-14.267,4.98-21.655,6.682c-0.345,0.08-0.533,0.303-0.595,0.562c-0.091,0.083-0.148,0.176-0.148,0.277v26.066H82.164
			c-0.352,0-0.911,0.297-0.914,0.705c-0.023,3.609-0.046,7.218-0.069,10.827c-0.007,1.145-0.079,1.324,0.652,2.1
			c1.023,1.086,2.431,1.969,3.696,2.867c-0.012,0.012-0.021,0.024-0.03,0.036c-1.301,0.688-2.603,1.376-3.904,2.064
			c-0.207,0.109-0.467,0.323-0.469,0.585c-0.025,3.896-0.05,7.791-0.075,11.687L81,72.441c-0.008,1.26-0.314,2.98-0.027,4.219
			c0.334,1.442,1.829,2.952,2.654,4.162c0.091,0.133,0.232,0.299,0.368,0.473c-0.234,0.25-0.316,0.548-0.071,0.701
			c-0.021,0.022-0.039,0.044-0.063,0.068c-0.811,0.797-1.544,1.895-2.208,2.811c-0.938,1.293-0.747,2.275-0.757,3.9
			c-0.014,2.235-0.028,4.471-0.042,6.706c-0.003,0.45,0.403,0.586,0.786,0.599c14.27,0.455,28.54,0.91,42.81,1.364l8.224,0.262
			v106.616c-0.582,0.392-0.416,1.56,0.494,1.604l20.357,1.004c0.595,0.029,0.868-0.451,0.826-0.914
			c0.034-0.092,0.057-0.193,0.057-0.311V98.398c12.663,0.403,25.326,0.807,37.988,1.21c5.134,0.164,10.267,0.327,15.399,0.491
			c0.146,0.031,0.31,0.026,0.471-0.01c0.229-0.028,0.407-0.125,0.527-0.263c0.171-0.153,0.271-0.356,0.221-0.592
			c-1.09-5.109-2.181-10.218-3.271-15.327c-0.091-0.428-0.203-1.455-0.271-1.238c0.18-1.048,0.879-2.222,1.261-3.2
			C207.726,76.924,209.299,74.148,209.853,71.474z"/>
		<g>
			<g>
				<path fill="#7297D3" d="M209.853,71.474c0.361-1.744-1.148-3.671-1.902-5.27c-0.59-1.253-1.188-2.502-1.771-3.758
					c-0.09-0.194-0.234-0.737-0.308-0.587c0.127-0.423,0.571-0.941,0.761-1.287c1.017-1.848,2.396-3.51,2.396-5.644v-4.646
					c0-0.885,0.252-2.233,0-3.097c-0.291-0.993-1.296-1.938-1.912-2.759c-0.541-0.721-1.081-1.441-1.622-2.162
					c-0.314-0.419-0.684-1.272-0.788-0.878c0.203-1.004,1.641-2.621,2.113-3.408c0.721-1.202,1.442-2.404,2.164-3.606
					c0.299-0.499-0.393-0.768-0.742-0.768h-53.658c0.058-0.082,0.093-0.173,0.093-0.274V1.436c0.434-0.515-0.038-1.578-0.922-1.42
					c-7.486,1.336-14.267,4.98-21.655,6.682c-0.345,0.08-0.533,0.303-0.595,0.562c-0.091,0.083-0.148,0.176-0.148,0.277v26.066
					H82.164c-0.352,0-0.911,0.297-0.914,0.705c-0.023,3.609-0.046,7.218-0.069,10.827c-0.007,1.145-0.079,1.324,0.652,2.1
					c1.023,1.086,2.431,1.969,3.696,2.867c-0.012,0.012-0.021,0.024-0.03,0.036c-1.301,0.688-2.603,1.376-3.904,2.064
					c-0.207,0.109-0.467,0.323-0.469,0.585c-0.025,3.896-0.05,7.791-0.075,11.687L81,72.441c-0.008,1.26-0.314,2.98-0.027,4.219
					c0.334,1.442,1.829,2.952,2.654,4.162c0.091,0.133,0.232,0.299,0.368,0.473c-0.234,0.25-0.316,0.548-0.071,0.701
					c-0.021,0.022-0.039,0.044-0.063,0.068c-0.811,0.797-1.544,1.895-2.208,2.811c-0.938,1.293-0.747,2.275-0.757,3.9
					c-0.014,2.235-0.028,4.471-0.042,6.706c-0.003,0.45,0.403,0.586,0.786,0.599c14.27,0.455,28.54,0.91,42.81,1.364l8.224,0.262
					v106.616c-0.582,0.392-0.416,1.56,0.494,1.604l20.357,1.004c0.595,0.029,0.868-0.451,0.826-0.914
					c0.034-0.092,0.057-0.193,0.057-0.311V98.398c12.663,0.403,25.326,0.807,37.988,1.21c5.134,0.164,10.267,0.327,15.399,0.491
					c0.146,0.031,0.31,0.026,0.471-0.01c0.229-0.028,0.407-0.125,0.527-0.263c0.171-0.153,0.271-0.356,0.221-0.592
					c-1.09-5.109-2.181-10.218-3.271-15.327c-0.091-0.428-0.203-1.455-0.271-1.238c0.18-1.048,0.879-2.222,1.261-3.2
					C207.726,76.924,209.299,74.148,209.853,71.474z M133.028,8.25c6.801-1.646,13.109-4.865,19.957-6.322v31.539
					c0,0.049,0.007,0.094,0.018,0.136h-19.975V8.25z M152.677,205.158c-3.863-0.19-7.727-0.381-11.59-0.571
					c0.339-0.085,0.626-0.351,0.626-0.804v-24.014c0-1.114-1.731-1.116-1.731,0v24.014c0,0.408,0.234,0.666,0.529,0.775
					c-2.035-0.101-4.071-0.201-6.106-0.302V97.761c6.091,0.194,12.182,0.388,18.272,0.582V205.158z M204.032,84.172
					c-6.32,0.467-12.648,0.649-18.986,0.53c-0.561-0.01-1.799,0.816-0.681,0.837c6.621,0.125,13.23-0.071,19.833-0.586
					c0.565,2.651,1.132,5.302,1.697,7.953c-27.523,0.498-55.052,0.664-82.579,0.496c-0.971-0.006-1.27,1.26-0.137,1.267
					c27.663,0.169,55.326,0.002,82.985-0.501c0.327,1.535,0.655,3.07,0.982,4.604l-41.716-1.329
					c-22.649-0.722-45.297-1.443-67.946-2.165c-4.975-0.159-9.95-0.317-14.925-0.476c0.03-2.583,0.136-5.182,0.045-7.759
					c-0.047-1.351-0.14-0.851,0.747-1.979c0.761-0.969,1.521-1.937,2.282-2.905c6.834,0.337,13.672,0.56,20.514,0.663
					c0.952,0.015,1.286-1.194,0.152-1.211c-6.855-0.104-13.707-0.334-20.554-0.678c-0.829-1.23-1.627-2.495-2.513-3.682
					c-0.722-0.967-0.59-0.462-0.555-1.686c0.088-3.029,0.061-6.067,0.064-9.1c6.555-0.317,13.11-0.634,19.665-0.95
					c0.963-0.047,1.274-1.324,0.137-1.269c-6.6,0.319-13.199,0.638-19.799,0.957c0-0.088,0-0.176,0-0.264
					c0.023-3.644,0.047-7.287,0.07-10.93c0.002-0.33,0.027-0.674,0.009-1.005c0.015-0.002,0.026-0.003,0.042-0.006
					c1.17-0.213,2.556-1.213,3.728-1.935c0.387,0.116,0.798,0.134,1.335,0.101c0.406-0.025,0.741-0.267,0.848-0.5
					c9.074,0.12,18.148,0.239,27.222,0.359c0.646,0.008,1.771-0.956,0.644-0.971c-9.691-0.128-19.383-0.256-29.074-0.383
					c-0.014-0.012-0.021-0.026-0.037-0.038c-1.349-1.037-2.664-2.273-4.112-3.161c-0.144-0.088-0.384-0.234-0.553-0.379
					c-0.126-0.542,0.012-1.333,0.016-1.873c0.02-3.103,0.04-6.206,0.06-9.309h123.967c-1.289,2.148-2.578,4.296-3.866,6.445
					c-0.083,0.137-0.05,0.373,0.042,0.496c1.309,1.745,3.154,3.543,4.116,5.488c0.094,0.19,0.126,0.219,0.133,0.196
					c0.066,0.355-0.009,0.805-0.009,1.157v4.449c0,2.562-0.066,3.13-1.278,5.334c-0.622,1.13-1.532,2.176-1.676,3.333
					c-7.106-0.114-14.207,0.067-21.298,0.562c-0.858,0.06-1.361,1.089-0.206,1.008c7.19-0.502,14.389-0.679,21.595-0.542
					c0.679,2.41,2.28,5.048,3.434,7.257c0.13,0.248,0.362,0.603,0.419,0.887c0.002,0.011,0.003,0.012,0.006,0.021
					c-0.002,0.018-0.004,0.026-0.006,0.049c-0.069,0.888-0.804,2.06-1.126,2.887c-1.003,2.569-2.028,5.129-3.008,7.707
					C203.776,82.713,203.811,83.116,204.032,84.172z"/>
				<path fill="#7297D3" d="M202.325,40.087c-14.209-0.318-28.421-0.241-42.626,0.221c-0.871,0.028-1.354,1.059-0.203,1.021
					c14.063-0.457,28.135-0.523,42.202-0.208C202.387,41.136,203.454,40.112,202.325,40.087z"/>
				<path fill="#7297D3" d="M102.835,38.585c-5.385-0.117-10.77-0.234-16.155-0.351c-0.963-0.021-1.275,1.216-0.144,1.24
					c5.385,0.117,10.77,0.234,16.155,0.351C103.654,39.847,103.966,38.61,102.835,38.585z"/>
				<path fill="#7297D3" d="M109.424,88.619c-6.731-0.115-13.463-0.231-20.194-0.347c-0.69-0.012-1.755,1.017-0.627,1.036
					c6.731,0.116,13.463,0.231,20.195,0.347C109.487,89.667,110.552,88.638,109.424,88.619z"/>
				<path fill="#7297D3" d="M199.334,88.804h1.154c0.354,0,0.879-0.271,0.926-0.659c0.053-0.432-0.454-0.519-0.765-0.519h-1.154
					c-0.354,0-0.878,0.271-0.926,0.659C198.517,88.717,199.023,88.804,199.334,88.804z"/>
				<path fill="#7297D3" d="M91.748,76.63c-1.827-0.108-3.653-0.216-5.479-0.325c-0.343-0.021-0.941,0.03-1.183,0.316
					c-0.175,0.208-0.283,0.451,0.127,0.475l5.479,0.325c0.343,0.021,0.941-0.031,1.182-0.317
					C92.05,76.897,92.158,76.654,91.748,76.63z"/>
				<path fill="#7297D3" d="M199.173,57.845c-2.788-0.107-5.577-0.215-8.365-0.323c-0.575-0.022-1.795,0.812-0.675,0.855
					c2.788,0.108,5.576,0.216,8.365,0.324C199.073,58.723,200.293,57.889,199.173,57.845z"/>
				<path fill="#7297D3" d="M196.498,47.782h-9.81c-0.345,0-1.886,0.661-1.09,0.661h9.809
					C195.752,48.443,197.294,47.782,196.498,47.782z"/>
				<path fill="#7297D3" d="M148.639,148.753c-0.14-0.468-0.068-0.883,0.2-1.291c0.613-0.934-0.885-1.802-1.495-0.874
					c-0.507,0.772-0.638,1.743-0.374,2.626C147.288,150.279,148.959,149.825,148.639,148.753z"/>
				<path fill="#7297D3" d="M147.676,172.46v2.211c-0.042,0.068-0.068,0.144-0.068,0.23v20.067c0,0.727,1.344,0.561,1.344-0.082
					v-19.376c0.259-0.123,0.455-0.369,0.455-0.743v-2.308C149.406,171.346,147.676,171.344,147.676,172.46z"/>
				<path fill="#7297D3" d="M148.156,199.839c-1.113,0-1.115,1.731,0,1.731C149.271,201.571,149.272,199.839,148.156,199.839z"/>
				<path fill="#7297D3" d="M148.555,124.625c-0.119-6.534-0.238-13.07-0.357-19.604c-0.012-0.632-1.341-0.39-1.331,0.129
					c0.119,6.535,0.238,13.07,0.357,19.605C147.235,125.386,148.564,125.144,148.555,124.625z"/>
				<path fill="#7297D3" d="M141.187,154.16v-44.24c0-0.397-1.321-0.152-1.321,0.354v44.24
					C139.865,154.911,141.187,154.666,141.187,154.16z"/>
				<path fill="#7297D3" d="M144.844,155.655V136.5c0-0.692-1.339-0.496-1.339,0.1v19.155
					C143.505,156.447,144.844,156.251,144.844,155.655z"/>
				<path fill="#7297D3" d="M139.419,12.592c-0.476,0-1.41,0.716-0.523,0.716C139.372,13.308,140.306,12.592,139.419,12.592z"/>
				<path fill="#7297D3" d="M142.146,10.391v16.875c0,0.276,1.322,0.07,1.322-0.354V10.037
					C143.467,9.76,142.146,9.966,142.146,10.391z"/>
				<path fill="#7297D3" d="M138.949,17.122v12.771c0,0.62,1.33,0.375,1.33-0.134V16.988
					C140.278,16.368,138.949,16.612,138.949,17.122z"/>
				<path fill="#7297D3" d="M150.347,7.072v12.314c0,0.686,1.338,0.486,1.338-0.103V6.97C151.685,6.284,150.347,6.484,150.347,7.072
					z"/>
				<path fill="#7297D3" d="M140.739,171.617v-9.577c0-0.688-1.339-0.49-1.339,0.102v9.577
					C139.4,172.407,140.739,172.208,140.739,171.617z"/>
				<path fill="#7297D3" d="M138.455,107.294v-7.753c0-0.626-1.331-0.385-1.331,0.132v7.753
					C137.124,108.051,138.455,107.81,138.455,107.294z"/>
			</g>
			<text transform="matrix(1 0 0 1 115.5981 78.0122)" fill="#7297D3" font-family="'OpenSans-Bold'" font-size="31.4928">404</text>
		</g>
	</g>
	<g>
		<path fill="#7CA1D8" d="M64.565,191.959v5.667c0,0.435,0.97,0.245,0.97-0.106v-5.667
			C65.535,191.418,64.565,191.608,64.565,191.959z"/>
		<g>
			<path fill="#BDD3F2" d="M59.36,196.82h14.31v-47.487c16.775-1.142,30.075-15.151,30.075-32.211c0-4.054-3.285-7.338-7.338-7.338
				c-4.053,0-7.338,3.285-7.338,7.338c0,8.961-6.729,16.375-15.399,17.468v-20.139c0-3.952-3.203-7.155-7.155-7.155
				s-7.155,3.203-7.155,7.155v36.764c-7.4-2.086-12.842-8.893-12.842-16.95c0-4.053-3.285-7.339-7.338-7.339
				c-4.053,0-7.338,3.286-7.338,7.339c0,16.184,11.968,29.623,27.519,31.936V196.82z"/>
		</g>
		<path fill="#7297D3" d="M58.61,166.241c0.562,0.552,0,4.205,0,5.003v19.41c0,1.914-0.196,4.083-0.053,6.166h1.523
			c-0.214-2.436,0.03-5.026,0.03-7.451V166.2c0-0.302-0.231-0.669-0.551-0.724c-14.352-2.451-27.479-15.143-26.953-30.502
			c0.131-3.828,2.29-7.299,6.573-7.299c4.525,0,6.107,3.502,6.616,7.293c0.329,2.451,0.614,4.691,1.676,6.979
			c2.314,4.982,6.53,8.319,11.688,9.99c0.468,0.152,0.95-0.254,0.95-0.723v-33.942c0-3.133-0.062-6.466,3.172-8.352
			c4.612-2.689,9.158,1.089,9.638,5.771c0.091,0.89,0,1.843,0,2.733v17.165c0,0.527,0.477,0.802,0.949,0.723
			c5.549-0.92,10.418-3.899,13.346-8.776c1.222-2.035,2.021-4.3,2.385-6.642c0.502-3.233,0.117-6.496,3.481-8.461
			c4.625-2.702,9.48,0.849,9.914,5.689c-0.358,16.577-12.775,29.977-29.325,31.461c-0.404,0.036-0.75,0.314-0.75,0.75v45.663
			c0,0.597,0.035,1.219,0.009,1.824h1.601c0.189-2.572-0.109-5.324-0.109-7.79v-32.205c0-1.847-0.594-4.794,0-6.549
			c0.117-0.345,0.13-0.487,0.118-0.548c0.034,0.002,0.09-0.009,0.202-0.069c0.927-0.498,4.426-0.372,5.892-0.797
			c4.4-1.275,8.501-3.486,12.017-6.418c7.566-6.308,11.636-15.558,11.847-25.322c-0.577-6.437-7.669-10.752-13.195-6.26
			c-2.587,2.103-2.694,4.612-3.037,7.662c-0.339,3.019-1.292,5.875-3.063,8.36c-2.491,3.493-5.554,4.524-9.062,6.434
			c-1.687,0.917-1.353,1.469-1.718,0.353c-0.274-0.837,0-2.287,0-3.187v-10.225c0-4.572,0.73-9.916-3.915-12.633
			c-5.471-3.2-11.488,1.018-11.895,6.861c-0.288,4.134,0,8.387,0,12.528v19.176c0,1.005,0.523,3.802,0,4.719
			c0.37-0.648-2.602-1.817-3.725-2.554c-3.173-2.079-5.606-5.249-6.786-8.855c-1.17-3.578-0.183-7.453-2.777-10.494
			c-2.026-2.375-5.291-3.336-8.282-2.514c-7.787,2.139-6.305,11.658-4.473,17.545c2.444,7.856,7.867,14.648,14.974,18.79
			c1.6,0.933,3.284,1.729,5.018,2.381c1.175,0.441,2.636,1.083,3.896,1.193C55.171,166.289,59.195,166.814,58.61,166.241z"/>
		<path fill="#7CA1D8" d="M68.383,121.24v23.417c0,0.409,0.826,0.273,0.826-0.071v-23.417
			C69.209,120.759,68.383,120.895,68.383,121.24z"/>
		<path fill="#7CA1D8" d="M69.798,154.605v6.207c0,0.206,0.817,0.067,0.817-0.219v-6.207
			C70.615,154.181,69.798,154.319,69.798,154.605z"/>
		<path fill="#7CA1D8" d="M68.387,171.534v16.363c0,0.183,0.817,0.051,0.817-0.219v-16.364
			C69.205,171.132,68.387,171.263,68.387,171.534z"/>
		<path fill="#7CA1D8" d="M64.713,132.518v24.264c0,0.438,0.83,0.324,0.83-0.058v-24.263
			C65.543,132.023,64.713,132.136,64.713,132.518z"/>
		<path fill="#7CA1D8" d="M64.719,163.07v4.231c0,0.246,0.818,0.095,0.818-0.219v-4.232
			C65.537,162.604,64.719,162.755,64.719,163.07z"/>
		<path fill="#7CA1D8" d="M63.306,113.064v5.36c0,0.385,0.823,0.234,0.823-0.083v-5.36
			C64.129,112.596,63.306,112.746,63.306,113.064z"/>
		<path fill="#7CA1D8" d="M54.407,155.083c-6.651-5.385-12.405-12.629-11.949-21.636c0.008-0.16-0.804-0.049-0.817,0.219
			c-0.458,9.044,5.331,16.31,12,21.709C53.828,155.527,54.564,155.21,54.407,155.083z"/>
		<path fill="#7CA1D8" d="M47.455,154.321c-1.78-1.451-3.201-3.229-4.205-5.296c-0.15-0.31-0.953-0.059-0.817,0.219
			c1.023,2.109,2.449,3.931,4.268,5.413C46.945,154.856,47.71,154.529,47.455,154.321z"/>
		<path fill="#7CA1D8" d="M41.791,152.914c-4.609-5.059-7.001-11.637-6.69-18.477c0.02-0.435-0.812-0.324-0.83,0.058
			c-0.316,6.94,2.092,13.646,6.773,18.784C41.301,153.56,42.075,153.225,41.791,152.914z"/>
		<path fill="#7CA1D8" d="M93.083,118.146c-1.05,4.911-3.164,9.408-6.275,13.35c-0.044,0.056,0.655,0.044,0.806-0.146
			c3.111-3.941,5.226-8.439,6.275-13.35C93.925,117.83,93.125,117.948,93.083,118.146z"/>
		<path fill="#7CA1D8" d="M79.729,136.029c-0.915,1.158-2.27,1.724-3.737,1.518c-0.403-0.056-0.832,0.519-0.283,0.595
			c1.796,0.251,3.578-0.444,4.705-1.871C80.734,135.864,79.96,135.735,79.729,136.029z"/>
		<path fill="#7CA1D8" d="M97.941,113.201c-0.02-0.17-0.844-0.008-0.817,0.219c0.351,2.968-0.209,5.802-1.654,8.414
			c-0.067,0.121,0.69,0.073,0.808-0.139C97.738,119.054,98.295,116.194,97.941,113.201z"/>
		<path fill="#7CA1D8" d="M99.557,122.893c-3.427,10.542-12.684,18.658-23.629,20.539c-0.415,0.071-0.652,0.617-0.093,0.521
			c11.345-1.949,20.979-10.176,24.545-21.144C100.486,122.482,99.658,122.583,99.557,122.893z"/>
		<path fill="#7CA1D8" d="M62.86,182.957v10.666c0,0.219,0.966,0.062,0.966-0.259v-10.666
			C63.826,182.479,62.86,182.635,62.86,182.957z"/>
	</g>
	<g>
		<path fill="#F5F9FF" d="M102.584,207.545c0.022,1.126-1.071,1.964-1.856,2.571c-0.29,0.225-0.305,0.813-0.018,1.045
			c1.74,1.412,4.2,3.367,3.559,5.93c-0.875,3.497-5.464,1.061-7.312-0.07c-0.332-0.202-0.654-0.11-0.866,0.102l-31.58,7.692
			c-0.358,0.087-0.523,0.356-0.54,0.641c-0.035,0.079-0.059,0.168-0.064,0.271c-0.147,3.019-2.827,5.294-5.861,4.482
			c-1.849-0.495-3.374-2.114-2.668-4.133c0.569-1.629,2.186-2.556,3.579-3.4c0.617-0.374,0.407-1.354-0.337-1.385
			c-1.405-0.059-2.756-0.385-3.941-1.178c-1.848-1.236-2.307-3.539-0.281-4.896c2.607-1.745,5.498,0.297,7.453,2.219
			c-0.494,0.438-0.127,1.466,0.667,1.272l32.491-7.914c0.333,0.133,0.73,0.059,0.882-0.322c0.177-0.177,0.229-0.434,0.178-0.672
			c0.452-1.548,1.442-2.868,2.966-3.552C100.199,205.726,102.542,205.362,102.584,207.545z"/>
		<path fill="#7297D3" d="M94.656,209.359l-31.205,7.601c-2.697-2.811-7.956-6.049-11.045-1.874
			c-2.625,3.549,0.833,6.411,4.208,7.355c-1.436,1.035-2.684,2.325-2.906,4.178c-0.256,2.137,1.217,3.913,3.108,4.725
			c3.981,1.708,8.119-1.101,8.54-5.213l31.096-7.575c0.044-0.011,0.082-0.026,0.12-0.042c2.547,1.49,6.839,3.32,8.703,0.038
			c1.74-3.063-0.628-5.939-2.89-7.902c1.024-0.942,1.809-2.131,1.655-3.605c-0.15-1.433-1.251-2.384-2.626-2.61
			C98.28,203.917,95.503,206.518,94.656,209.359z M102.584,207.545c0.022,1.126-1.071,1.964-1.856,2.571
			c-0.29,0.225-0.305,0.813-0.018,1.045c1.74,1.412,4.2,3.367,3.559,5.93c-0.875,3.497-5.464,1.061-7.312-0.07
			c-0.332-0.202-0.654-0.11-0.866,0.102l-31.58,7.692c-0.358,0.087-0.523,0.356-0.54,0.641c-0.035,0.079-0.059,0.168-0.064,0.271
			c-0.147,3.019-2.827,5.294-5.861,4.482c-1.849-0.495-3.374-2.114-2.668-4.133c0.569-1.629,2.186-2.556,3.579-3.4
			c0.617-0.374,0.407-1.354-0.337-1.385c-1.405-0.059-2.756-0.385-3.941-1.178c-1.848-1.236-2.307-3.539-0.281-4.896
			c2.607-1.745,5.498,0.297,7.453,2.219c-0.494,0.438-0.127,1.466,0.667,1.272l32.491-7.914c0.333,0.133,0.73,0.059,0.882-0.322
			c0.177-0.177,0.229-0.434,0.178-0.672c0.452-1.548,1.442-2.868,2.966-3.552C100.199,205.726,102.542,205.362,102.584,207.545z"/>
		<path fill="#7297D3" d="M62.748,221.487l21.301-5.188c0.46-0.112-0.001-1.105-0.372-1.015l-21.301,5.188
			C61.916,220.584,62.377,221.577,62.748,221.487z"/>
		<path fill="#7297D3" d="M87.777,215.642l3.59-0.875c0.172-0.042-0.229-1.046-0.532-0.972l-3.59,0.874
			C87.073,214.711,87.474,215.715,87.777,215.642z"/>
	</g>
	<g>
		<path fill="#8DADDB" d="M99.094,153.216c0-1.549,1.255-2.804,2.803-2.804c1.548,0,2.803,1.255,2.803,2.804
			c0,3.423,2.571,6.255,5.883,6.673v-7.693c0-1.51,1.224-2.733,2.733-2.733l0,0c1.51,0,2.733,1.224,2.733,2.733v14.044
			c2.827-0.797,4.906-3.396,4.906-6.476c0-1.548,1.255-2.803,2.803-2.803s2.803,1.255,2.803,2.803c0,6.183-4.572,11.316-10.512,12.2
			v11.875c0,1.51-1.224,2.733-2.733,2.733l0,0c-1.509,0-2.733-1.224-2.733-2.733v-18.318
			C104.175,165.084,99.094,159.733,99.094,153.216z"/>
	</g>
	<g>
		<path fill="#8DADDB" d="M240.897,176.287c0-1.39,1.127-2.517,2.518-2.517c1.39,0,2.517,1.127,2.517,2.517
			c0,3.074,2.309,5.617,5.282,5.992v-6.908c0-1.355,1.099-2.454,2.454-2.454l0,0c1.355,0,2.455,1.099,2.455,2.454v12.611
			c2.538-0.716,4.404-3.051,4.404-5.814c0-1.391,1.127-2.518,2.518-2.518s2.518,1.127,2.518,2.518
			c0,5.551-4.105,10.161-9.439,10.954v10.663c0,1.355-1.1,2.454-2.455,2.454l0,0c-1.355,0-2.454-1.099-2.454-2.454v-16.448
			C245.46,186.945,240.897,182.139,240.897,176.287z"/>
	</g>
	<g>
		<g>
			<g>
				<path fill="#BDD5F4" d="M250.86,140.671c-3.316,0-6.005,2.688-6.005,6.005v0.319c0,5.165-4.202,9.368-9.367,9.368h-3.523
					v-32.267c0-3.803-3.082-6.886-6.886-6.886c-3.803,0-6.885,3.083-6.885,6.886v17.837c-3.606-0.184-6.486-3.166-6.486-6.816
					v-0.932c0-3.316-2.688-6.005-6.005-6.005s-6.005,2.688-6.005,6.005v0.932c0,10.273,8.266,18.647,18.496,18.835v15.862h-3.844
					c-5.165,0-9.368-4.203-9.368-9.368c0-3.316-2.688-6.005-6.005-6.005c-3.315,0-6.005,2.688-6.005,6.005
					c0,11.787,9.591,21.378,21.378,21.378h3.844v13.23h13.771v-26.682h3.523c11.787,0,21.377-9.59,21.377-21.378v-0.319
					C256.865,143.36,254.177,140.671,250.86,140.671z"/>
			</g>
			<path fill="#7297D3" d="M251.174,140.015c-0.089-0.036-0.19-0.056-0.313-0.043c-0.125-0.013-0.229,0.009-0.318,0.047
				c-2.595,0.339-4.846,1.57-5.888,4.134c-0.677,1.664-0.335,3.432-0.808,5.145c-1.101,3.989-4.653,6.139-8.619,6.367
				c-0.847,0.049-2.284-0.352-2.636,0.008c0.012-0.353,0.06-0.733,0.072-0.905c0.19-2.555,0-5.192,0-7.752v-19.197
				c0-4.37-0.029-9.036-4.996-10.85c-5.436-1.984-9.984,2.408-10.173,7.662c-0.095,2.633,0,5.29,0,7.924
				c0,2.009,0.911,7.009,0,8.847c-0.016,0.032-0.019,0.046-0.031,0.073c-0.033,0-0.06-0.004-0.112,0.011
				c-0.737,0.201-3.931-2.964-4.159-3.371c-1.174-2.089-0.423-4.339-1.282-6.451c-1.014-2.493-3.517-4.181-6.207-4.181
				c-8.078,0-7.353,9.93-5.227,15.072c1.291,3.124,3.393,5.877,6.057,7.958c1.312,1.025,2.741,1.875,4.27,2.537
				c1.122,0.485,2.279,0.868,3.474,1.136c0.03,0.007,3.35,0.469,2.935,0.118c0.201,0.17,0.284,0.615,0.284,1.794v3.971
				c0,2.701,0.689,6.476,0.007,9.125c-0.421,0.018-0.936-0.041-1.229-0.077c-2.238-0.276-4.14,0.076-6.294-1.186
				c-5.432-3.182-2.488-9.659-7.149-12.957c-6.128-4.335-11.076,2.292-10.4,8.054c0.908,7.735,6.005,14.56,13.14,17.666
				c3.315,1.443,6.721,1.811,10.295,1.83c0.521,0.003,1.048,0.012,1.568,0c0.061-0.001,0.109-0.005,0.158-0.01
				c0.145,0.932-0.095,2.258-0.095,3.11c0,2.6-0.461,6.154-0.248,9.432h1.644c-0.214-4.388,0.002-8.837,0.002-13.23
				c0-0.378-0.32-0.699-0.698-0.699c-5.025,0-9.778-0.192-14.272-2.827c-6.038-3.54-12.451-12.537-9.473-19.728
				c0.41-2.242,1.92-3.386,4.528-3.43c3.234,0.303,5.003,2.072,5.307,5.306c0.279,1.09,0.184,2.143,0.562,3.251
				c0.638,1.87,1.794,3.5,3.36,4.711c3.002,2.32,6.424,2.104,9.988,2.104c0.377,0,0.698-0.32,0.698-0.698v-15.862
				c0-0.392-0.32-0.679-0.698-0.698c-8.946-0.464-19.779-8.897-17.797-19.068c0.558-2.862,2.325-4.896,5.306-5.307
				c3.7-0.511,4.754,3.261,5.307,5.772c0.226,1.024,0.093,2.019,0.463,3.046c1.043,2.896,3.599,4.504,6.535,4.91
				c0.44,0.061,0.885-0.173,0.885-0.674v-15.221c0-3.999,0.993-8.803,6.187-8.803c4.795,0,6.188,4.385,6.188,8.243v30.21
				c0,0.378,0.32,0.698,0.698,0.698c3.489,0,6.834,0.128,9.738-2.159c1.677-1.32,2.923-3.173,3.491-5.233
				c1.008-3.654,0.1-7.738,5.666-8.3c11.207,1.13,2.537,17.35-1.647,21.07c-5.005,4.451-10.845,5.234-17.248,5.234
				c-0.377,0-0.698,0.32-0.698,0.699v26.099c0,0.194-0.002,0.389-0.005,0.583h1.632c0.352-4.441-0.229-9.275-0.229-13.546v-9.729
				c0-0.737-0.173-1.817-0.066-2.642c0.346,0.19,1.304-0.061,1.977-0.067c8.614-0.078,16.533-4.172,20.562-12.017
				C258.077,151.326,259.746,141.13,251.174,140.015z"/>
		</g>
		<path fill="#7CA1D8" d="M227.747,146.679v21.118c0,0.237,0.9,0.081,0.9-0.241v-21.118
			C228.647,146.201,227.747,146.357,227.747,146.679z"/>
		<path fill="#7CA1D8" d="M223.398,154.685v6.057c0,0.393,0.902,0.211,0.902-0.104v-6.056
			C224.301,154.188,223.398,154.37,223.398,154.685z"/>
		<path fill="#7CA1D8" d="M223.865,171.834v13.819c0,0.14,0.9,0.015,0.9-0.241v-13.819
			C224.766,171.455,223.865,171.58,223.865,171.834z"/>
		<path fill="#7CA1D8" d="M226.35,121.991v9.782c0,0.173,0.9,0.037,0.9-0.241v-9.782C227.25,121.576,226.35,121.711,226.35,121.991z
			"/>
		<path fill="#7CA1D8" d="M222.155,127.042v2.795c0,0.411,0.904,0.238,0.904-0.097v-2.795
			C223.06,126.535,222.155,126.707,222.155,127.042z"/>
		<path fill="#7CA1D8" d="M249.425,149.07c-1.206,2.805-2.441,5.772-4.646,7.959c-3.039,3.013-6.798,3.127-10.817,2.887
			c-0.419-0.024-0.929,0.587-0.32,0.623c3.491,0.209,7.081,0.294,10.093-1.758c3.328-2.268,5.01-6.051,6.547-9.626
			C250.478,148.696,249.574,148.723,249.425,149.07z"/>
		<path fill="#7CA1D8" d="M251.733,153.848c-0.741,1.896-1.886,3.539-3.403,4.896c-0.218,0.194,0.644,0.123,0.822-0.037
			c1.548-1.384,2.717-3.068,3.474-5.002C252.706,153.5,251.833,153.594,251.733,153.848z"/>
		<path fill="#7CA1D8" d="M228.654,195.055v-13.123c0-0.487-0.914-0.366-0.914,0.06v13.063H228.654z"/>
		<path fill="#7CA1D8" d="M228.206,175.706v1.863c0,0.479,0.913,0.353,0.913-0.063v-1.864
			C229.119,175.162,228.206,175.289,228.206,175.706z"/>
		<path fill="#7CA1D8" d="M213.094,173.144c-6.486-0.892-11.281-5.795-12.112-12.271c-0.039-0.309-0.943-0.104-0.899,0.241
			c0.852,6.64,5.848,11.618,12.463,12.527C212.838,173.682,213.603,173.213,213.094,173.144z"/>
		<path fill="#7CA1D8" d="M212.161,176.729c-0.815,0.027-1.588-0.125-2.34-0.44c-0.401-0.169-1.045,0.407-0.514,0.631
			c0.89,0.373,1.82,0.534,2.783,0.502C212.614,177.403,212.773,176.708,212.161,176.729z"/>
		<path fill="#7CA1D8" d="M211.399,148.038c-1.99-0.047-4.46-3.435-5.562-4.904c-1.722-2.298-2.735-4.911-2.298-7.808
			c0.048-0.314-0.854-0.154-0.896,0.126c-0.47,3.107,0.684,5.906,2.596,8.323c1.339,1.693,3.432,4.676,5.8,4.731
			C211.353,148.514,212.003,148.051,211.399,148.038z"/>
		<path fill="#7CA1D8" d="M212.039,142.607c-1.466-0.253-2.59-1.449-2.8-2.914c-0.023-0.161-0.932,0.023-0.9,0.241
			c0.222,1.539,1.434,2.747,2.958,3.011c0.193,0.033,0.458-0.022,0.628-0.119C211.985,142.792,212.245,142.643,212.039,142.607z"/>
		<path fill="#7CA1D8" d="M220.76,138.994v8.385c0,0.221,0.899,0.069,0.899-0.241v-8.385
			C221.659,138.532,220.76,138.682,220.76,138.994z"/>
		<path fill="#7CA1D8" d="M227.979,136.83v3.261c0,0.39,0.901,0.207,0.901-0.105v-3.261
			C228.881,136.333,227.979,136.516,227.979,136.83z"/>
	</g>
	<g>
		<path fill="#8DADDB" d="M30.326,179.47c-1.136,0-2.058,0.921-2.058,2.057v0.11c0,1.769-1.439,3.209-3.209,3.209h-1.207v-11.054
			c0-1.303-1.056-2.359-2.359-2.359l0,0c-1.303,0-2.359,1.057-2.359,2.359v6.11c-1.235-0.063-2.222-1.085-2.222-2.335v-0.319
			c0-1.137-0.921-2.058-2.057-2.058s-2.057,0.921-2.057,2.058v0.319c0,3.52,2.832,6.388,6.336,6.452v5.434h-1.316
			c-1.77,0-3.209-1.439-3.209-3.209c0-1.136-0.921-2.057-2.057-2.057s-2.057,0.921-2.057,2.057c0,4.038,3.286,7.324,7.324,7.324
			h1.316v5.019c0,1.304,1.056,2.359,2.359,2.359l0,0c1.303,0,2.359-1.056,2.359-2.359v-9.627h1.207c4.038,0,7.323-3.285,7.323-7.323
			v-0.11C32.383,180.391,31.462,179.47,30.326,179.47z"/>
	</g>
	<g>
		<path fill="#F5F9FF" d="M249.548,218.814c-0.956-0.163-1.946-0.107-2.874,0.166c-0.112,0.032-0.247,0.067-0.388,0.107
			c0.542-1.459,0.857-3.02,1.25-4.543c0.066-0.258-0.192-0.532-0.455-0.394c-1.142,0.603-2.208,1.308-3.194,2.106
			c-0.183-2.38-1.689-4.593-2.763-6.655c-0.11-0.212-0.428-0.245-0.562-0.037c-1.017,1.586-1.739,3.287-2.167,5.109
			c-0.219-0.327-0.458-0.64-0.726-0.932c-0.541-0.59-1.732-1.795-2.625-1.596c-0.962,0.215-0.543,1.832-0.49,2.504
			c0.099,1.267,0.27,2.53,0.569,3.766c-1.29,0.125-2.539,0.435-3.719,0.986c-1.236,0.577-1.672,0.958-0.558,1.961
			c2.451,2.207,5.188,4.361,8.638,4.393c0.005,0.004,0.009,0.008,0.013,0.011c0.044,0.036,0.088,0.057,0.131,0.065
			c0.089,0.064,0.215,0.079,0.324,0.043c0.177-0.011,0.355-0.075,0.531-0.17c3.854-0.759,7.225-2.965,10.351-5.236
			C252.147,219.516,250.542,218.983,249.548,218.814z"/>
		<path fill="#7297D3" d="M249.548,218.814c-0.956-0.163-1.946-0.107-2.874,0.166c-0.112,0.032-0.247,0.067-0.388,0.107
			c0.542-1.459,0.857-3.02,1.25-4.543c0.066-0.258-0.192-0.532-0.455-0.394c-1.142,0.603-2.208,1.308-3.194,2.106
			c-0.183-2.38-1.689-4.593-2.763-6.655c-0.11-0.212-0.428-0.245-0.562-0.037c-1.017,1.586-1.739,3.287-2.167,5.109
			c-0.219-0.327-0.458-0.64-0.726-0.932c-0.541-0.59-1.732-1.795-2.625-1.596c-0.962,0.215-0.543,1.832-0.49,2.504
			c0.098,1.267,0.27,2.53,0.569,3.766c-1.29,0.125-2.539,0.435-3.719,0.986c-1.236,0.577-1.672,0.958-0.558,1.961
			c2.451,2.207,5.188,4.361,8.638,4.393c0.005,0.004,0.009,0.008,0.013,0.011c0.044,0.036,0.088,0.057,0.131,0.065
			c0.089,0.064,0.215,0.079,0.324,0.043c0.177-0.011,0.355-0.075,0.531-0.17c3.854-0.759,7.225-2.965,10.351-5.236
			C252.147,219.516,250.542,218.983,249.548,218.814z M232.78,222.193c-0.517-0.424-1.18-0.863-1.593-1.389
			c-0.233-0.297-0.339-0.179-0.104-0.511c0.126-0.177,0.584-0.298,0.771-0.382c1.089-0.487,2.246-0.765,3.435-0.865
			c0.012,0.042,0.022,0.084,0.034,0.127c0.467,1.605,1.176,3.114,2.15,4.44c-1.468-0.715-2.759-1.731-3.805-3.012
			c-0.06-0.073-0.312,0.002-0.246,0.082c1.163,1.426,2.629,2.529,4.301,3.258c0.308,0.391,0.635,0.767,0.992,1.119
			C236.477,224.808,234.521,223.623,232.78,222.193z M239.754,224.726c-1.03-2.844-1.999-5.709-2.904-8.595
			c-0.037-0.119-0.299-0.068-0.263,0.046c0.918,2.929,1.901,5.836,2.949,8.721c0.019,0.052,0.08,0.068,0.14,0.063
			c-0.021,0.019-0.044,0.036-0.06,0.061c-0.294-0.257-0.566-0.532-0.828-0.815c0.013-0.021,0.007-0.044-0.038-0.06
			c-0.009-0.003-0.017-0.006-0.024-0.009c-1.079-1.191-1.892-2.602-2.447-4.118c-0.165-0.453-0.303-0.915-0.426-1.381
			c-0.002-0.047-0.014-0.092-0.035-0.131c-0.159-0.625-0.288-1.259-0.388-1.895c-0.089-0.568-0.156-1.139-0.207-1.712
			c-0.031-0.354-0.054-0.709-0.073-1.063c-0.021-0.38-0.195-0.704,0.225-0.825c0.898-0.26,2.195,1.552,2.599,2.188
			c0.603,0.949,0.99,2.015,1.267,3.097c0.209,0.819,0.414,1.691,0.552,2.577c-0.005,0.049,0.003,0.096,0.021,0.139
			C239.995,222.265,240.034,223.538,239.754,224.726z M240.58,219.564c-0.001-0.086-0.002-0.171-0.003-0.257
			c-0.002-0.333,0-0.666,0.006-0.998c0.01-0.513,0.028-1.024,0.057-1.536c0.057-1.022,0.154-2.043,0.284-3.059
			c0.018-0.138-0.247-0.126-0.263-0.006c-0.15,1.187-0.258,2.377-0.31,3.571c-0.022,0.521-0.034,1.041-0.037,1.562
			c-0.002,0.246-0.059,0.593-0.027,0.886c-0.205-0.985-0.48-1.94-0.783-2.801c-0.173-0.492-0.38-0.974-0.623-1.436
			c0.354-1.817,0.995-3.507,1.936-5.09c1.077,1.973,2.468,4.132,2.437,6.392c-0.979,0.864-1.863,1.829-2.655,2.879
			C240.596,219.636,240.59,219.601,240.58,219.564z M240.356,225.028c0.094-0.361,0.159-0.735,0.203-1.116
			c1.483-1.688,2.826-3.488,4.019-5.393c0.08-0.127-0.18-0.158-0.243-0.056c-1.115,1.778-2.365,3.461-3.735,5.051
			c0.062-0.846,0.018-1.722-0.102-2.59c0.909-1.357,1.975-2.578,3.182-3.644c0.086-0.023,0.16-0.08,0.198-0.17
			c0.882-0.758,1.835-1.436,2.855-2.025c-0.347,1.461-0.658,2.991-1.256,4.37c-0.112,0.093-0.197,0.203-0.235,0.339
			c-0.015,0.054-0.016,0.113-0.004,0.171c-0.156,0.311-0.329,0.612-0.525,0.901c-0.619,0.911-1.397,1.698-2.23,2.417
			c-0.365,0.315-0.743,0.616-1.126,0.911C241.237,224.287,240.735,224.746,240.356,225.028z M250.124,220.181
			c-0.236,0.166-0.472,0.332-0.708,0.497c-0.642,0.446-1.289,0.887-1.949,1.307c-1.805,1.15-3.702,2.147-5.747,2.751
			c0.022-0.019,0.046-0.037,0.067-0.054c0.543-0.418,1.073-0.854,1.577-1.316c1.451-1.063,2.96-2.039,4.524-2.926
			c0.116-0.065-0.143-0.066-0.197-0.035c-1.255,0.711-2.472,1.48-3.654,2.304c0.198-0.207,0.392-0.418,0.576-0.638
			c0.495-0.589,0.885-1.225,1.208-1.891c0.058-0.035,0.103-0.087,0.119-0.161c0.004-0.019,0.009-0.038,0.013-0.058
			c0.006-0.026,0.009-0.052,0.009-0.077c0.004-0.008,0.007-0.017,0.011-0.025c0.427-0.324,1.892-0.472,2.22-0.486
			c0.605-0.027,1.695-0.046,2.198,0.326c0.099,0.028,0.196,0.056,0.295,0.083C250.498,219.916,250.312,220.048,250.124,220.181z"/>
	</g>
	<g>
		<path fill="#F5F9FF" d="M44.639,226.532c-0.956-0.162-1.947-0.107-2.875,0.166c-0.112,0.033-0.247,0.067-0.388,0.108
			c0.542-1.46,0.857-3.021,1.25-4.544c0.066-0.258-0.192-0.532-0.456-0.393c-1.141,0.602-2.208,1.308-3.194,2.105
			c-0.182-2.379-1.689-4.592-2.762-6.654c-0.11-0.212-0.429-0.246-0.562-0.038c-1.016,1.587-1.739,3.288-2.167,5.109
			c-0.219-0.326-0.458-0.64-0.725-0.932c-0.541-0.59-1.732-1.795-2.625-1.595c-0.961,0.215-0.543,1.832-0.491,2.504
			c0.099,1.266,0.271,2.529,0.57,3.765c-1.291,0.126-2.54,0.435-3.72,0.986c-1.236,0.577-1.671,0.958-0.557,1.961
			c2.452,2.207,5.188,4.362,8.638,4.394c0.004,0.003,0.008,0.007,0.013,0.011c0.043,0.035,0.087,0.056,0.131,0.065
			c0.089,0.063,0.215,0.079,0.324,0.043c0.177-0.012,0.356-0.076,0.532-0.17c3.854-0.76,7.224-2.965,10.351-5.237
			C47.238,227.234,45.633,226.702,44.639,226.532z"/>
		<path fill="#7297D3" d="M44.639,226.532c-0.956-0.162-1.947-0.107-2.875,0.166c-0.112,0.033-0.247,0.067-0.388,0.108
			c0.542-1.46,0.857-3.021,1.25-4.544c0.066-0.258-0.192-0.532-0.456-0.393c-1.141,0.602-2.208,1.308-3.194,2.105
			c-0.182-2.379-1.689-4.592-2.762-6.654c-0.11-0.212-0.428-0.246-0.562-0.037c-1.016,1.586-1.739,3.287-2.167,5.108
			c-0.219-0.326-0.458-0.64-0.725-0.932c-0.541-0.59-1.732-1.795-2.625-1.595c-0.961,0.215-0.543,1.832-0.491,2.504
			c0.099,1.266,0.271,2.529,0.57,3.765c-1.291,0.126-2.54,0.435-3.72,0.986c-1.236,0.577-1.671,0.958-0.557,1.961
			c2.452,2.208,5.188,4.362,8.638,4.394c0.004,0.003,0.008,0.007,0.013,0.011c0.043,0.035,0.087,0.056,0.131,0.065
			c0.089,0.063,0.215,0.079,0.324,0.043c0.177-0.012,0.356-0.076,0.532-0.17c3.854-0.76,7.224-2.965,10.351-5.237
			C47.238,227.234,45.633,226.702,44.639,226.532z M27.871,229.911c-0.516-0.424-1.179-0.863-1.592-1.388
			c-0.233-0.298-0.339-0.18-0.104-0.511c0.125-0.178,0.583-0.298,0.771-0.382c1.089-0.487,2.247-0.766,3.435-0.866
			c0.012,0.042,0.022,0.085,0.035,0.127c0.466,1.605,1.175,3.114,2.15,4.441c-1.467-0.715-2.759-1.731-3.804-3.013
			c-0.06-0.072-0.312,0.002-0.247,0.083c1.164,1.425,2.629,2.529,4.302,3.257c0.307,0.391,0.634,0.767,0.992,1.119
			C31.567,232.526,29.612,231.341,27.871,229.911z M34.845,232.445c-1.03-2.844-1.999-5.71-2.905-8.596
			c-0.037-0.118-0.299-0.067-0.263,0.047c0.919,2.928,1.902,5.835,2.95,8.72c0.019,0.052,0.08,0.069,0.139,0.064
			c-0.021,0.019-0.043,0.035-0.059,0.061c-0.293-0.257-0.566-0.532-0.828-0.816c0.013-0.021,0.006-0.043-0.039-0.059
			c-0.008-0.003-0.016-0.007-0.024-0.01c-1.08-1.191-1.891-2.601-2.447-4.118c-0.166-0.452-0.303-0.914-0.426-1.38
			c-0.003-0.047-0.014-0.093-0.036-0.132c-0.159-0.625-0.288-1.258-0.387-1.894c-0.089-0.568-0.157-1.14-0.207-1.712
			c-0.032-0.354-0.054-0.709-0.074-1.064c-0.021-0.38-0.195-0.703,0.225-0.825c0.898-0.26,2.195,1.552,2.599,2.188
			c0.603,0.949,0.99,2.016,1.267,3.097c0.209,0.82,0.414,1.692,0.552,2.577c-0.005,0.049,0.003,0.097,0.021,0.14
			C35.086,229.983,35.125,231.255,34.845,232.445z M35.67,227.282c0-0.085-0.001-0.171-0.002-0.256
			c-0.002-0.333,0-0.666,0.006-0.999c0.01-0.512,0.028-1.024,0.057-1.535c0.057-1.023,0.155-2.043,0.284-3.06
			c0.018-0.137-0.247-0.125-0.262-0.005c-0.151,1.186-0.258,2.376-0.31,3.57c-0.022,0.521-0.035,1.041-0.038,1.562
			c-0.002,0.245-0.058,0.592-0.027,0.885c-0.205-0.985-0.481-1.939-0.783-2.8c-0.173-0.492-0.381-0.974-0.624-1.437
			c0.355-1.816,0.996-3.506,1.935-5.09c1.078,1.974,2.469,4.132,2.437,6.393c-0.979,0.863-1.864,1.829-2.655,2.879
			C35.686,227.355,35.681,227.319,35.67,227.282z M35.447,232.747c0.094-0.362,0.159-0.736,0.204-1.116
			c1.483-1.688,2.826-3.488,4.019-5.394c0.08-0.126-0.18-0.158-0.244-0.056c-1.115,1.779-2.365,3.462-3.735,5.051
			c0.062-0.845,0.018-1.721-0.101-2.59c0.909-1.357,1.975-2.577,3.181-3.644c0.086-0.022,0.161-0.079,0.198-0.17
			c0.882-0.758,1.835-1.436,2.856-2.024c-0.347,1.461-0.659,2.99-1.256,4.37c-0.112,0.092-0.197,0.203-0.235,0.339
			c-0.015,0.053-0.016,0.113-0.004,0.171c-0.157,0.311-0.33,0.612-0.526,0.901c-0.619,0.91-1.397,1.698-2.23,2.416
			c-0.365,0.315-0.743,0.617-1.125,0.911C36.328,232.004,35.826,232.463,35.447,232.747z M45.214,227.899
			c-0.235,0.166-0.471,0.332-0.708,0.497c-0.642,0.447-1.289,0.887-1.949,1.308c-1.805,1.15-3.703,2.147-5.747,2.751
			c0.022-0.019,0.045-0.037,0.067-0.054c0.543-0.418,1.074-0.854,1.578-1.317c1.451-1.062,2.959-2.038,4.524-2.925
			c0.116-0.065-0.143-0.067-0.198-0.035c-1.255,0.71-2.472,1.479-3.654,2.303c0.198-0.206,0.392-0.418,0.576-0.638
			c0.495-0.589,0.885-1.225,1.208-1.89c0.058-0.035,0.103-0.088,0.119-0.161c0.004-0.02,0.009-0.039,0.013-0.058
			c0.006-0.026,0.009-0.053,0.009-0.077c0.004-0.009,0.007-0.018,0.011-0.025c0.427-0.325,1.891-0.472,2.219-0.486
			c0.606-0.027,1.695-0.047,2.198,0.326c0.098,0.027,0.197,0.055,0.295,0.083C45.589,227.633,45.401,227.766,45.214,227.899z"/>
	</g>
	<g>
		<g>
			<path fill="#F5F9FF" d="M161.21,201.671c-1.53-0.309-3.128-0.27-4.635,0.124c-0.182,0.048-0.399,0.097-0.629,0.155
				c0.945-2.322,1.529-4.817,2.236-7.25c0.12-0.411-0.282-0.865-0.713-0.654c-1.866,0.912-3.618,1.994-5.245,3.23
				c-0.176-3.838-2.491-7.475-4.115-10.847c-0.167-0.347-0.678-0.416-0.902-0.088c-1.714,2.503-2.962,5.204-3.741,8.115
				c-0.336-0.536-0.705-1.053-1.121-1.535c-0.841-0.977-2.699-2.975-4.146-2.697c-1.558,0.298-0.964,2.921-0.914,4.005
				c0.096,2.043,0.31,4.085,0.731,6.088c-2.083,0.138-4.108,0.574-6.034,1.403c-2.018,0.868-2.737,1.459-0.995,3.128
				c3.837,3.674,8.132,7.276,13.685,7.497c0.006,0.006,0.013,0.013,0.02,0.019c0.068,0.06,0.139,0.095,0.207,0.111
				c0.14,0.107,0.342,0.139,0.52,0.086c0.285-0.01,0.576-0.104,0.863-0.248c6.241-1.03,11.772-4.413,16.917-7.915
				C165.357,202.93,162.802,201.994,161.21,201.671z"/>
			<path fill="#7297D3" d="M161.21,201.671c-1.53-0.309-3.128-0.27-4.635,0.124c-0.182,0.048-0.399,0.097-0.629,0.156
				c0.945-2.323,1.529-4.818,2.236-7.251c0.12-0.411-0.282-0.865-0.713-0.654c-1.866,0.912-3.618,1.994-5.245,3.23
				c-0.176-3.838-2.491-7.475-4.115-10.847c-0.167-0.347-0.678-0.416-0.902-0.088c-1.714,2.503-2.962,5.204-3.741,8.115
				c-0.336-0.536-0.705-1.052-1.121-1.535c-0.841-0.977-2.699-2.975-4.146-2.697c-1.558,0.298-0.964,2.921-0.914,4.005
				c0.096,2.043,0.31,4.085,0.731,6.088c-2.083,0.138-4.108,0.574-6.034,1.403c-2.018,0.868-2.737,1.459-0.995,3.128
				c3.837,3.674,8.132,7.276,13.685,7.497c0.007,0.006,0.013,0.013,0.02,0.019c0.068,0.06,0.139,0.095,0.207,0.111
				c0.14,0.107,0.342,0.139,0.52,0.086c0.285-0.01,0.576-0.104,0.863-0.248c6.241-1.03,11.772-4.413,16.917-7.915
				C165.357,202.93,162.802,201.994,161.21,201.671z M134.057,206.279c-0.81-0.707-1.855-1.447-2.494-2.312
				c-0.361-0.49-0.537-0.305-0.143-0.827c0.21-0.278,0.954-0.45,1.259-0.576c1.777-0.73,3.654-1.12,5.57-1.224
				c0.017,0.068,0.032,0.138,0.049,0.206c0.671,2.607,1.738,5.07,3.24,7.253c-2.326-1.222-4.354-2.922-5.973-5.035
				c-0.093-0.12-0.503-0.012-0.402,0.12c1.802,2.352,4.106,4.201,6.761,5.456c0.475,0.643,0.983,1.265,1.541,1.85
				C139.877,210.671,136.789,208.667,134.057,206.279z M145.155,210.702c-1.517-4.628-2.934-9.287-4.249-13.976
				c-0.054-0.193-0.478-0.124-0.426,0.062c1.334,4.758,2.772,9.484,4.315,14.179c0.027,0.085,0.125,0.115,0.221,0.11
				c-0.034,0.029-0.071,0.055-0.099,0.095c-0.459-0.428-0.884-0.885-1.291-1.354c0.021-0.034,0.012-0.069-0.06-0.097
				c-0.013-0.005-0.025-0.012-0.039-0.017c-1.678-1.971-2.915-4.279-3.734-6.748c-0.244-0.736-0.442-1.486-0.616-2.242
				c-0.002-0.076-0.019-0.149-0.051-0.213c-0.226-1.015-0.401-2.04-0.529-3.068c-0.115-0.918-0.196-1.841-0.249-2.765
				c-0.033-0.571-0.052-1.144-0.066-1.716c-0.015-0.612-0.279-1.142,0.403-1.316c1.459-0.374,3.456,2.605,4.074,3.648
				c0.922,1.557,1.494,3.292,1.885,5.047c0.297,1.329,0.583,2.742,0.761,4.174c-0.011,0.079,0,0.155,0.026,0.226
				C145.666,206.752,145.665,208.802,145.155,210.702z M146.739,202.434c0.003-0.138,0.006-0.274,0.009-0.412
				c0.014-0.536,0.032-1.071,0.059-1.607c0.041-0.823,0.097-1.646,0.167-2.468c0.143-1.644,0.351-3.28,0.609-4.909
				c0.035-0.22-0.392-0.215-0.422-0.021c-0.302,1.901-0.533,3.812-0.675,5.731c-0.062,0.836-0.108,1.674-0.139,2.512
				c-0.015,0.395-0.123,0.95-0.086,1.424c-0.282-1.597-0.679-3.146-1.123-4.546c-0.254-0.801-0.563-1.586-0.932-2.342
				c0.661-2.906,1.775-5.594,3.366-8.095c1.637,3.229,3.769,6.771,3.605,10.406c-1.617,1.342-3.09,2.852-4.415,4.502
				C146.762,202.552,146.754,202.495,146.739,202.434z M146.109,211.217c0.17-0.578,0.293-1.176,0.383-1.786
				c2.471-2.644,4.72-5.474,6.734-8.48c0.134-0.199-0.281-0.263-0.39-0.102c-1.882,2.808-3.978,5.454-6.261,7.943
				c0.142-1.357,0.113-2.769-0.035-4.173c1.53-2.14,3.306-4.051,5.3-5.706c0.141-0.032,0.263-0.12,0.327-0.264
				c1.457-1.176,3.024-2.22,4.697-3.117c-0.631,2.334-1.208,4.78-2.238,6.971c-0.185,0.143-0.327,0.317-0.396,0.533
				c-0.026,0.085-0.03,0.182-0.014,0.275c-0.268,0.492-0.562,0.97-0.891,1.424c-1.041,1.436-2.334,2.664-3.71,3.779
				c-0.604,0.489-1.227,0.955-1.856,1.41C147.564,210.068,146.733,210.782,146.109,211.217z M162.068,203.9
				c-0.388,0.256-0.775,0.512-1.164,0.765c-1.055,0.688-2.117,1.363-3.2,2.008c-2.963,1.762-6.065,3.272-9.386,4.143
				c0.038-0.028,0.075-0.058,0.111-0.083c0.894-0.646,1.77-1.32,2.604-2.041c2.388-1.639,4.863-3.135,7.426-4.484
				c0.189-0.1-0.226-0.114-0.316-0.066c-2.055,1.082-4.052,2.26-5.994,3.526c0.329-0.322,0.65-0.653,0.959-0.998
				c0.826-0.923,1.484-1.927,2.037-2.982c0.094-0.053,0.169-0.135,0.199-0.253c0.008-0.031,0.016-0.062,0.023-0.092
				c0.012-0.043,0.017-0.084,0.019-0.124c0.006-0.013,0.012-0.027,0.019-0.04c0.703-0.502,3.066-0.666,3.596-0.674
				c0.977-0.014,2.73,0.01,3.521,0.635c0.157,0.049,0.313,0.099,0.471,0.148C162.685,203.491,162.376,203.696,162.068,203.9z"/>
		</g>
		<g>
			<path fill="#F5F9FF" d="M146.917,199.187c-1.229,0.189-2.411,0.658-3.428,1.367c-0.123,0.085-0.272,0.182-0.427,0.289
				c0.067-1.995-0.183-4.02-0.324-6.031c-0.024-0.34-0.449-0.569-0.713-0.293c-1.143,1.194-2.154,2.485-3.029,3.855
				c-1.187-2.818-3.916-4.897-6.057-6.97c-0.22-0.213-0.621-0.125-0.698,0.183c-0.592,2.341-0.781,4.702-0.562,7.09
				c-0.398-0.308-0.816-0.592-1.259-0.838c-0.897-0.498-2.834-1.479-3.839-0.875c-1.082,0.651,0.083,2.448,0.419,3.243
				c0.633,1.499,1.354,2.966,2.22,4.347c-1.518,0.676-2.911,1.559-4.122,2.708c-1.269,1.203-1.644,1.843,0.117,2.609
				c3.876,1.689,8.076,3.199,12.284,1.837c0.007,0.003,0.013,0.006,0.02,0.008c0.068,0.026,0.129,0.033,0.186,0.026
				c0.134,0.042,0.293,0.01,0.412-0.079c0.21-0.085,0.401-0.236,0.577-0.422c4.378-2.486,7.58-6.534,10.459-10.564
				C150.361,198.986,148.194,198.989,146.917,199.187z"/>
			<path fill="#7297D3" d="M146.917,199.187c-1.229,0.189-2.411,0.658-3.428,1.367c-0.123,0.085-0.272,0.182-0.427,0.289
				c0.067-1.995-0.183-4.02-0.324-6.031c-0.024-0.34-0.449-0.569-0.713-0.293c-1.143,1.194-2.154,2.485-3.029,3.855
				c-1.187-2.818-3.916-4.897-6.057-6.97c-0.22-0.213-0.621-0.125-0.698,0.183c-0.592,2.341-0.781,4.702-0.562,7.09
				c-0.398-0.308-0.816-0.592-1.26-0.838c-0.897-0.498-2.834-1.479-3.839-0.875c-1.082,0.651,0.083,2.448,0.419,3.243
				c0.633,1.499,1.354,2.966,2.22,4.347c-1.518,0.676-2.911,1.559-4.122,2.708c-1.269,1.203-1.644,1.843,0.117,2.609
				c3.876,1.689,8.076,3.199,12.284,1.837c0.007,0.003,0.013,0.006,0.02,0.008c0.068,0.026,0.129,0.033,0.186,0.026
				c0.134,0.042,0.293,0.01,0.412-0.079c0.21-0.085,0.401-0.236,0.577-0.422c4.378-2.486,7.58-6.534,10.459-10.564
				C150.361,198.986,148.194,198.989,146.917,199.187z M127.902,210.096c-0.8-0.306-1.784-0.571-2.499-1.042
				c-0.404-0.267-0.485-0.08-0.334-0.578c0.08-0.267,0.588-0.6,0.782-0.777c1.126-1.034,2.421-1.841,3.824-2.446
				c0.032,0.047,0.062,0.095,0.093,0.141c1.219,1.763,2.693,3.31,4.416,4.527c-2.074-0.273-4.056-0.986-5.846-2.119
				c-0.103-0.064-0.379,0.129-0.267,0.2c1.993,1.261,4.222,2.009,6.551,2.216c0.532,0.35,1.082,0.674,1.66,0.958
				C133.458,211.776,130.599,211.128,127.902,210.096z M137.409,210.347c-2.406-3.039-4.746-6.13-7.018-9.271
				c-0.093-0.129-0.391,0.039-0.301,0.164c2.305,3.187,4.679,6.322,7.123,9.404c0.044,0.056,0.125,0.051,0.196,0.021
				c-0.018,0.031-0.039,0.061-0.048,0.098c-0.46-0.193-0.903-0.417-1.337-0.656c0.006-0.031-0.01-0.056-0.071-0.057
				c-0.011,0-0.022-0.001-0.033-0.001c-1.795-1.011-3.354-2.396-4.645-4.015c-0.385-0.482-0.739-0.988-1.077-1.505
				c-0.022-0.056-0.055-0.106-0.097-0.146c-0.448-0.695-0.86-1.413-1.239-2.146c-0.338-0.654-0.653-1.321-0.946-1.997
				c-0.182-0.418-0.354-0.84-0.521-1.264c-0.18-0.453-0.523-0.775-0.062-1.094c0.987-0.681,3.298,0.996,4.046,1.604
				c1.117,0.91,2.021,2.049,2.796,3.252c0.587,0.911,1.189,1.889,1.716,2.908c0.014,0.062,0.042,0.116,0.082,0.161
				C136.704,207.256,137.267,208.789,137.409,210.347z M136.318,203.736c-0.036-0.104-0.071-0.207-0.107-0.311
				c-0.138-0.403-0.271-0.81-0.398-1.216c-0.196-0.627-0.381-1.257-0.554-1.89c-0.346-1.268-0.641-2.547-0.896-3.835
				c-0.034-0.174-0.351-0.053-0.321,0.101c0.297,1.503,0.65,2.993,1.072,4.467c0.184,0.642,0.38,1.279,0.587,1.914
				c0.098,0.299,0.169,0.743,0.327,1.087c-0.65-1.115-1.373-2.164-2.089-3.087c-0.41-0.528-0.857-1.029-1.34-1.493
				c-0.306-2.353-0.212-4.666,0.289-6.973c2.11,1.962,4.677,4.022,5.555,6.782c-0.839,1.447-1.524,2.979-2.06,4.577
				C136.367,203.818,136.346,203.777,136.318,203.736z M138.263,210.47c-0.032-0.479-0.104-0.96-0.205-1.44
				c1.119-2.654,2.02-5.387,2.698-8.187c0.045-0.186-0.283-0.119-0.319,0.031c-0.633,2.615-1.471,5.168-2.492,7.656
				c-0.267-1.053-0.677-2.1-1.173-3.108c0.554-2.019,1.355-3.935,2.389-5.719c0.096-0.063,0.163-0.163,0.172-0.288
				c0.765-1.278,1.649-2.489,2.651-3.62c0.171,1.917,0.413,3.903,0.245,5.822c-0.099,0.158-0.157,0.327-0.148,0.508
				c0.003,0.07,0.027,0.144,0.065,0.209c-0.064,0.441-0.152,0.879-0.273,1.31c-0.383,1.358-1.011,2.631-1.731,3.843
				c-0.316,0.531-0.653,1.051-0.999,1.563C139.033,209.21,138.609,209.972,138.263,210.47z M148.171,200.615
				c-0.219,0.298-0.438,0.595-0.659,0.892c-0.599,0.804-1.207,1.601-1.838,2.38c-1.729,2.131-3.631,4.112-5.872,5.676
				c0.02-0.032,0.041-0.063,0.06-0.093c0.49-0.729,0.959-1.473,1.383-2.241c1.333-1.881,2.771-3.679,4.314-5.392
				c0.114-0.126-0.2-0.023-0.255,0.038c-1.237,1.372-2.405,2.802-3.508,4.282c0.158-0.331,0.307-0.667,0.442-1.009
				c0.363-0.917,0.579-1.849,0.702-2.788c0.056-0.066,0.089-0.147,0.079-0.244c-0.002-0.025-0.005-0.051-0.007-0.075
				c-0.003-0.035-0.011-0.067-0.021-0.098c0.001-0.012,0.002-0.023,0.003-0.035c0.388-0.568,2.108-1.341,2.501-1.491
				c0.726-0.279,2.042-0.745,2.805-0.496c0.131-0.006,0.262-0.012,0.393-0.019C148.52,200.14,148.345,200.377,148.171,200.615z"/>
		</g>
	</g>
	<g>
		<g>
			<path fill="#F8FBFF" d="M209.178,188.192c-0.784,5.312-3.793,10.112-8.24,13.141c-0.162-0.042-0.324,0.024-0.431,0.135
				c-1.35-0.546-1.974-2.191-2.773-3.354c-0.658-0.958-1.447-1.537-2.506-1.998c-0.205-0.089-0.414-0.176-0.621-0.268
				C200.014,194.493,204.996,191.871,209.178,188.192z"/>
			<path fill="#F8FBFF" d="M167.092,190.735c-0.197-2.758-0.124-6.301,1.38-8.76c0.22,0.617,0.147,1.785,0.202,2.228
				c0.072,0.582,0.171,1.159,0.302,1.73c0.301,1.304,0.775,2.59,1.478,3.734c1.176,1.919,2.948,3.383,5.104,4.023
				c-1.696,1.425-3.127,3.13-4.241,5.021C168.578,196.991,167.315,193.877,167.092,190.735z"/>
			<path fill="#F8FBFF" d="M199.973,209.835c-0.582,0.88-1.616,2.592-2.629,3.059c-1.051,0.484-1.444-0.553-2.41-0.417
				c-1.827,0.259-1.668,2.802-2.265,4.034c-1.085,2.245-3.36,4.057-5.216,5.652c-0.629,0.541-2.786,2.833-3.501,2.202
				c-0.07-0.062-0.145-0.59-0.223-0.719c-0.128-0.211-0.313-0.385-0.516-0.523c-1.06-0.731-2.452-0.323-3.234,0.593
				c-0.56,0.653-0.809,1.479-1.07,2.279c-0.34,1.04-0.623,1.229-1.758,1.322c-0.688,0.057-1.423-0.033-2.113-0.049
				c-1.367-0.031-2.742-0.023-4.107-0.097c-0.778-0.042-2.616-0.463-3.153-1.322c0.043-0.058,0.073-0.129,0.082-0.215
				c0.04-0.424,0.118-0.836,0.218-1.241c0.004-0.004,0.006-0.008,0.01-0.012c0.109-0.121,0.129-0.261,0.094-0.384
				c0.633-2.217,1.915-4.243,2.177-6.567c0.337-2.991-1.021-5.924-0.984-8.936c0.07-5.687,2.794-11.143,7.264-14.641
				c0.128-0.1,0.16-0.224,0.133-0.338c1.042-0.832,2.292-1.317,3.645-1.355c1.388-0.039,2.453,0.528,3.692,1.037
				c2.191,0.901,4.546-0.083,6.714,0.674c1.136,0.396,1.567,1.588,2.524,2.229c1.178,0.789,2.544,0.974,3.467,2.146
				c1.263,1.603,1.938,3.842,4.15,4.181C202.851,204.563,201.359,207.743,199.973,209.835z"/>
			<path fill="#7297D3" d="M210.121,187.156c0.034-0.373-0.46-0.513-0.698-0.289c-4.452,4.173-9.905,7.051-15.857,8.39
				c-0.068-0.055-0.136-0.112-0.2-0.174c-0.457-0.439-0.739-1.009-1.237-1.411c-0.734-0.594-1.67-0.789-2.593-0.837
				c-1.253-0.065-2.512,0.153-3.76-0.018c-1.324-0.181-2.415-1.005-3.705-1.305c-2.126-0.495-4.312,0.116-5.964,1.49
				c-0.02-0.008-0.039-0.017-0.062-0.022c-2.918-0.762-4.946-3.124-5.898-5.912c-0.471-1.38-0.688-2.82-0.78-4.272
				c-0.049-0.759-0.022-1.427-0.711-1.872c-0.199-0.13-0.433-0.024-0.56,0.146c-2.058,2.774-2.151,7.358-1.725,10.639
				c0.404,3.101,1.843,6.037,4.542,7.719c-1.292,2.415-2.09,5.097-2.305,7.855c-0.102,1.316-0.062,2.64,0.117,3.947
				c0.253,1.838,0.919,3.646,0.86,5.518c-0.081,2.567-1.533,4.798-2.222,7.232c-0.672,0.914-0.496,2.158,0.319,2.982
				c1.334,1.349,3.802,1.043,5.506,1.082c1.32,0.031,2.642,0.069,3.962,0.092c0.689,0.012,1.418,0.092,1.926-0.467
				c0.526-0.58,0.596-1.503,0.864-2.205c0.251-0.654,0.575-1.274,1.191-1.637c0.349-0.206,0.617-0.29,1.027-0.223
				c0.754,0.123,0.753,0.416,0.989,1.139c0.489,1.494,1.688,0.555,2.582-0.132c1.939-1.491,3.799-3.106,5.502-4.865
				c1.505-1.554,2.296-3.018,2.825-5.094c0.06-0.235,0.127-0.643,0.283-0.829c1.351-1.609,0.995-0.309,1.519-0.074
				c0.18,0.081,0.319,0.238,0.515,0.293c0.827,0.229,1.531-0.535,2.048-1.046c2.477-2.447,6.044-7.682,3.287-10.964
				c-0.008-0.069-0.03-0.138-0.068-0.197C206.467,198.432,209.579,193.059,210.121,187.156z M167.092,190.735
				c-0.197-2.758-0.124-6.301,1.38-8.76c0.22,0.617,0.147,1.785,0.202,2.228c0.072,0.582,0.171,1.159,0.302,1.73
				c0.301,1.304,0.775,2.59,1.478,3.734c1.176,1.919,2.948,3.383,5.104,4.023c-1.696,1.425-3.127,3.13-4.241,5.021
				C168.578,196.991,167.315,193.877,167.092,190.735z M199.973,209.835c-0.582,0.88-1.616,2.592-2.629,3.059
				c-1.051,0.484-1.444-0.553-2.41-0.417c-1.827,0.259-1.668,2.802-2.265,4.034c-1.085,2.245-3.36,4.057-5.216,5.652
				c-0.629,0.541-2.786,2.833-3.501,2.202c-0.07-0.062-0.145-0.59-0.223-0.719c-0.128-0.211-0.313-0.385-0.516-0.523
				c-1.06-0.731-2.452-0.323-3.234,0.593c-0.56,0.653-0.809,1.479-1.07,2.279c-0.2,0.613-0.386,0.926-0.732,1.103
				c-0.055-0.06-0.204-0.092-0.336-0.042c-0.43-0.095-0.86-0.19-1.29-0.286c-0.011-0.287-0.01-0.575,0.005-0.862
				c-0.022-0.389,0.042-0.026-0.054-0.575c-0.031-0.178-0.558-0.053-0.525,0.141c0.007,0.228,0.013,0.454,0.02,0.682
				c0,0.001,0,0.001,0,0.002c-0.743,1.134-1.341,1.289-1.793,0.464c-0.464-0.543-0.372-0.669-0.356-1.35
				c0.005-0.222-0.481-0.096-0.525,0.066c-0.198,0.725-0.604,2.143-1.766,1.738c-0.988-0.345-0.461-1.35-0.247-2.004
				c0.073-0.222-0.445-0.04-0.507,0.028c-0.212,0.237-0.209,0.527-0.383,0.748c-0.972,1.237-1.754,1.089-2.339-0.086
				c-0.034-0.069-0.132-0.086-0.233-0.073c0.004-0.018,0.011-0.034,0.013-0.054c0.04-0.424,0.118-0.836,0.218-1.241
				c0.004-0.004,0.006-0.008,0.01-0.012c0.109-0.121,0.129-0.261,0.094-0.384c0.633-2.217,1.915-4.243,2.177-6.567
				c0.337-2.991-1.021-5.924-0.984-8.936c0.07-5.687,2.794-11.143,7.264-14.641c0.128-0.1,0.16-0.224,0.133-0.338
				c1.042-0.832,2.292-1.317,3.645-1.355c1.388-0.039,2.453,0.528,3.692,1.037c2.191,0.901,4.546-0.083,6.714,0.674
				c1.136,0.396,1.567,1.588,2.524,2.229c1.178,0.789,2.544,0.974,3.467,2.146c1.263,1.603,1.938,3.842,4.15,4.181
				C202.851,204.563,201.359,207.743,199.973,209.835z M200.938,201.333c-0.162-0.042-0.324,0.024-0.431,0.135
				c-1.35-0.546-1.974-2.191-2.773-3.354c-0.658-0.958-1.447-1.537-2.506-1.998c-0.205-0.089-0.414-0.176-0.621-0.268
				c5.407-1.354,10.39-3.977,14.571-7.655C208.394,193.503,205.385,198.304,200.938,201.333z"/>
			<path fill="#7297D3" d="M192.521,204.287c-0.148-2.893-2.398-5.304-5.382-5.304c-2.934,0-5.389,2.455-5.389,5.389
				c0,2.925,2.456,5.398,5.389,5.388c2.983-0.01,5.232-2.403,5.382-5.303c0.005-0.026,0.008-0.055,0.007-0.085
				C192.529,204.34,192.526,204.313,192.521,204.287z M188.228,206.125c0.354-0.605,0.567-1.301,0.627-2.02
				c0.009-0.103-0.015-0.184-0.057-0.245c0.031-0.133,0.062-0.268,0.091-0.402c0.024,1.028-0.222,2.056-0.765,2.982
				C188.16,206.335,188.194,206.23,188.228,206.125z M187.14,199.665c0.202,0,0.398,0.017,0.592,0.041
				c-0.048,0.103-0.048,0.226,0.039,0.353c0.019,0.027,0.034,0.056,0.053,0.083c-0.045,0.039-0.077,0.09-0.098,0.147
				c-0.191-0.279-0.441-0.5-0.771-0.614C187.017,199.671,187.077,199.665,187.14,199.665z M187.349,205.918
				c0.004,0.003,0.008,0.006,0.011,0.008c-0.022,0.065-0.045,0.13-0.067,0.192c-0.121,0.166-0.257,0.317-0.406,0.446
				C187.045,206.352,187.199,206.136,187.349,205.918z M183.438,203.069c-0.021,0.069-0.043,0.139-0.064,0.208
				c-0.062,0.066-0.104,0.153-0.109,0.26c-0.001,0.013,0,0.024,0,0.037c-0.002,0.004-0.004,0.009-0.005,0.013
				c-0.041-0.004-0.08-0.006-0.117-0.005c0.085-0.187,0.189-0.365,0.307-0.538C183.445,203.052,183.44,203.06,183.438,203.069z
				 M182.862,202.44c0.371-0.806,0.962-1.494,1.694-1.984C183.882,201.057,183.3,201.848,182.862,202.44z M184.867,201.448
				c-0.01,0.001-0.019,0.005-0.028,0.006c0.077-0.082,0.164-0.161,0.257-0.234c0.005,0.056,0.01,0.111,0.016,0.168
				c-0.034,0.02-0.067,0.04-0.101,0.062C184.964,201.442,184.917,201.44,184.867,201.448z M185.394,208.33
				c-0.119-0.042-0.235-0.098-0.349-0.165c0.056-0.064,0.095-0.145,0.107-0.231c0.094,0.004,0.188-0.001,0.285-0.018
				c-0.016,0.088-0.03,0.177-0.046,0.265C185.383,208.231,185.386,208.281,185.394,208.33z M186.825,209.061
				c1.219-0.64,2.197-2.362,2.565-3.428c0.668-1.935,0.327-4.006-0.735-5.713c0.485,0.167,0.93,0.415,1.324,0.725
				c-0.006,0.037-0.006,0.078,0.008,0.124c0.816,2.721,0.375,5.546-1.222,7.894c-0.031,0.046-0.044,0.092-0.046,0.136
				c-0.489,0.177-1.019,0.279-1.58,0.279C187.033,209.078,186.93,209.069,186.825,209.061z M189.593,208.371
				c1.256-2.139,1.642-4.616,1.104-7.034c0.688,0.823,1.107,1.886,1.149,3.035C191.784,206.045,190.919,207.536,189.593,208.371z"/>
		</g>
		<path fill="#7B9FD6" d="M186.509,211.64c-3.631-0.903-5.963-4.124-5.728-7.854c0.016-0.25-0.517-0.162-0.529,0.051
			c-0.245,3.877,2.181,7.192,5.945,8.129C186.4,212.017,186.819,211.717,186.509,211.64z"/>
		<path fill="#7B9FD6" d="M190.388,215.918c-0.727,0.818-1.25,1.759-1.849,2.667c-0.832,1.262-1.881,2.112-3.126,2.943
			c-0.215,0.144,0.307,0.077,0.401,0.014c0.951-0.635,1.889-1.288,2.618-2.181c0.9-1.103,1.481-2.415,2.431-3.484
			C190.967,215.76,190.473,215.824,190.388,215.918z"/>
		<path fill="#7B9FD6" d="M193.661,212.067c-0.111-0.032-0.285,0.026-0.371,0.101c-0.194,0.166-0.389,0.332-0.583,0.498
			c-0.087,0.075-0.052,0.145,0.047,0.174c0.112,0.032,0.285-0.026,0.372-0.1c0.193-0.167,0.388-0.333,0.582-0.499
			C193.796,212.166,193.76,212.096,193.661,212.067z"/>
		<path fill="#7B9FD6" d="M199.807,208.004c-0.354,1.364-1.12,2.521-2.244,3.373c-0.232,0.176,0.291,0.17,0.418,0.074
			c1.168-0.885,1.982-2.099,2.351-3.518C200.377,207.756,199.851,207.833,199.807,208.004z"/>
		<path fill="#7297D3" d="M176.133,219.798c-0.44-0.973-0.622-1.926-0.635-2.995c-0.008-0.666,0.18-1.541-0.188-2.147
			c-0.407-0.673-1.327-0.755-1.996-0.468c-1.035,0.443-1.36,1.567-1.522,2.586c-0.328,2.075-0.768,3.894-1.853,5.67
			c-0.091-0.017-0.2-0.007-0.273,0.039c-0.661,0.409-0.321,1.078,0.337,1.258c1.448,0.397,2.906-0.423,4.297-0.275
			c0.879,0.093,1.766,1.023,2.566,0.082C177.786,222.465,176.589,220.803,176.133,219.798z"/>
		<path fill="#7B9FD6" d="M170.588,195.783c-1.407-1.129-2.089-2.866-1.817-4.649c0.02-0.125-0.499-0.035-0.519,0.093
			c-0.278,1.822,0.402,3.582,1.841,4.736C170.205,196.052,170.667,195.846,170.588,195.783z"/>
		<path fill="#7B9FD6" d="M200.225,199.045c-1.341-0.596-1.588-2.718-3.204-2.804c-0.123-0.007-0.603,0.215-0.337,0.229
			c1.464,0.078,1.845,2.226,3.112,2.788C199.916,199.313,200.395,199.121,200.225,199.045z"/>
		<path fill="#7B9FD6" d="M180.995,210.147c-0.869-1.177-1.4-2.485-1.607-3.931c-0.03-0.213-0.559-0.086-0.525,0.141
			c0.21,1.47,0.767,2.816,1.648,4.01C180.636,210.536,181.141,210.344,180.995,210.147z"/>
		<path fill="#7B9FD6" d="M175.437,211.383l-0.173-0.173c-0.114-0.114-0.607,0.078-0.491,0.194c0.058,0.058,0.115,0.115,0.173,0.173
			C175.06,211.692,175.554,211.5,175.437,211.383z"/>
		<path fill="#7B9FD6" d="M178.052,219.492c-0.684-0.807-1.052-1.768-1.06-2.826c-0.002-0.289-0.536-0.223-0.534,0.032
			c0.009,1.128,0.385,2.172,1.114,3.033C177.737,219.925,178.234,219.707,178.052,219.492z"/>
		<path fill="#7B9FD6" d="M175.521,197.164c-2.797,2.88-4.655,6.432-5.423,10.373c-0.007,0.033,0.496,0.012,0.525-0.141
			c0.759-3.897,2.604-7.436,5.37-10.284C176.09,197.014,175.606,197.076,175.521,197.164z"/>
		<path fill="#7B9FD6" d="M183.536,194.3c-1.004-0.691-2.172-0.947-3.376-0.784c-0.129,0.018-0.569,0.244-0.231,0.198
			c1.12-0.152,2.185,0.123,3.111,0.761C183.157,194.555,183.598,194.342,183.536,194.3z"/>
		<path fill="#7B9FD6" d="M205.834,193.809c-0.642,0.805-1.283,1.609-1.925,2.414c-0.15,0.189,0.379,0.163,0.492,0.021
			c0.642-0.805,1.283-1.609,1.925-2.414C206.477,193.641,205.947,193.667,205.834,193.809z"/>
		<path fill="#7B9FD6" d="M200.986,195.316c-0.115,0.116-0.23,0.231-0.347,0.348c-0.215,0.214,0.3,0.203,0.421,0.082
			c0.115-0.116,0.23-0.231,0.347-0.347C201.621,195.184,201.107,195.195,200.986,195.316z"/>
	</g>
</g>
</svg>
