<?xml version="1.0" encoding="utf-8"?>
<!-- Generator: Adobe Illustrator 16.0.0, SVG Export Plug-In . SVG Version: 6.00 Build 0)  -->
<!DOCTYPE svg PUBLIC "-//W3C//DTD SVG 1.1//EN" "http://www.w3.org/Graphics/SVG/1.1/DTD/svg11.dtd">
<svg version="1.1" class="logo-beta" xmlns="http://www.w3.org/2000/svg" xmlns:xlink="http://www.w3.org/1999/xlink" x="0px" y="0px"
	 width="42px" height="19.14px" viewBox="0 0 42 19.14" enable-background="new 0 0 42 19.14" xml:space="preserve">
<g class="logo-beta-word">
	<path fill="#FFFFFF" d="M0,0h4.86c2.065,0,3.48,1.081,3.48,2.953c0,1.494-0.879,2.338-2.013,2.628v0.097
		c1.538,0.176,2.654,1.222,2.654,2.936c0,2.206-1.802,3.384-4.184,3.384H0V0z M2.118,5.045h1.644c1.652,0,2.479-0.554,2.479-1.731
		c0-1.134-0.782-1.661-1.846-1.661H2.118V5.045z M2.118,10.345h1.854c1.688,0,2.839-0.396,2.839-1.819
		c0-1.266-0.879-1.925-2.259-1.925H2.118V10.345z"/>
	<path fill="#FFFFFF" d="M19.476,11.997h-7.576V0h7.576v1.775h-5.458v3.296h5.133V6.75h-5.133v3.472h5.458V11.997z"/>
	<path fill="#FFFFFF" d="M24.978,11.997V1.802h-3.48V0h9.079v1.802h-3.489v10.195H24.978z"/>
	<path fill="#FFFFFF" d="M30.473,11.997L34.568,0h2.417l4.087,11.997h-2.276l-1.02-3.234h-4.14l-1.02,3.234H30.473z M35.676,2.153
		l-1.573,4.992h3.217l-1.564-4.992H35.676z"/>
</g>
<path fill="#F34646" d="M42,18.14c0,0.552-0.47,1-1.05,1H1.05c-0.58,0-1.05-0.448-1.05-1v-2c0-0.552,0.47-1,1.05-1h39.9
	c0.58,0,1.05,0.448,1.05,1V18.14z"/>
</svg>
