<?xml version="1.0" encoding="utf-8"?>
<!-- Generator: Adobe Illustrator 16.0.0, SVG Export Plug-In . SVG Version: 6.00 Build 0)  -->
<!DOCTYPE svg PUBLIC "-//W3C//DTD SVG 1.1//EN" "http://www.w3.org/Graphics/SVG/1.1/DTD/svg11.dtd">
<svg version="1.1" class="logo-word" xmlns="http://www.w3.org/2000/svg" xmlns:xlink="http://www.w3.org/1999/xlink" x="0px" y="0px"
	 width="145.361px" height="28.775px" viewBox="0 0 145.361 28.775" enable-background="new 0 0 145.361 28.775"
	 xml:space="preserve">
<g>
	<path fill="#FBFCFD" d="M12.392,0.378h3.529l0.84,28.019h-2.983L13.232,5.041h-0.084L8.359,19.113L3.571,5.041H3.487L2.94,28.397H0
		L0.84,0.378h3.486l4.033,11.888L12.392,0.378z"/>
	<path fill="#FBFCFD" d="M25.411,2.898H21.63V0.378h10.418v2.521h-3.823v22.978h3.823v2.521H21.63v-2.521h3.781V2.898z"/>
	<path fill="#FBFCFD" d="M37.716,2.898V0.378h7.393c5.629,0,8.948,2.479,8.948,14.031c0,6.175-0.336,13.988-8.864,13.988h-7.477
		v-2.521h2.268V2.898H37.716z M42.799,25.876h2.31c3.403,0,6.007-0.882,6.007-11.468c0-10.67-2.856-11.51-5.335-11.51h-2.982V25.876
		z"/>
	<path fill="#FBFCFD" d="M62.37,2.898h-3.78V0.378h10.417v2.521h-3.823v22.978h3.823v2.521H58.59v-2.521h3.78V2.898z"/>
	<path fill="#FBFCFD" d="M74.969,0.378h3.529l8.317,23.566l0.084-0.084l-0.126-6.259V0.378h2.814v28.019h-3.528L77.741,4.789
		l-0.084,0.084l0.126,6.343v17.181h-2.814V0.378z"/>
	<path fill="#FBFCFD" d="M108.529,14.367c0,3.528,0.126,14.408-7.771,14.408c-7.981,0-7.771-10.796-7.771-14.408
		C92.986,9.746,93.28,0,100.758,0C108.655,0,108.529,10.67,108.529,14.367z M95.927,14.367c0,7.561,0.882,11.762,4.831,11.762
		c4.873,0,4.83-6.889,4.83-11.762c0-5.293,0.127-11.72-4.83-11.72S95.927,10.25,95.927,14.367z"/>
	<path fill="#FBFCFD" d="M117.892,2.898h-6.049V0.378h14.786v2.521h-5.923v25.499h-2.814V2.898z"/>
	<path fill="#FBFCFD" d="M131.708,0.378h13.653v2.521h-10.838v9.242h8.947v2.521h-8.947v11.216h10.838v2.521h-13.653V0.378z"/>
</g>
</svg>
