<?xml version="1.0" encoding="utf-8"?>
<!-- Generator: Adobe Illustrator 23.1.0, SVG Export Plug-In . SVG Version: 6.00 Build 0)  -->
<svg version="1.1" xmlns="http://www.w3.org/2000/svg" xmlns:xlink="http://www.w3.org/1999/xlink" x="0px" y="0px"
	 viewBox="0 0 500 500" style="enable-background:new 0 0 500 500;" xml:space="preserve">
<style type="text/css">
	.st0{fill:#498CF3;}
	.st1{opacity:0.7;fill:#FFFFFF;}
	.st2{display:none;}
	.st3{display:inline;fill:#73D8B4;}
	.st4{fill:#263238;}
	.st5{display:inline;fill:#48AF82;}
	.st6{display:inline;}
	.st7{fill:#73D8B4;}
	.st8{fill:#48AF82;}
	.st9{display:none;fill:#73D8B4;stroke:#3AA078;stroke-miterlimit:10;}
	.st10{display:none;fill:#73D8B4;stroke:#3AA078;stroke-linecap:round;stroke-linejoin:round;stroke-miterlimit:10;}
	.st11{display:inline;fill:#48AF82;stroke:#3FA072;stroke-linecap:round;stroke-linejoin:round;stroke-miterlimit:10;}
	.st12{fill:#48AF82;stroke:#3FA072;stroke-linecap:round;stroke-linejoin:round;stroke-miterlimit:10;}
	.st13{display:none;opacity:0.4;fill:#FFFFFD;enable-background:new    ;}
	.st14{opacity:0.4;fill:#FFFFFD;enable-background:new    ;}
	.st15{fill:none;stroke:#263238;stroke-linecap:round;stroke-linejoin:round;stroke-miterlimit:10;}
	.st16{fill:#FFFFFF;stroke:#263238;stroke-linecap:round;stroke-linejoin:round;stroke-miterlimit:10;}
	.st17{fill:#263238;stroke:#263238;stroke-linecap:round;stroke-linejoin:round;stroke-miterlimit:10;}
	.st18{fill:#1971DB;stroke:#3D74C4;stroke-linecap:round;stroke-linejoin:round;stroke-miterlimit:10;}
	.st19{fill:#73D8B4;stroke:#263238;stroke-linecap:round;stroke-linejoin:round;stroke-miterlimit:10;}
	.st20{fill:#92E3A9;stroke:#263238;stroke-linecap:round;stroke-linejoin:round;stroke-miterlimit:10;}
	.st21{fill:#D4D4D4;stroke:#263238;stroke-linecap:round;stroke-linejoin:round;stroke-miterlimit:10;}
	.st22{fill:#A8A8A8;stroke:#263238;stroke-linecap:round;stroke-linejoin:round;stroke-miterlimit:10;}
</style>
<g id="Background_Simple">
	<g>
		<path class="st0" d="M486,379.4c0,0,20.2-33.1-13.8-104.8s-64.6-71.7-106.4-114.1s-61.7-92-125.5-94.3
			c-63.8-2.3-115.9,21-124.4,68.7c-8.5,47.7-1.6,45.4-57.2,66.4C3.2,222.2,8.5,288.6,18.1,316.5c9.6,27.9,6.4,41.9,0,60.6
			c-6.4,18.6,9.6,33.8,24.5,48.9c14.9,15.1,62.8,32.6,114.9,26.8c52.1-5.8,83.1-39.1,110.6-34.9c27.5,4.2,81.9,39.6,127.6,32.6
			S479.7,428.3,486,379.4z"/>
		<path class="st1" d="M486,379.4c0,0,20.2-33.1-13.8-104.8s-64.6-71.7-106.4-114.1s-61.7-92-125.5-94.3
			c-63.8-2.3-115.9,21-124.4,68.7c-8.5,47.7-1.6,45.4-57.2,66.4C3.2,222.2,8.5,288.6,18.1,316.5c9.6,27.9,6.4,41.9,0,60.6
			c-6.4,18.6,9.6,33.8,24.5,48.9c14.9,15.1,62.8,32.6,114.9,26.8c52.1-5.8,83.1-39.1,110.6-34.9c27.5,4.2,81.9,39.6,127.6,32.6
			S479.7,428.3,486,379.4z"/>
	</g>
</g>
<g id="Tree">
	<g id="tree1" class="st2">
		<path class="st3" d="M561.1,454.4c2.5-25,3.6-48.8,3.9-69.2c-10.4,3.6-20.2,4.7-28.7,0.6c-0.8,18.8-2.1,41.7-4.3,70.4
			C540.2,458.2,550.5,458.3,561.1,454.4z"/>
		<path class="st4" d="M559.1,472.3c0.8-6,1.4-12,2-17.9c-10.6,4-20.9,3.9-29.1,1.8c-0.5,6.6-1,13.4-1.6,20.6L559.1,472.3z"/>
		<path class="st3" d="M564.5,336.5c-0.2-6.7-0.5-11.6-0.6-14.4c-0.9-9.8-28.8-18.7-28.8-18.7c0.3,4.9,1.7,21.1,2,35.1
			C546.8,341.4,556.9,339.8,564.5,336.5z"/>
		<path class="st5" d="M536.3,385.8c8.5,4.1,18.3,3,28.7-0.6c0.3-20.1-0.1-37-0.5-48.6c-7.6,3.2-17.7,4.9-27.5,2
			C537.3,351.1,537.1,366.2,536.3,385.8z"/>
		<g class="st6">
			<path class="st7" d="M521.4,187.8c5.1-1.2,10.2-3.7,13.7-7.6c-2.6-8.3-5.2-16.1-7.8-23.5c-3,3.5-6.9,6.1-11.1,7.1
				C517.8,170.8,519.6,178.7,521.4,187.8z"/>
		</g>
		<g class="st6">
			<path class="st8" d="M516.1,163.8c4.2-0.9,8.1-3.6,11.1-7.1c-2.6-7.4-5.2-14.2-7.7-20.4c-2.8,2.8-6,5.3-9.3,6.8
				C512.1,149.1,514.1,155.8,516.1,163.8z"/>
		</g>
		<g class="st6">
			<path class="st8" d="M543.6,209.6c-2.7-10.2-5.6-20.1-8.6-29.4c-3.5,3.9-8.6,6.4-13.7,7.6c1.7,8.9,3.4,18.9,5,30.3
				C532.7,217.6,539,214.4,543.6,209.6z"/>
		</g>
		<g class="st6">
			<path class="st7" d="M510.1,143.2c3.3-1.5,6.6-4,9.3-6.8c-6.9-16.8-13.1-28.8-17.4-33.4l-3.7,9.5
				C501.5,120.8,505.7,129.6,510.1,143.2z"/>
		</g>
		<g class="st6">
			<path class="st7" d="M535.4,308.3c0,0,19.2,14.3,28.9,20c-0.9-15.2-2.8-30.9-5.2-46.6c-7.1,5.5-16.6,6.4-25.4,4.4
				C534.3,293.2,534.9,301.3,535.4,308.3z"/>
		</g>
		<g class="st6">
			<path class="st7" d="M530.4,251.1c7-0.6,15.2-3.6,21.4-7.6c-2.5-11.6-5.3-23-8.3-34c-4.6,4.8-10.8,8-17.2,8.5
				C527.8,228,529.1,239,530.4,251.1z"/>
		</g>
		<g class="st6">
			<path class="st8" d="M559.1,281.7c-2-12.8-4.5-25.6-7.2-38.1c-6.2,4-14.4,7-21.4,7.6c1.2,10.7,2.2,22.4,3.3,35
				C542.5,288.1,552,287.2,559.1,281.7z"/>
		</g>
	</g>
	<path class="st9" d="M576.4-72.3l3.2,8.8l2.9,23.4L565-67l2.9,11.1c0,0,1.8,4.9,3.9,10.8c2.1,5.9,7.4,29.5,7.4,29.5l-6.1-16.7
		l-15.8-22l2.9,7.8l1.8,4.9l13,29.7l-20.7-32.5l1.2,6.2c0,0,8.9,24.5,10.3,28.4c1.4,3.9,1.4,28.4,1.4,28.4l-5.5-21.3l-21-30.1
		c0,0,7.1,19.6,8.2,22.6c1.1,2.9,4.1,29.6,4.1,29.6s-5.5-9.1-8-16s-13.4-30.7-13.4-30.7s6,25.6,5.9,34.5c-0.1,8.9-4.4,33.8-4.4,33.8
		S532.2,26,532,19.4c-0.2-6.6-10.4-31.7-10.4-31.7s-3.3,12.3-0.7,22.5S517,51.5,517,51.5s0.2-17.8-1.6-22.7
		c-1.8-4.9-6.5-33.2-6.5-33.2s-6.2,28.9-5,35.1c1.2,6.2-14.7,29.8-14.7,29.8s5.6-24.3,7.1-32.5c1.4-8.3,1.5-17.2,1.5-17.2
		s-7.7,21.7-13.9,35C477.6,59.1,453,77,453,77l36.7-61.1c0,0-9.3,12.3-17.6,22.9c-5.4,6.9-10.4,13.1-12.1,14.6
		c-4.2,3.7-28.7,37.1-28.7,37.1s16.9-32.8,24.5-45.6C463.3,32.1,487.1,9,487.1,9s-24.4,24.4-34.9,29.3s-25.1,25.8-25.1,25.8
		s9.3-23.4,21.9-31.3C461.8,24.9,493-5.3,493-5.3l-22.2,9.2l-15.5,12.3l-3.4,2.7l-22.5,17.8c0,0,36.6-39.9,45.7-45.5
		c9.1-5.5,39.9-15.6,39.9-15.6l-33.9,4.5L438.2,5.7c0,0,32.3-27.3,36.8-30c4.5-2.8,36.9-14.5,36.9-14.5l-15.1,4.4l-54.8,14.3
		c0,0,51.8-25.5,61-27.7c9.2-2.2,40.8-3.7,40.8-3.7S527-55.4,511.2-53c-15.8,2.4-32,0.5-32,0.5s26.9-5.3,44.3-9.4
		c17.4-4.1,23.8,1.3,23.8,1.3l-19.8-11.7L516-73.6c0,0,28.2,4.2,31.8,5.1c3.7,0.9,8.6,2.4,8.6,2.4s-8.4-4.7-12.8-7.6
		c-4.4-2.9-14.7-6.9-14.7-6.9s25,7.6,27.9,6.5c2.9-1.1,5,1.5,5,1.5l-15.5-12.1l19.5,1.8L576.4-72.3z"/>
	<path class="st10" d="M582.5-53.8l6.4,4.9l13,15.5l-25.3-11.3l7.3,6.7c0,0,3.6,2.7,7.9,6C596.2-28.7,611-14,611-14l-12.2-9.2
		l-21.7-8.6l5.7,4.3l3.6,2.7l23.3,15.4l-30.1-13.8l3.7,4c0,0,17.9,13.6,20.8,15.8c2.9,2.2,14.3,19.9,14.3,19.9L604.5,3.5l-29.2-12
		c0,0,14.3,10.9,16.5,12.5c2.1,1.6,16.8,19.5,16.8,19.5s-8.2-4-13.3-7.8c-5-3.8-24-16-24-16s16.3,15.7,20.4,22.2
		c4.1,6.5,12.6,26.5,12.6,26.5s-7.8-10.5-11-15.2c-3.2-4.7-22.4-18.1-22.4-18.1s3.3,10.4,10,16.6c6.6,6.2,16.5,31.7,16.5,31.7
		s-8.2-13-11.8-15.7c-3.6-2.7-20.2-21-20.2-21s9,23.8,12.8,27.8c3.7,4,3.2,28.4,3.2,28.4s-7.2-20.2-10.1-26.8
		c-2.8-6.7-6.9-13.2-6.9-13.2s4.6,19.3,6.3,31.9c1.7,12.6-7.8,37-7.8,37l-2-61.3c0,0-1,13.3-2.1,24.8c-0.7,7.5-1.4,14.3-2,16.2
		c-1.3,4.7-3.5,40.2-3.5,40.2s-3-31.7-3.5-44.4c-0.5-12.8,6-40.6,6-40.6s-6.3,29.1-11.6,37.5c-5.3,8.4-6.1,30.3-6.1,30.3
		s-4.2-21.2,1.3-32.9c5.5-11.6,14-48.1,14-48.1l-11.8,17l-5.5,16.1l-1.2,3.5l-8,23.4c0,0,7.8-46,11.8-54.2
		c4-8.2,21.6-29.9,21.6-29.9L538,28.6l-19.1,38.5c0,0,10.6-34.8,12.6-38.9c2-4.1,19.9-27.7,19.9-27.7l-8.9,10.2l-32.9,35.9
		c0,0,25.6-42.6,31.2-48.5c5.6-5.9,27.8-21.8,27.8-21.8s-14.1,5.1-24.4,14.2C534-0.3,521.4,5.9,521.4,5.9s17-16.4,27.7-27.5
		c10.7-11.1,17.9-10.1,17.9-10.1L547.2-31l-9,4.4c0,0,22.4-10.1,25.4-11.2c3.1-1.1,7.4-2.3,7.4-2.3s-8.3,0.5-12.8,0.5
		c-4.5,0-13.9,1.9-13.9,1.9s21.6-6.2,23.2-8.3c1.6-2.1,4.3-1.2,4.3-1.2L555-48.7l15-7.8L582.5-53.8z"/>
	<g class="st2">
		<path class="st11" d="M513.4,106.6c42.5-23.5,99.2,21.2,100.4,67.6c-15.4-13.2-30.2-26.2-48.7-35.7c-15.7-8.1-35.2-18.7-52.9-19.7
			L513.4,106.6z"/>
	</g>
	<g class="st2">
		<path class="st11" d="M507.3,91.6c2.6-8,2.6-17,7.2-25.4c6.8-12.8,18.3-23.5,30.3-29.9c24.8-13.2,59-5.7,77.7,16.5
			c-13.1-1.5-21.5-1.3-34.2,2.6c-12,3-22.7,7.7-34,12c-17.9,7.6-38.8,18.9-51,34.9L507.3,91.6z"/>
	</g>
	<g class="st2">
		<path class="st11" d="M503.6,99.6c6.4-20.5-0.1-46.4-9.9-64.6c-11.5-21.9-29.5-33.8-53-32.4c16.7,11.5,25,36.6,33,54.5
			c4.1,9.8,7.8,18.6,10.8,28.3c1.7,4.8,2.4,9.5,3.7,14.5c0.4,0.9,2.6,6.6,1.1,2.3L503.6,99.6z"/>
	</g>
	<g>
		<path class="st12" d="M481.8,75.2c-25.6-38.7-96.6-43.3-116.8,0.3c21.1-6.5,37.9-11.5,60.8-6.7c11.6,2.6,23.1,5.9,34.9,9.7
			c4,1.4,7.8,2.3,12.1,4.1c0.7,0.1,5.8,3.8,3,1.6L481.8,75.2z"/>
	</g>
	<g>
		<path class="st12" d="M478,84.8c-34.7-2.9-89,42.7-69.7,79.2c18.8-24.3,46.7-51.8,73.8-67.2L478,84.8z"/>
	</g>
	<g>
		<g class="st2">
			<path class="st3" d="M512.2,88.1c37.4,17.4,66.7,57.9,92,89.3c7-49.3-45.6-109.3-95.7-94.3c-1.3,1-3,1.5-4.2,1.7L512.2,88.1z"/>
		</g>
		<g class="st2">
			<path class="st3" d="M505.6,84.6c9.5-12.9,34.1-16.4,49.6-17.5c18.4-1.8,37.5,0.2,55.5,5.1c9.5,2.8,19.7,6.5,28.3,10.7
				c2.7,0.8,21.3,13.1,22.2,12.5l0.8,0.1c-4-15.5-18.8-29.9-30.1-40.6c-13.1-12.2-30.2-24.2-47.4-29.1c-25.9-7.5-66,6.3-79.4,30.6
				c-4.2,8.1-7.8,20.8-0.8,28.3L505.6,84.6z"/>
		</g>
		<g class="st2">
			<path class="st3" d="M629.6-34.4c-44-14.5-87.4,9.6-110.4,47.5c-13.5,22.2-16.5,49.4-19.6,74.5c-7.3-8-14.6-62.9-16.8-76.9
				c-3.1-25.4-0.7-60.6,28.4-69c21-6.6,48.8-4.8,69.5,1c17.5,5.3,33.7,11.6,48.5,23.2L629.6-34.4z"/>
		</g>
		<g>
			<path class="st7" d="M497.2,91.7c-17.8,12.7-30.4,34.3-36.2,54.9c-6.6,21.3-13.4,49.9-11.8,72.2c-7.9-6.1-12.2-22.8-15.3-32.6
				c-4-11.9-4.8-24.8-4.1-36.7c2.1-29.3,21.1-51.4,47.8-59.4c8.2-2.6,15.8-2.6,23.9-1.7c-0.7-0.9-1.6-0.3-1.9-0.7L497.2,91.7z"/>
		</g>
		<g>
			<path class="st7" d="M500.4,85c-18.5-3.9-35.6-15.9-55.8-18.4c-35.1-4.2-60.3,1.3-76.3,34.7c-10.7,22.3-20,55.6-10.5,80.4
				c6.5-10.6,10.3-22,17.9-31.9c7.6-10,17.2-17.2,26.5-24.9c18.9-14.9,41.9-28,65.1-33.3c9.4-2.1,25-6.7,33.1-5L500.4,85z"/>
		</g>
		<g>
			<path class="st7" d="M495.8,89.8c-21.9-20.5-45.4-35.5-74.1-39.5c-33.4-4.7-59.3,6.3-81.7,30.2c-7.7,7.9-12.2,15.6-15.9,26.2
				c7.6-29.2,18.2-57.1,38.5-80.2c9.6-10,20.6-19,34.2-23.6c14.4-4.4,25.9,1.9,38.8,9.2c15.8,9.4,29.2,22.8,40.4,37.1
				c5.1,6.8,24.8,26.1,23.5,33.5L495.8,89.8z"/>
		</g>
		<path class="st13" d="M514.3,84.7c8.9,2.1,17.4,1.5,26,5.6c8,4,24.8,13,28,21.1c-5.1-0.8-9.5-4.6-14.5-6.7
			c13.5,12.1,41.4,31.6,43.1,51.4c-15.3-13.1-27.4-31-41.7-44.9c-11.9-11.6-25.1-18-39.5-25.4L514.3,84.7z"/>
		<path class="st13" d="M502.5,72.5c9.7-14.9,24.8-36.2,44.2-37.3c-1.4,3.4-5.6,5.4-8.4,7.5c14.5-14.5,62.4-2.9,75.1,12.7
			c-2.7,3.2-10.5,0.3-14.6-0.8c11.8,4.6,28.4,8,35.3,20.4c-13.6-3.2-26.1-13.2-39.5-17.8c-14.4-5-29.6-5.9-44.4-4.7
			c5.6-0.7,13.7,0.3,18.9,2.8c-4.4,3.9-14.5,1.6-20.5,2.6c-6.3,0.6-12.7,2.5-18.9,4.8c-10.3,4.2-19.9,10.3-28.9,17.1L502.5,72.5z"/>
		<path class="st13" d="M499.3,74.3C493,62.1,493.6,44,492,31.1c-1.9-16.2-9.4-44.5,4.8-56.4c2.9,3.1,1.3,10.1,1.1,14.4
			c3.9-15.2,26.4-46.2,46.2-37.7c-2.7,3.2-6.2,5.3-9.7,7.3c12.3-9.2,32.2-9.6,45-2.2c-2.9,5.1-13.2,4.1-18.2,4.9
			c-7.4,1.4-14.6,4.5-21.2,7.7c-12.6,6.5-23.3,17-28.9,30c3.6-2.7,22.4-17.5,15.2-4.4c-4.5,7.5-11.7,12.3-15.4,20.9
			c-5.5,13-14.1,34.7-11.7,49.3L499.3,74.3z"/>
		<path class="st14" d="M491.5,73.7c-7.2-10.4-17.1-20-25.7-29.4c-7.5-7.8-24.7-29.5-36.3-27.8c2.2,6,13.5,12.1,18.5,16.6
			c-16.5-16.9-44.8-19.6-64.3-10.3c-7.3,3.8-31.6,17.9-29.4,28.5c12.2-9.2,32.5-25.1,48.9-18.1c-5.4,1.1-9.7,2-14.1,5.9
			c2.8,3.8,18.4-0.9,23.6-0.7c10.7,0.8,21.7,4.2,31.6,7.9c18,7.6,35.2,18.7,47.6,34L491.5,73.7z"/>
		<path class="st14" d="M481.7,84.7c-11.7-5.2-27.2-7.1-39.7-8.9c-22.2-2.7-37.9,0.4-54,14.2c2.8,3.8,18.1-3.6,24.5-2.6
			c-21.7,1.7-54.3,32.7-47.3,57.3c11.6-7,16.7-23.7,27-33.2c8.4-7.5,27.2-24.6,39.4-22.6c-6.6,3.2-14.2,6.6-18,13.6
			c4.6-0.6,11.1-5.4,15.9-7.3c5.8-2,12-4.3,17.7-5.7c10.4-2.6,22.2-2.6,33-0.2L481.7,84.7z"/>
		<path class="st14" d="M481.4,100.1c-15.2,17.3-26.4,36.3-33.5,59.3c-3.6-4.9-1.5-11.8-0.4-17.3c-4.7,14.1,0.3,31.5-5.6,44.7
			c-8.2-10.3-3.3-33.3-0.6-44.7c3.3-13,10.8-21,18.2-30.7c-3,2.8-7,6.4-10.8,8.1c4.7-11.8,22.3-21.5,33-26.6L481.4,100.1z"/>
	</g>
</g>
<g id="Clouds">
	<g>
		<path class="st15" d="M185.5,261.1c-1.1,1.1-2,2.3-2.8,3.6"/>
		<path class="st15" d="M218,341.7h97.2c0,0,3.3-9.9-8.8-16.6c-12.1-6.6-17.7-1.1-22.1-6.6c-4.4-5.5,12.1-19.9-21-34.2
			c0,0-2.2-30.9-47.5-32c-13.6-0.3-22,2.3-27.5,6.4"/>
		<line class="st15" x1="188.3" y1="341.7" x2="204.5" y2="341.7"/>
		<line class="st15" x1="79.7" y1="341.7" x2="160" y2="341.7"/>
		<path class="st15" d="M176.8,280c-1.4,4.7-2.9,8.8-6.3,10.9c-12.1,7.7-15.5-4.4-27.6,3.3c-12.1,7.7-6.6,23.2-16.6,25.4
			c-9.9,2.2-23.2-9.9-35.3-2.2c-12.1,7.7-12.1,14.4-17.7,14.4c-5.5,0-16.6-4.4-23.2,0c-6.6,4.4-14.4,9.9-14.4,9.9h39.1"/>
	</g>
	<g>
		<path class="st15" d="M181.5,98.7c-1.4-1.5-3.9-2.8-8.1-2.9c-9.6-0.2-7,6.5-9.6,8.2c-2.6,1.6-3.3-0.9-5.8,0.7
			c-2.6,1.6-1.4,4.9-3.5,5.4c-2.1,0.5-4.9-2.1-7.5-0.5c-2.6,1.6-2.6,3-3.7,3c-1.2,0-3.5-0.9-4.9,0c-1.4,0.9-3,2.1-3,2.1h25"/>
		<path class="st15" d="M184.1,102.8c-0.2-0.1-0.5-0.2-0.7-0.3c0,0-0.1-1.1-0.9-2.5"/>
		<path class="st15" d="M163.6,114.6h30.7c0,0,0.7-2.1-1.9-3.5c-2.6-1.4-3.7-0.2-4.7-1.4c-0.8-1,1.9-3.6-2.5-6.2"/>
	</g>
	<g>
		<path class="st15" d="M98.2,116.8c-1.4-1.5-3.9-2.8-8.1-2.9c-9.6-0.2-7,6.5-9.6,8.2c-2.6,1.6-3.3-0.9-5.8,0.7
			c-2.6,1.6-1.4,4.9-3.5,5.4c-2.1,0.5-4.9-2.1-7.5-0.5c-2.6,1.6-2.6,3-3.7,3c-1.2,0-3.5-0.9-4.9,0c-1.4,0.9-3,2.1-3,2.1h25"/>
		<path class="st15" d="M100.8,121c-0.2-0.1-0.5-0.2-0.7-0.3c0,0-0.1-1.1-0.9-2.5"/>
		<path class="st15" d="M80.3,132.8H111c0,0,0.7-2.1-1.9-3.5c-2.6-1.4-3.7-0.2-4.7-1.4c-0.8-1,1.9-3.6-2.5-6.2"/>
	</g>
	<g>
		<path class="st15" d="M313.9,114.6h60.9c0,0,2.1-6.2-5.5-10.4c-7.6-4.2-11.1-0.7-13.8-4.2c-2.8-3.5,7.6-12.5-13.1-21.5
			c0,0-1.4-19.4-29.8-20.1c-12.2-0.3-17.8,3.3-20.7,7.8"/>
		<line class="st15" x1="295.3" y1="114.6" x2="305.5" y2="114.6"/>
		<path class="st15" d="M288.1,75.9c-0.9,3-1.8,5.5-3.9,6.9c-7.6,4.8-9.7-2.8-17.3,2.1c-7.6,4.8-4.2,14.5-10.4,15.9
			c-6.2,1.4-14.5-6.2-22.1-1.4c-7.6,4.8-7.6,9-11.1,9c-3.5,0-10.4-2.8-14.5,0c-4.2,2.8-9,6.2-9,6.2h77.8"/>
	</g>
</g>
<g id="Floor">
	<g>
		<path class="st15" d="M454.6,436.3c3.3,0.1,5.3,0.3,7.3,0.3c4.7,0,10.7,0,10.7,0"/>
		<path class="st15" d="M131.8,437.9c17.5,0.1,33.1,0.5,44.7,0c13.3-0.7,52.7-6.7,80-6.7c27.3,0,68.7,0,102.7,4s46.7,0.7,70,0.7
			c7.5,0,13.1,0.1,17.3,0.2"/>
		<path class="st15" d="M37.8,439.2c0,0,26-0.7,45.3-0.7c19.3,0,20-0.7,40.7-0.7"/>
		<path class="st15" d="M273.9,449.5c4.5,0.3,7.3,0.4,7.3,0.4"/>
		<path class="st15" d="M118.5,449.9c0,0,6,0,37.3-1.3s56-5.3,77.3-2.7c11.5,1.4,24.5,2.5,34.1,3.1"/>
		<path class="st15" d="M384.5,442.6c0,0-13.3,1.3-44-0.7c-30.7-2-36.7,0.7-40.7,0.7s-10,0-10,0"/>
		<path class="st15" d="M361.2,451.5c-5.4,0.1-11.3,0.4-16.7,1.1c-14.7,2-25.3,4-31.3,4.7"/>
		<path class="st15" d="M378.5,451.9c0,0-3.5-0.2-8.6-0.4"/>
		<path class="st15" d="M115.2,457.6c5.2,0.1,8.7,0.3,8.7,0.3"/>
		<path class="st15" d="M65.8,459.2c0,0,11.3-2,26-2c5.1,0,10.5,0.1,15.3,0.2"/>
	</g>
</g>
<g id="Character">
	<g>
		<path class="st16" d="M347.2,262.1c0,0-15.6-14-21.3-12.2c-5.7,1.8-9.1,23.8-9.1,35.8c0,11.9-2.1,30.8-2.1,30.8l21.5-12.2
			c0,0,11.1-2.6,18.7-15.6C362.5,275.8,347.2,262.1,347.2,262.1z"/>
		<g>
			<path class="st16" d="M129.9,378.1c0,0-23.6,12.4-28,12.7s-17.1-1.6-21.5-4.7c-4.4-3.1-7.5-6.5-9.8-5.7c-2.3,0.8-3.4,3.4-2.6,4.7
				c0.8,1.3,1.7,1.8,1.7,1.8s-3.8,0.7-3.1,4c0.5,2,0.3,2.8,0.3,2.8s-1.3,3.6-0.5,4.9c0.8,1.3,2.1,3.6,2.1,3.6s0.5,2.6,5.2,5.2
				c0,0,2.1,1.3,5.2,3.9c3.1,2.6,16.6,11.9,20.5,12.4c3.9,0.5,8-2.6,10.4-4.9c2.3-2.3,4.9-13,7.8-16.6c2.9-3.6,21.9-27.4,23.5-30.5
				C142.4,368.6,129.9,378.1,129.9,378.1z"/>
			<path class="st15" d="M70.2,385.8c0,0-2.9,9.1-2.1,13.5"/>
		</g>
		<g>
			<g>
				<path class="st17" d="M334.2,417.4c-2.5,0-4.5-2-4.5-4.5V312.5c0-2.5,2-4.5,4.5-4.5c2.5,0,4.5,2,4.5,4.5v100.3
					C338.7,415.3,336.7,417.4,334.2,417.4z"/>
			</g>
			<path class="st16" d="M256.5,392.9c0,0,24-7.4,37-11.5c13-4.1,32.7-14.1,42.8-20.8c10.1-6.7,17.9-11.2,22-19.7
				c4.1-8.6,7.5-17.1,7.5-25c0-7.8,0-7.8,0-7.8l-129.3,80.5L256.5,392.9z"/>
			<g>
				<path class="st17" d="M155.8,437.4c-1.9,0-3.7-0.9-4.7-2.6c-1.6-2.6-0.8-6,1.8-7.6l232.7-142.3c2.6-1.6,6-0.8,7.6,1.8
					c1.6,2.6,0.8,6-1.8,7.6L158.7,436.6C157.8,437.1,156.8,437.4,155.8,437.4z"/>
			</g>
		</g>
		<g>
			<g>
				<path class="st16" d="M186,333.6c0,0-13-4.9-16.6-3.6c-3.6,1.3-9.1,11.7-9.6,13c-0.5,1.3-25,24.8-29.4,32.5
					c-4.4,7.8-20,27.7-20,27.7S107,415.9,105,418c-2.1,2.1-6.7,1.6-9.6-0.3c-2.9-1.8-7-4.7-11.1-6.7c-4.1-2.1-10.6-3.6-10.6-3.6
					s0.3,3.6,1,7.3c0.8,3.6,1.3,6.2,5.2,9.3c3.9,3.1,8,7,12.4,9.3c4.4,2.3,8.8,6.5,14,3.6c5.2-2.9,9.3-10.9,10.6-11.9
					c1.3-1,7.5-12.2,13.5-15.8c6-3.6,23.2-17.5,30.2-24.8c7-7.3,14.3-23.3,14.3-23.3l10.1,5.7c0,0,9.6-9.3,9.6-18.4
					S186,333.6,186,333.6z"/>
				<path class="st17" d="M105,418c-2.1,2.1-6.7,1.6-9.6-0.3s-7-4.7-11.1-6.7c-1.1-0.5-2.3-1-3.5-1.5c1,2.1,2.3,4.9,3.6,8
					c2.2,5.1,6.2,12.5,10.3,17.2c3.6,2.2,7.4,4.6,11.7,2.3c2-1.1,3.8-2.9,5.4-4.8c0.8-3.9,1-9.7,1-16.7c0-9.4,3.8-19.2,3.8-19.2
					l-0.9,0.4c-2.9,3.9-5.1,6.6-5.1,6.6S107,415.9,105,418z"/>
				<path class="st17" d="M186,357l-4.4,1.5l-4.4-0.3l-7.7-6.2c0,0,2.1,5,0.3,11.8c-1.8,6.8-10.3,20.3-10.3,20.3l-6.4,7.3
					c3-2.6,5.6-5,7.5-7c7-7.3,14.3-23.3,14.3-23.3l10.1,5.7c0,0,1.9-1.9,4.1-4.8C187.7,359.6,186,357,186,357z"/>
			</g>
			<path class="st18" d="M246.4,347.6c0,0-25.9-7.5-36.8-10.6c-10.9-3.1-22.5-5.7-24.6-4.7c-2.1,1-5.2,27.7-4.7,30.3
				c0.5,2.6,1.8,4.9,1.8,4.9s24.6,10.4,34,13.7c9.3,3.4,22.3,10.1,26.4,10.1c4.1,0,8.6-2.9,10.1-4.4c1.6-1.6,0.5-20.5,0.5-27.2
				c0-6.7-1.3-11.4-1.3-11.4L246.4,347.6z"/>
			<g>
				<path class="st19" d="M332.7,302c0,0-9.6,3.4-23.3,12.7c-13.7,9.3-23.3,19.4-28.5,23.3c-5.2,3.9-24.9,8-27.5,8c-2.6,0-7,0-7,0
					s-3.1,5.4-3.4,18.9c-0.3,13.5,4.4,25.9,4.4,25.9s12.2-5.2,30.6-9.3c18.4-4.1,46.1-17.1,60.4-27.5c14.3-10.4,18.1-14.8,21.5-21.5
					c3.4-6.7,5.4-10.4,4.4-18.1c-1-7.8-12.7-13.5-20.2-14C336.6,299.9,332.7,302,332.7,302z"/>
				<path class="st15" d="M290.1,367.6c4.1,0.7,5.9,0.5,5.9,0.5"/>
				<path class="st15" d="M253.4,348.4c0,0-1.9,5.6,16.8,13.1c7.2,2.9,12.7,4.5,16.8,5.5"/>
				<path class="st15" d="M265.9,351c3.6,1.6,10,3.5,20,3.5"/>
				<path class="st15" d="M261.9,348.6c0,0,0.4,0.4,1.2,0.9"/>
				<path class="st15" d="M299.8,333c-1.8-0.8-2.7-1.2-2.7-1.2"/>
				<path class="st15" d="M347.6,338.2c0,0,3.2,5.3-18.7,2.1c-12.5-1.8-21.1-4.4-26.1-6.2"/>
			</g>
			<path class="st16" d="M345.6,258.4c0,0-9.3,2.6-9.8,5.7s-2.1,4.9-3.1,5.4c-1,0.5-6.5-1-7.8,0.5c-1.3,1.6-0.5,6.5-0.5,6.5
				s-3.1,5.2-4.7,9.8c-1.6,4.7,0,5.4,1.8,6.2c1.8,0.8,6,3.1,6,3.1l1.3,9.6c0,0-7,6.7-5.7,7.5c1.3,0.8,24.1-10.6,24.1-10.6
				s12.7-2.9,16.1-4.9c3.4-2.1,13-15.6,10.1-23.6c-2.9-8-13.7-13-18.4-13.7C350.3,259.2,345.6,258.4,345.6,258.4z"/>
			<path class="st4" d="M351.8,289.8c0,0-13,4.4-17.7,4.4c-4.1,0-12.2-2.1-14.3-2.7c0.5,0.5,1.1,0.8,1.8,1.1c1.8,0.8,6,3.1,6,3.1
				l0.1,1l16.6,7c0.5-0.3,1-0.5,1.4-0.7L351.8,289.8z"/>
			<path class="st15" d="M341.8,268.5l-2.3,2.6c0,0,1.6,2.1,3.4,2.1"/>
			<path class="st15" d="M341,264.9c0,0,3.9-2.6,7.5,3.4"/>
			<path class="st15" d="M326.5,279.9c0,0,3.1,3.1,8,2.1"/>
		</g>
		<path class="st4" d="M368.4,260.5c0,0-5.7-6-11.4-8.3c-5.7-2.3-11.7-3.6-11.4-1.8c0.3,1.8,4.4,4.4,4.4,4.4s-10.6-1.3-9.8,2.1
			c0.8,3.4,25.4,10.6,25.4,10.6s-11.1,2.1-10.9,4.4c0.3,2.3,1.3,2.3,1.3,3.9c0,1.6-5.2,7.5-4.1,8.6c1,1,5.2-4.4,6.2-4.4
			c1,0,5.4-0.5,5.4,5.4c0,6-3.9,8-5.4,8.3c-1.6,0.3-5.4,2.1-5.4,2.1s6.7,2.6,10.4,2.6c3.6,0,13-2.6,16.6-9.6s-0.3-21-3.6-24.6
			C372.6,260.5,368.4,260.5,368.4,260.5z"/>
		<g>
			<path class="st20" d="M341,314.9c0,0,2.9-11.1,6-20.5c3.1-9.3,9.8-25.7,13.5-33.7c3.6-8,10.9-9.8,13.2-9.6s6.2,8.8,6,14.5
				c-0.3,5.7-4.4,13.7-4.9,16.3c-0.5,2.6-8.6,25.9-8.6,31.1c0,5.2-5.2,14.5-9.1,17.6"/>
			<path class="st16" d="M379.6,265.7c0.3-5.7-3.6-14.3-6-14.5c-2.3-0.3-9.6,1.6-13.2,9.6c-3.6,8-10.4,24.4-13.5,33.7
				c-0.8,2.3-1.5,4.6-2.2,6.9c1.8,4.7,5.8,14.4,8.1,15.4c2.2,0.9,8.5-0.7,13.2-3.5c0,0,0-0.1,0-0.1c0-5.2,8-28.5,8.6-31.1
				C375.2,279.4,379.3,271.4,379.6,265.7z"/>
		</g>
		<g>
			<g>
				<path class="st17" d="M178.5,379.2c-1.2-1.2-1.7-2.9-1.3-4.6c0.6-2.6,3.3-4.2,5.9-3.6l217.6,56.8c2.6,0.6,4.2,3.3,3.6,5.9
					c-0.6,2.6-3.3,4.2-5.9,3.6l-217.6-56.8C179.9,380.2,179.1,379.8,178.5,379.2z"/>
			</g>
			<g>
				<path class="st16" d="M162.5,437.4c-1.9,0-3.7-0.9-4.7-2.6c-1.6-2.6-0.8-6,1.8-7.6l232.7-142.3c2.6-1.6,6-0.8,7.6,1.8
					c1.6,2.6,0.8,6-1.8,7.6L165.4,436.6C164.5,437.1,163.5,437.4,162.5,437.4z"/>
			</g>
			<g>
				<path class="st16" d="M179.6,376.9c-1.2-1.2-1.7-2.9-1.3-4.6c0.6-2.6,3.3-4.2,5.9-3.6l222.6,58.7c2.6,0.6,4.2,3.3,3.6,5.9
					c-0.6,2.6-3.3,4.2-5.9,3.6l-222.6-58.7C181,378,180.2,377.5,179.6,376.9z"/>
			</g>
			<circle class="st17" cx="234.5" cy="387.4" r="2"/>
			<circle class="st17" cx="403.5" cy="431.9" r="2"/>
			<circle class="st17" cx="186.5" cy="374.9" r="2"/>
			<circle class="st17" cx="177.5" cy="422.4" r="2"/>
			<circle class="st17" cx="386" cy="294.9" r="2"/>
			<g>
				<g>
					<path class="st16" d="M346.5,424.1c-2.5,0-4.5-2-4.5-4.5V319.2c0-2.5,2-4.5,4.5-4.5c2.5,0,4.5,2,4.5,4.5v100.3
						C351,422.1,349,424.1,346.5,424.1z"/>
				</g>
				<circle class="st17" cx="346.5" cy="417.9" r="2"/>
				<circle class="st17" cx="346.5" cy="320.4" r="2"/>
			</g>
		</g>
	</g>
</g>
<g id="Device">
	<g>
		<g>
			<polygon class="st21" points="236.5,345.2 272.5,343.2 247.2,336.9 210.2,338.2 			"/>
			<polygon class="st22" points="236.5,345.2 210.2,338.2 210.2,303.6 236.5,306.2 			"/>
			<polygon class="st21" points="239.3,338.8 251,342.3 262,342.3 248.2,338.5 			"/>
		</g>
		<path class="st17" d="M236.5,306.2l-26.3-2.7v30.4c2.2,0.2,5-0.1,6.8-2.3c3.7-4.3,6-13.7,12.7-16c3.5-1.2,5.6-2,6.8-2.4V306.2z"/>
		<ellipse class="st16" cx="222.5" cy="323.5" rx="2.2" ry="4.2"/>
	</g>
</g>
</svg>
