<?xml version="1.0" encoding="utf-8"?>
<!-- Generator: Adobe Illustrator 16.0.0, SVG Export Plug-In . SVG Version: 6.00 Build 0)  -->
<!DOCTYPE svg PUBLIC "-//W3C//DTD SVG 1.1//EN" "http://www.w3.org/Graphics/SVG/1.1/DTD/svg11.dtd">
<svg version="1.1" xmlns="http://www.w3.org/2000/svg" xmlns:xlink="http://www.w3.org/1999/xlink" x="0px" y="0px"
	 width="344.166px" height="222.49px" viewBox="0 0 344.166 222.49" enable-background="new 0 0 344.166 222.49"
	 xml:space="preserve">
<ellipse fill="#88ABDD" cx="172.083" cy="195.679" rx="75.756" ry="10.743"/>
<g>
	<g>
		<path fill="#E1E9F3" d="M316.959,161.518c0,3.489-2.854,6.346-6.346,6.346H33.552c-3.489,0-6.345-2.856-6.345-6.346V6.346
			c0-3.49,2.855-6.346,6.345-6.346h277.062c3.491,0,6.346,2.855,6.346,6.346V161.518z"/>
		<path fill="#88ABDD" d="M310.613,0H33.552c-3.489,0-6.345,2.855-6.345,6.346v16.13h289.752V6.346
			C316.959,2.855,314.104,0,310.613,0z"/>
		<rect x="27.207" y="22.088" fill="#ACBFD9" width="289.752" height="5.006"/>
		<g>
			<path fill="#E1E9F3" d="M269.45,13.765c0,1.65-1.35,3-3,3H83.707c-1.65,0-3-1.35-3-3V8.711c0-1.65,1.35-3,3-3H266.45
				c1.65,0,3,1.35,3,3V13.765z"/>
		</g>
		<g>
			<path fill="#E1E9F3" d="M303.118,13.765c0,1.65-1.35,3-3,3h-19.251c-1.65,0-3-1.35-3-3V8.711c0-1.65,1.35-3,3-3h19.251
				c1.65,0,3,1.35,3,3V13.765z"/>
		</g>
		<circle fill="#E1E9F3" cx="43.245" cy="11.237" r="3.814"/>
		<circle fill="#E1E9F3" cx="54.524" cy="11.237" r="3.813"/>
		<circle fill="#E1E9F3" cx="65.804" cy="11.237" r="3.813"/>
	</g>
	<g>
		<path fill="#CBD4E3" d="M35.61,161.559c0-1.285,1.35-2.337,3-2.337h266.945c1.65,0,3,1.052,3,2.337c0,1.284-1.35,2.336-3,2.336
			H38.61C36.96,163.895,35.61,162.843,35.61,161.559z"/>
	</g>
	<g>
		<g>
			
				<line fill="none" stroke="#779EDA" stroke-width="2.5" stroke-linecap="round" stroke-miterlimit="10" x1="91.451" y1="94.711" x2="77.994" y2="82.807"/>
			
				<line fill="none" stroke="#779EDA" stroke-width="2.5" stroke-linecap="round" stroke-miterlimit="10" x1="90.675" y1="82.03" x2="78.771" y2="95.487"/>
		</g>
		<g>
			
				<line fill="none" stroke="#779EDA" stroke-width="2.5" stroke-linecap="round" stroke-miterlimit="10" x1="266.171" y1="94.711" x2="252.714" y2="82.807"/>
			
				<line fill="none" stroke="#779EDA" stroke-width="2.5" stroke-linecap="round" stroke-miterlimit="10" x1="265.395" y1="82.03" x2="253.49" y2="95.487"/>
		</g>
	</g>
	<g>
		<g>
			<g>
				<path fill="#D7E4F2" d="M10.21,112.212H7.297c0-10.979,8.932-19.91,19.91-19.91v2.914C17.835,95.216,10.21,102.84,10.21,112.212
					z"/>
			</g>
			<g>
				<circle fill="#D7E4F2" cx="8.753" cy="115.568" r="4.856"/>
			</g>
			<g>
				<path fill="#D7E4F2" d="M8.783,124.147c-0.535,0-0.971-0.435-0.971-0.971v-5.744c0-0.537,0.436-0.972,0.971-0.972
					c0.537,0,0.972,0.435,0.972,0.972v5.744C9.755,123.713,9.32,124.147,8.783,124.147z"/>
			</g>
			<g>
				<g>
					<path fill="#D7E4F2" d="M12.001,124.147c-0.536,0-0.972-0.435-0.972-0.971v-5.744c0-0.537,0.436-0.972,0.972-0.972
						c0.537,0,0.971,0.435,0.971,0.972v5.744C12.972,123.713,12.538,124.147,12.001,124.147z"/>
				</g>
				<g>
					<path fill="#D7E4F2" d="M5.566,124.147c-0.536,0-0.971-0.435-0.971-0.971v-5.744c0-0.537,0.435-0.972,0.971-0.972
						c0.537,0,0.972,0.435,0.972,0.972v5.744C6.538,123.713,6.104,124.147,5.566,124.147z"/>
				</g>
			</g>
			<g>
				<path fill="#D7E4F2" d="M15.641,119.375c-0.249,0-0.497-0.095-0.688-0.284l-4.061-4.062c-0.38-0.38-0.38-0.994,0-1.374
					c0.379-0.379,0.993-0.379,1.373,0l4.062,4.062c0.379,0.38,0.379,0.994,0,1.374C16.137,119.28,15.889,119.375,15.641,119.375z"/>
			</g>
		</g>
		<g>
			<g>
				<path fill="#D7E4F2" d="M336.869,112.212h-2.914c0-9.372-7.624-16.996-16.996-16.996v-2.914
					C327.938,92.302,336.869,101.233,336.869,112.212z"/>
			</g>
			<g>
				<circle fill="#D7E4F2" cx="335.412" cy="115.568" r="4.856"/>
			</g>
			<g>
				<path fill="#D7E4F2" d="M335.382,124.147c-0.537,0-0.971-0.435-0.971-0.971v-5.744c0-0.537,0.434-0.972,0.971-0.972
					s0.972,0.435,0.972,0.972v5.744C336.354,123.713,335.919,124.147,335.382,124.147z"/>
			</g>
			<g>
				<g>
					<path fill="#D7E4F2" d="M332.165,124.147c-0.537,0-0.972-0.435-0.972-0.971v-5.744c0-0.537,0.435-0.972,0.972-0.972
						c0.536,0,0.971,0.435,0.971,0.972v5.744C333.136,123.713,332.701,124.147,332.165,124.147z"/>
				</g>
				<g>
					<path fill="#D7E4F2" d="M338.599,124.147c-0.536,0-0.971-0.435-0.971-0.971v-5.744c0-0.537,0.435-0.972,0.971-0.972
						c0.537,0,0.972,0.435,0.972,0.972v5.744C339.57,123.713,339.136,124.147,338.599,124.147z"/>
				</g>
			</g>
			<g>
				<path fill="#D7E4F2" d="M328.525,119.375c-0.249,0-0.497-0.095-0.687-0.284c-0.38-0.38-0.38-0.994,0-1.374l4.062-4.062
					c0.379-0.379,0.993-0.379,1.373,0c0.379,0.38,0.379,0.994,0,1.374l-4.062,4.062C329.022,119.28,328.773,119.375,328.525,119.375
					z"/>
			</g>
		</g>
	</g>
	<g>
		<g>
			<g>
				<rect x="121.484" y="167.863" fill="#D7E4F2" width="2.914" height="27.39"/>
			</g>
			<path fill="#D7E4F2" d="M124.398,195.253c0-4.091-3.315-7.406-7.405-7.406c-4.091,0-7.406,3.315-7.406,7.406H124.398z"/>
		</g>
		<g>
			<g>
				<rect x="219.767" y="167.863" fill="#D7E4F2" width="2.914" height="27.39"/>
			</g>
			<path fill="#D7E4F2" d="M219.767,195.253c0-4.091,3.315-7.406,7.406-7.406c4.09,0,7.405,3.315,7.405,7.406H219.767z"/>
		</g>
	</g>
	
		<line fill="none" stroke="#779EDA" stroke-width="2.5" stroke-linecap="round" stroke-miterlimit="10" x1="139.061" y1="115.425" x2="205.104" y2="115.425"/>
</g>
<g>
	
		<line fill="none" stroke="#88ABDD" stroke-width="3" stroke-linecap="round" stroke-miterlimit="10" x1="88.022" y1="201.565" x2="21.979" y2="201.565"/>
	
		<line fill="none" stroke="#88ABDD" stroke-width="3" stroke-linecap="round" stroke-miterlimit="10" x1="12.59" y1="201.565" x2="1.5" y2="201.565"/>
	
		<line fill="none" stroke="#88ABDD" stroke-width="3" stroke-linecap="round" stroke-miterlimit="10" x1="256.144" y1="201.567" x2="322.188" y2="201.567"/>
	
		<line fill="none" stroke="#88ABDD" stroke-width="3" stroke-linecap="round" stroke-miterlimit="10" x1="123.637" y1="220.99" x2="169.014" y2="220.99"/>
	
		<line fill="none" stroke="#88ABDD" stroke-width="3" stroke-linecap="round" stroke-miterlimit="10" x1="331.576" y1="201.567" x2="342.666" y2="201.567"/>
	
		<line fill="none" stroke="#88ABDD" stroke-width="3" stroke-linecap="round" stroke-miterlimit="10" x1="177.45" y1="220.99" x2="188.54" y2="220.99"/>
	
		<line fill="none" stroke="#88ABDD" stroke-width="3" stroke-linecap="round" stroke-miterlimit="10" x1="286.719" y1="220.99" x2="241.34" y2="220.99"/>
	
		<line fill="none" stroke="#88ABDD" stroke-width="3" stroke-linecap="round" stroke-miterlimit="10" x1="79.232" y1="220.99" x2="68.143" y2="220.99"/>
</g>
</svg>
