<?xml version="1.0" encoding="utf-8"?>
<!-- Generator: Adobe Illustrator 16.0.0, SVG Export Plug-In . SVG Version: 6.00 Build 0)  -->
<!DOCTYPE svg PUBLIC "-//W3C//DTD SVG 1.1//EN" "http://www.w3.org/Graphics/SVG/1.1/DTD/svg11.dtd">
<svg version="1.1" id="图层_1" xmlns="http://www.w3.org/2000/svg" xmlns:xlink="http://www.w3.org/1999/xlink" x="0px" y="0px"
	 width="800px" height="320.5px" viewBox="0 0 800 320.5" enable-background="new 0 0 800 320.5" xml:space="preserve">
<g>
	<g>
		<g>
			<g>
				<path fill="#498CF3" d="M594.909,257.281c-0.54-1.764-1.775-3.414-3.53-3.98c-1.756-0.564-3.983,0.291-4.529,2.053
					c-1.615-1.35-4.09-0.277-5.388,1.379c-2.099,2.678-0.477,7.064-0.127,7.348c0.379,0.309,1.404,0.254,1.404,0.254l15.705-0.088
					c0,0,2.881-0.209,4.21-0.74c2.676-1.066,4.496-5.67,2.773-7.98c-1.173-1.574-3.489-1.908-5.36-1.311
					C598.197,254.812,596.383,255.982,594.909,257.281"/>
			</g>
			<g>
				<path fill="#226EDD" d="M582.515,264.857c-0.397,0-1.107-0.051-1.507-0.375c-0.615-0.5-2.181-5.23,0.046-8.07
					c0.938-1.197,2.343-2.027,3.668-2.166c0.691-0.08,1.337,0.041,1.899,0.334c0.337-0.605,0.871-1.113,1.549-1.467
					c1.033-0.535,2.292-0.652,3.368-0.305c1.562,0.502,2.871,1.82,3.606,3.596c1.529-1.24,3.199-2.182,4.765-2.684
					c1.876-0.598,4.532-0.385,5.935,1.496c0.808,1.084,0.995,2.684,0.512,4.393c-0.576,2.041-1.953,3.76-3.508,4.379
					c-1.389,0.555-4.245,0.766-4.366,0.775l-15.739,0.088C582.69,264.855,582.612,264.857,582.515,264.857z M585.124,255.26
					c-0.096,0-0.193,0.006-0.294,0.016c-1.039,0.109-2.202,0.809-2.96,1.775c-1.843,2.352-0.466,6.273-0.165,6.67
					c0.069,0.049,0.588,0.119,1.006,0.096l15.729-0.088c-0.007-0.002,2.782-0.209,4.022-0.705c1.247-0.496,2.41-1.982,2.895-3.695
					c0.395-1.395,0.269-2.668-0.345-3.492c-1.098-1.475-3.253-1.617-4.787-1.125c-1.633,0.521-3.399,1.572-4.974,2.959
					c-0.132,0.117-0.314,0.158-0.483,0.109c-0.17-0.049-0.304-0.18-0.355-0.348c-0.554-1.812-1.748-3.172-3.193-3.637
					c-0.815-0.262-1.778-0.174-2.571,0.24c-0.651,0.338-1.114,0.859-1.304,1.473c-0.052,0.164-0.183,0.293-0.349,0.342
					c-0.165,0.049-0.345,0.014-0.479-0.098C586.127,255.426,585.658,255.26,585.124,255.26z"/>
			</g>
		</g>
		<g>
			<g>
				<g>
					<path fill="#498CF3" d="M578.394,256.686c-0.449,0.875-0.643,1.824-0.536,2.805c0.054,0.492,0.832,0.496,0.778,0
						c-0.093-0.846,0.039-1.652,0.429-2.412C579.293,256.633,578.622,256.24,578.394,256.686L578.394,256.686z"/>
				</g>
			</g>
		</g>
		<g>
			<g>
				<g>
					<path fill="#498CF3" d="M576.124,257.309c-0.245,0.881-0.263,1.76-0.067,2.65c0.107,0.488,0.857,0.281,0.75-0.207
						c-0.166-0.756-0.14-1.492,0.067-2.236C577.008,257.033,576.258,256.826,576.124,257.309L576.124,257.309z"/>
				</g>
			</g>
		</g>
		<g>
			<g>
				<g>
					<path fill="#498CF3" d="M580.486,255.73c0.501,0,0.502-0.777,0-0.777C579.986,254.953,579.985,255.73,580.486,255.73
						L580.486,255.73z"/>
				</g>
			</g>
		</g>
		<g>
			<g>
				<g>
					<path fill="#498CF3" d="M582.69,259.49c0,0.23,0,0.461,0,0.691c0,0.5,0.778,0.502,0.778,0c0-0.23,0-0.461,0-0.691
						C583.469,258.99,582.69,258.988,582.69,259.49L582.69,259.49z"/>
				</g>
			</g>
		</g>
		<g>
			<g>
				<g>
					<path fill="#498CF3" d="M595.827,260.701c0,0.115,0,0.23,0,0.346c0,0.5,0.777,0.5,0.777,0c0-0.115,0-0.23,0-0.346
						C596.604,260.199,595.827,260.199,595.827,260.701L595.827,260.701z"/>
				</g>
			</g>
		</g>
		<g>
			<g>
				<g>
					<path fill="#498CF3" d="M594.385,259.766c0.058,0.057,0.115,0.115,0.173,0.172c0.354,0.355,0.905-0.195,0.55-0.549
						c-0.057-0.059-0.114-0.115-0.172-0.174C594.581,258.861,594.03,259.41,594.385,259.766L594.385,259.766z"/>
				</g>
			</g>
		</g>
	</g>
	<g>
		<path fill="#405B91" d="M360.154,242.621h-26.329c-0.572,0-1.037-0.465-1.037-1.037c0-0.574,0.465-1.037,1.037-1.037h26.329
			c0.573,0,1.037,0.463,1.037,1.037C361.191,242.156,360.728,242.621,360.154,242.621z"/>
	</g>
	<g>
		<g>
			<path fill="#FFFFFF" d="M605.21,151.307h-0.752c0-0.621-0.506-1.127-1.128-1.127c-0.621,0-1.127,0.506-1.127,1.127h-0.753
				c0-1.035,0.844-1.879,1.88-1.879C604.367,149.428,605.21,150.271,605.21,151.307z"/>
		</g>
	</g>
	<g>
		<g>
			<path fill="#FFFFFF" d="M607.899,107.522h-0.752c0-0.622-0.506-1.128-1.128-1.128s-1.128,0.506-1.128,1.128h-0.752
				c0-1.037,0.844-1.88,1.88-1.88C607.057,105.643,607.899,106.486,607.899,107.522z"/>
		</g>
	</g>
	<g>
		<g>
			<g>
				<path fill="#415B91" d="M514.293,259.674h-35.785l0.607-1.439c2.346-5.566,2.589-10.332,2.231-15.777l-0.071-1.102l30.17-0.092
					l0.008,1.031c0.025,3.52,0.979,11.514,2.411,16.029L514.293,259.674z M481.596,257.6h29.9
					c-1.15-4.352-1.934-10.643-2.089-14.256l-25.927,0.08C483.727,248.252,483.432,252.645,481.596,257.6z"/>
			</g>
		</g>
	</g>
	<g>
		<g>
			<g>
				<path fill="#415B91" d="M468.219,243.324c-27.168,0-49.176-0.148-50.143-0.494c-2.324-0.828-5.363-4.051-5.405-6.336
					c-0.088-4.951-0.301-11.691-0.548-19.5c-0.744-23.537-1.762-55.773-0.44-73.611c0.241-3.25,2.926-5.76,6.135-5.76
					c0.034,0,0.069,0,0.103,0l156.632,0.234c3.312,0.057,5.97,2.729,6.047,6.084c0.119,5.211,0.289,10.535,0.46,15.934
					c0.717,22.598,1.458,45.965-1.045,68.062c-0.099,0.871-0.142,1.834-0.187,2.83c-0.211,4.637-0.474,10.408-6.449,11.586
					C570.456,242.93,512.489,243.324,468.219,243.324z M417.83,139.291c-2.352,0-4.309,1.836-4.485,4.215
					c-1.315,17.75-0.298,49.936,0.444,73.436c0.248,7.812,0.461,14.561,0.549,19.523c0.026,1.441,2.438,4.133,4.299,4.797
					c3.335,0.68,150.591,0.178,154.419-0.543c4.691-0.926,4.902-5.553,5.106-10.027c0.047-1.035,0.094-2.035,0.195-2.941
					c2.489-21.977,1.749-45.285,1.034-67.824c-0.171-5.4-0.34-10.73-0.461-15.945c-0.056-2.457-1.989-4.415-4.401-4.459
					l-156.624-0.23C417.881,139.291,417.855,139.291,417.83,139.291z"/>
			</g>
		</g>
	</g>
	<g>
		<g>
			<path fill-rule="evenodd" clip-rule="evenodd" fill="#B6D0FB" d="M570.17,143.246l-147.575-0.193
				c-2.654-0.041-4.883,1.779-5.082,4.158c-1.653,19.752,0.601,60.965,0.935,77.551c0.032,1.615,2.67,4.039,4.571,4.641
				c2.237,0.707,142.48,0.172,145.908-0.426c6.155-1.074,5.107-7.379,5.624-11.412c2.921-22.812,1.127-47.611,0.545-69.924
				C575.033,145.225,572.86,143.287,570.17,143.246z"/>
		</g>
	</g>
	<g>
		<g>
			<g>
				<path fill="#415B91" d="M527.096,265.352h-61.404c-2.438,0-3.712-1.916-3.712-3.809c0-1.896,1.274-3.816,3.712-3.816h61.404
					c2.437,0,3.711,1.918,3.711,3.811C530.807,263.432,529.532,265.352,527.096,265.352z M465.691,259.395
					c-1.613,0-2.045,1.35-2.045,2.148c0,0.795,0.432,2.143,2.045,2.143h61.404c1.613,0,2.044-1.35,2.044-2.148
					c0-0.797-0.431-2.143-2.044-2.143H465.691z"/>
			</g>
		</g>
	</g>
	<g>
		<g>
			<g>
				<g>
					<g>
						<path fill-rule="evenodd" clip-rule="evenodd" fill="#415B91" d="M422.928,235.371
							C422.565,235.371,422.565,235.371,422.928,235.371"/>
					</g>
				</g>
			</g>
			<g>
				<g>
					<g>
						<g>
							<path fill="#415B91" d="M422.928,237.514c2.758,0,2.763-4.285,0-4.285C420.171,233.229,420.166,237.514,422.928,237.514
								L422.928,237.514z"/>
						</g>
					</g>
				</g>
			</g>
		</g>
		<g>
			<g>
				<g>
					<g>
						<path fill-rule="evenodd" clip-rule="evenodd" fill="#415B91" d="M431.568,235.371
							C431.205,235.371,431.205,235.371,431.568,235.371"/>
					</g>
				</g>
			</g>
			<g>
				<g>
					<g>
						<g>
							<path fill="#415B91" d="M431.568,237.514c2.758,0,2.762-4.285,0-4.285C428.811,233.229,428.807,237.514,431.568,237.514
								L431.568,237.514z"/>
						</g>
					</g>
				</g>
			</g>
		</g>
		<g>
			<g>
				<g>
					<g>
						<path fill-rule="evenodd" clip-rule="evenodd" fill="#415B91" d="M440.208,235.371
							C439.846,235.371,439.846,235.371,440.208,235.371"/>
					</g>
				</g>
			</g>
			<g>
				<g>
					<g>
						<g>
							<path fill="#415B91" d="M440.208,237.514c2.758,0,2.763-4.285,0-4.285C437.451,233.229,437.445,237.514,440.208,237.514
								L440.208,237.514z"/>
						</g>
					</g>
				</g>
			</g>
		</g>
	</g>
	<g>
		<g>
			<g>
				<g>
					<path fill-rule="evenodd" clip-rule="evenodd" fill="#415B91" d="M496.393,140.967
						C496.223,140.967,496.223,140.967,496.393,140.967"/>
				</g>
			</g>
		</g>
		<g>
			<g>
				<g>
					<g>
						<path fill="#415B91" d="M496.393,141.973c1.295,0,1.297-2.012,0-2.012C495.1,139.96,495.098,141.973,496.393,141.973
							L496.393,141.973z"/>
					</g>
				</g>
			</g>
		</g>
	</g>
	<g>
		<g>
			<polygon fill="#B6D0FB" points="669.566,261.279 648.408,261.279 656.546,234.551 661.429,234.551 			"/>
		</g>
		<g>
			<rect x="646.66" y="261.279" fill="#B6D0FB" width="24.654" height="3.055"/>
		</g>
		<g>
			<polygon fill="#415B91" points="650.442,254.598 648.408,261.279 669.566,261.279 667.532,254.598 			"/>
		</g>
		<g>
			<polygon fill="#415B91" points="652.478,247.916 665.498,247.916 663.463,241.234 654.512,241.234 			"/>
		</g>
	</g>
	<g id="XMLID_11_">
		<g id="XMLID_493_">
			<path fill="#B6D0FB" d="M678.219,264.16h4.695v-18.178h24.1v18.178h4.695v-18.178h4.972v-14.516h-3.966v-1.342h-6.841v1.342
				h-21.351v-1.342h-6.841v1.342h-4.354v14.516h4.891V264.16z M715.165,232.982v0.061l-2.894,11.424h-5.165l2.909-11.484H715.165z
				 M701.696,244.467h-5.164l2.909-11.484h5.164L701.696,244.467z M691.122,244.467h-5.165l2.909-11.484h5.165L691.122,244.467z
				 M678.292,232.982h5.164l-2.909,11.484h-5.164L678.292,232.982z"/>
		</g>
	</g>
	<g>
		<g>
			<g>
				<path fill="#B6D0FB" d="M447.295,86.452l1.406-1.407c0.287-0.284,0.287-0.747,0-1.033l-1.225-1.223
					c-0.282-0.286-0.357-0.804-0.164-1.156l0.998-2.424c0.113-0.388,0.537-0.704,0.938-0.704h1.734c0.402,0,0.729-0.328,0.729-0.726
					v-1.994c0-0.404-0.327-0.728-0.729-0.728h-1.734c-0.4,0-0.824-0.315-0.938-0.702l-0.998-2.422
					c-0.193-0.354-0.118-0.873,0.164-1.159l1.225-1.223c0.287-0.286,0.287-0.749,0-1.029l-1.406-1.412
					c-0.285-0.284-0.748-0.284-1.031,0l-1.227,1.225c-0.285,0.284-0.803,0.358-1.154,0.168l-2.427-1
					c-0.386-0.114-0.7-0.534-0.7-0.937v-1.735c0-0.4-0.326-0.731-0.729-0.731h-1.99c-0.404,0-0.73,0.331-0.73,0.731v1.735
					c0,0.403-0.314,0.823-0.701,0.937l-2.426,1c-0.352,0.19-0.873,0.116-1.154-0.168l-1.229-1.224c-0.282-0.286-0.745-0.286-1.027,0
					l-1.412,1.411c-0.285,0.281-0.285,0.743,0,1.029l1.226,1.223c0.284,0.286,0.359,0.806,0.167,1.159l-0.999,2.422
					c-0.113,0.387-0.536,0.702-0.937,0.702h-1.736c-0.4,0-0.729,0.324-0.729,0.728v1.994c0,0.398,0.328,0.726,0.729,0.726h1.736
					c0.4,0,0.823,0.315,0.937,0.704l0.999,2.424c0.192,0.354,0.117,0.87-0.167,1.156l-1.226,1.223c-0.285,0.286-0.285,0.749,0,1.033
					l1.412,1.407c0.282,0.288,0.745,0.288,1.027,0l1.229-1.224c0.281-0.284,0.803-0.358,1.156-0.165l2.424,0.998
					c0.387,0.111,0.701,0.534,0.701,0.936v1.738c0,0.398,0.326,0.728,0.73,0.728h1.99c0.402,0,0.729-0.329,0.729-0.728v-1.738
					c0-0.402,0.314-0.825,0.7-0.936l2.427-0.998c0.352-0.194,0.869-0.119,1.154,0.165l1.227,1.224
					C446.547,86.74,447.01,86.74,447.295,86.452z M439.031,82.6c-3.214,0-5.82-2.607-5.82-5.818c0-3.214,2.606-5.818,5.82-5.818
					s5.819,2.604,5.819,5.818C444.851,79.993,442.245,82.6,439.031,82.6z"/>
			</g>
		</g>
		<g>
			<g>
				<path fill="#B6D0FB" d="M460.752,91.952l-0.355-1.182c-0.074-0.239-0.326-0.375-0.564-0.303l-1.026,0.312
					c-0.239,0.073-0.547-0.04-0.683-0.251l-1.033-1.253c-0.174-0.173-0.225-0.497-0.105-0.717l0.506-0.946
					c0.119-0.222,0.035-0.496-0.182-0.613l-1.088-0.583c-0.219-0.119-0.494-0.033-0.612,0.186l-0.509,0.946
					c-0.117,0.218-0.413,0.357-0.655,0.307l-1.618-0.163c-0.246,0.002-0.512-0.189-0.582-0.43l-0.312-1.027
					c-0.07-0.237-0.323-0.375-0.562-0.3l-1.183,0.354c-0.242,0.074-0.373,0.326-0.302,0.566l0.313,1.026
					c0.072,0.241-0.041,0.544-0.254,0.681l-1.254,1.035c-0.172,0.177-0.497,0.222-0.716,0.105l-0.948-0.507
					c-0.217-0.118-0.493-0.037-0.609,0.185l-0.585,1.085c-0.114,0.222-0.034,0.497,0.185,0.613l0.947,0.511
					c0.222,0.116,0.358,0.411,0.308,0.653l-0.161,1.616c0,0.25-0.191,0.515-0.432,0.583l-1.027,0.313
					c-0.24,0.071-0.376,0.326-0.303,0.563l0.357,1.18c0.071,0.241,0.325,0.375,0.565,0.301l1.028-0.31
					c0.236-0.071,0.541,0.043,0.677,0.25l1.034,1.256c0.176,0.173,0.224,0.498,0.107,0.717l-0.509,0.946
					c-0.115,0.219-0.033,0.493,0.187,0.614l1.086,0.581c0.22,0.118,0.494,0.035,0.613-0.184l0.509-0.948
					c0.114-0.222,0.413-0.357,0.655-0.308l1.614,0.165c0.253,0,0.515,0.19,0.585,0.431l0.311,1.026
					c0.072,0.239,0.327,0.376,0.564,0.302l1.181-0.357c0.237-0.071,0.374-0.326,0.306-0.562l-0.312-1.027
					c-0.074-0.238,0.037-0.548,0.246-0.681l1.256-1.033c0.174-0.177,0.499-0.225,0.718-0.109l0.946,0.508
					c0.221,0.122,0.498,0.037,0.613-0.184l0.582-1.088c0.119-0.217,0.033-0.494-0.186-0.612l-0.948-0.509
					c-0.22-0.12-0.357-0.411-0.306-0.651l0.164-1.622c-0.002-0.246,0.192-0.511,0.429-0.582l1.028-0.311
					C460.688,92.442,460.824,92.191,460.752,91.952z M456.23,95.335c-0.939,1.757-3.13,2.417-4.881,1.477
					c-1.756-0.941-2.417-3.127-1.477-4.879c0.939-1.76,3.13-2.419,4.883-1.478C456.508,91.397,457.17,93.582,456.23,95.335z"/>
			</g>
		</g>
	</g>
	<g>
		<path fill="#405B91" d="M519.639,114.732h-32.6c-0.572,0-1.037-0.465-1.037-1.037c0-0.573,0.465-1.038,1.037-1.038h32.6
			c0.572,0,1.037,0.464,1.037,1.038C520.676,114.267,520.211,114.732,519.639,114.732z"/>
	</g>
	<g>
		<path fill="#405B91" d="M449.387,129.541h-52.665c-0.574,0-1.042-0.465-1.042-1.037s0.468-1.037,1.042-1.037h52.665
			c0.572,0,1.037,0.465,1.037,1.037S449.959,129.541,449.387,129.541z"/>
	</g>
	<g>
		<path fill="#405B91" d="M705.748,157.578h-52.657c-0.573,0-1.037-0.463-1.037-1.037c0-0.572,0.464-1.037,1.037-1.037h52.657
			c0.573,0,1.037,0.465,1.037,1.037C706.785,157.115,706.321,157.578,705.748,157.578z"/>
	</g>
	<g>
		<path fill="#405B91" d="M726.118,266.389H200.232c-0.756,0-1.369-0.463-1.369-1.037c0-0.572,0.613-1.037,1.369-1.037h525.886
			c0.756,0,1.368,0.465,1.368,1.037C727.486,265.926,726.874,266.389,726.118,266.389z"/>
	</g>
	<g>
		<g>
			<g>
				<path fill="#B6D0FB" d="M580.312,101.706c-2.233,0-4.333,0.87-5.913,2.45c-2.693,2.693-3.229,6.867-1.302,10.148l0.138,0.231
					l-8.469,8.468c-0.011,0.012-0.411,0.4-0.417,0.963c-0.004,0.426,0.211,0.857,0.64,1.287c0.455,0.453,0.932,0.684,1.415,0.684
					c0.582,0,0.993-0.336,0.997-0.338l8.446-8.451l0.234,0.138c1.278,0.751,2.742,1.147,4.233,1.147
					c2.233,0,4.333-0.869,5.912-2.448c3.261-3.262,3.261-8.567,0-11.829C584.647,102.576,582.546,101.706,580.312,101.706z
					 M580.312,115.951c-3.241,0-5.879-2.638-5.88-5.88c0.001-3.242,2.64-5.882,5.882-5.882l0,0c3.243,0,5.881,2.639,5.881,5.882
					C586.194,113.313,583.556,115.951,580.312,115.951z"/>
			</g>
		</g>
		<g>
			<g>
				<path fill="#B6D0FB" d="M577.212,111.293h6.057v-1.55h-6.057V111.293z"/>
			</g>
		</g>
	</g>
	<g>
		<g>
			<path fill="#405B91" d="M424.998,264.469c-0.572,0-1.037-0.465-1.037-1.037v-79.873c0-0.572,0.465-1.037,1.037-1.037
				c0.573,0,1.037,0.465,1.037,1.037v79.873C426.035,264.004,425.571,264.469,424.998,264.469z"/>
		</g>
		<g>
			<path fill="#405B91" d="M443.561,264.469c-0.573,0-1.037-0.465-1.037-1.037v-79.873c0-0.572,0.464-1.037,1.037-1.037
				c0.572,0,1.037,0.465,1.037,1.037v79.873C444.598,264.004,444.133,264.469,443.561,264.469z"/>
		</g>
		<g>
			<path fill="#405B91" d="M443.561,190.053h-18.562c-0.572,0-1.037-0.463-1.037-1.037c0-0.572,0.465-1.037,1.037-1.037h18.562
				c0.572,0,1.037,0.465,1.037,1.037C444.598,189.59,444.133,190.053,443.561,190.053z"/>
		</g>
		<g>
			<path fill="#405B91" d="M443.561,199.18h-18.562c-0.572,0-1.037-0.465-1.037-1.037c0-0.574,0.465-1.037,1.037-1.037h18.562
				c0.572,0,1.037,0.463,1.037,1.037C444.598,198.715,444.133,199.18,443.561,199.18z"/>
		</g>
		<g>
			<path fill="#405B91" d="M443.561,208.305h-18.562c-0.572,0-1.037-0.465-1.037-1.037c0-0.574,0.465-1.037,1.037-1.037h18.562
				c0.572,0,1.037,0.463,1.037,1.037C444.598,207.84,444.133,208.305,443.561,208.305z"/>
		</g>
		<g>
			<path fill="#405B91" d="M443.561,217.43h-18.562c-0.572,0-1.037-0.465-1.037-1.037c0-0.574,0.465-1.037,1.037-1.037h18.562
				c0.572,0,1.037,0.463,1.037,1.037C444.598,216.965,444.133,217.43,443.561,217.43z"/>
		</g>
		<g>
			<path fill="#405B91" d="M443.561,226.555h-18.562c-0.572,0-1.037-0.465-1.037-1.037c0-0.574,0.465-1.037,1.037-1.037h18.562
				c0.572,0,1.037,0.463,1.037,1.037C444.598,226.09,444.133,226.555,443.561,226.555z"/>
		</g>
		<g>
			<path fill="#405B91" d="M443.561,235.68h-18.562c-0.572,0-1.037-0.465-1.037-1.037c0-0.574,0.465-1.037,1.037-1.037h18.562
				c0.572,0,1.037,0.463,1.037,1.037C444.598,235.215,444.133,235.68,443.561,235.68z"/>
		</g>
		<g>
			<path fill="#405B91" d="M443.561,244.805h-18.562c-0.572,0-1.037-0.465-1.037-1.037c0-0.574,0.465-1.037,1.037-1.037h18.562
				c0.572,0,1.037,0.463,1.037,1.037C444.598,244.34,444.133,244.805,443.561,244.805z"/>
		</g>
		<g>
			<path fill="#405B91" d="M443.561,253.928h-18.562c-0.572,0-1.037-0.463-1.037-1.037c0-0.572,0.465-1.037,1.037-1.037h18.562
				c0.572,0,1.037,0.465,1.037,1.037C444.598,253.465,444.133,253.928,443.561,253.928z"/>
		</g>
	</g>
	<g>
		<g>
			<path fill="#405B91" d="M399.221,187.434c-0.572,0-1.037-0.465-1.037-1.037v-4.039c0-0.572,0.465-1.037,1.037-1.037
				c0.573,0,1.037,0.465,1.037,1.037v4.039C400.258,186.969,399.794,187.434,399.221,187.434z"/>
		</g>
		<g>
			<path fill="#405B91" d="M401.24,185.414h-4.04c-0.572,0-1.037-0.465-1.037-1.037s0.465-1.037,1.037-1.037h4.04
				c0.572,0,1.037,0.465,1.037,1.037S401.812,185.414,401.24,185.414z"/>
		</g>
	</g>
	<g>
		<g>
			<path fill="#405B91" d="M492.986,42.997c-0.573,0-1.037-0.464-1.037-1.037v-4.038c0-0.573,0.464-1.037,1.037-1.037
				c0.572,0,1.037,0.464,1.037,1.037v4.038C494.023,42.533,493.559,42.997,492.986,42.997z"/>
		</g>
		<g>
			<path fill="#405B91" d="M495.005,40.978h-4.037c-0.573,0-1.037-0.464-1.037-1.037s0.464-1.037,1.037-1.037h4.037
				c0.573,0,1.037,0.464,1.037,1.037S495.578,40.978,495.005,40.978z"/>
		</g>
	</g>
	<g>
		<g>
			<path fill="#405B91" d="M525.68,252.062c-0.094,0-0.189-0.014-0.285-0.041l-3.883-1.107c-0.551-0.158-0.869-0.73-0.712-1.281
				s0.732-0.865,1.281-0.713l3.883,1.107c0.551,0.158,0.87,0.73,0.712,1.281C526.547,251.766,526.131,252.062,525.68,252.062z"/>
		</g>
		<g>
			<path fill="#405B91" d="M523.184,253.449c-0.094,0-0.189-0.014-0.285-0.039c-0.551-0.158-0.869-0.732-0.713-1.283l1.109-3.883
				c0.158-0.551,0.732-0.863,1.281-0.713c0.552,0.158,0.871,0.732,0.713,1.283l-1.109,3.883
				C524.051,253.152,523.635,253.449,523.184,253.449z"/>
		</g>
	</g>
	<g>
		<g>
			<path fill="#405B91" d="M505.28,130.095c-0.094,0-0.189-0.012-0.284-0.039l-3.883-1.109c-0.551-0.158-0.871-0.732-0.713-1.281
				c0.158-0.553,0.729-0.871,1.281-0.713l3.883,1.109c0.551,0.156,0.87,0.73,0.713,1.281
				C506.146,129.798,505.731,130.095,505.28,130.095z"/>
		</g>
		<g>
			<path fill="#405B91" d="M502.785,131.482c-0.094,0-0.189-0.014-0.285-0.041c-0.551-0.156-0.87-0.73-0.713-1.281l1.109-3.883
				c0.156-0.551,0.729-0.869,1.281-0.711c0.551,0.156,0.869,0.73,0.713,1.281l-1.109,3.883
				C503.651,131.185,503.236,131.482,502.785,131.482z"/>
		</g>
	</g>
	<g>
		<g>
			<g>
				<circle fill="#B6D0FB" cx="502.56" cy="91.875" r="14.407"/>
			</g>
		</g>
		<g>
			<g>
				<g>
					<circle fill="#FFFFFF" cx="502.56" cy="91.875" r="10.792"/>
				</g>
			</g>
			<g>
				<g>
					<g>
						<path fill="#405B91" d="M502.561,103.085c-6.182,0-11.211-5.028-11.211-11.21c0-6.181,5.029-11.21,11.211-11.21
							s11.21,5.029,11.21,11.21C513.771,98.057,508.742,103.085,502.561,103.085z M502.561,81.5
							c-5.721,0-10.375,4.654-10.375,10.375c0,5.721,4.654,10.375,10.375,10.375s10.375-4.654,10.375-10.375
							C512.936,86.154,508.281,81.5,502.561,81.5z"/>
					</g>
				</g>
			</g>
		</g>
		<g>
			<g>
				<g>
					<path fill="#405B91" d="M502.561,92.292c-0.23,0-0.418-0.187-0.418-0.417V86.38c0-0.23,0.188-0.417,0.418-0.417
						s0.418,0.187,0.418,0.417v5.495C502.979,92.106,502.791,92.292,502.561,92.292z"/>
				</g>
			</g>
			<g>
				<g>
					<path fill="#405B91" d="M508.998,92.292h-6.438c-0.23,0-0.418-0.187-0.418-0.417c0-0.23,0.188-0.417,0.418-0.417h6.438
						c0.23,0,0.418,0.187,0.418,0.417C509.416,92.106,509.229,92.292,508.998,92.292z"/>
				</g>
			</g>
		</g>
		<g>
			<g>
				<g>
					<circle fill="#405B91" cx="502.561" cy="82.301" r="0.426"/>
				</g>
			</g>
			<g>
				<g>
					<circle fill="#405B91" cx="509.33" cy="85.105" r="0.426"/>
				</g>
			</g>
			<g>
				<g>
					<circle fill="#405B91" cx="512.135" cy="91.875" r="0.426"/>
				</g>
			</g>
			<g>
				<g>
					<circle fill="#405B91" cx="509.33" cy="98.645" r="0.426"/>
				</g>
			</g>
			<g>
				<g>
					<circle fill="#405B91" cx="502.561" cy="101.449" r="0.426"/>
				</g>
			</g>
			<g>
				<g>
					<circle fill="#405B91" cx="495.791" cy="98.645" r="0.426"/>
				</g>
			</g>
			<g>
				<g>
					<circle fill="#405B91" cx="492.986" cy="91.875" r="0.426"/>
				</g>
			</g>
			<g>
				<g>
					<circle fill="#405B91" cx="495.791" cy="85.105" r="0.426"/>
				</g>
			</g>
		</g>
		<g>
			<g>
				<g>
					<path fill="#405B91" d="M523.635,86.374h-6.049c-0.23,0-0.418-0.187-0.418-0.417c0-0.231,0.188-0.417,0.418-0.417h6.049
						c0.231,0,0.418,0.187,0.418,0.417C524.053,86.187,523.866,86.374,523.635,86.374z"/>
				</g>
			</g>
			<g>
				<g>
					<path fill="#405B91" d="M523.635,98.212h-6.049c-0.23,0-0.418-0.187-0.418-0.417c0-0.23,0.188-0.417,0.418-0.417h6.049
						c0.231,0,0.418,0.187,0.418,0.417C524.053,98.025,523.866,98.212,523.635,98.212z"/>
				</g>
			</g>
			<g>
				<g>
					<path fill="#405B91" d="M531.155,92.294h-11.3c-0.23,0-0.417-0.187-0.417-0.417c0-0.23,0.187-0.417,0.417-0.417h11.3
						c0.23,0,0.417,0.187,0.417,0.417C531.572,92.108,531.386,92.294,531.155,92.294z"/>
				</g>
			</g>
		</g>
	</g>
	<g>
		<g>
			<rect x="544.188" y="247.916" fill="#FFFFFF" width="6.683" height="6.682"/>
			<path fill="#415B91" d="M551.39,255.115h-7.72v-7.719h7.72V255.115z M544.707,254.078h5.646v-5.645h-5.646V254.078z"/>
		</g>
		<g>
			<g>
				<g>
					<path fill="#405B91" d="M559.328,249.385h-6.05c-0.23,0-0.417-0.188-0.417-0.418s0.187-0.418,0.417-0.418h6.05
						c0.23,0,0.417,0.188,0.417,0.418S559.559,249.385,559.328,249.385z"/>
				</g>
			</g>
			<g>
				<g>
					<path fill="#405B91" d="M561.601,253.963h-8.175c-0.312,0-0.564-0.186-0.564-0.416c0-0.232,0.252-0.418,0.564-0.418h8.175
						c0.312,0,0.564,0.186,0.564,0.418C562.165,253.777,561.912,253.963,561.601,253.963z"/>
				</g>
			</g>
			<g>
				<g>
					<path fill="#405B91" d="M564.578,251.545h-11.3c-0.23,0-0.417-0.186-0.417-0.418c0-0.23,0.187-0.416,0.417-0.416h11.3
						c0.23,0,0.417,0.186,0.417,0.416C564.995,251.359,564.809,251.545,564.578,251.545z"/>
				</g>
			</g>
		</g>
	</g>
	<g>
		<g>
			<rect x="394.462" y="149.859" fill="#FFFFFF" width="6.696" height="6.682"/>
			<path fill="#415B91" d="M401.677,157.061h-7.733v-7.719h7.733V157.061z M394.98,156.023h5.659v-5.645h-5.659V156.023z"/>
		</g>
		<g>
			<g>
				<g>
					<path fill="#405B91" d="M386.005,151.328h6.049c0.23,0,0.418-0.186,0.418-0.416c0-0.232-0.188-0.418-0.418-0.418h-6.049
						c-0.23,0-0.418,0.186-0.418,0.418C385.587,151.143,385.774,151.328,386.005,151.328z"/>
				</g>
			</g>
			<g>
				<g>
					<path fill="#405B91" d="M383.731,155.908h8.176c0.312,0,0.564-0.188,0.564-0.418s-0.253-0.418-0.564-0.418h-8.176
						c-0.312,0-0.564,0.188-0.564,0.418S383.42,155.908,383.731,155.908z"/>
				</g>
			</g>
			<g>
				<g>
					<path fill="#405B91" d="M380.755,153.49h11.299c0.23,0,0.418-0.188,0.418-0.418s-0.188-0.418-0.418-0.418h-11.299
						c-0.23,0-0.418,0.188-0.418,0.418S380.524,153.49,380.755,153.49z"/>
				</g>
			</g>
		</g>
	</g>
	<g>
		<g>
			<rect x="601.256" y="174.969" fill="#3F5B91" width="2.074" height="89.193"/>
		</g>
		<g>
			<path fill="#B6D0FB" d="M602.521,185.76h-0.456c-3.385,0-6.153-2.768-6.153-6.152v-8.24c0-3.385,2.769-6.154,6.153-6.154h0.456
				c3.384,0,6.153,2.77,6.153,6.154v8.24C608.675,182.992,605.905,185.76,602.521,185.76z"/>
		</g>
		<g>
			<g>
				<path fill="#3F5B91" d="M610.646,179.793c0.729,0.117,1.459,0.234,2.189,0.352c0.489,0.078,0.7-0.67,0.206-0.75
					c-0.729-0.117-1.459-0.234-2.188-0.352C610.362,178.965,610.152,179.713,610.646,179.793L610.646,179.793z"/>
			</g>
		</g>
		<g>
			<g>
				<path fill="#3F5B91" d="M610.57,175.039c0.572-0.102,1.142-0.113,1.719-0.059c0.498,0.047,0.495-0.732,0-0.779
					c-0.649-0.061-1.283-0.025-1.926,0.088C609.871,174.377,610.08,175.127,610.57,175.039L610.57,175.039z"/>
			</g>
		</g>
		<g>
			<g>
				<path fill="#3F5B91" d="M610.333,170.709c0.56-0.221,1.118-0.443,1.678-0.666c0.46-0.182,0.26-0.934-0.206-0.75
					c-0.56,0.223-1.119,0.445-1.679,0.666C609.666,170.143,609.867,170.895,610.333,170.709L610.333,170.709z"/>
			</g>
		</g>
		<g>
			<g>
				<path fill="#3F5B91" d="M591.262,180.516c0.574-0.078,1.13-0.211,1.679-0.398c0.471-0.162,0.269-0.914-0.207-0.75
					c-0.549,0.188-1.104,0.32-1.679,0.398C590.562,179.834,590.771,180.584,591.262,180.516L591.262,180.516z"/>
			</g>
		</g>
		<g>
			<g>
				<path fill="#3F5B91" d="M590.252,174.988c0.721,0.02,1.417,0.127,2.11,0.322c0.482,0.137,0.688-0.615,0.207-0.75
					c-0.758-0.213-1.53-0.33-2.317-0.352C589.752,174.195,589.752,174.975,590.252,174.988L590.252,174.988z"/>
			</g>
		</g>
		<g>
			<g>
				<path fill="#3F5B91" d="M590.932,168.59c0.56,0.178,1.119,0.355,1.68,0.535c0.478,0.152,0.683-0.598,0.206-0.75
					c-0.56-0.18-1.119-0.357-1.68-0.535C590.66,167.688,590.455,168.438,590.932,168.59L590.932,168.59z"/>
			</g>
		</g>
		<g>
			<polygon fill="#405B91" points="597.453,265.371 598.836,253.449 605.577,253.449 607.133,265.197 			"/>
		</g>
	</g>
	<g>
		<g>
			<g>
				<g>
					<path fill="#498CF3" d="M396.353,208.295c-0.309-1.895-1.658-6.787-4.625-5.238c-4.803,2.506,0.988,12.02-4.797,13.697
						c-0.308-3.793-1.123-6.404-2.835-6.25c-3.531,0.32-2.594,8.535-2.65,10.385c-0.058,1.84-0.149,3.729-0.232,5.635
						c-4.156,0.744-3.335-10.092-5.861-11.592c-3.929-2.33-4.764,2.863-4.655,5.264c0.184,4.082,1.281,8.967,5.116,11.135
						c1.265,0.715,3.492,1.521,5.229,1.375c-0.018,3.266,0.121,6.51,0.66,9.607c0.006,0.033,0.062,0.033,0.067,0
						c0.001-0.004,0.001-0.006,0.001-0.008l2.328,0.125c-0.001,0.014-0.002,0.029-0.002,0.043c-0.021,1.023,1.576,1.025,1.591,0
						c0.028-1.971,1.239-11.643,1.384-19.84c1.868,0.277,4.216-0.586,5.561-1.568C396.618,218.154,397.084,212.801,396.353,208.295z
						"/>
				</g>
				<g>
					<path fill="#226EDD" d="M384.878,243.684c-0.235,0-0.47-0.061-0.671-0.182c-0.25-0.152-0.424-0.379-0.504-0.652l-1.715-0.092
						l-0.625,0.021l-0.096-0.393c-0.459-2.629-0.672-5.57-0.669-9.221c-1.911-0.002-4.005-0.889-5.004-1.451
						c-4.09-2.314-5.162-7.531-5.34-11.5c-0.072-1.598,0.265-4.9,2.052-5.971c0.907-0.545,2.008-0.441,3.27,0.309
						c1.223,0.725,1.688,2.949,2.227,5.525c0.73,3.488,1.387,6,2.986,6.039l0.037-0.855c0.067-1.482,0.133-2.949,0.178-4.387
						c0.009-0.281-0.006-0.715-0.025-1.248c-0.111-3.234-0.318-9.254,3.077-9.561c0.524-0.051,1.003,0.104,1.417,0.453
						c0.947,0.797,1.554,2.641,1.847,5.625c2.156-0.957,2.045-3.443,1.917-6.291c-0.128-2.881-0.261-5.859,2.284-7.188
						c0.826-0.43,1.615-0.465,2.344-0.102c2.122,1.057,2.85,5.191,2.927,5.66l0,0c0.562,3.455,0.801,9.766-3.897,13.195
						c-1.31,0.957-3.518,1.797-5.391,1.699c-0.12,5.352-0.67,11.246-1.036,15.186c-0.184,1.975-0.33,3.533-0.338,4.174
						c-0.008,0.451-0.229,0.83-0.607,1.041C385.324,243.629,385.101,243.684,384.878,243.684z M382.076,241.879l2.475,0.133
						l-0.012,0.432c-0.006,0.205,0.067,0.268,0.123,0.303c0.122,0.072,0.303,0.072,0.431,0c0.103-0.055,0.151-0.145,0.153-0.279
						c0.009-0.676,0.148-2.172,0.342-4.242c0.375-4.045,0.945-10.156,1.041-15.6l0.009-0.502l0.497,0.074
						c1.725,0.256,3.983-0.576,5.233-1.488c4.318-3.152,4.075-9.086,3.547-12.342l0,0c-0.232-1.428-1.042-4.312-2.447-5.012
						c-0.465-0.234-0.967-0.203-1.535,0.092c-2.047,1.068-1.931,3.643-1.809,6.367c0.133,2.994,0.285,6.391-3.069,7.365l-0.52,0.15
						l-0.045-0.539c-0.307-3.781-1.031-5.129-1.586-5.596c-0.234-0.197-0.479-0.277-0.77-0.25c-2.564,0.23-2.368,5.918-2.273,8.652
						c0.02,0.555,0.034,1.01,0.025,1.305c-0.045,1.441-0.111,2.914-0.178,4.398l-0.071,1.596l-0.347,0.061
						c-2.845,0.51-3.645-3.318-4.352-6.697c-0.455-2.174-0.926-4.422-1.812-4.949c-0.963-0.568-1.759-0.676-2.366-0.311
						c-1.316,0.789-1.695,3.594-1.624,5.174c0.169,3.748,1.153,8.658,4.893,10.771c1.29,0.729,3.399,1.449,4.975,1.32l0.481-0.041
						l-0.003,0.484C381.462,236.352,381.651,239.279,382.076,241.879z"/>
				</g>
			</g>
			<g>
				<g>
					<g>
						<path fill="#415B91" d="M391.757,264.352h-16.905c-0.9,0-1.62-0.588-1.79-1.465l-3.834-19.678l1.592-0.311l3.833,19.678
							c0.029,0.154,0.157,0.154,0.199,0.154h16.905c0.041,0,0.17,0,0.199-0.152l3.822-19.678l1.598,0.307l-3.82,19.68
							C393.386,263.764,392.662,264.352,391.757,264.352z"/>
					</g>
				</g>
			</g>
			<g>
				<g>
					<g>
						<path fill="#B6D0FB" d="M369.399,236.877h28.073c0.479,0,0.871,0.529,0.871,1.176v4.26c0,0.646-0.392,1.174-0.871,1.174
							h-28.073c-0.478,0-0.868-0.527-0.868-1.174v-4.26C368.531,237.406,368.922,236.877,369.399,236.877z"/>
					</g>
					<g>
						<path fill="#405B91" d="M397.473,243.928h-28.073c-0.722,0-1.31-0.725-1.31-1.615v-4.262c0-0.889,0.588-1.615,1.31-1.615
							h28.073c0.726,0,1.312,0.727,1.312,1.615v4.262C398.785,243.203,398.198,243.928,397.473,243.928z M369.399,237.318
							c-0.201,0-0.427,0.314-0.427,0.732v4.262c0,0.418,0.226,0.732,0.427,0.732h28.073c0.203,0,0.429-0.314,0.429-0.732v-4.262
							c0-0.418-0.226-0.732-0.429-0.732H369.399z"/>
					</g>
				</g>
				<g>
					<g>
						<path fill="#B6D0FB" d="M397.473,243.855h-28.073c-0.682,0-1.237-0.691-1.237-1.543v-4.26c0-0.852,0.556-1.545,1.237-1.545
							h28.073c0.686,0,1.24,0.693,1.24,1.545v4.26C398.713,243.164,398.158,243.855,397.473,243.855z M369.399,237.246
							c-0.236,0-0.499,0.332-0.499,0.807v4.26c0,0.475,0.263,0.805,0.499,0.805h28.073c0.237,0,0.501-0.33,0.501-0.805v-4.26
							c0-0.475-0.264-0.807-0.501-0.807H369.399z"/>
					</g>
					<g>
						<path fill="#405B91" d="M397.473,244.297h-28.073c-0.926,0-1.678-0.891-1.678-1.984v-4.26c0-1.096,0.752-1.986,1.678-1.986
							h28.073c0.929,0,1.682,0.891,1.682,1.986v4.26C399.154,243.406,398.401,244.297,397.473,244.297z M369.45,237.688
							c-0.04,0.045-0.108,0.168-0.108,0.365v4.26c0,0.227,0.091,0.355,0.124,0.379l28.007-0.016
							c-0.033-0.008,0.058-0.137,0.058-0.363v-4.26c0-0.227-0.092-0.357-0.125-0.379L369.45,237.688z"/>
					</g>
				</g>
			</g>
		</g>
		<g>
			<g>
				<path fill="#498CF3" d="M372.456,220.148c0.46,0.059,0.921,0.117,1.382,0.176c0.495,0.064,0.49-0.715,0-0.777
					c-0.461-0.059-0.922-0.117-1.382-0.176C371.96,219.309,371.965,220.086,372.456,220.148L372.456,220.148z"/>
			</g>
		</g>
		<g>
			<g>
				<path fill="#498CF3" d="M374.489,214.031c0,0.23,0,0.461,0,0.691c0,0.502,0.778,0.502,0.778,0c0-0.23,0-0.461,0-0.691
					C375.268,213.531,374.489,213.531,374.489,214.031L374.489,214.031z"/>
			</g>
		</g>
		<g>
			<g>
				<path fill="#498CF3" d="M377.18,221.164c0.338-0.188,0.675-0.375,1.012-0.562c0.438-0.244,0.046-0.916-0.393-0.672
					c-0.337,0.188-0.674,0.375-1.012,0.562C376.35,220.736,376.741,221.408,377.18,221.164L377.18,221.164z"/>
			</g>
		</g>
		<g>
			<g>
				<path fill="#498CF3" d="M373.185,230.113c0.406-0.283,0.812-0.568,1.219-0.852c0.407-0.285,0.019-0.959-0.393-0.672
					c-0.406,0.283-0.812,0.568-1.219,0.852C372.386,229.727,372.773,230.4,373.185,230.113L373.185,230.113z"/>
			</g>
		</g>
		<g>
			<g>
				<path fill="#498CF3" d="M370.269,223.426c0.289,0.113,0.578,0.227,0.867,0.34c0.467,0.182,0.668-0.57,0.207-0.75
					c-0.289-0.113-0.578-0.227-0.867-0.34C370.01,222.492,369.808,223.244,370.269,223.426L370.269,223.426z"/>
			</g>
		</g>
		<g>
			<g>
				<path fill="#498CF3" d="M375.916,227.037c0.186,0.012,0.295,0.1,0.408,0.238c0.319,0.387,0.867-0.166,0.551-0.551
					c-0.25-0.303-0.574-0.438-0.959-0.467C375.416,226.223,375.418,227,375.916,227.037L375.916,227.037z"/>
			</g>
		</g>
		<g>
			<g>
				<path fill="#498CF3" d="M377.621,230.695c-0.084,0.545-0.023,1.01,0.19,1.516c0.194,0.459,0.864,0.064,0.671-0.393
					c-0.125-0.297-0.16-0.598-0.111-0.916C378.447,230.412,377.698,230.201,377.621,230.695L377.621,230.695z"/>
			</g>
		</g>
		<g>
			<g>
				<path fill="#498CF3" d="M381.686,230.84c0.229,0.061,0.459,0.121,0.688,0.184c0.483,0.129,0.69-0.621,0.207-0.75
					c-0.229-0.062-0.459-0.123-0.688-0.184C381.408,229.959,381.201,230.709,381.686,230.84L381.686,230.84z"/>
			</g>
		</g>
		<g>
			<g>
				<path fill="#498CF3" d="M384.169,223.193c-0.04,0.441,0.126,0.844,0.465,1.131c0.38,0.32,0.934-0.227,0.55-0.551
					c-0.197-0.166-0.26-0.326-0.236-0.58C384.992,222.695,384.214,222.697,384.169,223.193L384.169,223.193z"/>
			</g>
		</g>
		<g>
			<g>
				<path fill="#498CF3" d="M383.182,217.635c-0.227,0.309-0.266,0.623-0.201,0.992c0.087,0.492,0.836,0.283,0.75-0.207
					c-0.024-0.156,0.017-0.287,0.123-0.393C384.149,217.623,383.475,217.236,383.182,217.635L383.182,217.635z"/>
			</g>
		</g>
		<g>
			<g>
				<path fill="#498CF3" d="M387.454,219.908c0,0.23,0,0.461,0,0.691c0,0.5,0.781,0.502,0.781,0c0-0.23,0-0.461,0-0.691
					C388.235,219.408,387.454,219.408,387.454,219.908L387.454,219.908z"/>
			</g>
		</g>
		<g>
			<g>
				<path fill="#498CF3" d="M380.213,218.689c0.173,0.115,0.346,0.23,0.519,0.346c0.418,0.277,0.808-0.396,0.393-0.672
					c-0.173-0.115-0.346-0.23-0.519-0.346C380.188,217.738,379.798,218.412,380.213,218.689L380.213,218.689z"/>
			</g>
		</g>
		<g>
			<g>
				<path fill="#498CF3" d="M381.514,212.236c0.15,0.174,0.226,0.355,0.243,0.586c0.038,0.496,0.816,0.5,0.778,0
					c-0.035-0.447-0.181-0.799-0.471-1.137C381.738,211.305,381.19,211.857,381.514,212.236L381.514,212.236z"/>
			</g>
		</g>
		<g>
			<g>
				<path fill="#498CF3" d="M383.478,209.883c0,0.346,0,0.691,0,1.037c0,0.502,0.778,0.502,0.778,0c0-0.346,0-0.691,0-1.037
					C384.256,209.383,383.478,209.383,383.478,209.883L383.478,209.883z"/>
			</g>
		</g>
		<g>
			<g>
				<path fill="#498CF3" d="M388.292,214.453c0.112,0.117,0.225,0.236,0.338,0.354c0.348,0.363,0.9-0.188,0.554-0.549
					c-0.114-0.119-0.226-0.236-0.34-0.355C388.497,213.539,387.944,214.09,388.292,214.453L388.292,214.453z"/>
			</g>
		</g>
		<g>
			<g>
				<path fill="#498CF3" d="M389.066,209.818c0.347,0.02,0.692,0.039,1.04,0.059c0.502,0.029,0.5-0.75,0-0.777
					c-0.348-0.02-0.693-0.039-1.04-0.059C388.563,209.012,388.565,209.789,389.066,209.818L389.066,209.818z"/>
			</g>
		</g>
		<g>
			<g>
				<path fill="#498CF3" d="M390.175,203.59c0.23,0.23,0.462,0.461,0.694,0.691c0.355,0.355,0.909-0.195,0.552-0.549
					c-0.231-0.23-0.463-0.461-0.695-0.691C390.37,202.686,389.817,203.236,390.175,203.59L390.175,203.59z"/>
			</g>
		</g>
		<g>
			<g>
				<path fill="#498CF3" d="M393.186,201.586c0,0.404,0,0.807,0,1.211c0,0.5,0.782,0.502,0.782,0c0-0.404,0-0.807,0-1.211
					C393.968,201.086,393.186,201.086,393.186,201.586L393.186,201.586z"/>
			</g>
		</g>
		<g>
			<g>
				<path fill="#498CF3" d="M394.603,208.865c0.115-0.174,0.229-0.346,0.344-0.52c0.278-0.42-0.398-0.811-0.674-0.393
					c-0.115,0.174-0.229,0.346-0.346,0.52C393.65,208.893,394.325,209.281,394.603,208.865L394.603,208.865z"/>
			</g>
		</g>
		<g>
			<g>
				<path fill="#498CF3" d="M391.952,216.504c0.291-0.111,0.582-0.225,0.872-0.338c0.464-0.178,0.263-0.932-0.208-0.75
					c-0.291,0.113-0.581,0.227-0.871,0.338C391.282,215.934,391.483,216.686,391.952,216.504L391.952,216.504z"/>
			</g>
		</g>
		<g>
			<g>
				<path fill="#498CF3" d="M395.413,215.42c0.289-0.061,0.577-0.121,0.866-0.18c0.491-0.102,0.284-0.852-0.208-0.75
					c-0.289,0.059-0.578,0.119-0.866,0.18C394.712,214.77,394.921,215.52,395.413,215.42L395.413,215.42z"/>
			</g>
		</g>
		<g>
			<g>
				<path fill="#498CF3" d="M393.186,219.045c0,0.057,0,0.115,0,0.172c0,0.5,0.782,0.502,0.782,0c0-0.057,0-0.115,0-0.172
					C393.968,218.543,393.186,218.543,393.186,219.045L393.186,219.045z"/>
			</g>
		</g>
		<g>
			<g>
				<path fill="#498CF3" d="M386.478,230.953c0.173-0.115,0.346-0.23,0.519-0.346c0.415-0.275,0.025-0.949-0.393-0.672
					c-0.173,0.115-0.346,0.23-0.519,0.346C385.67,230.559,386.06,231.232,386.478,230.953L386.478,230.953z"/>
			</g>
		</g>
		<g>
			<g>
				<path fill="#498CF3" d="M386.023,233.82c0.311-0.297,0.642-0.469,1.059-0.566c0.489-0.113,0.282-0.865-0.207-0.75
					c-0.541,0.127-1,0.383-1.4,0.766C385.111,233.617,385.662,234.166,386.023,233.82L386.023,233.82z"/>
			</g>
		</g>
		<g>
			<g>
				<path fill="#498CF3" d="M382.82,234.287c0.059,0.115,0.117,0.23,0.176,0.346c0.227,0.445,0.898,0.053,0.671-0.393
					c-0.058-0.115-0.116-0.23-0.175-0.346C383.265,233.449,382.594,233.842,382.82,234.287L382.82,234.287z"/>
			</g>
		</g>
		<g>
			<g>
				<path fill="#498CF3" d="M379.858,235.125c0.437,0.227,0.862,0.283,1.343,0.186c0.49-0.1,0.283-0.85-0.207-0.75
					c-0.272,0.055-0.498,0.02-0.743-0.107C379.807,234.223,379.414,234.893,379.858,235.125L379.858,235.125z"/>
			</g>
		</g>
		<g>
			<g>
				<path fill="#498CF3" d="M386.288,227.748c0.519-0.066,1.037-0.131,1.557-0.195c0.492-0.061,0.498-0.84,0-0.777
					c-0.52,0.064-1.038,0.129-1.557,0.193C385.799,227.031,385.792,227.809,386.288,227.748L386.288,227.748z"/>
			</g>
		</g>
	</g>
	<g>
		<g>
			<g>
				<path fill="#D7E7FF" d="M466.76,193.662c8.371-7.568,16.742-15.137,25.113-22.705c1.241-1.121-0.598-2.949-1.832-1.832
					c-8.372,7.568-16.744,15.137-25.115,22.703C463.686,192.951,465.523,194.779,466.76,193.662L466.76,193.662z"/>
			</g>
		</g>
		<g>
			<g>
				<path fill="#D7E7FF" d="M495.143,205.242c8.371-7.568,16.742-15.135,25.114-22.703c1.24-1.123-0.598-2.951-1.833-1.834
					c-8.372,7.568-16.743,15.137-25.115,22.705C492.068,204.531,493.906,206.359,495.143,205.242L495.143,205.242z"/>
			</g>
		</g>
		<g>
			<g>
				<path fill="#D7E7FF" d="M464.301,213.82c17.547-17.109,35.092-34.217,52.638-51.326c1.196-1.168-0.638-3-1.833-1.834
					c-17.546,17.109-35.092,34.219-52.637,51.328C461.271,213.154,463.105,214.986,464.301,213.82L464.301,213.82z"/>
			</g>
		</g>
	</g>
	<g>
		<g>
			<g>
				<g>
					<g>
						<rect x="543.625" y="54.215" fill="#415B91" width="1.128" height="72.439"/>
					</g>
				</g>
				<g>
					<g>
						<circle fill="#415B91" cx="544.189" cy="126.654" r="4.598"/>
					</g>
				</g>
				<g>
					<g>
						<path fill="#415B91" d="M544.253,142.078c-0.076,0-1.577-0.014-2.673-1.107c-0.73-0.731-1.102-1.743-1.102-3.012
							c0-0.336,0.272-0.607,0.608-0.607s0.608,0.271,0.608,0.607c0,0.936,0.251,1.656,0.745,2.15
							c0.735,0.735,1.802,0.752,1.812,0.752c1.717,0,3.112-1.393,3.112-3.11c0-1.715-1.396-3.111-3.111-3.111
							c-0.336,0-0.608-0.271-0.608-0.607v-3.381c0-0.336,0.272-0.609,0.608-0.609c0.337,0,0.608,0.273,0.608,0.609v2.814
							c2.1,0.297,3.72,2.105,3.72,4.285C548.582,140.136,546.641,142.078,544.253,142.078
							C544.254,142.078,544.254,142.078,544.253,142.078z"/>
					</g>
				</g>
			</g>
			<g>
				<g>
					<g>
						<path fill="#415B91" d="M520.105,144.91c-0.232-0.041-0.425-0.227-0.461-0.475c-0.045-0.307,0.168-0.594,0.477-0.639
							l24.889-3.668c0.309-0.047,0.596,0.168,0.641,0.477c0.045,0.309-0.168,0.594-0.477,0.641l-24.889,3.666
							C520.224,144.922,520.164,144.92,520.105,144.91z"/>
					</g>
				</g>
				<g>
					<g>
						<path fill="#415B91" d="M567.882,153.193c-0.056-0.01-0.111-0.029-0.164-0.057l-22.887-11.949
							c-0.276-0.145-0.384-0.484-0.239-0.762c0.145-0.275,0.484-0.385,0.762-0.238l22.886,11.95
							c0.276,0.145,0.384,0.484,0.239,0.762C568.362,153.121,568.117,153.234,567.882,153.193z"/>
					</g>
				</g>
				<g>
					<path fill="#FFFFFF" d="M566.015,200.973l-60.955-10.592c-3.194-0.555-5.333-3.594-4.778-6.787l6.099-35.098
						c0.556-3.193,3.595-5.334,6.788-4.779l60.955,10.592c3.193,0.555,5.333,3.594,4.777,6.789l-6.098,35.098
						C572.247,199.389,569.209,201.527,566.015,200.973z"/>
					<path fill="#415B91" d="M566.847,201.805c-0.39,0-0.783-0.035-1.181-0.104l-60.525-10.516
						c-1.807-0.314-3.383-1.314-4.438-2.812c-1.056-1.5-1.464-3.32-1.149-5.127l6.023-34.67c0.648-3.729,4.211-6.234,7.939-5.588
						l60.525,10.518c1.807,0.314,3.384,1.312,4.439,2.812c1.055,1.498,1.463,3.32,1.15,5.127l-6.024,34.668
						C573.026,199.447,570.119,201.803,566.847,201.805z M512.338,144.441c-2.533,0-4.781,1.824-5.229,4.402l-6.024,34.668
						c-0.243,1.396,0.073,2.805,0.89,3.965s2.035,1.932,3.433,2.176l60.526,10.516c2.881,0.506,5.638-1.438,6.14-4.32l6.024-34.67
						c0.242-1.396-0.073-2.805-0.89-3.965s-2.036-1.932-3.433-2.174l-60.526-10.518
						C512.943,144.467,512.639,144.441,512.338,144.441z"/>
				</g>
				<g>
					<path fill="#B6D0FB" d="M565.558,197.172l-58.786-10.215c-2.04-0.354-3.407-2.297-3.053-4.336l5.569-32.051
						c0.354-2.041,2.296-3.406,4.337-3.053l58.785,10.215c2.041,0.355,3.407,2.297,3.053,4.338l-5.568,32.049
						C569.54,196.16,567.598,197.527,565.558,197.172z"/>
					<path fill="#405B91" d="M566.096,197.984c-0.269,0-0.539-0.023-0.808-0.07l-58.513-10.168c-1.228-0.213-2.299-0.891-3.017-1.91
						s-0.995-2.258-0.782-3.486l5.521-31.775c0.439-2.535,2.857-4.242,5.396-3.799l58.512,10.168c2.536,0.439,4.24,2.861,3.8,5.396
						l-5.521,31.775c-0.214,1.229-0.892,2.299-1.912,3.018C567.978,197.693,567.049,197.984,566.096,197.984z M565.553,196.381
						c0.818,0.143,1.646-0.043,2.324-0.52c0.68-0.479,1.133-1.193,1.274-2.012l5.521-31.777c0.294-1.689-0.843-3.303-2.532-3.598
						l-58.512-10.166c-1.688-0.293-3.305,0.842-3.599,2.533l-5.521,31.775c-0.143,0.818,0.043,1.643,0.521,2.322
						c0.478,0.68,1.191,1.133,2.011,1.275L565.553,196.381z"/>
				</g>
				<g>
					<polygon fill="#FFFFFF" points="537.67,192.326 552.882,178.385 561.3,196.432 					"/>
					<path fill="#415B91" d="M562.189,197.113l-25.647-4.457l16.511-15.131L562.189,197.113z M538.799,191.996l21.61,3.756
						l-7.699-16.506L538.799,191.996z"/>
				</g>
				<g>
					<polygon fill="#FFFFFF" points="507.593,187.1 534.561,162.385 549.485,194.379 					"/>
					<path fill="#415B91" d="M550.376,195.061l-43.911-7.631l28.267-25.906L550.376,195.061z M508.721,186.77l39.874,6.93
						l-14.206-30.455L508.721,186.77z"/>
				</g>
				<g>
					<circle fill="#FFFFFF" cx="562.912" cy="166.425" r="3.771"/>
					<path fill="#415B91" d="M562.92,170.715c-0.246,0-0.495-0.021-0.743-0.064c-2.331-0.404-3.896-2.629-3.491-4.961
						c0.195-1.129,0.819-2.113,1.757-2.773c0.936-0.658,2.072-0.914,3.204-0.719c1.128,0.197,2.113,0.82,2.772,1.758
						s0.915,2.074,0.718,3.203c-0.195,1.129-0.819,2.113-1.757,2.773C564.649,170.447,563.796,170.715,562.92,170.715z
						 M562.904,163.17c-0.664,0-1.312,0.205-1.865,0.594c-0.711,0.502-1.184,1.248-1.333,2.104c-0.147,0.857,0.046,1.719,0.545,2.43
						c0.501,0.711,1.248,1.184,2.104,1.332c0.851,0.148,1.718-0.045,2.429-0.545s1.184-1.248,1.333-2.104l0,0
						c0.307-1.768-0.881-3.453-2.648-3.762C563.28,163.188,563.092,163.17,562.904,163.17z"/>
				</g>
			</g>
			<g>
				<g>
					<rect x="534.292" y="51.778" fill="#B6D0FB" width="56.527" height="6.22"/>
				</g>
			</g>
			<g>
				<g>
					<g>
						<g>
							<g>
								<g>
									<path fill="#415B91" d="M639.943,180.381h-18.766V14.462h18.766V180.381z M623.033,178.525h15.054V16.318h-15.054V178.525z
										"/>
								</g>
							</g>
							<g>
								<g>
									<g>
										<path fill="#415B91" d="M639.708,32.674h-18.296V14.379h18.296V32.674z M623.293,30.793h14.534V16.26h-14.534V30.793z"/>
									</g>
								</g>
								<g>
									<g>
										
											<rect x="618.953" y="22.586" transform="matrix(0.7071 0.7071 -0.7071 0.7071 201.3088 -438.9698)" fill="#415B91" width="23.214" height="1.881"/>
									</g>
								</g>
								<g>
									<g>
										
											<rect x="629.62" y="11.92" transform="matrix(0.7072 0.707 -0.707 0.7072 201.2377 -438.9037)" fill="#415B91" width="1.881" height="23.214"/>
									</g>
								</g>
							</g>
							<g>
								<g>
									<g>
										<path fill="#415B91" d="M639.708,49.088h-18.296V30.793h18.296V49.088z M623.293,47.208h14.534V32.674h-14.534V47.208z"/>
									</g>
								</g>
								<g>
									<g>
										
											<rect x="618.953" y="39.001" transform="matrix(0.7071 0.7071 -0.7071 0.7071 212.9222 -434.1687)" fill="#415B91" width="23.214" height="1.881"/>
									</g>
								</g>
								<g>
									<g>
										
											<rect x="629.62" y="28.334" transform="matrix(0.7071 0.7071 -0.7071 0.7071 212.9293 -434.1749)" fill="#415B91" width="1.881" height="23.214"/>
									</g>
								</g>
							</g>
							<g>
								<g>
									<g>
										<path fill="#415B91" d="M639.708,65.503h-18.296V47.208h18.296V65.503z M623.293,63.622h14.534V49.088h-14.534V63.622z"/>
									</g>
								</g>
								<g>
									<g>
										
											<rect x="618.953" y="55.414" transform="matrix(0.7071 0.7071 -0.7071 0.7071 224.5213 -429.3552)" fill="#415B91" width="23.214" height="1.881"/>
									</g>
								</g>
								<g>
									<g>
										
											<rect x="629.62" y="44.748" transform="matrix(0.7072 0.707 -0.707 0.7072 224.4466 -429.2927)" fill="#415B91" width="1.881" height="23.214"/>
									</g>
								</g>
							</g>
							<g>
								<g>
									<g>
										<path fill="#415B91" d="M639.708,81.917h-18.296V63.622h18.296V81.917z M623.293,80.036h14.534V65.503h-14.534V80.036z"/>
									</g>
								</g>
								<g>
									<g>
										
											<rect x="618.953" y="71.829" transform="matrix(0.7071 0.7071 -0.7071 0.7071 236.1352 -424.5537)" fill="#415B91" width="23.214" height="1.881"/>
									</g>
								</g>
								<g>
									<g>
										
											<rect x="629.62" y="61.163" transform="matrix(0.7071 0.7071 -0.7071 0.7071 236.1426 -424.5596)" fill="#415B91" width="1.881" height="23.214"/>
									</g>
								</g>
							</g>
							<g>
								<g>
									<g>
										<path fill="#415B91" d="M639.708,98.331h-18.296V80.036h18.296V98.331z M623.293,96.451h14.534V81.917h-14.534V96.451z"/>
									</g>
								</g>
								<g>
									<g>
										
											<rect x="618.953" y="88.243" transform="matrix(0.7071 0.7071 -0.7071 0.7071 247.7339 -419.7407)" fill="#415B91" width="23.214" height="1.881"/>
									</g>
								</g>
								<g>
									<g>
										
											<rect x="629.62" y="77.577" transform="matrix(0.7072 0.707 -0.707 0.7072 247.6557 -419.6817)" fill="#415B91" width="1.881" height="23.214"/>
									</g>
								</g>
							</g>
							<g>
								<g>
									<g>
										<path fill="#415B91" d="M639.708,114.746h-18.296V96.451h18.296V114.746z M623.293,112.865h14.534V98.331h-14.534V112.865
											z"/>
									</g>
								</g>
								<g>
									<g>
										
											<rect x="618.953" y="104.658" transform="matrix(0.7071 0.7071 -0.7071 0.7071 259.3482 -414.9388)" fill="#415B91" width="23.214" height="1.881"/>
									</g>
								</g>
								<g>
									<g>
										
											<rect x="629.62" y="93.991" transform="matrix(0.7072 0.707 -0.707 0.7072 259.2604 -414.8762)" fill="#415B91" width="1.881" height="23.214"/>
									</g>
								</g>
							</g>
							<g>
								<g>
									<g>
										<path fill="#415B91" d="M639.708,131.16h-18.296v-18.294h18.296V131.16z M623.293,129.279h14.534v-14.533h-14.534V129.279
											z"/>
									</g>
								</g>
								<g>
									<g>
										
											<rect x="618.953" y="121.072" transform="matrix(0.7071 0.7071 -0.7071 0.7071 270.9468 -410.126)" fill="#415B91" width="23.214" height="1.881"/>
									</g>
								</g>
								<g>
									<g>
										
											<rect x="629.62" y="110.406" transform="matrix(0.7071 0.7071 -0.7071 0.7071 270.9626 -410.1367)" fill="#415B91" width="1.881" height="23.213"/>
									</g>
								</g>
							</g>
							<g>
								<g>
									<g>
										<path fill="#415B91" d="M639.708,147.574h-18.296v-18.295h18.296V147.574z M623.293,145.693h14.534V131.16h-14.534
											V145.693z"/>
									</g>
								</g>
								<g>
									<g>
										
											<rect x="618.953" y="137.486" transform="matrix(0.7071 0.7071 -0.7071 0.7071 282.561 -405.3239)" fill="#415B91" width="23.214" height="1.881"/>
									</g>
								</g>
								<g>
									<g>
										
											<rect x="629.62" y="126.82" transform="matrix(0.7071 0.7071 -0.7071 0.7071 282.5691 -405.3291)" fill="#415B91" width="1.881" height="23.214"/>
									</g>
								</g>
							</g>
							<g>
								<g>
									<g>
										<path fill="#415B91" d="M639.708,163.988h-18.296v-18.295h18.296V163.988z M623.293,162.107h14.534v-14.533h-14.534
											V162.107z"/>
									</g>
								</g>
								<g>
									<g>
										
											<rect x="618.953" y="153.9" transform="matrix(0.7071 0.7071 -0.7071 0.7071 294.1592 -400.5115)" fill="#415B91" width="23.214" height="1.881"/>
									</g>
								</g>
								<g>
									<g>
										
											<rect x="629.62" y="143.234" transform="matrix(0.7071 0.7071 -0.7071 0.7071 294.1758 -400.5215)" fill="#415B91" width="1.881" height="23.214"/>
									</g>
								</g>
							</g>
							<g>
								<g>
									<g>
										<path fill="#415B91" d="M639.708,180.402h-18.296v-18.295h18.296V180.402z M623.293,178.521h14.534v-14.533h-14.534
											V178.521z"/>
									</g>
								</g>
								<g>
									<g>
										
											<rect x="618.953" y="170.314" transform="matrix(0.7071 0.7071 -0.7071 0.7071 305.7654 -395.7042)" fill="#415B91" width="23.214" height="1.881"/>
									</g>
								</g>
								<g>
									<g>
										
											<rect x="629.62" y="159.648" transform="matrix(0.7071 0.7071 -0.7071 0.7071 305.7823 -395.7139)" fill="#415B91" width="1.881" height="23.214"/>
									</g>
								</g>
							</g>
						</g>
						<g>
							<g>
								<g>
									<g>
										<path fill="#415B91" d="M672.369,48.841h-18.295V30.546h18.295V48.841z M655.954,46.96h14.534V32.427h-14.534V46.96z"/>
									</g>
								</g>
								<g>
									<g>
										
											<rect x="662.281" y="28.086" transform="matrix(0.7075 0.7067 -0.7067 0.7075 222.047 -457.0998)" fill="#415B91" width="1.881" height="23.214"/>
									</g>
								</g>
								<g>
									<g>
										
											<rect x="651.615" y="38.753" transform="matrix(0.7071 0.7071 -0.7071 0.7071 222.3058 -457.3295)" fill="#415B91" width="23.214" height="1.882"/>
									</g>
								</g>
							</g>
							<g>
								<g>
									<g>
										<path fill="#415B91" d="M655.954,48.841H637.66V30.546h18.294V48.841z M639.54,46.96h14.534V32.427H639.54V46.96z"/>
									</g>
								</g>
								<g>
									<g>
										
											<rect x="645.866" y="28.087" transform="matrix(0.7072 0.707 -0.707 0.7072 217.4236 -445.6566)" fill="#415B91" width="1.881" height="23.213"/>
									</g>
								</g>
								<g>
									<g>
										
											<rect x="635.2" y="38.753" transform="matrix(0.7071 0.7071 -0.7071 0.7071 217.5127 -445.7354)" fill="#415B91" width="23.213" height="1.881"/>
									</g>
								</g>
							</g>
							<g>
								<g>
									<path fill="#415B91" d="M639.54,48.841h-18.295V30.546h18.295V48.841z M623.126,46.96h14.534V32.427h-14.534V46.96z"/>
								</g>
							</g>
							<g>
								<g>
									<g>
										<path fill="#415B91" d="M623.126,48.841h-18.295V30.546h18.295V48.841z M606.712,46.96h14.533V32.427h-14.533V46.96z"/>
									</g>
								</g>
								<g>
									<g>
										
											<rect x="613.038" y="28.087" transform="matrix(0.7072 0.707 -0.707 0.7072 207.8127 -422.4479)" fill="#415B91" width="1.881" height="23.213"/>
									</g>
								</g>
								<g>
									<g>
										
											<rect x="602.372" y="38.753" transform="matrix(0.7071 0.7071 -0.7071 0.7071 207.8976 -422.5225)" fill="#415B91" width="23.213" height="1.881"/>
									</g>
								</g>
							</g>
							<g>
								<g>
									<g>
										<path fill="#415B91" d="M606.712,48.841h-18.295V30.546h18.295V48.841z M590.297,46.96h14.534V32.427h-14.534V46.96z"/>
									</g>
								</g>
								<g>
									<g>
										
											<rect x="596.624" y="28.087" transform="matrix(0.707 0.7072 -0.7072 0.707 203.1726 -410.9881)" fill="#415B91" width="1.88" height="23.213"/>
									</g>
								</g>
								<g>
									<g>
										
											<rect x="585.957" y="38.753" transform="matrix(0.7071 0.7071 -0.7071 0.7071 203.0899 -410.9156)" fill="#415B91" width="23.213" height="1.88"/>
									</g>
								</g>
							</g>
							<g>
								<g>
									<g>
										<path fill="#415B91" d="M590.297,48.841h-18.295V30.546h18.295V48.841z M573.883,46.96h14.534V32.427h-14.534V46.96z"/>
									</g>
								</g>
								<g>
									<g>
										<path fill="#415B91" d="M572.942,48.841h-16.414c-0.38,0-0.723-0.229-0.869-0.581c-0.145-0.351-0.064-0.755,0.204-1.024
											l16.414-16.415l1.33,1.33L558.799,46.96h13.754l16.14-16.139l1.329,1.33l-16.414,16.414
											C573.432,48.742,573.192,48.841,572.942,48.841z"/>
									</g>
								</g>
								<g>
									<g>
										
											<rect x="569.543" y="38.753" transform="matrix(0.7071 0.7071 -0.7071 0.7071 198.2693 -399.2978)" fill="#415B91" width="23.214" height="1.881"/>
									</g>
								</g>
							</g>
						</g>
					</g>
					<g>
						<g>
							<g>
								<path fill="#415B91" d="M639.983,198.676h-18.806v-18.295h18.806V198.676z M623.11,196.795h14.939v-14.533H623.11V196.795z"
									/>
							</g>
						</g>
						<g>
							<g>
								<polygon fill="#415B91" points="638.333,198.4 621.461,181.986 622.827,180.656 639.7,197.07 								"/>
							</g>
						</g>
						<g>
							<g>
								<polygon fill="#415B91" points="622.827,198.4 621.461,197.07 638.333,180.656 639.7,181.986 								"/>
							</g>
						</g>
					</g>
					<g>
						<g>
							<g>
								<path fill="#415B91" d="M639.983,264.334h-18.806v-18.295h18.806V264.334z M623.11,262.453h14.939V247.92H623.11V262.453z"
									/>
							</g>
						</g>
						<g>
							<g>
								<polygon fill="#415B91" points="638.333,264.059 621.461,247.645 622.827,246.314 639.7,262.729 								"/>
							</g>
						</g>
						<g>
							<g>
								<polygon fill="#415B91" points="622.827,264.059 621.461,262.729 638.333,246.314 639.7,247.645 								"/>
							</g>
						</g>
					</g>
				</g>
				<g>
					<g>
						<g>
							<path fill="#415B91" d="M639.983,213.535h-18.806V195.24h18.806V213.535z M623.11,211.654h14.939v-14.533H623.11V211.654z"/>
						</g>
					</g>
					<g>
						<g>
							<polygon fill="#415B91" points="638.333,213.26 621.461,196.846 622.827,195.516 639.7,211.93 							"/>
						</g>
					</g>
					<g>
						<g>
							<polygon fill="#415B91" points="622.827,213.26 621.461,211.93 638.333,195.516 639.7,196.846 							"/>
						</g>
					</g>
				</g>
				<g>
					<g>
						<g>
							<path fill="#415B91" d="M639.983,229.949h-18.806v-18.295h18.806V229.949z M623.11,228.068h14.939v-14.533H623.11V228.068z"
								/>
						</g>
					</g>
					<g>
						<g>
							<polygon fill="#415B91" points="638.333,229.674 621.461,213.26 622.827,211.93 639.7,228.344 							"/>
						</g>
					</g>
					<g>
						<g>
							<polygon fill="#415B91" points="622.827,229.674 621.461,228.344 638.333,211.93 639.7,213.26 							"/>
						</g>
					</g>
				</g>
				<g>
					<g>
						<g>
							<path fill="#415B91" d="M639.983,246.363h-18.806v-18.295h18.806V246.363z M623.11,244.482h14.939v-14.533H623.11V244.482z"
								/>
						</g>
					</g>
					<g>
						<g>
							<polygon fill="#415B91" points="638.333,246.088 621.461,229.674 622.827,228.344 639.7,244.758 							"/>
						</g>
					</g>
					<g>
						<g>
							<polygon fill="#415B91" points="622.827,246.088 621.461,244.758 638.333,228.344 639.7,229.674 							"/>
						</g>
					</g>
				</g>
			</g>
		</g>
	</g>
	<g>
		<path fill="#405B91" d="M430.11,112.378"/>
		<g>
			<path fill="#405B91" d="M430.11,113.933c2.002,0,2.005-3.111,0-3.111C428.108,110.822,428.105,113.933,430.11,113.933
				L430.11,113.933z"/>
		</g>
	</g>
	<g>
		<path fill="#405B91" d="M598.809,79.883"/>
		<g>
			<path fill="#405B91" d="M598.809,81.438c2.002,0,2.005-3.111,0-3.111C596.807,78.327,596.803,81.438,598.809,81.438
				L598.809,81.438z"/>
		</g>
	</g>
	<g>
		<path fill="#405B91" d="M668.639,191.195c0.23,0,0.461,0,0.691,0"/>
		<g>
			<path fill="#405B91" d="M668.639,192.75c0.23,0,0.461,0,0.691,0c0.813,0,1.593-0.715,1.556-1.555
				c-0.038-0.842-0.684-1.555-1.556-1.555c-0.23,0-0.461,0-0.691,0c-0.814,0-1.594,0.715-1.556,1.555
				C667.12,192.039,667.767,192.75,668.639,192.75L668.639,192.75z"/>
		</g>
	</g>
	<g>
		<path fill="#405B91" d="M325.033,214.012"/>
		<g>
			<path fill="#405B91" d="M325.033,215.566c2.002,0,2.005-3.111,0-3.111C323.031,212.455,323.027,215.566,325.033,215.566
				L325.033,215.566z"/>
		</g>
	</g>
	<g>
		<path fill="#405B91" d="M517.225,64.672"/>
		<g>
			<path fill="#405B91" d="M517.225,66.228c2.002,0,2.006-3.111,0-3.111C515.223,63.117,515.22,66.228,517.225,66.228
				L517.225,66.228z"/>
		</g>
	</g>
</g>
</svg>
