<?xml version="1.0" encoding="utf-8"?>
<!-- Generator: Adobe Illustrator 16.0.0, SVG Export Plug-In . SVG Version: 6.00 Build 0)  -->
<!DOCTYPE svg PUBLIC "-//W3C//DTD SVG 1.1//EN" "http://www.w3.org/Graphics/SVG/1.1/DTD/svg11.dtd">
<svg version="1.1" id="图层_1" xmlns="http://www.w3.org/2000/svg" xmlns:xlink="http://www.w3.org/1999/xlink" x="0px" y="0px"
	 width="477.08px" height="477.08px" viewBox="0 0 477.08 477.08" enable-background="new 0 0 477.08 477.08" xml:space="preserve">
<g>
	<path fill="#F3F3F3" d="M406.919,244.988L240.957,97.475L64.842,244.988v194.207c0,0-0.353,10.683,9.998,10.683
		c12.999,0,120.257-0.154,120.257-0.154l2.539-0.009V339.842h78.919v109.616h117.675c13.286,0,12.689-13.286,12.689-13.286V244.988z
		"/>
	<path fill="#F3F3F3" d="M242.413,27.202L0.001,240.747c0,0,14.919,27.587,47.582,0L242.413,75.91l182.78,163.8
		c37.761,27.234,51.885,0,51.885,0L242.413,27.202z"/>
	<polygon fill="#F3F3F3" points="420.691,172.199 420.691,75.468 373.727,75.468 373.882,132.474 	"/>
</g>
</svg>
