<?xml version="1.0" encoding="utf-8"?>
<!-- Generator: Adobe Illustrator 16.0.0, SVG Export Plug-In . SVG Version: 6.00 Build 0)  -->
<!DOCTYPE svg PUBLIC "-//W3C//DTD SVG 1.1//EN" "http://www.w3.org/Graphics/SVG/1.1/DTD/svg11.dtd">
<svg version="1.1" xmlns="http://www.w3.org/2000/svg" xmlns:xlink="http://www.w3.org/1999/xlink" x="0px" y="0px"
	 width="952.452px" height="772.462px" viewBox="0 0 952.452 772.462" enable-background="new 0 0 952.452 772.462"
	 xml:space="preserve">
	<defs>
		<filter id="offline-svg-shadow-1" x="0" y="0" width="200%" height="200%">
		  <feOffset result="offOut" in="SourceGraphic" dx="2" dy="2" />
		  <feColorMatrix result="matrixOut" in="offOut" type="matrix"
		  values="0.2 0 0 0 0 0 0.2 0 0 0 0 0 0.2 0 0 0 0 0 1 0" />
		  <feGaussianBlur result="blurOut" in="matrixOut" stdDeviation="2" />
		  <feBlend in="SourceGraphic" in2="blurOut" mode="normal" />
		</filter>
	</defs>
<g id="land">
	<g>
		<g>
			<path filter="url(#offline-svg-shadow-1)" fill="#5B99F4" d="M747.512,586.656c-2.683,7.567-9.513,14.538-9.549,25.335c-0.013,5.197,1.22,10.179,1.257,15.375
				c0.047,7.081-2.128,13.591-4.773,18.551c-6.041,11.313-14.429,16.503-22.501,21.325
				c-67.683,40.436-140.366,53.685-211.277,58.206c-13.571,0.877-27.142,1.294-40.723,1.294c-43.876,0-87.839-4.179-131.4-14.311
				c-40.616-9.416-64.438-16.722-103.279-41.81c-2.513-1.641-5.11-3.414-7.007-6.945c-3.348-6.232-3.747-16.243-6.356-23.658
				c-3.819-10.777-11.25-13.702-17.595-18.438c-6.356-4.729-13.014-15.696-11.323-28.292c1.052-7.872,4.979-12.858,8.605-17.106
				c4.675-5.465,9.256-10.593,13.835-15.438c11.3-11.909,10.73-20.8,22.244-30.797c39.439-34.245,111.602-58.276,232.276-60.302
				c45.551-0.765,97.923-7.627,143.13,3.378c23.369,5.698,49.362,9.506,71.354,26.192c16.762,12.741,31.222,17.935,48.4,27.14
				c6.288,3.37,13.71,7.729,17.015,11.101c5.555,5.668,11.731,16.371,11.716,25.38C751.539,574.978,750.087,579.391,747.512,586.656
				z"/>
		</g>
	</g>
	<path fill="#76A9F4" d="M699.587,570.855c-3.533,4.948-7.574,10.754-7.603,18.74c-0.011,3.845,0.971,7.529,1,11.373
		c0.037,5.237-1.693,10.053-3.801,13.722c-4.811,8.368-11.488,12.207-17.916,15.774c-53.893,29.909-111.768,39.709-168.23,43.054
		c-10.806,0.649-21.611,0.957-32.426,0.957c-34.937,0-69.942-3.091-104.628-10.585c-32.34-6.965-65.497-15.552-96.423-34.109
		c-2.001-1.212-4.068-2.524-5.579-5.137c-2.666-4.61-2.984-12.016-5.062-17.5c-3.041-7.972-8.958-10.136-14.01-13.638
		c-5.062-3.499-10.363-11.61-9.016-20.928c0.837-5.822,3.965-9.512,6.852-12.652c3.723-4.043,7.37-7.837,11.017-11.42
		c8.997-8.81,17.983-16.268,28.105-22.496c59.426-36.536,126.452-41.706,188.744-41.706c36.275,0,72.617,3.314,108.613,11.455
		c18.607,4.216,39.305,7.032,56.816,19.375c13.347,9.425,28.683,13.604,43.481,17.94c5.023,1.469,9.979,2.956,14.779,4.678
		c4.783,1.708,10.479,4.916,11.538,13.35C706.82,558.904,703.107,565.887,699.587,570.855z"/>
	<path fill="#D4ECF4" d="M673.984,563.889c-3.138,3.572-6.726,7.763-6.752,13.528c-0.009,2.775,0.862,5.437,0.889,8.209
		c0.033,3.782-1.504,7.258-3.376,9.907c-4.271,6.041-10.201,8.812-15.91,11.386c-47.861,21.592-99.259,28.666-149.401,31.081
		c-9.596,0.468-19.192,0.69-28.797,0.69c-31.027,0-62.114-2.23-92.918-7.642c-28.72-5.027-58.166-11.226-85.63-24.622
		c-1.777-0.875-3.614-1.823-4.956-3.709c-2.367-3.327-2.65-8.674-4.495-12.632c-2.7-5.755-7.956-7.317-12.441-9.845
		c-4.495-2.526-9.203-8.382-8.007-15.109c0.744-4.202,3.521-6.865,6.085-9.132c3.306-2.92,6.545-5.657,9.783-8.244
		c7.991-6.36,15.971-11.743,24.96-16.24c52.774-26.374,112.299-30.106,167.619-30.106c32.215,0,64.489,2.392,96.456,8.269
		c16.526,3.044,34.906,5.076,50.458,13.986c11.853,6.804,25.473,9.821,38.615,12.951c4.461,1.061,8.861,2.134,13.126,3.378
		c4.247,1.231,9.306,3.548,10.245,9.637C680.408,555.262,677.11,560.302,673.984,563.889z"/>
	<path fill="#F7DD8B" d="M666.052,557.539c-3.037,3.073-6.512,6.677-6.537,11.636c-0.008,2.385,0.836,4.674,0.861,7.059
		c0.033,3.253-1.457,6.241-3.269,8.521c-4.138,5.192-9.88,7.576-15.407,9.793c-46.347,18.566-96.118,24.649-144.673,26.728
		c-9.293,0.402-18.585,0.592-27.886,0.592c-30.044,0-60.148-1.917-89.978-6.568c-27.811-4.325-56.325-9.655-82.92-21.175
		c-1.721-0.753-3.5-1.568-4.799-3.19c-2.292-2.861-2.565-7.46-4.353-10.863c-2.615-4.948-7.704-6.295-12.048-8.467
		c-4.353-2.172-8.912-7.206-7.753-12.993c0.72-3.614,3.409-5.903,5.892-7.854c3.202-2.512,6.338-4.864,9.474-7.091
		c7.738-5.468,15.466-10.098,24.17-13.967c51.104-22.68,108.744-25.89,162.314-25.89c31.196,0,62.447,2.055,93.403,7.11
		c16.003,2.617,33.803,4.367,48.861,12.028c11.477,5.852,24.667,8.445,37.394,11.139c4.318,0.911,8.581,1.834,12.709,2.903
		c4.113,1.06,9.012,3.052,9.922,8.288C672.275,550.121,669.08,554.455,666.052,557.539z"/>
	<path fill="#FCF7CD" d="M666.052,557.539c-3.037,3.073-6.512,6.677-6.537,11.636c-0.008,2.385,0.836,4.674,0.861,7.059
		c0.033,3.253-1.457,6.241-3.269,8.521c-4.138,5.192-9.88,7.576-15.407,9.793c-46.347,18.566-96.118,24.649-144.673,26.728
		c-9.293,0.402-18.585,0.592-27.886,0.592c-30.044,0-60.148-1.917-89.978-6.568c-27.811-4.325-56.325-9.655-82.92-21.175
		c-1.721-0.753-3.5-1.568-4.799-3.19c-2.292-2.861-2.565-7.46-4.353-10.863c-2.615-4.948-7.704-6.295-12.048-8.467
		c-4.353-2.172-8.912-7.206-7.753-12.993c0.72-3.614,3.409-5.903,5.892-7.854c3.202-2.512,6.338-4.864,9.474-7.091
		c0.017,0.044,0.034,0.086,0.05,0.128c5.055,12.518,13.413,35.534,23.276,41.288c21.249,12.38,47.099,16.587,69.738,20.709
		c31.36,5.701,63.036,8.002,94.645,8.002c31.601,0,63.276-2.301,94.627-8.002c12.95-2.353,25.858-5.299,38.617-9.199
		c10.749-3.296,22.524-6.357,32.172-13.871c4.088-3.189,8.176-6.381,12.255-9.592c2.706-2.119,5.511-4.377,7.216-7.989
		c1.82-3.881,2.267-9.254,1.663-14.436c-0.679-5.776-2.665-11.33-5.527-14.35c-0.819-0.869-1.688-1.622-2.59-2.268
		c4.318,0.911,8.581,1.834,12.709,2.903c4.113,1.06,9.012,3.052,9.922,8.288C672.275,550.121,669.08,554.455,666.052,557.539z"/>
</g>
<g id="bubble">
	<g>
		<ellipse fill="#FFFFFF" cx="661.535" cy="588.307" rx="1.145" ry="0.71"/>
	</g>
	<g>
		<ellipse fill="#FFFFFF" cx="658.162" cy="595.091" rx="3.374" ry="1.777"/>
	</g>
	<g>
		<ellipse fill="#FFFFFF" cx="655.452" cy="591.253" rx="2.71" ry="1.209"/>
	</g>
	<g>
		<ellipse fill="#FFFFFF" cx="650.271" cy="597.933" rx="1.747" ry="1.066"/>
	</g>
	<g>
		<ellipse fill="#FFFFFF" cx="600.152" cy="611.199" rx="1.265" ry="0.732"/>
	</g>
	<g>
		<path fill="#FFFFFF" d="M638.283,602.315c0-1.07,1.588-1.938,3.545-1.938c1.959,0,3.547,0.867,3.547,1.938
			c0,1.074-1.588,1.941-3.547,1.941C639.871,604.257,638.283,603.39,638.283,602.315z"/>
	</g>
	<g>
		<ellipse fill="#FFFFFF" cx="635.271" cy="602.794" rx="0.845" ry="0.479"/>
	</g>
	<g>
		<ellipse fill="#FFFFFF" cx="635.654" cy="611.419" rx="0.813" ry="0.426"/>
	</g>
	<g>
		<ellipse fill="#FFFFFF" cx="636.467" cy="607.395" rx="1.626" ry="1.092"/>
	</g>
	<g>
		<ellipse fill="#FFFFFF" cx="624.496" cy="615.114" rx="1.308" ry="0.568"/>
	</g>
	<g>
		<ellipse fill="#FFFFFF" cx="627.806" cy="609.903" rx="5.228" ry="2.509"/>
	</g>
	<g>
		<path fill="#FFFFFF" d="M620.142,613.977c0-0.312,0.546-0.567,1.218-0.567c0.675,0,1.219,0.255,1.219,0.567
			c0,0.316-0.544,0.569-1.219,0.569C620.688,614.546,620.142,614.293,620.142,613.977z"/>
	</g>
	<g>
		<ellipse fill="#FFFFFF" cx="617.845" cy="609.503" rx="1.814" ry="1.017"/>
	</g>
	<g>
		<ellipse fill="#FFFFFF" cx="612.292" cy="612.509" rx="5.802" ry="2.605"/>
	</g>
	<g>
		<ellipse fill="#FFFFFF" cx="603.076" cy="617.01" rx="3.415" ry="1.327"/>
	</g>
	<g>
		<ellipse fill="#FFFFFF" cx="595.204" cy="621.977" rx="4.458" ry="1.381"/>
	</g>
	<g>
		<ellipse fill="#FFFFFF" cx="333.146" cy="613.512" rx="0.906" ry="0.416"/>
	</g>
	<g>
		<ellipse fill="#FFFFFF" cx="349.63" cy="615.736" rx="4.902" ry="2.16"/>
	</g>
	<g>
		<ellipse fill="#FFFFFF" cx="339.271" cy="613.927" rx="1.798" ry="0.833"/>
	</g>
	<g>
		<ellipse fill="#FFFFFF" cx="334.99" cy="617.616" rx="3.315" ry="1.881"/>
	</g>
	<g>
		<ellipse fill="#FFFFFF" cx="327.381" cy="611.275" rx="2.454" ry="1.115"/>
	</g>
	<g>
		<ellipse fill="#FFFFFF" cx="319.898" cy="611.274" rx="3.042" ry="0.904"/>
	</g>
	<g>
		<ellipse fill="#FFFFFF" cx="296.919" cy="603.975" rx="1.95" ry="0.459"/>
	</g>
	<g>
		<ellipse fill="#FFFFFF" cx="291.573" cy="597.765" rx="4.605" ry="1.433"/>
	</g>
	<g>
		<ellipse fill="#FFFFFF" cx="313.017" cy="607.35" rx="3.839" ry="1.601"/>
	</g>
	<g>
		<ellipse fill="#FFFFFF" cx="307.051" cy="603.974" rx="1.3" ry="0.379"/>
	</g>
	<g>
		<ellipse fill="#FFFFFF" cx="304.747" cy="607.838" rx="2.304" ry="1.115"/>
	</g>
	<g>
		<ellipse fill="#FFFFFF" cx="301.912" cy="601.009" rx="3.839" ry="1.113"/>
	</g>
	<g>
		<ellipse fill="#FFFFFF" cx="286.968" cy="591.521" rx="1.413" ry="0.38"/>
	</g>
	<g>
		<ellipse fill="#FFFFFF" cx="286.968" cy="587.503" rx="2.422" ry="0.835"/>
	</g>
	<g>
		<ellipse fill="#FFFFFF" cx="278.968" cy="582.785" rx="2.244" ry="0.556"/>
	</g>
	<g>
		<ellipse fill="#FFFFFF" cx="281.213" cy="578.683" rx="2.363" ry="0.706"/>
	</g>
</g>
<g>
	<g>
		<path fill="#005E3C" d="M465.402,312.613c30.448-1.583,50.545,39.266,38.67,65.867c-5.178-11.717-10.047-23.117-17.965-33.566
			c-6.698-8.867-14.918-20.267-24.661-25.649L465.402,312.613z"/>
	</g>
	<g>
		<path fill="#005E3C" d="M466.014,302.48c3.652-3.8,6.087-8.866,10.961-12.351c7.308-5.383,16.746-8.233,25.27-8.55
			c17.661-0.632,35.017,12.983,39.582,30.717c-7.001-4.433-11.874-6.65-20.095-7.917c-7.613-1.583-14.919-1.899-22.532-2.533
			c-12.18-0.634-27.1,0-38.364,5.7L466.014,302.48z"/>
	</g>
	<g>
		<path fill="#005E3C" d="M461.748,305.963c9.136-9.817,12.486-26.284,11.877-39.267c-0.609-15.517-7.611-27.233-21.314-32.934
			c6.395,11.084,4.263,27.55,3.958,39.9c-0.304,6.65-0.61,12.667-1.521,19c-0.307,3.167-1.217,6.018-1.829,9.184
			c0,0.633-0.304,4.434,0,1.583L461.748,305.963z"/>
	</g>
	<g>
		<path fill="#005E3C" d="M450.79,302.48c1.521-29.134-32.582-58.268-59.071-44.017c13.095,4.75,23.445,8.55,33.19,19.634
			c4.871,5.7,9.439,11.716,14.006,18.049c1.522,2.218,3.046,4.118,4.566,6.651c0.305,0.316,1.523,4.116,0.915,1.9L450.79,302.48z"/>
	</g>
	<g>
		<path fill="#005E3C" d="M445.298,305.836c-16.443-14.566-60.887-12.222-64.843,13.428c18.572-5.067,42.92-8.361,62.405-5.829
			L445.298,305.836z"/>
	</g>
	<g>
		<g>
			<path fill="#008258" d="M461.319,320.486c12.365,22.86,12.021,54.292,13.05,79.651c21.979-22.145,17.859-72.149-13.05-83.58
				c-1.029,0-2.06-0.356-2.749-0.714L461.319,320.486z"/>
		</g>
		<g>
			<path fill="#008258" d="M459.259,316.201c9.615-2.858,23.354,4.642,31.595,10c9.959,6.071,18.889,14.287,26.101,23.573
				c3.779,5.001,7.555,10.715,10.304,16.074c1.032,1.429,5.838,14.645,6.525,14.645l0.345,0.356c3.776-9.286,1.715-22.144,0-31.788
				c-2.061-11.072-6.184-23.574-13.053-32.504c-10.303-13.573-35.715-21.787-51.513-14.645c-5.153,2.501-11.678,7.501-10.993,13.931
				L459.259,316.201z"/>
		</g>
		<g>
			<path fill="#008258" d="M566.409,303.342c-16.827-23.931-47.736-28.218-73.495-17.86c-15.11,6.074-26.787,18.574-37.776,30.004
				c-0.688-6.787,16.14-37.146,20.262-45.004c7.9-13.93,22.322-30.717,40.183-23.932c13.049,4.645,26.445,16.074,34.688,26.789
				c6.87,9.287,12.707,18.574,15.797,30.004H566.409z"/>
		</g>
		<g>
			<path fill="#008258" d="M452.39,316.557c-13.736-0.356-28.163,5.715-38.811,13.93c-11.333,8.215-25.413,20.002-32.969,31.789
				c-1.715-6.072,2.404-16.074,4.464-22.144c2.406-7.502,6.869-14.289,11.68-20.003c12.02-13.93,29.878-17.858,46.362-11.788
				c5.15,1.786,8.93,4.644,12.708,8.215c0-0.713-0.687-0.713-0.687-1.071L452.39,316.557z"/>
		</g>
		<g>
			<path fill="#008258" d="M456.511,314.414c-7.9-8.929-12.02-21.43-21.293-30.36c-16.143-15.359-30.91-22.145-51.515-11.429
				c-13.736,7.145-30.909,20.359-35.374,36.432c7.212-2.857,13.394-7.144,20.949-9.286c7.558-2.144,15.113-2.144,22.666-2.501
				c15.113-0.356,31.598,1.786,45.334,7.859c5.497,2.5,15.113,6.071,18.547,10.001L456.511,314.414z"/>
		</g>
		<g>
			<path fill="#008258" d="M452.39,315.129c-3.433-18.573-9.616-35.005-22.667-47.863c-15.111-15.001-32.283-19.287-52.545-15.716
				c-6.869,1.072-12.021,3.215-17.859,7.145c14.77-11.788,30.564-21.789,49.456-25.719c8.586-1.427,17.516-1.785,26.1,1.074
				c8.93,3.214,12.364,10.715,16.139,19.287c4.466,10.715,6.185,22.503,6.527,33.931c0,5.358,2.75,22.504-0.687,25.718
				L452.39,315.129z"/>
		</g>
		<path opacity="0.2" fill="#E8E159" d="M463.63,319.558c3.682,4.42,8.217,7.367,11.05,12.671
			c2.549,5.009,7.649,15.911,6.231,21.216c-2.264-2.358-3.118-5.893-4.815-8.84c2.267,11.197,9.066,31.53,2.551,42.138
			c-2.833-12.376-2.268-25.932-4.251-38.308c-1.699-10.313-5.95-18.565-10.482-27.7L463.63,319.558z"/>
		<path opacity="0.2" fill="#E8E159" d="M462.213,308.95c10.485-3.832,26.066-8.841,36.267-2.063
			c-1.983,1.178-4.816,0.59-7.084,0.59c12.751-1.769,32.584,22.1,33.152,34.77c-2.551,0.59-5.385-3.831-7.084-5.893
			c4.249,6.778,11.333,14.733,10.199,23.574c-5.666-6.778-8.215-16.501-13.317-23.869c-5.381-7.956-12.75-14.145-20.682-19.154
			c3.116,1.769,6.8,5.305,8.498,8.546c-3.682,0.294-7.933-4.715-11.332-6.483c-3.4-2.063-7.368-3.537-11.333-4.714
			c-6.799-1.769-13.885-2.357-20.966-2.357L462.213,308.95z"/>
		<path opacity="0.2" fill="#E8E159" d="M459.947,308.655c1.417-8.546,8.499-17.385,12.466-24.458
			c5.1-8.84,11.899-25.932,23.515-26.52c0.283,2.652-3.115,5.6-4.817,7.661c7.651-6.187,30.6-13.26,37.403-1.473
			c-2.553,0.589-5.101,0.295-7.652,0c9.634,0,19.835,7.367,23.518,15.913c-3.403,1.473-8.218-2.947-11.053-4.42
			c-4.248-2.062-9.065-3.241-13.6-4.125c-8.782-1.473-18.133-0.295-25.784,4.125c2.834,0,17.852-0.294,9.352,3.536
			c-5.102,2.062-10.482,1.769-15.583,4.715c-7.65,4.42-20.117,12.083-24.365,20.332L459.947,308.655z"/>
		<path opacity="0.2" fill="#E8E159" d="M456.263,305.413c0.284-7.957-1.134-16.501-1.983-24.458
			c-0.85-6.778-1.417-24.164-7.934-27.698c-1.133,3.83,2.268,11.197,3.118,15.322c-1.984-14.734-15.301-26.815-28.616-29.468
			c-5.102-0.882-22.668-2.946-25.5,3.243c9.634,0,25.783-0.295,31.45,9.429c-3.118-1.473-5.667-2.652-9.351-2.358
			c0,2.946,9.634,6.483,12.183,8.546c5.101,4.419,9.351,10.314,13.033,15.913c6.235,10.608,10.769,22.69,11.333,35.067
			L456.263,305.413z"/>
		<path opacity="0.2" fill="#E8E159" d="M447.198,307.181c-3.968-7.072-11.051-13.85-16.718-19.448
			c-10.2-9.724-19.265-14.144-32.583-13.26c0,2.946,10.482,5.009,13.317,7.957c-11.618-7.368-39.668-4.126-45.334,10.901
			c8.5,0.884,17.283-5.598,26.066-6.482c7.083-0.59,22.95-2.062,28.333,3.537c-4.533-0.884-9.633-2.062-14.167,0
			c2.551,1.474,7.651,1.474,10.767,2.357c3.682,1.178,7.65,2.356,11.051,3.831c6.232,2.651,12.183,7.072,16.716,12.376
			L447.198,307.181z"/>
		<path opacity="0.2" fill="#E8E159" d="M441.247,314.844c-14.167,2.946-26.917,8.25-39.1,17.089c0-3.829,3.683-6.482,6.232-8.839
			c-7.65,5.304-11.617,15.912-19.55,20.333c-0.283-8.251,10.767-17.976,16.433-22.69c6.518-5.305,13.318-6.482,20.684-8.544
			c-2.55,0.293-5.949,0.589-8.5,0c6.801-4.127,19.266-2.358,26.634-0.885L441.247,314.844z"/>
	</g>
	<g>
		<path fill="#7F3D2A" d="M376.712,474.845c-5.083-0.476-10.636-2.845-15.228-5.45c-3.365,9.875-6.983,21.039-10.454,32.633
			c3.868,2.966,9.209,6.078,15.421,7.076C370.152,495.379,373.601,484.104,376.712,474.845z"/>
		<path fill="#7F3D2A" d="M334.913,572.577c12.461-0.02,12.985-0.02,16.724,0c2.477-12.114,4.901-23.172,7.259-33.281
			c-6.24-0.07-12.205-2.701-16.625-5.329C338.88,547.771,336.205,561.11,334.913,572.577z"/>
		<path fill="#56241E" d="M351.031,502.027c-3.142,10.502-6.161,21.356-8.76,31.939c4.42,2.628,10.385,5.259,16.625,5.329
			c2.611-11.195,5.137-21.22,7.556-30.192C360.24,508.105,354.899,504.993,351.031,502.027z"/>
		<path fill="#7F3D2A" d="M393.447,432.919c-8.185-3.402-13.812-10.178-19.764,3.267c-0.795,1.914-1.793,4.432-2.944,7.44
			c3.756,3.255,9.235,6.881,15.071,6.975C390.622,439.244,393.447,434.809,393.447,432.919z"/>
		<path fill="#56241E" d="M370.739,443.626c-2.503,6.546-5.74,15.454-9.255,25.769c4.592,2.605,10.146,4.975,15.228,5.45
			c3.5-10.413,6.572-18.282,9.098-24.244C379.974,450.507,374.495,446.881,370.739,443.626z"/>
		<g>
			<path fill="#7F3D2A" d="M433.393,349.645c-2.437-1.449-4.347-3.935-5.572-6.746c-3.049,4.034-6.222,8.4-9.453,13.032
				c1.433,3.143,4.123,5.774,7.084,7.605C428.298,358.225,430.94,353.642,433.393,349.645z"/>
		</g>
		<g>
			<path fill="#56241E" d="M441.1,338.023c-1.753-1.654-3.319-3.883-4.491-6.234c-2.768,3.331-5.716,7.051-8.789,11.11
				c1.225,2.811,3.136,5.297,5.572,6.746C436.194,345.081,438.751,341.284,441.1,338.023z"/>
		</g>
		<g>
			<path fill="#56241E" d="M416.446,381.437c3.216-6.768,6.212-12.687,9.005-17.899c-2.961-1.832-5.651-4.463-7.084-7.605
				c-3.636,5.217-7.348,10.772-11.051,16.59C409.269,376.483,412.534,379.826,416.446,381.437z"/>
		</g>
		<g>
			<path fill="#7F3D2A" d="M454.417,321.233l-0.452-6.682c-3.601,1.992-9.803,8.15-17.356,17.238
				c1.171,2.351,2.738,4.58,4.491,6.234C446.53,330.477,450.834,325.804,454.417,321.233z"/>
		</g>
		<g>
			<path fill="#7F3D2A" d="M398.647,422.438c-5.857-0.589-11.619-3.167-15.006-8.082c-4.587,9.291-8.771,18.722-12.306,28.051
				c7.186-1.572,20.886-6.095,20.886-6.095C394.053,431.593,396.917,426.744,398.647,422.438z"/>
		</g>
		<g>
			<path fill="#7F3D2A" d="M416.446,381.437c-3.912-1.61-7.177-4.953-9.129-8.915c-3.972,6.236-7.929,12.77-11.771,19.498
				c3.115,3.797,7.657,7.385,11.934,9.225C410.647,393.928,413.633,387.356,416.446,381.437z"/>
		</g>
		<g>
			<path fill="#56241E" d="M398.647,422.438c3.093-7.687,6.036-14.731,8.832-21.194c-4.277-1.84-8.819-5.428-11.934-9.225
				c-4.148,7.267-8.161,14.755-11.903,22.338C387.028,419.271,392.791,421.849,398.647,422.438z"/>
		</g>
	</g>
	<g>
		<ellipse fill="#56241E" cx="458.838" cy="319.074" rx="7.346" ry="12.381"/>
	</g>
	<g>
		<path fill="#270B07" d="M440.993,307.512c-4.709,4.773-6.229,11.093-3.396,14.113c2.833,3.022,8.944,1.602,13.652-3.172
			c4.709-4.775,6.227-11.095,3.394-14.116C451.812,301.315,445.698,302.736,440.993,307.512z"/>
	</g>
</g>
<g>
	<g>
		<path fill="#007837" d="M375.756,191.384c45.881-7.213,82.29,51.477,68.195,93.639c-9.551-16.927-18.597-33.421-32.115-47.995
			c-11.441-12.37-25.557-28.334-41.102-34.945L375.756,191.384z"/>
	</g>
	<g>
		<path fill="#007837" d="M375.196,175.941c4.98-6.332,7.926-14.391,14.798-20.437c10.278-9.309,24.159-15.118,37.022-16.947
			c26.653-3.751,54.931,14.125,64.439,40.26c-11.255-5.605-18.958-8.192-31.594-8.81c-11.757-1.194-22.873-0.519-34.492-0.273
			c-18.538,0.967-41.044,4.286-57.271,14.699L375.196,175.941z"/>
	</g>
	<g>
		<path fill="#007837" d="M369.249,181.892c12.401-16.312,15.065-41.78,12.245-61.347c-3.191-23.403-15.512-40.042-37.096-46.506
			c11.306,15.774,10.485,41.049,11.832,59.801c0.509,10.12,0.926,19.28,0.472,29.017c0,4.844-0.964,9.305-1.427,14.197
			c0.092,0.958,0.188,6.761,0.231,2.398L369.249,181.892z"/>
	</g>
	<g>
		<path fill="#007837" d="M352.142,178.349c-1.956-44.363-57.863-83.092-95.898-57.319c20.523,5.122,36.759,9.241,53.137,24.485
			c8.208,7.862,16.008,16.251,23.85,25.122c2.63,3.115,5.215,5.752,7.889,9.35c0.509,0.43,2.907,5.991,1.663,2.732L352.142,178.349z
			"/>
	</g>
	<g>
		<path fill="#007837" d="M344.316,184.301c-27.032-19.46-94-8.882-96.242,30.592c27.39-10.613,63.781-19.45,93.662-18.697
			L344.316,184.301z"/>
	</g>
	<g>
		<g>
			<path fill="#009B56" d="M370.722,203.956c22.069,32.663,26.143,80.321,31.413,118.566
				c30.052-37.015,16.498-112.095-31.987-124.517c-1.558,0.163-3.173-0.216-4.264-0.648L370.722,203.956z"/>
		</g>
		<g>
			<path fill="#009B56" d="M366.975,197.789c14.145-5.849,36.048,3.338,49.315,10.148c15.971,7.622,30.694,18.652,42.979,31.576
				c6.45,6.975,13.007,15.033,17.951,22.713c1.772,1.999,10.985,21.255,12.024,21.146l0.572,0.487
				c4.365-14.662-0.636-33.809-4.648-48.144c-4.74-16.445-12.809-34.726-24.518-47.163c-17.586-18.928-57.279-27.35-80.159-14.032
				c-7.439,4.602-16.591,13.208-14.607,22.835L366.975,197.789z"/>
		</g>
		<g>
			<path fill="#009B56" d="M527.376,161.369c-28.984-33.583-76.425-35.186-113.918-15.425
				c-21.999,11.587-37.855,32.365-52.829,51.415c-2.031-10.17,19.014-58.811,24.107-71.364
				c9.926-22.346,29.317-50.052,57.357-42.599c20.441,4.969,42.402,20.162,56.45,35.086c11.761,12.978,21.961,26.12,28.313,42.941
				L527.376,161.369z"/>
		</g>
		<g>
			<path fill="#009B56" d="M356.625,199.416c-20.858,1.632-41.814,13.109-56.738,27.235c-15.963,14.233-35.564,34.311-45.286,53.358
				c-3.486-8.924,1.29-24.722,3.524-34.243c2.544-11.742,8.313-22.724,14.762-32.141c16.168-22.996,42.64-31.772,68.493-25.184
				c8.062,1.891,14.204,5.621,20.448,10.433c-0.106-1.082-1.147-0.974-1.199-1.514L356.625,199.416z"/>
		</g>
		<g>
			<path fill="#009B56" d="M362.553,195.519c-13.271-12.275-21.337-30.555-36.69-42.613c-26.691-20.708-50.048-28.651-79.688-9.162
				c-19.761,12.992-43.836,35.723-48.249,60.771c10.505-5.467,19.241-12.937,30.37-17.377c11.131-4.442,22.573-5.636,33.963-7.373
				c22.835-2.93,48.113-2.292,69.807,4.732c8.689,2.917,23.774,6.807,29.552,12.214L362.553,195.519z"/>
		</g>
		<g>
			<path fill="#009B56" d="M356.416,197.253c-7.916-27.588-19.682-51.493-41.328-68.904c-25.08-20.328-51.711-24.104-81.877-15.49
				c-10.246,2.709-17.734,6.77-26.003,13.643c20.644-20.186,43.104-37.833,71.14-46.77c12.794-3.521,26.266-5.475,39.685-2.506
				c13.993,3.458,20.294,14.274,27.266,26.659c8.33,15.523,12.654,33.103,14.845,50.358c0.784,8.115,7.455,33.646,2.722,39.057
				L356.416,197.253z"/>
		</g>
		<path opacity="0.2" fill="#FFEE6E" d="M374.086,202.183c6.226,6.11,13.521,9.856,18.589,17.442
			c4.592,7.184,13.91,22.889,12.541,31.146c-3.777-3.212-5.582-8.434-8.587-12.627c5.069,16.601,18.342,46.317,10.023,63.415
			c-6.099-18.296-7.222-38.914-12.037-57.345c-4.083-15.351-11.726-27.174-19.928-40.292L374.086,202.183z"/>
		<path opacity="0.2" fill="#FFEE6E" d="M370.39,186.34c15.317-7.459,38.184-17.51,54.625-8.859
			c-2.831,2.099-7.208,1.653-10.642,2.013c19.052-4.693,52.579,28.317,55.291,47.419c-3.775,1.295-8.713-4.951-11.589-7.806
			c7.427,9.593,19.319,20.522,18.895,34.09c-9.573-9.369-14.856-23.693-23.658-34.043c-9.317-11.198-21.379-19.404-34.126-25.737
			c4.979,2.185,11.074,6.958,14.123,11.598c-5.535,1.029-12.704-5.886-18.112-8.025c-5.453-2.586-11.675-4.19-17.855-5.348
			c-10.556-1.603-21.369-1.375-32.097-0.255L370.39,186.34z"/>
		<path opacity="0.2" fill="#FFEE6E" d="M366.915,186.253c0.896-13.167,10.33-27.675,15.304-39.014
			c6.43-14.195,14.229-41.154,31.739-43.884c0.817,3.971-3.902,8.972-6.175,12.365c10.682-10.582,44.405-24.923,56.428-8.146
			c-3.778,1.296-7.681,1.253-11.586,1.21c14.59-1.523,31.114,8.021,37.942,20.38c-4.934,2.769-12.876-3.164-17.381-4.947
			c-6.74-2.452-14.207-3.476-21.202-4.097c-13.519-0.841-27.507,2.422-38.445,10.326c4.291-0.448,26.989-3.27,14.676,3.877
			c-7.422,3.93-15.618,4.334-22.914,9.604c-10.939,7.905-28.698,21.481-33.928,34.649L366.915,186.253z"/>
		<path opacity="0.2" fill="#FFEE6E" d="M360.862,181.926c-0.734-12.095-4.129-24.812-6.581-36.729
			c-2.278-10.129-5.679-36.371-16.065-40.696c-1.156,5.98,5.071,16.6,6.961,22.714c-5.159-22.002-27.093-38.193-47.649-40.102
			c-7.854-0.533-34.759-0.879-38.146,8.941c14.589-1.523,39.006-4.523,49.011,9.308c-4.937-1.738-8.971-3.12-14.505-2.092
			c0.43,4.462,15.537,8.296,19.701,11.016c8.37,5.887,15.668,14.141,22.065,22.038c10.992,15.08,19.624,32.662,22.292,51.315
			L360.862,181.926z"/>
		<path opacity="0.2" fill="#FFEE6E" d="M347.389,186.039c-7.041-10.084-18.76-19.229-28.161-26.812
			c-16.869-13.115-31.248-18.375-51.287-14.931c0.431,4.463,16.61,5.929,21.331,9.943c-18.67-9.32-60.678,0.025-67.062,23.684
			c13.003-0.006,25.357-11.213,38.53-13.941c10.641-2.014,34.457-6.754,43.429,0.875c-6.995-0.622-14.892-1.6-21.457,2.241
			c4.078,1.828,11.801,1.021,16.651,1.867c5.75,1.203,11.931,2.361,17.295,4.055c9.828,3.03,19.486,8.784,27.125,16.098
			L347.389,186.039z"/>
		<path opacity="0.2" fill="#FFEE6E" d="M339.498,198.582c-21.025,6.704-39.559,16.753-56.718,32.069
			c-0.561-5.802,4.63-10.401,8.147-14.374c-10.811,9.242-15.267,25.936-26.635,33.884c-1.636-12.449,13.676-28.925,21.57-36.962
			c9.094-9.064,19.221-11.924,30.076-16.213c-3.819,0.849-8.925,1.834-12.873,1.344c9.695-7.323,28.834-6.618,40.207-5.551
			L339.498,198.582z"/>
	</g>
	<g>
		<path fill="#9B453A" d="M326.435,550.626c-2.145-28.749-3.497-51.662-4.262-70.439c-8.522,4.089-18.349,2.974-28.706-0.631
			c0.322,20.453,1.384,44.244,3.904,69.228C307.997,552.755,318.311,552.639,326.435,550.626z"/>
		<path fill="#743030" d="M328.033,571.271c-0.576-7.202-1.108-14.074-1.598-20.645c-8.125,2.013-18.438,2.129-29.064-1.843
			c0.597,5.922,1.274,11.908,2.045,17.938L328.033,571.271z"/>
		<path fill="#9B453A" d="M321.447,432.956c0.266-14.032,1.654-30.242,1.965-35.113c0,0-27.963,8.905-28.816,18.701
			c-0.131,2.797-0.383,7.736-0.627,14.426C301.593,434.217,311.665,435.855,321.447,432.956z"/>
		<path fill="#743030" d="M321.447,432.956c-9.783,2.9-19.854,1.262-27.479-1.986c-0.424,11.604-0.818,28.484-0.501,48.586
			c10.357,3.604,20.184,4.72,28.706,0.631C321.373,460.577,321.211,445.477,321.447,432.956z"/>
		<g>
			<path fill="#9B453A" d="M342.386,258.205c-4.179-0.917-8.068-3.59-11.103-7.064c-2.606,7.324-5.242,15.19-7.839,23.474
				c3.49,3.854,8.567,6.359,13.679,7.575C338.859,273.107,340.627,265.184,342.386,258.205z"/>
		</g>
		<g>
			<path fill="#743030" d="M348.328,237.622c-3.284-1.542-6.554-4.01-9.305-6.846c-2.514,6.171-5.113,12.991-7.74,20.364
				c3.035,3.474,6.924,6.147,11.103,7.064C344.393,250.233,346.391,243.488,348.328,237.622z"/>
		</g>
		<g>
			<path fill="#743030" d="M332.12,312.492c1.619-11.366,3.298-21.397,5.003-30.303c-5.112-1.216-10.189-3.721-13.679-7.575
				c-2.923,9.323-5.805,19.174-8.554,29.401C319.499,308.805,325.729,312.061,332.12,312.492z"/>
		</g>
		<g>
			<path fill="#9B453A" d="M360.076,206.828l-3.655-9.458c-4.322,4.635-10.54,16.57-17.397,33.406
				c2.751,2.835,6.021,5.304,9.305,6.846C352.804,224.05,356.938,215.192,360.076,206.828z"/>
		</g>
		<g>
			<path fill="#9B453A" d="M324.76,380.539c-8.75,1.996-18.255,1.056-25.37-4.414c-2.47,15.688-4.292,31.382-5.221,46.616
				c9.703-5.772,28.932-20.027,28.932-20.027C323.599,395.674,324.187,387.618,324.76,380.539z"/>
		</g>
		<g>
			<path fill="#9B453A" d="M332.12,312.492c-6.391-0.432-12.621-3.687-17.23-8.477c-2.95,10.964-5.746,22.354-8.292,33.967
				c6.218,3.985,14.412,6.973,21.435,7.562C329.333,333.406,330.706,322.435,332.12,312.492z"/>
		</g>
		<g>
			<path fill="#743030" d="M324.76,380.539c1.028-12.638,2.122-24.275,3.272-34.994c-7.022-0.589-15.216-3.578-21.435-7.562
				c-2.744,12.539-5.191,25.337-7.208,38.143C306.505,381.595,316.011,382.534,324.76,380.539z"/>
		</g>
	</g>
	<g>
		<path fill="#743030" d="M355.631,203.369c1,10.356,6.792,18.232,12.937,17.591c6.145-0.643,10.316-9.559,9.317-19.916
			c-1-10.356-6.792-18.231-12.937-17.591C358.802,184.096,354.632,193.012,355.631,203.369z"/>
	</g>
	<g>
		<path fill="#461717" d="M338.04,187.518c-6.433,7.975-7.812,17.787-3.079,21.913c4.733,4.129,13.781,1.01,20.214-6.965
			c6.432-7.977,7.808-17.786,3.075-21.915C353.521,176.423,344.469,179.542,338.04,187.518z"/>
	</g>
</g>
<g id="cloud">
	<circle fill="#FFD244" cx="732.354" cy="57.197" r="36.424"/>
	<g>
		<path fill="#DBEAFC" d="M675.629,99.877c3.019-5.178,8.198-4.838,11.647-5.7c3.021-0.863,5.609-5.609,8.629-6.903
			c7.335-3.882,14.238-0.862,20.277,3.883c3.453-4.314,1.727-9.923,6.904-13.374c3.884-2.589,10.785-2.157,15.101-0.863
			c-3.452-16.827,5.177-24.593,22.435-20.279c-2.156-19.415,29.339-27.611,43.576-25.455c19.847,3.451,22.867,26.319,21.142,42.713
			c4.745-0.431,10.785-3.452,14.669,0.431c3.883,3.021,3.883,10.355,1.727,14.238c12.511-7.334,19.845,6.904,31.063,7.336
			L675.629,99.877z"/>
	</g>
	<g>
		<path fill="#E9F2FF" d="M527.783,128.012c2.865-5.731,10.887-5.158,16.045-4.585l0,0c-0.573-9.168,8.595-14.899,16.618-14.326
			c0.572-16.045,31.518-20.629,29.225-1.719c8.597-2.293,13.753,4.011,12.606,12.033c5.157-1.719,9.742,0.573,11.461,5.158
			c4.011-1.719,10.315-1.146,10.315,3.438H527.783z"/>
	</g>
	<g>
		<path fill="#E9F5FF" d="M113.94,266.542c4.336-3.373,10.118-4.336,15.9-3.854c1.928-10.119,11.563-12.527,20.237-9.637
			c-0.482-12.527,21.682-23.61,26.501-8.672c7.227-1.928,14.937,4.336,15.418,12.045c8.673-2.408,9.637,0,15.899,4.337
			c2.892,2.409,2.892,1.445,6.267,2.891c1.444,0.482,4.335,1.927,4.335,2.409L113.94,266.542z"/>
	</g>
	<g>
		<path fill="#F0F5FC" d="M673.157,188.361c22.199-1.107,44.324-2.155,66.516-2.393c1.443-0.015,2.953-0.07,4.217-0.768
			c1.266-0.697,2.186-2.243,1.691-3.601c-0.613-1.694-2.805-2.061-4.605-2.155c-6.594-0.344-13.188-0.688-19.783-1.032
			c0.531-5.198-4.764-13.196-10.844-11.123c-0.461,1.421-0.922,2.842-1.381,4.263c-1.592-4.491-4.105-9.133-8.514-10.942
			c-3.613-1.483-8.078-0.587-10.842,2.175c-2.762,2.762-3.658,7.228-2.174,10.842c-2-1.674-5.312,0.017-6.188,2.474
			c-0.873,2.457-0.104,5.161,0.668,7.652c-5.234-1.168-10.871-0.44-15.637,2.021C667.243,188.217,670.534,188.491,673.157,188.361z"
			/>
	</g>
</g>
<g id="XMLID_75_">
	<path id="XMLID_11_" fill-rule="evenodd" clip-rule="evenodd" fill="#E5B961" d="M310.667,403.033
		c1.141-0.034,15.529,10.01,30.397,15.791c7.51-0.961,27.123-4.066,34.458-3.117c20.336,1.938,43.94,11.932,43.94,11.932
		s6.477-4.185,35.296,0.603c15.377,1.203,37.157,9.399,37.157,9.399s14.872-6.042,27.239-4.614
		c1.105,0.175-11.286-8.142-22.705-12.11C485.029,416.95,310.667,403.033,310.667,403.033z"/>
	<g id="XMLID_1_">
		<path id="XMLID_10_" fill-rule="evenodd" clip-rule="evenodd" fill="#D0D2D3" d="M422.05,403.701
			c-0.49,7.991-18.058,171.309-18.108,171.777l-3.493-0.41c0.049-0.471,17.585-163.506,18.085-171.636L422.05,403.701z"/>
		<path id="XMLID_9_" fill-rule="evenodd" clip-rule="evenodd" fill="#C1C1BF" d="M400.459,574.967
			c0.427-3.982,17.582-163.495,18.075-171.535l1.759,0.133l-17.958,171.724C402.334,575.289,401.644,575.166,400.459,574.967z"/>
		<g id="XMLID_2_">
			<g id="XMLID_6_">
				<polygon id="XMLID_8_" fill-rule="evenodd" clip-rule="evenodd" fill="#FCBC90" points="425.014,350.734 425.894,350.821 
					425.164,370.831 423.156,370.681 421.314,368.675 423.877,352.677 				"/>
				<polygon id="XMLID_7_" fill-rule="evenodd" clip-rule="evenodd" fill="#F9AE85" points="425.014,350.734 424.137,350.64 
					421.046,370.404 423.098,370.675 				"/>
			</g>
			<g id="XMLID_3_">
				<path id="XMLID_5_" fill-rule="evenodd" clip-rule="evenodd" fill="#FFF98F" d="M532.865,440.206
					c-5.69-35.608-50.825-67.267-108.505-73.675c-57.681-6.407-108.304,14.616-121.198,48.163
					c12.444-6.392,66.021-0.97,77.345,7.371c11.999-5.315,64.636,0.53,75.267,8.358
					C468.554,424.762,522.024,431.229,532.865,440.206z"/>
				<path id="XMLID_4_" fill-rule="evenodd" clip-rule="evenodd" fill="#FFEC5F" d="M429.455,367.167
					c-1.687-0.234-3.384-0.447-5.095-0.637c-1.717-0.191-3.424-0.354-5.126-0.499c-20.758,13.885-33.497,34.975-38.765,56.009
					l0.038,0.023c11.999-5.315,64.636,0.53,75.267,8.358l0.024-0.008C454.986,408.705,446.88,385.296,429.455,367.167z"/>
			</g>
		</g>
	</g>
</g>
<g id="person">
	<path id="XMLID_246_" opacity="0.2" fill-rule="evenodd" clip-rule="evenodd" fill="#C4804D" d="M621.459,559.7
		c-9.022-3.072-33.636-1.423-40.214-4.969c-6.58-3.544-18.573-13.859-44.889-12.246c-26.312,1.61-42.564,8.059-64.622,7.411
		c-38.522-1.125-117.888-14.188-92.869,36.747c3.483,7.089,15.771,11.455,37.922,13.859c22.149,2.406,63.229,2.849,78.195,0.045
		C513.549,597.072,673.375,577.37,621.459,559.7z"/>
	<path id="XMLID_245_" fill-rule="evenodd" clip-rule="evenodd" fill="#EF8050" d="M447.99,472.733L447.99,472.733
		c1.637-1.308,4.091-1.084,5.447,0.493l70.714,82.276c1.358,1.58,1.125,3.94-0.515,5.246l0,0c-1.638,1.306-4.092,1.084-5.447-0.495
		l-70.717-82.277C446.117,476.399,446.348,474.039,447.99,472.733z"/>
	<path id="XMLID_242_" fill-rule="evenodd" clip-rule="evenodd" fill="#F2855F" d="M474.631,491.668L474.631,491.668
		c2.017,0.623,3.137,2.727,2.488,4.666l-20.947,62.67c-0.649,1.939-2.83,3.02-4.849,2.394l0,0c-2.017-0.625-3.135-2.724-2.488-4.668
		l20.944-62.667C470.432,492.12,472.612,491.04,474.631,491.668z"/>
	<g id="XMLID_239_">
		<path id="XMLID_241_" fill-rule="evenodd" clip-rule="evenodd" fill="#F48567" d="M412.029,582.162L412.029,582.162
			c-0.978-1.82-0.233-4.09,1.664-5.02l122.894-60.282c1.897-0.928,4.238-0.219,5.215,1.601l0,0c0.977,1.822,0.233,4.09-1.664,5.021
			l-122.894,60.279C415.347,584.693,413.008,583.981,412.029,582.162z"/>
		<path id="XMLID_240_" fill-rule="evenodd" clip-rule="evenodd" fill="#EF946C" d="M539.919,516.769
			c0.784,0.33,1.462,0.906,1.883,1.692l0,0c0.977,1.822,0.233,4.09-1.664,5.021l-122.894,60.279
			c-0.51,0.252-1.051,0.382-1.592,0.406c-0.784-0.329-1.459-0.906-1.88-1.695l0,0c-0.979-1.822-0.233-4.089,1.661-5.02
			l122.896-60.279C538.84,516.923,539.381,516.79,539.919,516.769z"/>
	</g>
	<path id="XMLID_237_" fill-rule="evenodd" clip-rule="evenodd" fill="#00A551" d="M589.532,546.168c0,0,3.794,0.149,4.024,0.505
		c0.23,0.354,0.596,0.774,0.692,1.774c0.428,4.455-8.032,9.727-11.103,12.246c-1.476,1.209-3.288,2.888-4.401,3.284
		c-1.146,0.408-5.123-0.245-5.856-2.875C572.605,560.093,589.532,546.168,589.532,546.168z"/>
	<path id="XMLID_235_" fill-rule="evenodd" clip-rule="evenodd" fill="#FFF2EE" d="M567.559,551.57
		c6.432,5.075,3.993,8.979,7.352,10.662c1.222,0.612,2.205-0.161,3.804-1.186c1.597-1.024,2.589-2.604,4.621-4.233
		c2.031-1.63,6.426-3.056,7.539-4.498c1.11-1.442,0.567-2.988,1.014-3.585c1.356-1.8-0.757-3.952-2.094-2.072
		c-0.308,0.436-0.64,0.809-0.895,1.077c-0.262,0.274-0.446,0.438-0.446,0.438s1.163-2.293,0.728-2.562
		c-0.435-0.267-1.076,0-1.658,0.699c-0.579,0.7-1.317,1.373-1.317,1.373s0.699-1.885,0.023-2.026
		c-0.908-0.186-1.115,1.216-2.079,1.77c0,0,0.358-0.812,0.192-1.349s-0.87,0.091-1.207,0.512c-0.341,0.421-0.921,0.745-0.921,0.745
		s0.24-1-0.144-0.863c-0.388,0.143-0.679,0.442-0.967,1.003c-0.293,0.561-0.194,0.885-2.227,2.654
		c-2.031,1.771-4.474-1.399-4.474-1.399L567.559,551.57z"/>
	<path id="XMLID_234_" fill-rule="evenodd" clip-rule="evenodd" fill="#00A551" d="M588.986,548.274
		c0.036-0.13,0.061-0.63-0.337-0.733c-0.165-0.046-0.406-0.007-0.632,0.051c-0.63,0.05-8.522,1.48-8.753,1.702
		c-0.229,0.221-0.638,1.026-0.638,1.026s2.018-0.585,3.104-0.77c0.834-0.142,4.168-0.599,5.757-0.793
		c0.092,1.196,0.145,3.062-0.605,6.801c0.267,0.212,0.918,0.096,1.113-0.233C588.654,554.215,589.092,549.702,588.986,548.274z"/>
	<path id="XMLID_233_" fill-rule="evenodd" clip-rule="evenodd" fill="#FFF2EE" d="M553.062,516.639c0,0,7.102,11.482,12.532,18.745
		c5.429,7.263,12.619,18.136,12.619,18.136l-5.799,4.741c-4.536-8.297-29.919-32.051-30.959-31.662
		C540.126,527.099,553.062,516.639,553.062,516.639z"/>
	<path id="XMLID_231_" fill-rule="evenodd" clip-rule="evenodd" fill="#FFF2EE" d="M495.826,456.818
		c7.722,3.431,11.96,11.448,9.811,20.875c-0.87,3.817-1.395,6.688-7.393,8.554c-5.998,1.86-12.201,1-15.29-4.717
		c-3.091-5.715-7.154-9.254-4.156-15.867C481.798,459.052,495.826,456.818,495.826,456.818z"/>
	<path id="XMLID_229_" fill-rule="evenodd" clip-rule="evenodd" fill="#FFF2EE" d="M569.316,521.48
		c1.569,1.467,9.578-5.493,10.641-9.965c1.064-4.469-2.224-7.447-8.126-7.729c-5.902-0.279-14.511,4.936-14.898,5.959
		c-0.387,1.024-1.742,2.796,1.741,6.705C562.157,520.363,569.316,521.48,569.316,521.48z"/>
	<path id="XMLID_228_" fill-rule="evenodd" clip-rule="evenodd" fill="#51B8F2" d="M530.883,537.843
		c3.878,1.856,17.059-0.803,25.853-4.347c8.795-3.541,19.115-14.965,19.115-14.965s-1.673-7.833-5.349-10.438
		c-3.676-2.608-9.912-2.085-13.372,0.168c-2.14,1.392-10.261,2.45-16.425,5.135c-3.798,1.654-5.829,4.534-8.315,6.691
		C525.875,525.743,530.883,537.843,530.883,537.843z"/>
	<g id="XMLID_149_">
		<path id="XMLID_220_" fill-rule="evenodd" clip-rule="evenodd" fill="#E6EDF4" d="M530.883,477.636
			c5.505,0.278,11.044,0.553,16.616,0.831c5.606,0.279,11.249,0.559,16.925,0.842c1.151,0.058,1.986,0.985,1.852,2.065
			c-0.445,3.632-0.892,7.291-1.339,10.965c-0.447,3.692-0.899,7.414-1.352,11.154c-0.142,1.118-1.212,1.97-2.383,1.897
			c-5.781-0.368-11.537-0.738-17.246-1.106c-5.679-0.365-11.321-0.726-16.928-1.089c-1.122-0.074-1.896-1.026-1.732-2.12
			c0.55-3.656,1.107-7.294,1.653-10.905c0.546-3.589,1.097-7.164,1.64-10.72C528.748,478.399,529.781,477.575,530.883,477.636z"/>
		<path id="XMLID_219_" fill-rule="evenodd" clip-rule="evenodd" fill="#49798E" d="M527.194,501.291
			c5.633,0.358,11.316,0.724,17.026,1.085c5.743,0.36,11.537,0.73,17.356,1.099c0.462-3.77,0.924-7.522,1.381-11.244
			c0.451-3.707,0.906-7.393,1.36-11.054c-5.731-0.294-11.424-0.584-17.076-0.873c-5.621-0.283-11.205-0.577-16.754-0.86
			c-0.541,3.592-1.097,7.205-1.64,10.83C528.303,493.926,527.745,497.599,527.194,501.291z"/>
		<path id="XMLID_218_" fill-rule="evenodd" clip-rule="evenodd" fill="#6D6E70" d="M547.326,479.693
			c0.231,0.012,0.436-0.154,0.467-0.368c0.028-0.216-0.133-0.401-0.358-0.413c-0.224-0.01-0.436,0.156-0.462,0.372
			C546.941,479.499,547.103,479.682,547.326,479.693z"/>
		<path id="XMLID_217_" fill-rule="evenodd" clip-rule="evenodd" fill="#929497" d="M537.792,503.039
			c2.094,0.137,4.186,0.274,6.286,0.409c2.106,0.134,4.212,0.267,6.325,0.401c-0.002,0.017-0.007,0.026-0.007,0.038
			c-0.02,0.176-0.186,0.311-0.363,0.296c-2.012-0.128-4.008-0.255-6.005-0.382c-1.993-0.128-3.984-0.255-5.965-0.388
			c-0.181-0.012-0.303-0.161-0.279-0.329C537.784,503.07,537.787,503.059,537.792,503.039z"/>
		<path id="XMLID_216_" fill-rule="evenodd" clip-rule="evenodd" fill="#404041" d="M547.353,479.518
			c0.123,0.008,0.24-0.081,0.258-0.204c0.017-0.118-0.072-0.219-0.2-0.226c-0.125-0.008-0.237,0.084-0.255,0.201
			C547.137,479.409,547.228,479.511,547.353,479.518z"/>
		<path id="XMLID_215_" fill-rule="evenodd" clip-rule="evenodd" fill="#58595B" d="M530.488,479.443
			c5.549,0.283,11.133,0.577,16.754,0.86c5.652,0.289,11.345,0.579,17.076,0.873c-0.454,3.661-0.909,7.347-1.36,11.054
			c-0.457,3.722-0.919,7.475-1.381,11.244c-5.819-0.368-11.613-0.738-17.356-1.099c-5.71-0.361-11.394-0.727-17.026-1.085
			c0.551-3.692,1.108-7.365,1.654-11.018C529.392,486.648,529.947,483.035,530.488,479.443z"/>
		<path id="XMLID_214_" fill-rule="evenodd" clip-rule="evenodd" fill="#79BB70" d="M530.133,481.787
			c5.558,0.293,11.154,0.592,16.785,0.888c5.659,0.293,11.366,0.596,17.104,0.896c0.094-0.77,0.188-1.539,0.289-2.311
			c-5.734-0.288-11.427-0.584-17.079-0.873c-5.62-0.286-11.213-0.576-16.759-0.862C530.358,480.28,530.248,481.035,530.133,481.787z
			"/>
		<path id="XMLID_213_" fill-rule="evenodd" clip-rule="evenodd" fill="#E6E7E8" d="M540.136,482.542
			c0.729,0.043,1.457,0.082,2.188,0.118c0.046-0.337,0.092-0.671,0.14-1.005c-0.729-0.034-1.454-0.077-2.186-0.113
			C540.228,481.876,540.179,482.21,540.136,482.542z"/>
		<path id="XMLID_212_" fill-rule="evenodd" clip-rule="evenodd" fill="#E6E7E8" d="M542.41,482.657
			c0.733,0.041,1.464,0.077,2.192,0.111c0.043-0.332,0.089-0.669,0.14-1.003c-0.729-0.036-1.46-0.072-2.19-0.113
			C542.501,481.989,542.456,482.323,542.41,482.657z"/>
		<path id="XMLID_211_" fill-rule="evenodd" clip-rule="evenodd" fill="#E6E7E8" d="M544.694,482.775
			c0.73,0.041,1.464,0.077,2.199,0.115c0.046-0.337,0.089-0.671,0.14-1.007c-0.735-0.036-1.469-0.072-2.2-0.111
			C544.785,482.106,544.739,482.441,544.694,482.775z"/>
		<path id="XMLID_210_" fill-rule="evenodd" clip-rule="evenodd" fill="#E6E7E8" d="M546.985,482.897
			c0.732,0.039,1.466,0.077,2.204,0.111c0.043-0.332,0.087-0.671,0.135-1.005c-0.735-0.036-1.469-0.075-2.2-0.113
			C547.074,482.225,547.03,482.559,546.985,482.897z"/>
		<path id="XMLID_209_" fill-rule="evenodd" clip-rule="evenodd" fill="#FFFFFF" d="M530.207,481.792
			c-0.485,3.197-0.972,6.409-1.457,9.638c-0.488,3.246-0.974,6.513-1.467,9.792c5.611,0.355,11.264,0.714,16.946,1.074
			c5.72,0.363,11.479,0.729,17.273,1.095c0.409-3.347,0.822-6.679,1.231-9.989c0.401-3.296,0.808-6.575,1.214-9.835
			c-5.715-0.298-11.397-0.599-17.03-0.892C541.312,482.379,535.738,482.085,530.207,481.792z"/>
		<path id="XMLID_208_" fill-rule="evenodd" clip-rule="evenodd" fill="#E7EEEF" d="M552.296,500.774
			c3.017,0.186,6.043,0.375,9.087,0.565c0.186-1.529,0.373-3.051,0.561-4.573c0.188-1.519,0.372-3.031,0.562-4.543
			c-3.022-0.171-6.027-0.344-9.025-0.518c-0.202,1.503-0.398,3.01-0.594,4.518C552.689,497.738,552.493,499.255,552.296,500.774z"/>
		<path id="XMLID_207_" fill-rule="evenodd" clip-rule="evenodd" fill="#FFFFFF" d="M553.988,482.271
			c2.181,0.115,4.365,0.226,6.561,0.344c0.038-0.339,0.079-0.676,0.125-1.017c-2.192-0.111-4.373-0.224-6.554-0.337
			C554.074,481.598,554.031,481.934,553.988,482.271z"/>
		<path id="XMLID_206_" fill-rule="evenodd" clip-rule="evenodd" fill="#FFFFFF" d="M537.866,482.415
			c0.722,0.04,1.447,0.081,2.178,0.115c0.049-0.334,0.094-0.666,0.143-1.003c-0.729-0.033-1.455-0.074-2.181-0.115
			C537.96,481.746,537.912,482.08,537.866,482.415z"/>
		<path id="XMLID_205_" fill-rule="evenodd" clip-rule="evenodd" fill="#C96C38" d="M556.469,487.218
			c-0.01-0.028-0.036-0.05-0.069-0.058c0-0.012-0.012-0.02-0.026-0.02c-0.003,0-0.008,0-0.013,0
			c-0.012-0.014-0.038-0.021-0.06-0.023c-0.007-0.003-0.02-0.003-0.031,0.005c-0.005-0.008-0.015-0.013-0.021-0.01
			c-0.013-0.003-0.021,0-0.029,0.007c-0.015-0.014-0.031-0.021-0.053-0.021c-0.028-0.005-0.058,0.005-0.072,0.029
			c-0.005-0.005-0.01-0.008-0.015-0.008c-0.012-0.002-0.023,0.008-0.033,0.018c-0.002-0.005-0.007-0.005-0.012-0.003
			c-0.046-0.007-0.089,0.029-0.102,0.069c-0.012,0.003-0.023,0.013-0.028,0.027c0.002,0.002,0.002,0.002,0.002,0.004
			c-0.031,0.015-0.055,0.044-0.058,0.075c-0.002,0.019,0,0.036,0.01,0.05c-0.015,0.015-0.026,0.039-0.031,0.059
			c-0.002,0.023,0.002,0.045,0.015,0.058c-0.008,0.014-0.01,0.023-0.01,0.036c-0.012,0.038,0.01,0.069,0.041,0.084
			c0,0.002,0,0.002,0,0.002c-0.008,0.051,0.026,0.089,0.077,0.097c0.021,0.014,0.045,0.036,0.069,0.058
			c-0.005,0.017-0.007,0.028-0.007,0.041c-0.015,0-0.034,0-0.049-0.003c-0.021,0.029-0.041,0.053-0.058,0.077c0,0,0,0,0.005,0
			c-0.18,0.051-0.235,0.06-0.262,0.074c-0.048,0.034-0.102,0.227-0.142,0.344c0.071,0.005,0.142,0.01,0.214,0.013
			c0.005,0.002,0.007,0.002,0.012,0.002c0.089,0.005,0.181,0.01,0.267,0.015c0.021,0.002,0.044,0.002,0.065,0.002
			c0.021,0.003,0.041,0.003,0.062,0.005c0.089,0.008,0.175,0.012,0.271,0.015c0.005,0,0.01,0,0.012,0
			c0.07,0.005,0.14,0.012,0.212,0.015c-0.01-0.123-0.013-0.317-0.051-0.358c-0.024-0.02-0.079-0.031-0.238-0.104
			c0,0,0,0,0.003-0.002c-0.012-0.026-0.026-0.051-0.039-0.077c-0.017-0.003-0.033-0.003-0.045-0.005
			c-0.003-0.012-0.003-0.026,0-0.036c0.038-0.024,0.074-0.048,0.099-0.067c0.043-0.002,0.074-0.031,0.086-0.064
			c0.036-0.013,0.062-0.044,0.067-0.08c0-0.009,0-0.021-0.005-0.031c0.017-0.017,0.024-0.031,0.026-0.053
			c0.003-0.026-0.005-0.051-0.017-0.067c0.015-0.015,0.026-0.033,0.031-0.055c0-0.034-0.012-0.067-0.041-0.085
			c0.005-0.002,0.008-0.007,0.008-0.017c0.002-0.017-0.013-0.031-0.031-0.031C556.472,487.218,556.472,487.218,556.469,487.218z"/>
		<path id="XMLID_204_" fill-rule="evenodd" clip-rule="evenodd" fill="#F6EADB" d="M537.274,486.494
			c2.657,0.146,5.315,0.296,7.984,0.442c2.678,0.146,5.368,0.294,8.061,0.438c0.161-1.26,0.327-2.512,0.493-3.762
			c-2.688-0.145-5.368-0.284-8.037-0.424c-2.658-0.139-5.315-0.283-7.962-0.425C537.633,484.006,537.455,485.249,537.274,486.494z"
			/>
		<path id="XMLID_203_" fill-rule="evenodd" clip-rule="evenodd" fill="#A6A8AB" d="M538.703,484.129
			c2.314,0.122,4.63,0.255,6.95,0.375c2.329,0.125,4.661,0.25,7.008,0.372c0.02-0.158,0.038-0.316,0.062-0.482
			c-2.34-0.118-4.676-0.248-7.003-0.37c-2.32-0.121-4.638-0.248-6.948-0.373C538.746,483.812,538.725,483.97,538.703,484.129z"/>
		<path id="XMLID_202_" fill-rule="evenodd" clip-rule="evenodd" fill="#A6A8AB" d="M538.588,484.925
			c2.944,0.161,5.899,0.319,8.868,0.48c0.02-0.161,0.041-0.319,0.065-0.483c-2.967-0.156-5.922-0.314-8.864-0.479
			C538.631,484.604,538.609,484.766,538.588,484.925z"/>
		<path id="XMLID_201_" fill-rule="evenodd" clip-rule="evenodd" fill="#A6A8AB" d="M538.475,485.721
			c1.947,0.105,3.896,0.214,5.854,0.317c0.022-0.159,0.041-0.317,0.067-0.479c-1.957-0.108-3.906-0.215-5.852-0.317
			C538.518,485.4,538.496,485.56,538.475,485.721z"/>
		<path id="XMLID_200_" fill-rule="evenodd" clip-rule="evenodd" fill="#929497" d="M531.238,486.163
			c1.279,0.069,2.562,0.139,3.858,0.209c0.176-1.243,0.358-2.486,0.536-3.725c-1.281-0.067-2.562-0.137-3.842-0.199
			C531.602,483.684,531.419,484.917,531.238,486.163z"/>
		<path id="XMLID_199_" fill-rule="evenodd" clip-rule="evenodd" fill="#929497" d="M536.989,488.489
			c0.476,0.029,0.951,0.056,1.433,0.085c0.064-0.464,0.13-0.924,0.199-1.39c-0.48-0.026-0.954-0.053-1.436-0.082
			C537.121,487.566,537.054,488.028,536.989,488.489z"/>
		<path id="XMLID_198_" fill-rule="evenodd" clip-rule="evenodd" fill="#929497" d="M536.674,490.651
			c0.48,0.031,0.957,0.058,1.44,0.084c0.064-0.464,0.13-0.928,0.201-1.395c-0.485-0.024-0.961-0.053-1.438-0.077
			C536.809,489.726,536.741,490.189,536.674,490.651z"/>
		<path id="XMLID_197_" fill-rule="evenodd" clip-rule="evenodd" fill="#929497" d="M536.364,492.822
			c0.478,0.031,0.954,0.058,1.438,0.084c0.064-0.467,0.13-0.931,0.199-1.395c-0.479-0.026-0.957-0.051-1.433-0.082
			C536.493,491.894,536.431,492.355,536.364,492.822z"/>
		<path id="XMLID_196_" fill-rule="evenodd" clip-rule="evenodd" fill="#929497" d="M536.049,495.002
			c0.479,0.029,0.959,0.058,1.44,0.087c0.066-0.469,0.134-0.933,0.199-1.401c-0.48-0.029-0.959-0.056-1.438-0.087
			C536.181,494.069,536.116,494.533,536.049,495.002z"/>
		<path id="XMLID_195_" fill-rule="evenodd" clip-rule="evenodd" fill="#F6EADB" d="M535.368,499.722
			c2.679,0.168,5.371,0.339,8.063,0.505c2.7,0.168,5.411,0.334,8.133,0.502c0.171-1.283,0.337-2.564,0.51-3.846
			c-2.717-0.161-5.421-0.322-8.116-0.483c-2.686-0.161-5.368-0.325-8.037-0.488C535.731,497.178,535.554,498.447,535.368,499.722z"
			/>
		<path id="XMLID_194_" fill-rule="evenodd" clip-rule="evenodd" fill="#A6A8AB" d="M536.813,497.312
			c2.337,0.142,4.674,0.289,7.018,0.431c2.351,0.14,4.707,0.286,7.075,0.426c0.019-0.161,0.038-0.325,0.064-0.491
			c-2.365-0.139-4.722-0.286-7.072-0.425c-2.342-0.14-4.681-0.286-7.013-0.426C536.859,496.988,536.835,497.149,536.813,497.312z"/>
		<path id="XMLID_193_" fill-rule="evenodd" clip-rule="evenodd" fill="#A6A8AB" d="M536.695,498.123
			c1.827,0.112,3.659,0.226,5.493,0.336c1.84,0.113,3.684,0.229,5.527,0.34c0.021-0.161,0.043-0.325,0.067-0.486
			c-1.844-0.115-3.688-0.229-5.524-0.339c-1.835-0.11-3.666-0.226-5.493-0.336C536.739,497.798,536.717,497.962,536.695,498.123z"/>
		<path id="XMLID_192_" fill-rule="evenodd" clip-rule="evenodd" fill="#A6A8AB" d="M536.583,498.933
			c0.691,0.049,1.387,0.09,2.086,0.133c0.024-0.159,0.044-0.325,0.072-0.49c-0.702-0.041-1.396-0.085-2.087-0.13
			C536.628,498.611,536.606,498.774,536.583,498.933z"/>
		<path id="XMLID_191_" fill-rule="evenodd" clip-rule="evenodd" fill="#BBBDBF" d="M539.272,487.629
			c1.95,0.108,3.912,0.214,5.873,0.325c1.965,0.107,3.938,0.216,5.919,0.329c0.013-0.106,0.026-0.214,0.039-0.322
			c-1.979-0.108-3.953-0.219-5.919-0.327c-1.957-0.108-3.916-0.219-5.871-0.324C539.297,487.418,539.285,487.523,539.272,487.629z"
			/>
		<path id="XMLID_190_" fill-rule="evenodd" clip-rule="evenodd" fill="#BBBDBF" d="M539.203,488.11
			c2.151,0.12,4.312,0.24,6.477,0.357c0.015-0.105,0.028-0.209,0.046-0.319c-2.166-0.115-4.325-0.24-6.475-0.36
			C539.231,487.896,539.218,488.002,539.203,488.11z"/>
		<path id="XMLID_189_" fill-rule="evenodd" clip-rule="evenodd" fill="#BBBDBF" d="M538.94,489.951
			c1.402,0.082,2.811,0.161,4.222,0.24c0.015-0.105,0.029-0.211,0.046-0.321c-1.408-0.08-2.82-0.159-4.219-0.238
			C538.97,489.737,538.955,489.846,538.94,489.951z"/>
		<path id="XMLID_188_" fill-rule="evenodd" clip-rule="evenodd" fill="#BBBDBF" d="M538.575,492.495
			c1.988,0.122,3.975,0.238,5.972,0.351c0.015-0.105,0.029-0.214,0.044-0.322c-1.993-0.117-3.981-0.235-5.967-0.349
			C538.604,492.283,538.59,492.392,538.575,492.495z"/>
		<path id="XMLID_187_" fill-rule="evenodd" clip-rule="evenodd" fill="#BBBDBF" d="M538.641,492.041
			c0.99,0.058,1.979,0.115,2.969,0.17c0.012-0.105,0.029-0.211,0.041-0.322c-0.988-0.055-1.977-0.112-2.96-0.17
			C538.669,491.829,538.655,491.935,538.641,492.041z"/>
		<path id="XMLID_186_" fill-rule="evenodd" clip-rule="evenodd" fill="#BBBDBF" d="M538.352,494.084
			c2.2,0.132,4.404,0.262,6.619,0.392c0.014-0.105,0.028-0.214,0.045-0.326c-2.214-0.128-4.418-0.255-6.623-0.388
			C538.376,493.87,538.361,493.976,538.352,494.084z"/>
		<path id="XMLID_185_" fill-rule="evenodd" clip-rule="evenodd" fill="#BBBDBF" d="M538.289,494.543
			c2.2,0.133,4.407,0.263,6.619,0.392c0.014-0.107,0.026-0.214,0.045-0.324c-2.216-0.127-4.421-0.262-6.62-0.395
			C538.318,494.327,538.304,494.435,538.289,494.543z"/>
		<path id="XMLID_184_" fill-rule="evenodd" clip-rule="evenodd" fill="#BBBDBF" d="M538.222,495.002
			c0.88,0.054,1.758,0.104,2.638,0.154c0.015-0.108,0.031-0.214,0.048-0.322c-0.882-0.051-1.762-0.101-2.64-0.158
			C538.253,494.788,538.236,494.895,538.222,495.002z"/>
		<path id="XMLID_183_" fill-rule="evenodd" clip-rule="evenodd" fill="#C86F80" d="M561.011,488.915
			c0.125,0.01,0.219,0.044,0.281,0.176c0.064,0.137,0.031,0.401-0.039,0.579c-0.064-0.026-0.13-0.046-0.194-0.055
			c-0.005,0.009-0.003,0.019-0.003,0.026c0.231,0.112,0.306,0.094,0.33,0.117c0.04,0.044,0.035,0.265,0.05,0.388
			c-0.074-0.003-0.151-0.008-0.226-0.013c-0.01,0-0.021,0-0.026,0c-0.056,0-0.104-0.005-0.154-0.01c-0.031,0-0.06,0-0.089-0.004
			c-0.023,0-0.048-0.003-0.067-0.003c-0.031,0-0.05-0.002-0.072-0.005c-0.033,0-0.062,0-0.094-0.005
			c-0.053-0.002-0.103-0.002-0.153-0.01c-0.008,0.003-0.012,0.003-0.017,0c-0.08-0.002-0.156-0.007-0.231-0.014
			c0.041-0.12,0.092-0.339,0.14-0.375c0.033-0.024,0.108,0.002,0.358-0.082c0-0.007,0-0.017,0.002-0.024
			c-0.067,0.005-0.135,0.018-0.199,0.036c-0.021-0.099-0.038-0.339,0.099-0.56C560.77,488.976,560.886,488.905,561.011,488.915z"/>
		<path id="XMLID_182_" fill-rule="evenodd" clip-rule="evenodd" fill="#8CB8B7" d="M537.583,488.004
			c0.012,0.003,0.028,0.005,0.045,0.003c0-0.013,0.005-0.026,0.01-0.041c-0.043-0.036-0.086-0.077-0.099-0.102
			c0-0.007-0.01-0.023-0.015-0.048c-0.007-0.023-0.017-0.048-0.021-0.074c-0.017-0.01-0.026-0.026-0.031-0.051
			c-0.01-0.036,0.003-0.067,0.029-0.072l0,0c0.007-0.069,0.026-0.132,0.046-0.175c0.021-0.051,0.058-0.089,0.115-0.092
			c0.149-0.079,0.349-0.072,0.426,0.053c0.043,0.065,0.04,0.161,0.021,0.25c0.012,0.01,0.017,0.041,0.002,0.072
			c-0.012,0.024-0.033,0.041-0.046,0.048l0,0c-0.012,0.02-0.023,0.034-0.04,0.049c-0.013,0.036-0.026,0.058-0.031,0.064
			c-0.022,0.024-0.07,0.058-0.125,0.092c-0.003,0.014-0.005,0.026-0.005,0.036c0.017,0.002,0.033,0.004,0.048,0.007
			c0.01,0.026,0.021,0.053,0.036,0.079c0,0.005,0,0.005,0,0.005c0.156,0.069,0.204,0.079,0.226,0.101
			c0.044,0.041,0.039,0.231,0.051,0.352c-0.072-0.003-0.142-0.005-0.214-0.01c-0.005,0-0.01,0-0.012-0.005
			c-0.087-0.002-0.176-0.007-0.265-0.015c-0.02,0-0.041-0.002-0.058-0.002c-0.024-0.003-0.046-0.003-0.067-0.005
			c-0.087-0.003-0.176-0.007-0.263-0.015c-0.005,0-0.01,0-0.012,0c-0.072-0.002-0.142-0.007-0.209-0.015
			c0.043-0.115,0.094-0.303,0.145-0.339c0.028-0.019,0.084-0.021,0.257-0.074l0,0C537.542,488.057,537.563,488.03,537.583,488.004z"
			/>
		<path id="XMLID_181_" fill-rule="evenodd" clip-rule="evenodd" fill="#D0D2D3" d="M537.83,489.538
			c-0.01-0.031-0.033-0.056-0.072-0.062c0-0.01-0.014-0.024-0.026-0.024c-0.002,0-0.007,0-0.012,0
			c-0.017-0.01-0.034-0.019-0.056-0.021c-0.01-0.002-0.023-0.002-0.033,0.005c-0.008-0.007-0.017-0.012-0.024-0.012
			c-0.012-0.003-0.02,0.002-0.028,0.005c-0.015-0.01-0.034-0.022-0.058-0.022c-0.027,0-0.056,0.013-0.077,0.029
			c-0.003-0.002-0.013,0-0.017-0.005c-0.013,0.003-0.024,0.007-0.034,0.015c-0.002,0-0.007,0-0.007,0
			c-0.053-0.003-0.099,0.033-0.111,0.077c-0.012,0.002-0.028,0.012-0.033,0.026c0,0,0,0.005,0,0.007
			c-0.029,0.017-0.053,0.041-0.061,0.077c0,0.021,0.005,0.038,0.015,0.058c-0.021,0.015-0.033,0.036-0.033,0.06
			c-0.005,0.022,0,0.044,0.01,0.061c-0.008,0.01-0.008,0.026-0.008,0.038c-0.007,0.039,0.01,0.067,0.039,0.085l0,0
			c-0.008,0.053,0.028,0.096,0.081,0.101c0.021,0.02,0.041,0.041,0.07,0.064c-0.005,0.018-0.005,0.026-0.005,0.041
			c-0.021,0-0.039,0-0.056-0.002c-0.02,0.026-0.041,0.053-0.06,0.081c0,0,0,0,0.002-0.002c-0.176,0.056-0.24,0.065-0.27,0.084
			c-0.05,0.036-0.107,0.238-0.151,0.36c0.07,0.005,0.146,0.013,0.222,0.015c0.005-0.002,0.01-0.002,0.015-0.002
			c0.089,0.007,0.18,0.015,0.273,0.017c0.021,0.002,0.043,0.002,0.067,0.005c0.021,0,0.043,0.002,0.067,0.002
			c0.092,0.008,0.183,0.015,0.276,0.018c0.005,0,0.008,0,0.012,0c0.077,0.005,0.152,0.01,0.227,0.012
			c-0.012-0.128-0.007-0.332-0.048-0.373c-0.021-0.023-0.08-0.031-0.245-0.11c0,0,0,0,0.002,0c-0.007-0.028-0.021-0.06-0.034-0.089
			c-0.021,0.002-0.038,0-0.055,0c0-0.015,0.005-0.024,0.01-0.041c0.038-0.023,0.077-0.048,0.096-0.067
			c0.044-0.007,0.079-0.036,0.092-0.069c0.033-0.012,0.067-0.048,0.072-0.084c0.002-0.013-0.003-0.021-0.003-0.031
			c0.017-0.018,0.024-0.034,0.026-0.053c0.008-0.027-0.005-0.054-0.021-0.07c0.021-0.017,0.034-0.038,0.036-0.062
			c0.005-0.033-0.012-0.067-0.036-0.084c0-0.005,0.003-0.012,0.005-0.017c0-0.02-0.012-0.036-0.031-0.036
			C537.84,489.538,537.835,489.538,537.83,489.538z"/>
		<path id="XMLID_180_" fill-rule="evenodd" clip-rule="evenodd" fill="#A5CD39" d="M536.943,492.331
			c0.017,0,0.033,0.003,0.05,0.005c0-0.014,0-0.026,0.005-0.041c-0.043-0.035-0.081-0.079-0.096-0.103
			c-0.003-0.005-0.007-0.026-0.012-0.054c-0.015-0.019-0.022-0.045-0.026-0.071c-0.015-0.008-0.024-0.024-0.031-0.051
			c-0.005-0.034,0.009-0.067,0.026-0.072l0,0c0.012-0.067,0.033-0.135,0.048-0.173c0.021-0.051,0.062-0.089,0.12-0.094
			c0.145-0.082,0.346-0.07,0.428,0.055c0.043,0.065,0.036,0.161,0.017,0.248c0.018,0.012,0.018,0.041,0,0.074
			c-0.012,0.021-0.026,0.039-0.043,0.049l0,0c-0.012,0.017-0.024,0.038-0.036,0.05c-0.017,0.036-0.028,0.058-0.038,0.065
			c-0.018,0.021-0.067,0.06-0.123,0.089c-0.002,0.015-0.002,0.028-0.002,0.038c0.012,0.003,0.028,0.005,0.045,0.003
			c0.013,0.028,0.027,0.058,0.039,0.084c-0.005,0.005-0.005,0.005-0.005,0.005c0.156,0.069,0.212,0.077,0.233,0.099
			c0.036,0.048,0.036,0.237,0.045,0.36c-0.071-0.005-0.144-0.01-0.211-0.015c-0.005,0-0.008,0-0.01,0
			c-0.094-0.002-0.183-0.007-0.267-0.017c-0.02,0-0.044,0-0.062-0.003c-0.02,0-0.041-0.002-0.062-0.004
			c-0.092-0.003-0.181-0.008-0.27-0.013c-0.002,0-0.007,0-0.012,0c-0.067-0.005-0.138-0.01-0.204-0.017
			c0.043-0.115,0.094-0.311,0.142-0.344c0.026-0.02,0.086-0.024,0.255-0.077c0,0,0,0,0-0.002
			C536.902,492.382,536.924,492.358,536.943,492.331z"/>
		<path id="XMLID_179_" fill-rule="evenodd" clip-rule="evenodd" fill="#8CB8B7" d="M536.896,493.786
			c0.129,0.01,0.223,0.041,0.283,0.183c0.062,0.145,0.021,0.421-0.051,0.604c-0.067-0.024-0.135-0.041-0.201-0.056
			c0,0.01,0,0.02,0,0.026c0.237,0.12,0.308,0.097,0.334,0.128c0.043,0.041,0.033,0.276,0.045,0.403
			c-0.081-0.002-0.156-0.01-0.235-0.012c-0.007,0-0.017,0-0.021-0.003c-0.053,0-0.108-0.004-0.163-0.012
			c-0.034,0-0.062,0-0.092-0.002c-0.026,0-0.051-0.003-0.072-0.005c-0.026-0.003-0.05-0.003-0.067-0.003
			c-0.033,0-0.062-0.007-0.094-0.01c-0.053,0-0.107-0.002-0.161-0.004c-0.009,0-0.017,0-0.021-0.003
			c-0.079-0.005-0.158-0.01-0.24-0.017c0.048-0.123,0.108-0.355,0.161-0.392c0.034-0.024,0.104,0,0.368-0.085
			c0-0.007,0-0.014,0.005-0.026c-0.065,0.008-0.135,0.02-0.207,0.039c-0.021-0.104-0.034-0.356,0.115-0.584
			C536.647,493.846,536.761,493.776,536.896,493.786z"/>
		<path id="XMLID_178_" fill-rule="evenodd" clip-rule="evenodd" fill="#47A4AD" d="M534.638,488.194
			c0.355,0.019,0.719,0.041,1.084,0.06c0.039-0.291,0.084-0.584,0.128-0.88c-0.363-0.021-0.729-0.041-1.092-0.062
			C534.712,487.607,534.671,487.898,534.638,488.194z"/>
		<path id="XMLID_177_" fill-rule="evenodd" clip-rule="evenodd" fill="#80806F" d="M534.445,489.471
			c0.363,0.024,0.726,0.041,1.094,0.06c0.041-0.29,0.077-0.581,0.123-0.877c-0.363-0.017-0.729-0.036-1.087-0.061
			C534.532,488.887,534.486,489.18,534.445,489.471z"/>
		<path id="XMLID_176_" fill-rule="evenodd" clip-rule="evenodd" fill="#AABD91" d="M534.253,490.798
			c0.358,0.021,0.724,0.043,1.087,0.062c0.043-0.294,0.086-0.589,0.13-0.883c-0.361-0.017-0.729-0.038-1.09-0.06
			C534.337,490.214,534.291,490.507,534.253,490.798z"/>
		<path id="XMLID_175_" fill-rule="evenodd" clip-rule="evenodd" fill="#BBBDBF" d="M555.065,485.004
			c2.512,0.137,5.036,0.271,7.561,0.406c0.02-0.161,0.038-0.319,0.06-0.483c-2.526-0.135-5.046-0.265-7.558-0.401
			C555.105,484.685,555.087,484.848,555.065,485.004z"/>
		<path id="XMLID_174_" fill-rule="evenodd" clip-rule="evenodd" fill="#BBBDBF" d="M554.964,485.807
			c2.51,0.14,5.034,0.274,7.559,0.409c0.021-0.159,0.041-0.32,0.062-0.483c-2.529-0.135-5.049-0.27-7.559-0.406
			C555.003,485.487,554.983,485.648,554.964,485.807z"/>
		<path id="XMLID_173_" fill-rule="evenodd" clip-rule="evenodd" fill="#BBBDBF" d="M554.86,486.609
			c1.467,0.08,2.94,0.161,4.419,0.243c0.02-0.161,0.036-0.324,0.061-0.488c-1.477-0.076-2.95-0.156-4.417-0.235
			C554.896,486.29,554.88,486.448,554.86,486.609z"/>
		<path id="XMLID_172_" fill-rule="evenodd" clip-rule="evenodd" fill="#BBBDBF" d="M554.051,492.841
			c2.521,0.149,5.056,0.294,7.597,0.44c0.017-0.106,0.028-0.212,0.046-0.317c-2.544-0.149-5.078-0.296-7.602-0.442
			C554.079,492.627,554.065,492.735,554.051,492.841z"/>
		<path id="XMLID_171_" fill-rule="evenodd" clip-rule="evenodd" fill="#BBBDBF" d="M553.895,494.024
			c2.526,0.148,5.062,0.298,7.606,0.444c0.012-0.108,0.026-0.214,0.043-0.322c-2.543-0.146-5.08-0.296-7.606-0.444
			C553.921,493.812,553.908,493.918,553.895,494.024z"/>
		<path id="XMLID_170_" fill-rule="evenodd" clip-rule="evenodd" fill="#BBBDBF" d="M553.74,495.207
			c2.534,0.151,5.07,0.3,7.616,0.449c0.012-0.11,0.024-0.217,0.036-0.322c-2.544-0.151-5.077-0.298-7.606-0.452
			C553.767,494.99,553.755,495.099,553.74,495.207z"/>
		<path id="XMLID_169_" fill-rule="evenodd" clip-rule="evenodd" fill="#BBBDBF" d="M553.591,496.39
			c2.527,0.151,5.07,0.305,7.619,0.457c0.012-0.108,0.023-0.217,0.036-0.322c-2.549-0.154-5.087-0.306-7.616-0.457
			C553.618,496.173,553.604,496.284,553.591,496.39z"/>
		<path id="XMLID_168_" fill-rule="evenodd" clip-rule="evenodd" fill="#BBBDBF" d="M553.433,497.577
			c2.534,0.156,5.075,0.311,7.626,0.462c0.012-0.106,0.026-0.217,0.043-0.322c-2.551-0.154-5.089-0.308-7.628-0.464
			C553.459,497.36,553.447,497.469,553.433,497.577z"/>
		<path id="XMLID_167_" fill-rule="evenodd" clip-rule="evenodd" fill="#BBBDBF" d="M553.278,498.768
			c2.537,0.156,5.08,0.312,7.634,0.469c0.012-0.111,0.023-0.219,0.043-0.327c-2.554-0.151-5.099-0.308-7.633-0.467
			C553.306,498.553,553.293,498.659,553.278,498.768z"/>
		<path id="XMLID_166_" fill-rule="evenodd" clip-rule="evenodd" fill="#BBBDBF" d="M553.127,499.96
			c2.537,0.158,5.08,0.314,7.638,0.471c0.013-0.11,0.024-0.216,0.039-0.327c-2.559-0.156-5.102-0.312-7.636-0.469
			C553.153,499.741,553.142,499.852,553.127,499.96z"/>
		<path id="XMLID_165_" fill-rule="evenodd" clip-rule="evenodd" fill="#4EA291" d="M555.574,490.805
			c0.018,0.003,0.034,0.003,0.051,0.003c0-0.015,0-0.026,0.003-0.044c-0.044-0.031-0.087-0.079-0.094-0.099
			c-0.005-0.007-0.01-0.026-0.018-0.055c-0.012-0.021-0.021-0.046-0.026-0.072c-0.014-0.007-0.026-0.029-0.031-0.051
			c-0.015-0.033,0.008-0.069,0.026-0.074l0,0c0.005-0.069,0.024-0.132,0.044-0.176c0.019-0.051,0.058-0.089,0.12-0.094
			c0.146-0.082,0.351-0.069,0.438,0.056c0.038,0.067,0.038,0.163,0.02,0.25c0.019,0.012,0.019,0.041,0.004,0.074
			c-0.012,0.024-0.028,0.043-0.045,0.046l0,0c-0.013,0.024-0.021,0.041-0.039,0.058c-0.012,0.031-0.023,0.058-0.036,0.064
			c-0.021,0.02-0.067,0.059-0.122,0.09c-0.005,0.012-0.005,0.026-0.003,0.036c0.013,0.002,0.029,0.004,0.046,0.007
			c0.01,0.028,0.024,0.056,0.036,0.082l0,0c0.163,0.071,0.217,0.081,0.238,0.105c0.038,0.038,0.038,0.235,0.053,0.355
			c-0.072-0.002-0.145-0.007-0.217-0.012c-0.005,0-0.007,0-0.009-0.003c-0.094-0.002-0.184-0.007-0.272-0.012
			c-0.019-0.002-0.043-0.002-0.062-0.007c-0.021,0-0.043-0.003-0.062-0.003c-0.094-0.005-0.185-0.01-0.273-0.012
			c-0.005,0-0.008,0-0.013-0.002c-0.072-0.005-0.144-0.008-0.209-0.013c0.041-0.12,0.089-0.312,0.137-0.344
			c0.029-0.021,0.085-0.023,0.263-0.079l0,0C555.536,490.857,555.556,490.831,555.574,490.805z"/>
		<path id="XMLID_162_" fill-rule="evenodd" clip-rule="evenodd" fill="#FFFFFF" d="M562.328,481.736
			c-0.149-0.009-0.286,0.102-0.306,0.245c-0.02,0.14,0.094,0.268,0.243,0.274c0.156,0.008,0.288-0.105,0.308-0.247
			C562.587,481.864,562.481,481.744,562.328,481.736L562.328,481.736z M562.07,481.744L562.07,481.744
			c0.156-0.128,0.392-0.115,0.517,0.023c0.128,0.143,0.104,0.354-0.058,0.483c-0.163,0.123-0.392,0.11-0.523-0.028
			C561.881,482.08,561.909,481.864,562.07,481.744z"/>
		<path id="XMLID_161_" fill-rule="evenodd" clip-rule="evenodd" fill="#FFFFFF" d="M562.575,482.381
			c-0.026-0.023-0.053-0.051-0.074-0.079c0.017-0.007,0.033-0.017,0.048-0.029c0.017-0.014,0.034-0.028,0.051-0.045
			c0.021,0.028,0.048,0.05,0.072,0.076C562.641,482.33,562.606,482.357,562.575,482.381z"/>
		<path id="XMLID_160_" fill-rule="evenodd" clip-rule="evenodd" fill="#FFFFFF" d="M562.977,482.631
			c0.031,0.029,0.024,0.072-0.012,0.097c-0.031,0.026-0.077,0.023-0.104-0.005c-0.099-0.106-0.192-0.209-0.286-0.315
			c0.039-0.031,0.077-0.062,0.123-0.096C562.789,482.422,562.881,482.527,562.977,482.631z"/>
		<path id="XMLID_159_" fill-rule="evenodd" clip-rule="evenodd" fill="#FFFFFF" d="M562.246,482.208
			c0.031,0,0.056-0.003,0.084-0.01c0.012-0.005,0.02-0.017,0.017-0.031c-0.005-0.015-0.019-0.02-0.031-0.015
			c-0.021,0.003-0.041,0.01-0.062,0.005c-0.048-0.002-0.091-0.031-0.105-0.072c-0.005-0.014-0.02-0.019-0.031-0.017
			c-0.012,0.005-0.02,0.017-0.015,0.031C562.121,482.165,562.181,482.203,562.246,482.208z"/>
		<path id="XMLID_158_" fill-rule="evenodd" clip-rule="evenodd" fill="#CBE6D2" d="M534.065,492.067
			c0.36,0.023,0.724,0.043,1.087,0.064c0.043-0.293,0.086-0.587,0.132-0.882c-0.363-0.02-0.729-0.041-1.087-0.062
			C534.152,491.482,534.106,491.778,534.065,492.067z"/>
		<path id="XMLID_157_" fill-rule="evenodd" clip-rule="evenodd" fill="#BBBDBF" d="M530.565,487.682
			c1.23,0.072,2.464,0.14,3.702,0.21c0.015-0.106,0.031-0.215,0.05-0.32c-1.237-0.069-2.471-0.135-3.704-0.204
			C530.597,487.473,530.582,487.581,530.565,487.682z"/>
		<path id="XMLID_156_" fill-rule="evenodd" clip-rule="evenodd" fill="#BBBDBF" d="M530.363,489.014
			c1.235,0.07,2.474,0.14,3.714,0.207c0.018-0.104,0.031-0.209,0.046-0.317c-1.24-0.065-2.479-0.14-3.709-0.212
			C530.395,488.8,530.38,488.908,530.363,489.014z"/>
		<path id="XMLID_155_" fill-rule="evenodd" clip-rule="evenodd" fill="#BBBDBF" d="M530.169,490.341
			c1.23,0.074,2.469,0.145,3.709,0.214c0.015-0.105,0.029-0.211,0.048-0.317c-1.24-0.069-2.476-0.142-3.712-0.211
			C530.2,490.132,530.183,490.235,530.169,490.341z"/>
		<path id="XMLID_154_" fill-rule="evenodd" clip-rule="evenodd" fill="#BBBDBF" d="M529.964,491.696
			c1.238,0.075,2.474,0.147,3.72,0.215c0.014-0.106,0.028-0.212,0.05-0.317c-1.245-0.072-2.48-0.147-3.719-0.219
			C529.993,491.482,529.981,491.594,529.964,491.696z"/>
		<path id="XMLID_153_" fill-rule="evenodd" clip-rule="evenodd" fill="#D0D2D3" d="M534.176,483.612
			c-0.017-0.07-0.081-0.125-0.163-0.14c-0.005-0.026-0.029-0.048-0.062-0.053c-0.012-0.003-0.021-0.003-0.029,0.005
			c-0.033-0.031-0.081-0.054-0.135-0.059c-0.023,0-0.053,0.005-0.074,0.008c-0.012-0.012-0.033-0.02-0.055-0.021
			c-0.024-0.005-0.049,0.005-0.065,0.014c-0.033-0.028-0.079-0.045-0.132-0.045c-0.067-0.008-0.13,0.019-0.176,0.06
			c-0.01-0.005-0.02-0.007-0.033-0.007c-0.027,0-0.056,0.015-0.072,0.033c-0.013-0.002-0.021,0-0.029-0.002
			c-0.117-0.005-0.219,0.072-0.247,0.176c-0.031-0.003-0.07,0.021-0.075,0.06c0,0.003,0,0.007,0,0.012
			c-0.072,0.034-0.13,0.102-0.14,0.184c-0.009,0.045,0.003,0.086,0.026,0.122c-0.045,0.036-0.074,0.092-0.086,0.146
			c-0.008,0.046,0.005,0.097,0.033,0.138c-0.017,0.023-0.026,0.055-0.028,0.081c-0.017,0.089,0.026,0.164,0.099,0.205
			c0,0.002,0,0.002,0,0.002c-0.021,0.115,0.064,0.219,0.189,0.221c0.039,0.049,0.097,0.102,0.151,0.152
			c-0.009,0.031-0.012,0.062-0.017,0.091c-0.041,0.003-0.077,0-0.11-0.002c-0.051,0.06-0.099,0.122-0.145,0.183
			c0,0.002,0,0.002,0.005,0.002c-0.416,0.133-0.558,0.14-0.618,0.186c-0.12,0.086-0.25,0.546-0.355,0.832
			c0.166,0.009,0.337,0.019,0.503,0.028c0.009,0,0.017,0.003,0.031,0.003c0.211,0.014,0.428,0.023,0.642,0.033
			c0.048,0.005,0.099,0.007,0.151,0.007c0.051,0.005,0.101,0.01,0.154,0.013c0.211,0.012,0.43,0.019,0.642,0.031
			c0.007,0.002,0.017,0.005,0.028,0.005c0.174,0.012,0.337,0.019,0.513,0.028c-0.021-0.296-0.013-0.762-0.111-0.86
			c-0.048-0.053-0.183-0.072-0.55-0.25c0,0,0,0,0-0.003c-0.031-0.06-0.061-0.127-0.087-0.197c-0.043-0.002-0.079-0.004-0.118-0.007
			c0.005-0.031,0.008-0.062,0.018-0.091c0.089-0.051,0.173-0.111,0.232-0.161c0.092-0.008,0.179-0.075,0.205-0.156
			c0.084-0.029,0.148-0.102,0.161-0.19c0.002-0.026,0.002-0.048-0.003-0.074c0.034-0.031,0.058-0.077,0.065-0.128
			c0.007-0.06-0.013-0.115-0.049-0.158c0.044-0.034,0.072-0.084,0.08-0.137c0.012-0.082-0.026-0.161-0.089-0.197
			c0.007-0.01,0.014-0.022,0.014-0.039c0.01-0.043-0.026-0.079-0.072-0.084C534.188,483.609,534.181,483.609,534.176,483.612z"/>
		<path id="XMLID_152_" fill-rule="evenodd" clip-rule="evenodd" fill="#FDCF9D" d="M556.959,488.17
			c0.015-0.125,0.029-0.247,0.044-0.37c-0.123-0.074-0.248-0.158-0.368-0.235c0.13,0.007,0.265,0.012,0.395,0.017l0,0
			c0.017-0.108,0.096-0.192,0.185-0.186c0.969,0.054,1.936,0.108,2.904,0.156c0.089,0.005,0.151,0.102,0.133,0.207
			c-0.022,0.197-0.046,0.392-0.067,0.587c-0.02,0.108-0.104,0.192-0.19,0.188c-0.969-0.053-1.938-0.106-2.901-0.159
			C557.003,488.369,556.945,488.278,556.959,488.17z"/>
		<path id="XMLID_151_" fill-rule="evenodd" clip-rule="evenodd" fill="#FDCF9D" d="M556.75,489.767
			c0.024-0.197,0.051-0.395,0.075-0.589c0.017-0.111,0.096-0.195,0.189-0.188c0.964,0.053,1.933,0.107,2.904,0.161
			c0.086,0.004,0.145,0.101,0.132,0.206l0,0c0.097,0.017,0.197,0.036,0.294,0.058c-0.104,0.056-0.217,0.108-0.32,0.164
			c-0.015,0.122-0.031,0.245-0.048,0.37c-0.012,0.105-0.092,0.192-0.186,0.185c-0.969-0.053-1.939-0.107-2.903-0.163
			C556.796,489.966,556.735,489.874,556.75,489.767z"/>
		<path id="XMLID_150_" fill-rule="evenodd" clip-rule="evenodd" fill="#FDCF9D" d="M556.572,491.153
			c0.017-0.125,0.034-0.247,0.051-0.37c-0.113-0.096-0.222-0.192-0.325-0.291c0.113,0.026,0.236,0.048,0.349,0.072l0,0
			c0.018-0.11,0.099-0.194,0.188-0.188c0.967,0.053,1.94,0.108,2.904,0.163c0.092,0.003,0.156,0.099,0.14,0.205
			c-0.024,0.199-0.051,0.394-0.077,0.591c-0.012,0.108-0.094,0.195-0.183,0.186c-0.974-0.053-1.942-0.11-2.909-0.164
			C556.623,491.353,556.558,491.259,556.572,491.153z"/>
	</g>
	<path id="XMLID_148_" fill-rule="evenodd" clip-rule="evenodd" fill="#FFF2EE" d="M504.245,487.226
		c4.633-2.409,3.746,8.669,27.122,19.456c1.543,0.711,7.428-0.83,11.722-2.118c0.582-0.608,1.477-1.303,1.567-1.928
		c0.146-0.977,1.58-1.532,3.281-2.279c1.702-0.745,5.436-0.592,6.785,0.543c1.351,1.133,1.447,3.755,0.528,4.904
		c-0.572,0.712-2.99,1.44-4.741,1.885l-13.922,9.172c-3.839,2.531-26.389-12.131-29.871-13.435
		c-3.484-1.305-4.303-11.924-3.388-14.063C504.245,487.226,504.245,487.226,504.245,487.226z"/>
	<path id="XMLID_147_" fill-rule="evenodd" clip-rule="evenodd" fill="#806A50" d="M496.84,466.353
		c-0.168,0.481-0.257,1.025-0.243,1.643c0.082,3.464,1.452,6.426-1.546,9.686c-3,3.258-13.158,6.427-18.283,6.054
		c-1.579-0.115-2.995-1.822-4.195-4.128c-2.077-1.497-4.258-3.245-5.633-4.771c-1.375-1.524-2.529-10.514-0.349-11.939
		c0.56-0.365,0.957-0.588,1.065-0.857c5.828-14.438,36.919-6.001,37.79-10.177c0.007-0.043,0.426,0.993,0.567,2.559
		c0.606-0.652,1.116-1.256,1.176-1.472c0.144-0.51,0.291,1.632-0.483,4.659c-0.776,3.024-2.515,3.763-2.226,3.956
		c0.291,0.195,2.902-0.836,3.192-1.163c0.291-0.327-3.668,3.784-5.902,4.936C500.408,466.04,498.454,466.317,496.84,466.353z"/>
	<path id="XMLID_263_" fill-rule="evenodd" clip-rule="evenodd" fill="#79644B" d="M485.462,482.451c0,0-1.969-6.494-1.673-10.568
		c0.298-4.077,2.452-7.787,1.673-7.489c-0.784,0.296-4.493,7.578-4.493,7.578l1.632-8.912c0,0-2.652,4.293-4.815,8.823
		c-2.164,4.526-2.459,8.279-2.608,7.811c-0.149-0.467,0.594-15.004,0-14.112c-0.594,0.89-2.077,4.325-3.118,8.393
		c-1.039,4.068-0.445,5.809-0.74,4.938c-0.298-0.87-1.676-12.737-1.58-11.698c0.094,1.036-1.539,5.936-1.39,12.088
		c0.146,6.154,3.233,8.301,3.186,8.094c-0.048-0.209,14.095-0.505,14.095-0.505L485.462,482.451z"/>
	<path id="XMLID_129_" fill-rule="evenodd" clip-rule="evenodd" fill="#FFF2EE" d="M491.385,483.725
		c2.166,0,3.938-2.293,3.938-5.106c0-2.812-1.772-5.108-3.938-5.108c-2.171,0-3.94,2.296-3.94,5.108
		C487.445,481.432,489.214,483.725,491.385,483.725z"/>
	<path id="XMLID_128_" fill-rule="evenodd" clip-rule="evenodd" fill="#FFF98F" d="M512.559,477.45l-60.624-3.477
		c-1.606,0.645-1.62,2.854-1.168,4.328c9.066,29.521,21.754,49.463,41.999,60.053c24.722,12.937,59.383,11.196,95.899-13.222
		C534.231,549.763,507.192,499.779,512.559,477.45z"/>
	<path id="XMLID_127_" fill-rule="evenodd" clip-rule="evenodd" fill="#FFEC5F" d="M512.559,477.45l-19.577-1.123
		c8.347,28.184,20.361,62.823,55.977,67.088c8.936-2.26,18.206-5.878,27.666-11.001c0.219-1,0.48-2.055,0.762-3.108
		C530.524,542.724,507.577,498.178,512.559,477.45z"/>
	<path id="XMLID_126_" fill-rule="evenodd" clip-rule="evenodd" fill="#FFEC5F" d="M481.536,475.671l-11.797-0.675
		c1.046,26.017,22.074,60.911,41.303,69.802c5.977,1.217,12.302,1.724,18.905,1.449C521.062,539.98,486.173,517.235,481.536,475.671
		z"/>
	<path id="XMLID_124_" fill-rule="evenodd" clip-rule="evenodd" fill="#F48567" d="M467.407,595.064L467.407,595.064
		c-1.084-1.762-0.481-4.067,1.356-5.104l119.045-67.062c1.837-1.034,4.217-0.457,5.301,1.305l0,0c1.087,1.763,0.48,4.07-1.355,5.104
		L472.71,596.37C470.874,597.406,468.492,596.829,467.407,595.064z"/>
	<path id="XMLID_123_" fill-rule="evenodd" clip-rule="evenodd" fill="#EF946C" d="M592.59,523.541
		c0.195,0.197,0.37,0.421,0.52,0.663l0,0c1.087,1.763,0.48,4.07-1.355,5.104L472.71,596.37c-0.976,0.548-2.101,0.645-3.106,0.351
		c-0.195-0.197-0.37-0.418-0.519-0.663l0,0c-1.087-1.763-0.481-4.068,1.356-5.104l119.043-67.062
		C590.46,523.344,591.585,523.248,592.59,523.541z"/>
	<path id="XMLID_121_" fill-rule="evenodd" clip-rule="evenodd" fill="#EF946C" d="M509.649,475.179
		c1.71-0.597,3.69,0.036,4.662,1.586l57.181,91.319c0.931,1.485,0.646,3.363-0.575,4.541c-1.709,0.594-3.688-0.036-4.661-1.587
		l-57.182-91.318C508.144,478.231,508.428,476.356,509.649,475.179z"/>
	<path id="XMLID_120_" fill-rule="evenodd" clip-rule="evenodd" fill="#ED7D56" d="M455.123,552.575l54.712,14.393l-1.08,3.809
		c-18.24-4.799-36.477-9.598-54.714-14.394C451.767,555.984,453.072,552.442,455.123,552.575z"/>
	<path id="XMLID_265_" fill-rule="evenodd" clip-rule="evenodd" fill="#79644B" d="M474.992,458.744
		c0.211-0.421,5.474-3.368,10.638-3.789c5.164-0.42,9.693,0.631,13.17,0c3.476-0.629,5.161-1.367,5.161-1.367
		s-2.738,2.104-6.32,2.579c-3.582,0.474-8.164,0.651-8.164,0.651s5.32-0.248,8.585,0c3.267,0.243,7.775-1.863,7.775-1.863
		s-0.332,2.527-4.421,3.789c-4.092,1.265-11.991,1.368-11.991,1.368s4.214,1.791,7.796,1.791s5.373-0.105,4.847,0
		c-0.529,0.104-4.58,1.683-9.085,1.789c-4.505,0.105-11.035-2.21-13.46-1.895c-2.423,0.316-4.424,2.216-4.529,1.898
		c-0.104-0.319,0.95-2.529,5.056-3.688c4.108-1.159,5.688-1.118,5.058-1.349c-0.632-0.23-3.205-0.125-6.5,0.505
		c-3.296,0.633-6.984,3.895-6.984,3.895L474.992,458.744z"/>
</g>
<g>
	<g>
		<g>
			<path fill="#FFA457" d="M626.115,581.151c0,0.002,0,0.002,0,0.002c0.444,1.367,1.912,2.117,3.279,1.673
				c1.37-0.445,2.117-1.913,1.673-3.28c0,0,0,0,0-0.003L626.115,581.151z"/>
		</g>
		<g>
			<path fill="#026838" d="M626.115,581.151c0,0.002,0,0.002,0,0.002c0.444,1.367,1.912,2.117,3.279,1.673
				c1.37-0.445,2.117-1.913,1.673-3.28c0,0,0,0,0-0.003L626.115,581.151z"/>
		</g>
		<g>
			<path fill="#EEFFD6" d="M626.206,581.122v0.003c0.428,1.316,1.843,2.037,3.16,1.609c1.316-0.428,2.04-1.841,1.609-3.16l0,0
				L626.206,581.122z"/>
		</g>
		<g>
			<polygon fill="#F8C26F" points="628.578,580.354 626.36,581.071 626.362,581.074 626.362,581.079 628.578,580.354 			"/>
			<path fill="#8AC440" d="M628.585,580.363l0.007-0.013l-0.009,0.01c-0.003,0-0.003-0.002-0.003-0.002l-2.052,1.109
				c0.271,0.498,0.714,0.882,1.247,1.082l0.812-2.187H628.585z"/>
			<path fill="#8AC440" d="M628.604,580.355l-0.005-0.002L628.604,580.355c0,0.003-0.003,0.003-0.003,0.005l-0.005-0.007
				l-0.005-0.003l0,0l0,0l0,0l0,0l0.003,0.013c-0.003,0-0.003,0-0.005,0l-0.411,2.294c0.553,0.102,1.142-0.009,1.622-0.298
				l-1.196-1.994l1.535,1.747c0.426-0.375,0.702-0.89,0.778-1.451l-2.313-0.311C628.604,580.354,628.604,580.355,628.604,580.355z"
				/>
			<path fill="#8AC440" d="M628.604,580.344L628.604,580.344l-0.005,0.002h0.005c0,0,0,0.003,0,0.005l2.331-0.11
				c-0.013-0.209-0.049-0.416-0.113-0.615c0,0,0,0,0-0.002L628.604,580.344z"/>
		</g>
	</g>
	<g>
		<g>
			<path fill="#FFA457" d="M628.162,578.35v-0.003c-1.067-0.966-2.713-0.884-3.679,0.181s-0.885,2.71,0.18,3.676
				c0,0.003,0,0.003,0.003,0.003L628.162,578.35z"/>
		</g>
		<g>
			<path fill="#026838" d="M628.162,578.35v-0.003c-1.067-0.966-2.713-0.884-3.679,0.181s-0.885,2.71,0.18,3.676
				c0,0.003,0,0.003,0.003,0.003L628.162,578.35z"/>
		</g>
		<g>
			<path fill="#EEFFD6" d="M628.1,578.419h-0.002c-1.026-0.933-2.612-0.854-3.545,0.171c-0.93,1.028-0.851,2.614,0.176,3.544l0,0
				L628.1,578.419z"/>
		</g>
		<g>
			<polygon fill="#F8C26F" points="626.423,580.267 627.989,578.539 627.989,578.539 627.984,578.534 626.42,580.267 			"/>
			<path fill="#8AC440" d="M626.413,580.262v0.012l0.002-0.012h0.003l1.228-1.982c-0.48-0.298-1.055-0.411-1.617-0.317l0.38,2.3
				C626.41,580.262,626.413,580.262,626.413,580.262z"/>
			<path fill="#8AC440" d="M626.398,580.276h0.007l-0.007-0.003c0,0,0,0,0-0.002l0.01,0.002h0.002l0,0l0,0l0,0l0,0l-0.007-0.009
				l0.002-0.003l-0.783-2.193c-0.528,0.188-0.985,0.574-1.257,1.062l2.03,1.14l-2.203-0.753c-0.183,0.534-0.166,1.12,0.048,1.644
				l2.16-0.879C626.398,580.281,626.398,580.278,626.398,580.276z"/>
			<path fill="#8AC440" d="M626.403,580.286L626.403,580.286l0.002-0.005L626.403,580.286c0,0-0.003-0.003-0.003-0.005l-1.968,1.254
				c0.113,0.178,0.25,0.337,0.404,0.477c0,0.002,0,0.002,0,0.002L626.403,580.286z"/>
		</g>
	</g>
	<g>
		<g>
			<path fill="#FFA457" d="M632.094,579.939l0.002-0.002c1.175-0.826,1.459-2.451,0.63-3.629c-0.827-1.175-2.451-1.458-3.629-0.629
				l0,0L632.094,579.939z"/>
		</g>
		<g>
			<path fill="#026838" d="M632.094,579.939l0.002-0.002c1.175-0.826,1.459-2.451,0.63-3.629c-0.827-1.175-2.451-1.458-3.629-0.629
				l0,0L632.094,579.939z"/>
		</g>
		<g>
			<path fill="#EEFFD6" d="M632.038,579.86c0,0,0,0,0.002,0c1.132-0.798,1.403-2.362,0.608-3.496
				c-0.798-1.132-2.362-1.405-3.496-0.607c0,0.002,0,0.002,0,0.002L632.038,579.86z"/>
		</g>
		<g>
			<polygon fill="#F8C26F" points="630.601,577.82 631.944,579.729 631.946,579.726 631.951,579.724 630.604,577.82 			"/>
			<path fill="#8AC440" d="M630.61,577.813l-0.014-0.005l0.012,0.007c0,0,0,0-0.003,0.003l1.668,1.631
				c0.396-0.405,0.635-0.941,0.663-1.509l-2.326-0.132C630.61,577.809,630.61,577.811,630.61,577.813z"/>
			<path fill="#8AC440" d="M630.599,577.794l-0.002,0.008L630.599,577.794c0.002,0,0.002,0.003,0.005,0.003l-0.007,0.007v0.002
				h0.002h-0.002l0,0h0.002l0.01-0.004c0,0.002,0,0.002,0.002,0.004l2.314-0.285c-0.067-0.556-0.346-1.087-0.762-1.459l-1.558,1.73
				l1.216-1.982c-0.48-0.296-1.055-0.409-1.614-0.315l0.387,2.3C630.594,577.794,630.597,577.794,630.599,577.794z"/>
			<path fill="#8AC440" d="M630.587,577.799v-0.002l0.005,0.005l-0.003-0.005c0,0,0,0,0.003,0l-0.791-2.194
				c-0.197,0.069-0.385,0.168-0.555,0.288l0,0L630.587,577.799z"/>
		</g>
	</g>
	<g>
		
			<rect x="622.018" y="565.833" transform="matrix(-0.9784 0.2069 -0.2069 -0.9784 1349.9197 1008.7421)" fill="#F4911E" width="0.382" height="18.26"/>
		
			<rect x="622.02" y="565.855" transform="matrix(-0.9804 0.1971 -0.1971 -0.9804 1345.3677 1016.0422)" opacity="0.05" width="0.183" height="18.26"/>
		<polygon fill="#F4911E" points="617.14,565.715 617.154,566.097 620.127,566.075 620.134,565.693 		"/>
		<polygon opacity="0.05" points="617.14,565.893 617.154,566.097 620.127,566.075 620.134,565.873 		"/>
		<path fill="#F4911E" d="M620.127,565.693c0.206,0,0.377,0.146,0.377,0.355l-0.377,0.023V565.693z"/>
		<g>
			<path fill="#A66414" d="M620.509,566.034c0,0-0.085,0.116-0.181,0.118c-0.095,0.018-0.201-0.08-0.201-0.08
				s0.085-0.116,0.181-0.118C620.402,565.938,620.509,566.034,620.509,566.034z"/>
		</g>
		<g>
			<path fill="#A66414" d="M620.489,565.95c0,0-0.057,0.132-0.149,0.155c-0.088,0.038-0.213-0.033-0.213-0.033
				s0.057-0.133,0.149-0.155C620.364,565.879,620.489,565.95,620.489,565.95z"/>
		</g>
		<g>
			<path fill="#A66414" d="M620.437,565.842c0,0-0.014,0.144-0.096,0.195c-0.072,0.063-0.214,0.035-0.214,0.035
				s0.013-0.144,0.096-0.195C620.295,565.813,620.437,565.842,620.437,565.842z"/>
		</g>
		<g>
			<path fill="#A66414" d="M620.364,565.77c0,0,0.025,0.142-0.04,0.213c-0.054,0.08-0.197,0.09-0.197,0.09s-0.025-0.142,0.04-0.213
				C620.221,565.779,620.364,565.77,620.364,565.77z"/>
		</g>
		<g>
			<path fill="#A66414" d="M620.254,565.715c0,0,0.069,0.125,0.03,0.212c-0.024,0.092-0.157,0.146-0.157,0.146
				s-0.069-0.125-0.03-0.212C620.121,565.769,620.254,565.715,620.254,565.715z"/>
		</g>
		<g>
			<path fill="#A66414" d="M620.127,565.693c0,0,0.107,0.095,0.1,0.189c0.008,0.095-0.1,0.189-0.1,0.189s-0.107-0.095-0.1-0.189
				C620.02,565.788,620.127,565.693,620.127,565.693z"/>
		</g>
	</g>
	<g>
		
			<rect x="622.607" y="565.236" transform="matrix(-0.9848 0.1735 -0.1735 -0.9848 1335.802 1031.9701)" fill="#D76111" width="0.383" height="18.26"/>
		
			<rect x="622.609" y="565.255" transform="matrix(-0.9852 0.1713 -0.1713 -0.9852 1334.6074 1033.5802)" opacity="0.05" width="0.182" height="18.259"/>
		<polygon fill="#D76111" points="618.038,564.955 618.038,565.337 621.009,565.414 621.03,565.034 		"/>
		<polygon opacity="0.05" points="618.031,565.133 618.038,565.337 621.009,565.414 621.025,565.212 		"/>
		<path fill="#D76111" d="M621.021,565.034c0.212,0.005,0.375,0.156,0.367,0.365l-0.379,0.013L621.021,565.034z"/>
		<g>
			<path fill="#AE4704" d="M621.393,565.386c0,0-0.089,0.113-0.186,0.112c-0.095,0.015-0.198-0.086-0.198-0.086
				s0.089-0.114,0.186-0.112C621.289,565.285,621.393,565.386,621.393,565.386z"/>
		</g>
		<g>
			<path fill="#AE4704" d="M621.376,565.301c0,0-0.061,0.131-0.154,0.15c-0.09,0.036-0.213-0.039-0.213-0.039
				s0.061-0.131,0.154-0.15C621.253,565.226,621.376,565.301,621.376,565.301z"/>
		</g>
		<g>
			<path fill="#AE4704" d="M621.326,565.19c0,0-0.018,0.144-0.102,0.192c-0.075,0.062-0.216,0.029-0.216,0.029
				s0.018-0.144,0.102-0.192C621.186,565.158,621.326,565.19,621.326,565.19z"/>
		</g>
		<g>
			<path fill="#AE4704" d="M621.259,565.116c0,0,0.02,0.144-0.049,0.212c-0.057,0.079-0.201,0.084-0.201,0.084
				s-0.02-0.144,0.049-0.212C621.114,565.121,621.259,565.116,621.259,565.116z"/>
		</g>
		<g>
			<path fill="#AE4704" d="M621.147,565.056c0,0,0.065,0.128,0.023,0.214c-0.027,0.093-0.162,0.143-0.162,0.143
				s-0.065-0.128-0.023-0.214C621.013,565.105,621.147,565.056,621.147,565.056z"/>
		</g>
		<g>
			<path fill="#AE4704" d="M621.021,565.034c0,0,0.104,0.098,0.094,0.192c0.005,0.095-0.105,0.186-0.105,0.186
				s-0.104-0.098-0.094-0.192C620.91,565.125,621.021,565.034,621.021,565.034z"/>
		</g>
	</g>
	<polygon opacity="0.7" fill="#43FFF1" points="621.429,573.637 622.856,585.998 632.798,585.998 634.225,573.637 	"/>
	<polygon opacity="0.8" fill="none" stroke="#F3F0EB" stroke-width="1.0435" stroke-miterlimit="10" points="632.798,585.998 
		622.856,585.998 621.188,571.551 634.468,571.551 	"/>
	<polygon opacity="0.1" fill="#FFFFFF" points="632.798,585.998 622.856,585.998 621.188,571.551 634.468,571.551 	"/>
	<polygon opacity="0.8" fill="#F3F0EB" points="622.6,583.771 622.856,585.998 632.798,585.998 633.055,583.771 	"/>
	<g opacity="0.5">
		<path fill="#FFFFFF" d="M631.622,576.321l-0.581,1.053c-0.01,0.019-0.021,0.033-0.036,0.048l-1.107-0.61
			c-0.133-0.072-0.183-0.233-0.116-0.355l0.582-1.053c0.015-0.026,0.036-0.051,0.06-0.07l1.072,0.592
			C631.642,576.006,631.699,576.185,631.622,576.321z"/>
		<path fill="#FFFFFF" d="M630.263,575.343c-0.01,0.013-0.018,0.024-0.024,0.036l-0.581,1.053c-0.031,0.056-0.041,0.115-0.034,0.173
			c-0.115,0.003-0.23,0.005-0.344,0.003c-0.002-0.049,0.008-0.099,0.031-0.145l0.582-1.053c0.076-0.137,0.257-0.183,0.403-0.104
			c-0.012,0.01-0.02,0.02-0.029,0.031C630.267,575.338,630.265,575.343,630.263,575.343z"/>
		<path fill="#FFFFFF" d="M629.647,576.734c0.031,0.058,0.079,0.11,0.142,0.146l1.089,0.604c-0.09,0.06-0.212,0.069-0.32,0.01
			l-1.127-0.623c-0.058-0.031-0.101-0.079-0.13-0.132C629.416,576.739,629.532,576.736,629.647,576.734z"/>
	</g>
	<g opacity="0.5">
		<path fill="#FFFFFF" d="M628.559,576.297l-0.581,1.053c-0.013,0.02-0.024,0.036-0.039,0.051l-1.107-0.613
			c-0.13-0.072-0.183-0.23-0.113-0.355l0.582-1.053c0.014-0.026,0.036-0.05,0.06-0.069l1.069,0.594
			C628.575,575.982,628.633,576.16,628.559,576.297z"/>
		<path fill="#FFFFFF" d="M627.196,575.321c-0.008,0.01-0.017,0.021-0.024,0.034l-0.581,1.052c-0.029,0.056-0.041,0.115-0.034,0.174
			c-0.112,0.004-0.228,0.004-0.344,0.004c-0.002-0.05,0.008-0.101,0.031-0.146l0.582-1.052c0.077-0.138,0.257-0.183,0.403-0.102
			c-0.01,0.01-0.019,0.018-0.028,0.029C627.201,575.316,627.198,575.319,627.196,575.321z"/>
		<path fill="#FFFFFF" d="M626.581,576.71c0.031,0.061,0.079,0.113,0.145,0.147l1.088,0.603c-0.089,0.062-0.214,0.072-0.322,0.012
			l-1.124-0.622c-0.061-0.033-0.104-0.079-0.13-0.135C626.353,576.715,626.468,576.713,626.581,576.71z"/>
	</g>
	<g opacity="0.5">
		<path fill="#FFFFFF" d="M625.86,576.47l-0.582,1.053c-0.01,0.017-0.021,0.034-0.036,0.048l-1.107-0.612
			c-0.132-0.072-0.183-0.23-0.115-0.354l0.581-1.053c0.018-0.028,0.036-0.05,0.061-0.069l1.071,0.591
			C625.879,576.155,625.937,576.333,625.86,576.47z"/>
		<path fill="#FFFFFF" d="M624.5,575.492c-0.01,0.012-0.017,0.021-0.024,0.036l-0.581,1.053c-0.031,0.053-0.041,0.112-0.036,0.17
			c-0.113,0.005-0.229,0.008-0.341,0.005c-0.003-0.051,0.007-0.101,0.031-0.144l0.581-1.053c0.077-0.137,0.255-0.183,0.401-0.104
			c-0.01,0.01-0.02,0.02-0.026,0.028C624.503,575.487,624.5,575.489,624.5,575.492z"/>
		<path fill="#FFFFFF" d="M623.885,576.881c0.029,0.061,0.077,0.113,0.142,0.149l1.091,0.603c-0.089,0.061-0.216,0.07-0.321,0.01
			l-1.127-0.622c-0.058-0.034-0.102-0.082-0.13-0.135C623.654,576.886,623.77,576.886,623.885,576.881z"/>
	</g>
	<g opacity="0.5">
		<path fill="#FFFFFF" d="M632.214,572.977l1.038,1.04c0.017,0.017,0.031,0.036,0.045,0.058l-1.096,1.094
			c-0.13,0.127-0.334,0.135-0.456,0.014l-1.036-1.042c-0.026-0.026-0.048-0.058-0.062-0.094l1.06-1.053
			C631.851,572.847,632.079,572.839,632.214,572.977z"/>
		<path fill="#FFFFFF" d="M630.605,574.24c0.01,0.015,0.02,0.026,0.034,0.041l1.035,1.038c0.054,0.055,0.12,0.086,0.192,0.101
			c-0.036,0.135-0.074,0.27-0.112,0.403c-0.061-0.014-0.115-0.043-0.161-0.086l-1.036-1.043c-0.135-0.135-0.127-0.36,0.017-0.505
			c0.008,0.015,0.015,0.029,0.026,0.044C630.601,574.235,630.604,574.237,630.605,574.24z"/>
		<path fill="#FFFFFF" d="M632.026,575.435c0.081-0.017,0.158-0.056,0.221-0.118l1.079-1.071c0.041,0.122,0.01,0.273-0.097,0.38
			l-1.114,1.109c-0.058,0.058-0.128,0.092-0.2,0.106C631.954,575.706,631.992,575.569,632.026,575.435z"/>
	</g>
	<g opacity="0.7">
		<path fill="#FFFFFF" d="M624.666,574.997l-0.061-1.468c-0.002-0.027,0.003-0.051,0.008-0.075l1.542-0.064
			c0.183-0.008,0.339,0.127,0.347,0.298l0.06,1.468c0.003,0.039-0.005,0.077-0.017,0.111l-1.495,0.062
			C624.849,575.336,624.676,575.189,624.666,574.997z"/>
		<path fill="#FFFFFF" d="M626.706,575.153c0.002-0.02,0.002-0.034,0.002-0.053l-0.06-1.469c-0.005-0.074-0.031-0.144-0.075-0.201
			c0.118-0.075,0.236-0.149,0.356-0.222c0.033,0.051,0.058,0.108,0.06,0.173l0.061,1.469c0.01,0.189-0.149,0.351-0.354,0.36
			c0.005-0.017,0.007-0.031,0.01-0.048C626.706,575.16,626.706,575.155,626.706,575.153z"/>
		<path fill="#FFFFFF" d="M626.468,573.312c-0.069-0.043-0.153-0.067-0.242-0.064l-1.519,0.064c0.053-0.122,0.175-0.211,0.326-0.216
			l1.569-0.065c0.082-0.005,0.158,0.017,0.221,0.058C626.703,573.161,626.583,573.235,626.468,573.312z"/>
	</g>
	<g opacity="0.5">
		<path fill="#FFFFFF" d="M628.506,572.896l1.305,0.628c0.024,0.009,0.043,0.023,0.062,0.04l-0.658,1.372
			c-0.079,0.164-0.267,0.236-0.421,0.164l-1.305-0.627c-0.033-0.018-0.062-0.041-0.087-0.067l0.638-1.329
			C628.129,572.896,628.335,572.815,628.506,572.896z"/>
		<path fill="#FFFFFF" d="M627.427,574.601c0.015,0.01,0.029,0.017,0.043,0.026l1.305,0.625c0.067,0.033,0.14,0.041,0.209,0.031
			c0.013,0.137,0.022,0.271,0.029,0.411c-0.06,0.007-0.12-0.003-0.178-0.029l-1.305-0.627c-0.171-0.079-0.235-0.293-0.149-0.476
			c0.013,0.012,0.024,0.021,0.039,0.031C627.422,574.596,627.425,574.599,627.427,574.601z"/>
		<path fill="#FFFFFF" d="M629.138,575.242c0.069-0.041,0.13-0.101,0.168-0.181l0.649-1.35c0.079,0.103,0.099,0.252,0.036,0.384
			l-0.671,1.396c-0.036,0.074-0.091,0.127-0.153,0.166C629.159,575.519,629.149,575.382,629.138,575.242z"/>
	</g>
	<g opacity="0.7">
		<path fill="#FFFFFF" d="M624.113,573.426l0.31,1.353c0.005,0.024,0.008,0.048,0.008,0.072l-1.426,0.324
			c-0.168,0.038-0.336-0.058-0.369-0.216l-0.311-1.354c-0.007-0.036-0.007-0.072-0.002-0.105l1.377-0.314
			C623.888,573.142,624.075,573.25,624.113,573.426z"/>
		<path fill="#FFFFFF" d="M622.19,573.632c0.003,0.018,0.005,0.031,0.008,0.049l0.31,1.353c0.015,0.069,0.053,0.13,0.104,0.176
			c-0.096,0.091-0.194,0.18-0.293,0.267c-0.041-0.041-0.072-0.092-0.084-0.149l-0.311-1.353c-0.041-0.176,0.079-0.354,0.267-0.396
			c0,0.015,0,0.028,0,0.046C622.19,573.627,622.19,573.63,622.19,573.632z"/>
		<path fill="#FFFFFF" d="M622.731,575.303c0.072,0.026,0.154,0.033,0.235,0.017l1.401-0.322c-0.029,0.122-0.13,0.226-0.267,0.257
			l-1.449,0.332c-0.075,0.017-0.149,0.01-0.214-0.015C622.537,575.482,622.636,575.394,622.731,575.303z"/>
	</g>
	<g>
		<circle opacity="0.5" fill="#F1F2D5" cx="631.265" cy="583.852" r="0.115"/>
		<circle opacity="0.5" fill="#F1F2D5" cx="627.915" cy="584.733" r="0.116"/>
		<circle opacity="0.5" fill="#F1F2D5" cx="625.931" cy="585.102" r="0.054"/>
		<circle opacity="0.5" fill="#F1F2D5" cx="628.442" cy="583.374" r="0.054"/>
		<circle opacity="0.5" fill="#F1F2D5" cx="630.929" cy="585.102" r="0.054"/>
		<circle opacity="0.5" fill="#F1F2D5" cx="627.039" cy="583.266" r="0.054"/>
		<path opacity="0.5" fill="#F1F2D5" d="M628.106,580.605c0,0.064,0.054,0.115,0.115,0.115c0.065,0,0.118-0.051,0.118-0.115
			c0-0.062-0.053-0.115-0.118-0.115C628.16,580.49,628.106,580.543,628.106,580.605z"/>
		<circle opacity="0.5" fill="#F1F2D5" cx="624.872" cy="581.487" r="0.115"/>
		<circle opacity="0.5" fill="#F1F2D5" cx="626.503" cy="583.251" r="0.088"/>
		<circle opacity="0.5" fill="#F1F2D5" cx="625.91" cy="582.196" r="0.054"/>
		<circle opacity="0.5" fill="#F1F2D5" cx="622.891" cy="581.857" r="0.054"/>
		<circle opacity="0.5" fill="#F1F2D5" cx="624.288" cy="583.111" r="0.054"/>
		<circle opacity="0.5" fill="#F1F2D5" cx="625.347" cy="583.744" r="0.054"/>
		<circle opacity="0.5" fill="#F1F2D5" cx="625.4" cy="580.13" r="0.054"/>
		<circle opacity="0.5" fill="#F1F2D5" cx="627.887" cy="581.857" r="0.054"/>
		<circle opacity="0.5" fill="#F1F2D5" cx="623.997" cy="580.021" r="0.054"/>
		<circle opacity="0.5" fill="#F1F2D5" cx="631.587" cy="578.799" r="0.117"/>
		<path opacity="0.5" fill="#F1F2D5" d="M628.121,579.681c0,0.062,0.051,0.112,0.115,0.112c0.062,0,0.115-0.05,0.115-0.112
			c0-0.065-0.053-0.115-0.115-0.115C628.172,579.565,628.121,579.615,628.121,579.681z"/>
		<circle opacity="0.5" fill="#F1F2D5" cx="629.867" cy="581.444" r="0.088"/>
		<circle opacity="0.5" fill="#F1F2D5" cx="629.273" cy="580.39" r="0.054"/>
		<circle opacity="0.5" fill="#F1F2D5" cx="626.254" cy="580.051" r="0.055"/>
		<circle opacity="0.5" fill="#F1F2D5" cx="627.652" cy="581.305" r="0.054"/>
		<circle opacity="0.5" fill="#F1F2D5" cx="628.708" cy="581.937" r="0.054"/>
		<circle opacity="0.5" fill="#F1F2D5" cx="628.764" cy="578.32" r="0.054"/>
		<circle opacity="0.5" fill="#F1F2D5" cx="631.251" cy="580.051" r="0.054"/>
		<circle opacity="0.5" fill="#F1F2D5" cx="627.361" cy="578.215" r="0.054"/>
		<circle opacity="0.5" fill="#F1F2D5" cx="632.922" cy="574.334" r="0.116"/>
		<circle opacity="0.5" fill="#F1F2D5" cx="629.573" cy="575.216" r="0.116"/>
		<circle opacity="0.5" fill="#F1F2D5" cx="631.202" cy="576.979" r="0.086"/>
		<circle opacity="0.5" fill="#F1F2D5" cx="630.609" cy="575.925" r="0.054"/>
		<circle opacity="0.5" fill="#F1F2D5" cx="627.591" cy="575.583" r="0.054"/>
		<circle opacity="0.5" fill="#F1F2D5" cx="628.988" cy="576.84" r="0.054"/>
		<circle opacity="0.5" fill="#F1F2D5" cx="630.046" cy="577.472" r="0.055"/>
		<circle opacity="0.5" fill="#F1F2D5" cx="630.1" cy="573.858" r="0.054"/>
		<circle opacity="0.5" fill="#F1F2D5" cx="632.587" cy="575.583" r="0.054"/>
		<circle opacity="0.5" fill="#F1F2D5" cx="628.697" cy="573.75" r="0.054"/>
		<circle opacity="0.5" fill="#F1F2D5" cx="626.868" cy="574.704" r="0.116"/>
		<circle opacity="0.5" fill="#F1F2D5" cx="623.52" cy="575.583" r="0.115"/>
		<path opacity="0.5" fill="#F1F2D5" d="M625.062,577.347c0,0.051,0.038,0.087,0.086,0.087c0.049,0,0.087-0.036,0.087-0.087
			c0-0.048-0.038-0.084-0.087-0.084C625.101,577.263,625.062,577.299,625.062,577.347z"/>
		<circle opacity="0.5" fill="#F1F2D5" cx="624.555" cy="576.292" r="0.055"/>
		<circle opacity="0.5" fill="#F1F2D5" cx="622.932" cy="577.208" r="0.054"/>
		<circle opacity="0.5" fill="#F1F2D5" cx="623.992" cy="577.84" r="0.054"/>
		<circle opacity="0.5" fill="#F1F2D5" cx="624.046" cy="574.226" r="0.056"/>
		<circle opacity="0.5" fill="#F1F2D5" cx="626.532" cy="575.953" r="0.054"/>
		<circle opacity="0.5" fill="#F1F2D5" cx="622.644" cy="574.117" r="0.054"/>
	</g>
</g>
<g id="stars">
	<path opacity="0.1" fill="#5D5D5D" d="M426.135,525.347l7.812-3.209c0,0,1.753-1.459,3.977-1.459s4.717,1.055,4.717,1.055
		s10.514,1.213,9.502,2.629c-1.011,1.414-7.683,0.605-7.683,0.605s6.065,4.65,5.863,5.662c-0.202,1.01-8.491-3.438-10.918-2.426
		c-2.426,1.01-13.343,10.107-6.873-1.213C432.533,526.991,423.304,527.976,426.135,525.347z"/>
	<path opacity="0.1" fill="#5D5D5D" d="M424.358,533.501l-5.795-2.381c0,0-1.301-1.082-2.95-1.082c-1.65,0-3.5,0.783-3.5,0.783
		s-7.799,0.9-7.049,1.949c0.75,1.051,5.699,0.451,5.699,0.451s-4.5,3.449-4.35,4.199s6.3-2.551,8.099-1.801
		c1.801,0.75,9.899,7.5,5.1-0.898C419.612,534.722,426.458,535.45,424.358,533.501z"/>
	<g>
		<path fill="#EAC3CB" d="M424.646,523.562l7.812-3.209c0,0,1.752-1.461,3.977-1.461c2.224,0,4.716,1.057,4.716,1.057
			s10.514,1.213,9.503,2.627c-1.012,1.416-7.683,0.607-7.683,0.607s6.064,4.65,5.862,5.662c-0.202,1.01-8.491-3.438-10.917-2.428
			c-2.426,1.012-13.344,10.109-6.874-1.213C431.042,525.204,421.815,526.19,424.646,523.562z"/>
		<path fill="#BEA6B4" d="M422.869,531.716l-5.796-2.381c0,0-1.3-1.082-2.95-1.082s-3.499,0.783-3.499,0.783s-7.8,0.9-7.05,1.949
			c0.75,1.051,5.7,0.451,5.7,0.451s-4.5,3.449-4.35,4.199c0.149,0.75,6.298-2.551,8.099-1.801c1.8,0.75,9.898,7.5,5.1-0.898
			C418.123,532.937,424.968,533.665,422.869,531.716z"/>
		<path opacity="0.5" fill="#BEA6B4" d="M386.74,513.478l-4.72-1.939c0,0-1.06-0.881-2.402-0.881c-1.344,0-2.85,0.637-2.85,0.637
			s-6.352,0.732-5.741,1.588c0.611,0.855,4.643,0.367,4.643,0.367s-3.665,2.809-3.543,3.42c0.123,0.611,5.13-2.076,6.596-1.467
			c1.465,0.611,8.062,6.107,4.152-0.732C382.875,514.47,388.45,515.065,386.74,513.478z"/>
	</g>
</g>
<g id="shelles">
	<path id="XMLID_72_" fill-rule="evenodd" clip-rule="evenodd" fill="#FFFFFF" d="M609.812,523.009
		c-1.369-0.584-5.623-1.316-7.295-0.146s-0.912,3.219,0.455,3.365c1.369,0.146,5.32,2.193,7.6,0.73
		C612.851,525.497,609.812,523.009,609.812,523.009z"/>
	<path id="XMLID_41_" fill-rule="evenodd" clip-rule="evenodd" fill="#FFFFFF" d="M362.638,580.695
		c-1.367-0.584-5.621-1.314-7.293-0.145s-0.912,3.217,0.455,3.363c1.369,0.146,5.318,2.195,7.6,0.732
		C365.679,583.184,362.638,580.695,362.638,580.695z"/>
	<path id="XMLID_40_" fill-rule="evenodd" clip-rule="evenodd" fill="#FFFFFF" d="M635.962,537.042
		c-1.367-0.586-5.621-1.316-7.293-0.146s-0.912,3.219,0.455,3.365s5.318,2.193,7.598,0.73S635.962,537.042,635.962,537.042z"/>
</g>
<g id="birds">
	<path fill="#617B8E" d="M608.714,243.822c3.744,0.447,7.645-0.831,11.259,0.241c1.476,0.436,2.811,1.241,4.125,2.039
		c1.999,1.21,3.999,2.424,5.998,3.634c1.475-1.65,2.858-3.435,4.413-5.01c0.467-0.471,0.956-0.953,1.581-1.173
		c0.488-0.174,11.517-0.093,11.517-0.093l-7.621,2.63c0,0-7.517,3.472-11.12,5.515c-0.704-0.531-1.249-0.923-1.979-1.416
		C621.795,246.749,614.816,244.553,608.714,243.822z"/>
	<path fill="#617B8E" d="M605.825,213.505c-2.426-0.797-4.93-1.604-7.476-1.412c-2.075,0.157-4.509,0.708-6.08,2.071
		c-1.161-1.13-2.394-2.301-3.957-2.722c-0.896-0.243-1.841-0.219-2.768-0.17c-2.371,0.125-4.735,0.412-7.068,0.852
		c1.792,0.57,3.583,1.139,5.374,1.708c3.506,1.115,6.92,2.61,9.937,4.713c1.091-0.114,2.165-0.152,3.255-0.267
		c-0.345-0.759-0.806-1.465-1.361-2.089c3.873-1.138,7.849-1.595,11.878-1.356c0.456,0.028,0.959,0.085,1.264,0.427
		C607.934,214.41,606.994,213.887,605.825,213.505z"/>
	<path display="none" fill="#0792A0" d="M501.319,48.052c-1.855-0.61-3.771-1.227-5.72-1.081c-1.588,0.12-3.451,0.541-4.653,1.585
		c-0.889-0.864-1.831-1.76-3.027-2.083c-0.686-0.184-1.408-0.167-2.117-0.128c-1.814,0.095-3.622,0.313-5.407,0.65
		c1.37,0.437,2.741,0.873,4.11,1.308c2.683,0.853,5.295,1.997,7.604,3.607c0.834-0.088,1.657-0.118,2.491-0.205
		c-0.266-0.582-0.617-1.123-1.043-1.599c2.965-0.871,6.007-1.219,9.089-1.039c0.35,0.021,0.735,0.067,0.967,0.327
		C502.931,48.744,502.214,48.346,501.319,48.052z"/>
	<path fill="#617B8E" d="M783.964,164.171c4.429,0.529,9.042-0.981,13.318,0.284c1.745,0.516,3.322,1.47,4.879,2.413
		c2.365,1.433,4.73,2.866,7.095,4.299c1.746-1.952,3.381-4.063,5.224-5.926c0.549-0.558,1.129-1.127,1.868-1.39
		c0.578-0.204,13.623-0.108,13.623-0.108l-9.015,3.112c0,0-8.893,4.107-13.154,6.523c-0.832-0.628-1.479-1.089-2.342-1.675
		C799.437,167.633,791.182,165.035,783.964,164.171z"/>
	<path display="none" fill="#0792A0" d="M493.737,76.081c0.215,0.144-0.272,0.263-0.442,0.068c-0.928-1.067-1.53-2.369-2.29-3.562
		c-2.718-4.271-6.473-7.002-9.1-11.332c5.184,1.801,9.531,5.866,11.678,10.913c0.907-2.752,2.247-5.425,3.912-7.795
		c0.775-1.102,1.771-2.237,3.113-2.38c1.934-0.207,3.03-0.784,4.876-1.402c-2.743,3.077-5.828,6.291-9.066,8.841
		C495.476,72.099,495.146,73.626,493.737,76.081z"/>
	<path fill="#768D9B" d="M100.041,111.996c4.688,0.562,9.567-1.037,14.095,0.303c1.845,0.546,3.516,1.554,5.162,2.553
		c2.503,1.516,5.005,3.033,7.507,4.549c1.847-2.065,3.578-4.302,5.524-6.271c0.583-0.589,1.198-1.192,1.98-1.472
		c0.609-0.215,14.414-0.114,14.414-0.114l-9.541,3.294c0,0-9.409,4.345-13.917,6.903c-0.882-0.667-1.564-1.156-2.479-1.774
		C116.416,115.661,107.678,112.912,100.041,111.996z"/>
	<path fill="#768D9B" d="M143.635,143.546c0.225,0.15-0.287,0.275-0.464,0.071c-0.971-1.117-1.604-2.483-2.398-3.731
		c-2.846-4.475-6.781-7.336-9.531-11.87c5.427,1.886,9.982,6.144,12.23,11.431c0.952-2.882,2.354-5.684,4.099-8.166
		c0.813-1.156,1.856-2.343,3.261-2.495c2.026-0.218,3.173-0.82,5.106-1.467c-2.874,3.221-6.101,6.587-9.495,9.261
		C145.455,139.375,145.108,140.975,143.635,143.546z"/>
</g>
</svg>
