<?xml version="1.0" encoding="utf-8"?>
<!-- Generator: Adobe Illustrator 16.0.0, SVG Export Plug-In . SVG Version: 6.00 Build 0)  -->
<!DOCTYPE svg PUBLIC "-//W3C//DTD SVG 1.1//EN" "http://www.w3.org/Graphics/SVG/1.1/DTD/svg11.dtd">
<svg version="1.1" xmlns="http://www.w3.org/2000/svg" xmlns:xlink="http://www.w3.org/1999/xlink" x="0px" y="0px"
	 width="952.453px" height="772.461px" viewBox="0 0 952.453 772.461" enable-background="new 0 0 952.453 772.461"
	 xml:space="preserve">
<filter  width="200%" height="200%" id="offline-svg-shadow-1" y="0" x="0">
	<feOffset  dy="2" dx="2" in="SourceGraphic" result="offOut"></feOffset>
	<feColorMatrix  type="matrix" values="0.2 0 0 0 0 0 0.2 0 0 0 0 0 0.2 0 0 0 0 0 1 0" in="offOut" result="matrixOut">
		</feColorMatrix>
	<feGaussianBlur  stdDeviation="2" in="matrixOut" result="blurOut"></feGaussianBlur>
	<feBlend  mode="normal" in2="blurOut" in="SourceGraphic"></feBlend>
</filter>
<g id="land">
	<g>
		<g>
			<g filter="url(#offline-svg-shadow-1)">
				<path fill="#5B99F4" d="M747.511,586.657c-2.682,7.566-9.512,14.537-9.549,25.334c-0.012,5.197,1.221,10.18,1.258,15.375
					c0.047,7.082-2.129,13.592-4.773,18.551c-6.041,11.314-14.43,16.504-22.5,21.326c-67.684,40.436-140.367,53.684-211.277,58.205
					c-13.572,0.877-27.142,1.295-40.723,1.295c-43.876,0-87.839-4.18-131.4-14.312c-40.616-9.416-64.438-16.721-103.279-41.809
					c-2.513-1.641-5.11-3.414-7.007-6.945c-3.348-6.232-3.747-16.242-6.356-23.658c-3.819-10.777-11.25-13.701-17.595-18.438
					c-6.356-4.729-13.014-15.697-11.323-28.293c1.052-7.871,4.979-12.857,8.605-17.105c4.675-5.465,9.256-10.594,13.835-15.438
					c11.3-11.91,10.73-20.801,22.244-30.797c39.439-34.246,111.602-58.277,232.276-60.303c45.551-0.766,97.922-7.627,143.129,3.379
					c23.369,5.697,49.363,9.506,71.354,26.191c16.764,12.74,31.223,17.936,48.4,27.141c6.289,3.369,13.711,7.729,17.016,11.1
					c5.555,5.668,11.73,16.371,11.717,25.381C751.539,574.979,750.087,579.391,747.511,586.657z"/>
			</g>
		</g>
	</g>
	<path fill="#76A9F4" d="M699.587,570.856c-3.533,4.947-7.574,10.754-7.604,18.738c-0.012,3.846,0.971,7.529,1,11.373
		c0.037,5.238-1.693,10.053-3.801,13.723c-4.811,8.367-11.488,12.207-17.916,15.773c-53.893,29.91-111.768,39.709-168.23,43.055
		c-10.807,0.648-21.611,0.957-32.425,0.957c-34.938,0-69.942-3.092-104.628-10.586c-32.34-6.965-65.497-15.551-96.423-34.107
		c-2.001-1.213-4.068-2.525-5.579-5.139c-2.666-4.609-2.984-12.016-5.062-17.5c-3.041-7.971-8.958-10.135-14.01-13.637
		c-5.062-3.5-10.363-11.611-9.016-20.928c0.837-5.822,3.965-9.514,6.852-12.652c3.723-4.043,7.37-7.838,11.017-11.42
		c8.997-8.811,17.983-16.268,28.105-22.496c59.426-36.537,126.453-41.707,188.745-41.707c36.275,0,72.617,3.314,108.613,11.455
		c18.607,4.217,39.305,7.033,56.816,19.375c13.346,9.426,28.682,13.605,43.48,17.941c5.023,1.469,9.979,2.955,14.779,4.678
		c4.783,1.707,10.479,4.916,11.537,13.35C706.82,558.905,703.107,565.887,699.587,570.856z"/>
	<path fill="#D4ECF4" d="M673.984,563.889c-3.139,3.572-6.727,7.764-6.752,13.527c-0.01,2.775,0.861,5.438,0.889,8.209
		c0.033,3.783-1.504,7.258-3.375,9.908c-4.271,6.041-10.201,8.811-15.91,11.385c-47.861,21.592-99.26,28.666-149.402,31.082
		c-9.596,0.467-19.191,0.689-28.796,0.689c-31.026,0-62.113-2.23-92.917-7.643c-28.72-5.027-58.166-11.225-85.63-24.621
		c-1.777-0.875-3.614-1.824-4.956-3.709c-2.367-3.328-2.65-8.674-4.495-12.633c-2.7-5.754-7.956-7.316-12.441-9.844
		c-4.495-2.527-9.203-8.383-8.007-15.109c0.744-4.203,3.521-6.865,6.085-9.133c3.306-2.92,6.545-5.656,9.783-8.244
		c7.991-6.359,15.971-11.742,24.96-16.24c52.774-26.373,112.299-30.105,167.619-30.105c32.214,0,64.49,2.393,96.457,8.27
		c16.525,3.043,34.906,5.076,50.457,13.986c11.854,6.803,25.475,9.82,38.615,12.951c4.461,1.061,8.861,2.133,13.127,3.377
		c4.246,1.23,9.305,3.549,10.244,9.637C680.408,555.262,677.111,560.301,673.984,563.889z"/>
	<path fill="#F7DD8B" d="M666.052,557.54c-3.037,3.072-6.512,6.676-6.537,11.635c-0.008,2.385,0.836,4.674,0.861,7.061
		c0.033,3.252-1.457,6.24-3.27,8.52c-4.139,5.193-9.881,7.576-15.406,9.793c-46.348,18.566-96.119,24.65-144.674,26.729
		c-9.293,0.402-18.584,0.592-27.886,0.592c-30.044,0-60.147-1.916-89.978-6.568c-27.811-4.324-56.325-9.654-82.92-21.174
		c-1.721-0.754-3.5-1.568-4.799-3.189c-2.292-2.861-2.565-7.461-4.353-10.863c-2.615-4.949-7.704-6.295-12.048-8.467
		c-4.353-2.172-8.912-7.207-7.753-12.994c0.72-3.613,3.409-5.902,5.892-7.854c3.202-2.512,6.338-4.863,9.474-7.092
		c7.738-5.467,15.466-10.098,24.17-13.967c51.104-22.68,108.744-25.889,162.313-25.889c31.196,0,62.448,2.055,93.403,7.109
		c16.004,2.617,33.803,4.367,48.861,12.027c11.477,5.852,24.668,8.445,37.395,11.139c4.318,0.912,8.58,1.834,12.709,2.904
		c4.113,1.059,9.012,3.051,9.922,8.287C672.275,550.122,669.08,554.456,666.052,557.54z"/>
	<path fill="#FCF7CD" d="M666.052,557.54c-3.037,3.072-6.512,6.676-6.537,11.635c-0.008,2.385,0.836,4.674,0.861,7.061
		c0.033,3.252-1.457,6.24-3.27,8.52c-4.139,5.193-9.881,7.576-15.406,9.793c-46.348,18.566-96.119,24.65-144.674,26.729
		c-9.293,0.402-18.584,0.592-27.886,0.592c-30.044,0-60.147-1.916-89.978-6.568c-27.811-4.324-56.325-9.654-82.92-21.174
		c-1.721-0.754-3.5-1.568-4.799-3.189c-2.292-2.861-2.565-7.461-4.353-10.863c-2.615-4.949-7.704-6.295-12.048-8.467
		c-4.353-2.172-8.912-7.207-7.753-12.994c0.72-3.613,3.409-5.902,5.892-7.854c3.202-2.512,6.338-4.863,9.474-7.092
		c0.017,0.045,0.034,0.086,0.05,0.129c5.055,12.518,13.413,35.533,23.276,41.287c21.249,12.381,47.099,16.588,69.738,20.709
		c31.36,5.701,63.036,8.002,94.645,8.002c31.601,0,63.275-2.301,94.626-8.002c12.951-2.352,25.857-5.299,38.617-9.199
		c10.75-3.295,22.523-6.355,32.172-13.869c4.088-3.189,8.176-6.383,12.256-9.594c2.705-2.119,5.51-4.377,7.215-7.988
		c1.82-3.881,2.268-9.254,1.664-14.436c-0.68-5.775-2.666-11.33-5.527-14.35c-0.818-0.869-1.688-1.623-2.59-2.27
		c4.318,0.912,8.58,1.834,12.709,2.904c4.113,1.059,9.012,3.051,9.922,8.287C672.275,550.122,669.08,554.456,666.052,557.54z"/>
</g>
<g id="bubble">
	<g>
		<ellipse fill="#FFFFFF" cx="661.535" cy="588.306" rx="1.145" ry="0.71"/>
	</g>
	<g>
		<ellipse fill="#FFFFFF" cx="658.162" cy="595.091" rx="3.375" ry="1.776"/>
	</g>
	<g>
		<ellipse fill="#FFFFFF" cx="655.453" cy="591.252" rx="2.709" ry="1.209"/>
	</g>
	<g>
		<ellipse fill="#FFFFFF" cx="650.271" cy="597.933" rx="1.746" ry="1.065"/>
	</g>
	<g>
		<ellipse fill="#FFFFFF" cx="600.152" cy="611.199" rx="1.266" ry="0.731"/>
	</g>
	<g>
		<path fill="#FFFFFF" d="M638.283,602.315c0-1.07,1.588-1.938,3.545-1.938c1.959,0,3.547,0.867,3.547,1.938
			c0,1.074-1.588,1.941-3.547,1.941C639.871,604.256,638.283,603.389,638.283,602.315z"/>
	</g>
	<g>
		<ellipse fill="#FFFFFF" cx="635.271" cy="602.794" rx="0.846" ry="0.479"/>
	</g>
	<g>
		<ellipse fill="#FFFFFF" cx="635.654" cy="611.418" rx="0.812" ry="0.426"/>
	</g>
	<g>
		<ellipse fill="#FFFFFF" cx="636.466" cy="607.395" rx="1.627" ry="1.092"/>
	</g>
	<g>
		<ellipse fill="#FFFFFF" cx="624.496" cy="615.114" rx="1.309" ry="0.568"/>
	</g>
	<g>
		<ellipse fill="#FFFFFF" cx="627.806" cy="609.904" rx="5.229" ry="2.509"/>
	</g>
	<g>
		<path fill="#FFFFFF" d="M620.142,613.977c0-0.312,0.547-0.566,1.219-0.566c0.674,0,1.219,0.254,1.219,0.566
			c0,0.316-0.545,0.568-1.219,0.568S620.142,614.293,620.142,613.977z"/>
	</g>
	<g>
		<ellipse fill="#FFFFFF" cx="617.845" cy="609.503" rx="1.814" ry="1.017"/>
	</g>
	<g>
		<ellipse fill="#FFFFFF" cx="612.292" cy="612.509" rx="5.801" ry="2.604"/>
	</g>
	<g>
		<ellipse fill="#FFFFFF" cx="603.076" cy="617.009" rx="3.416" ry="1.327"/>
	</g>
	<g>
		<ellipse fill="#FFFFFF" cx="595.205" cy="621.977" rx="4.457" ry="1.381"/>
	</g>
	<g>
		<ellipse fill="#FFFFFF" cx="333.146" cy="613.512" rx="0.906" ry="0.416"/>
	</g>
	<g>
		<ellipse fill="#FFFFFF" cx="349.63" cy="615.737" rx="4.902" ry="2.16"/>
	</g>
	<g>
		<ellipse fill="#FFFFFF" cx="339.271" cy="613.927" rx="1.798" ry="0.833"/>
	</g>
	<g>
		<ellipse fill="#FFFFFF" cx="334.99" cy="617.616" rx="3.315" ry="1.881"/>
	</g>
	<g>
		<ellipse fill="#FFFFFF" cx="327.381" cy="611.275" rx="2.454" ry="1.114"/>
	</g>
	<g>
		<ellipse fill="#FFFFFF" cx="319.898" cy="611.274" rx="3.042" ry="0.904"/>
	</g>
	<g>
		<ellipse fill="#FFFFFF" cx="296.919" cy="603.975" rx="1.95" ry="0.459"/>
	</g>
	<g>
		<ellipse fill="#FFFFFF" cx="291.573" cy="597.765" rx="4.605" ry="1.433"/>
	</g>
	<g>
		<ellipse fill="#FFFFFF" cx="313.017" cy="607.35" rx="3.839" ry="1.602"/>
	</g>
	<g>
		<ellipse fill="#FFFFFF" cx="307.051" cy="603.974" rx="1.3" ry="0.38"/>
	</g>
	<g>
		<ellipse fill="#FFFFFF" cx="304.747" cy="607.838" rx="2.304" ry="1.115"/>
	</g>
	<g>
		<ellipse fill="#FFFFFF" cx="301.912" cy="601.009" rx="3.839" ry="1.112"/>
	</g>
	<g>
		<ellipse fill="#FFFFFF" cx="286.968" cy="591.521" rx="1.413" ry="0.38"/>
	</g>
	<g>
		<ellipse fill="#FFFFFF" cx="286.968" cy="587.503" rx="2.422" ry="0.835"/>
	</g>
	<g>
		<ellipse fill="#FFFFFF" cx="278.968" cy="582.785" rx="2.244" ry="0.556"/>
	</g>
	<g>
		<ellipse fill="#FFFFFF" cx="281.213" cy="578.683" rx="2.363" ry="0.706"/>
	</g>
</g>
<g>
	<g>
		<path fill="#005E3C" d="M465.402,312.613c30.447-1.583,50.544,39.266,38.669,65.867c-5.178-11.718-10.047-23.117-17.965-33.566
			c-6.697-8.867-14.917-20.267-24.661-25.649L465.402,312.613z"/>
	</g>
	<g>
		<path fill="#005E3C" d="M466.014,302.48c3.652-3.8,6.087-8.866,10.96-12.351c7.309-5.383,16.746-8.233,25.271-8.55
			c17.66-0.632,35.016,12.983,39.582,30.717c-7.002-4.433-11.875-6.65-20.096-7.917c-7.613-1.583-14.918-1.899-22.531-2.533
			c-12.18-0.634-27.101,0-38.365,5.7L466.014,302.48z"/>
	</g>
	<g>
		<path fill="#005E3C" d="M461.748,305.963c9.136-9.817,12.486-26.284,11.877-39.267c-0.609-15.517-7.611-27.233-21.314-32.934
			c6.396,11.084,4.264,27.55,3.958,39.9c-0.304,6.65-0.609,12.667-1.521,19c-0.307,3.167-1.217,6.018-1.829,9.184
			c0,0.633-0.304,4.434,0,1.583L461.748,305.963z"/>
	</g>
	<g>
		<path fill="#005E3C" d="M450.79,302.48c1.521-29.134-32.582-58.268-59.071-44.017c13.096,4.75,23.445,8.55,33.19,19.634
			c4.871,5.7,9.438,11.716,14.006,18.049c1.522,2.218,3.046,4.118,4.566,6.651c0.305,0.316,1.522,4.116,0.915,1.9L450.79,302.48z"/>
	</g>
	<g>
		<path fill="#005E3C" d="M445.298,305.836c-16.442-14.566-60.887-12.222-64.843,13.428c18.572-5.066,42.92-8.36,62.405-5.829
			L445.298,305.836z"/>
	</g>
	<g>
		<g>
			<path fill="#008258" d="M461.319,320.486c12.364,22.859,12.021,54.292,13.05,79.651c21.978-22.145,17.859-72.149-13.05-83.581
				c-1.029,0-2.061-0.355-2.749-0.714L461.319,320.486z"/>
		</g>
		<g>
			<path fill="#008258" d="M459.259,316.201c9.615-2.858,23.354,4.642,31.594,10c9.959,6.071,18.891,14.287,26.102,23.573
				c3.779,5.001,7.555,10.715,10.305,16.073c1.031,1.43,5.838,14.646,6.525,14.646l0.344,0.355c3.777-9.286,1.715-22.144,0-31.788
				c-2.061-11.071-6.184-23.573-13.053-32.504c-10.303-13.573-35.715-21.787-51.512-14.645c-5.153,2.501-11.679,7.501-10.993,13.931
				L459.259,316.201z"/>
		</g>
		<g>
			<path fill="#008258" d="M566.41,303.342c-16.828-23.931-47.736-28.218-73.496-17.86c-15.109,6.074-26.787,18.574-37.776,30.004
				c-0.688-6.787,16.141-37.146,20.263-45.004c7.9-13.93,22.322-30.717,40.183-23.932c13.049,4.645,26.445,16.074,34.688,26.789
				c6.869,9.287,12.707,18.574,15.797,30.004L566.41,303.342L566.41,303.342z"/>
		</g>
		<g>
			<path fill="#008258" d="M452.39,316.557c-13.735-0.355-28.163,5.716-38.811,13.931c-11.333,8.215-25.413,20.002-32.969,31.789
				c-1.715-6.072,2.404-16.074,4.464-22.145c2.406-7.502,6.869-14.289,11.68-20.003c12.021-13.93,29.878-17.858,46.362-11.788
				c5.149,1.786,8.93,4.645,12.708,8.215c0-0.713-0.688-0.713-0.688-1.07L452.39,316.557z"/>
		</g>
		<g>
			<path fill="#008258" d="M456.511,314.414c-7.899-8.929-12.02-21.43-21.293-30.36c-16.143-15.359-30.91-22.145-51.515-11.429
				c-13.736,7.145-30.909,20.359-35.374,36.432c7.212-2.856,13.394-7.144,20.949-9.286c7.558-2.144,15.113-2.144,22.666-2.501
				c15.113-0.356,31.598,1.786,45.334,7.859c5.497,2.5,15.112,6.071,18.547,10.001L456.511,314.414z"/>
		</g>
		<g>
			<path fill="#008258" d="M452.39,315.129c-3.433-18.573-9.615-35.005-22.667-47.863c-15.11-15.001-32.282-19.287-52.544-15.716
				c-6.869,1.072-12.021,3.215-17.859,7.145c14.77-11.788,30.564-21.789,49.457-25.719c8.586-1.427,17.516-1.785,26.1,1.074
				c8.93,3.214,12.364,10.715,16.139,19.287c4.467,10.715,6.186,22.503,6.527,33.931c0,5.358,2.75,22.504-0.687,25.718
				L452.39,315.129z"/>
		</g>
		<path opacity="0.2" fill="#E8E159" enable-background="new    " d="M463.63,319.558c3.683,4.421,8.217,7.367,11.05,12.671
			c2.548,5.01,7.65,15.911,6.232,21.217c-2.266-2.358-3.119-5.894-4.816-8.84c2.267,11.196,9.066,31.529,2.55,42.137
			c-2.832-12.375-2.267-25.932-4.25-38.308c-1.698-10.312-5.949-18.564-10.481-27.699L463.63,319.558z"/>
		<path opacity="0.2" fill="#E8E159" enable-background="new    " d="M462.213,308.95c10.485-3.832,26.066-8.841,36.267-2.063
			c-1.982,1.179-4.816,0.59-7.084,0.59c12.752-1.769,32.584,22.101,33.152,34.771c-2.551,0.59-5.385-3.831-7.084-5.894
			c4.248,6.778,11.332,14.733,10.199,23.574c-5.666-6.777-8.215-16.501-13.318-23.869c-5.381-7.955-12.75-14.145-20.682-19.153
			c3.117,1.769,6.801,5.305,8.498,8.546c-3.682,0.294-7.934-4.715-11.332-6.483c-3.4-2.062-7.367-3.537-11.332-4.714
			c-6.799-1.769-13.885-2.356-20.966-2.356L462.213,308.95z"/>
		<path opacity="0.2" fill="#E8E159" enable-background="new    " d="M459.947,308.655c1.417-8.546,8.499-17.385,12.466-24.458
			c5.1-8.84,11.899-25.932,23.514-26.52c0.283,2.652-3.115,5.6-4.816,7.661c7.65-6.187,30.6-13.26,37.402-1.473
			c-2.553,0.589-5.1,0.295-7.65,0c9.633,0,19.834,7.367,23.518,15.913c-3.404,1.473-8.219-2.947-11.053-4.42
			c-4.248-2.062-9.066-3.241-13.602-4.125c-8.781-1.473-18.133-0.295-25.783,4.125c2.834,0,17.852-0.294,9.352,3.536
			c-5.102,2.062-10.48,1.769-15.582,4.715c-7.65,4.42-20.118,12.083-24.366,20.332L459.947,308.655z"/>
		<path opacity="0.2" fill="#E8E159" enable-background="new    " d="M456.263,305.413c0.284-7.957-1.134-16.501-1.982-24.458
			c-0.851-6.778-1.417-24.164-7.935-27.698c-1.133,3.83,2.269,11.197,3.118,15.322c-1.983-14.734-15.301-26.815-28.616-29.468
			c-5.102-0.882-22.668-2.946-25.5,3.243c9.634,0,25.783-0.295,31.45,9.429c-3.118-1.473-5.667-2.652-9.351-2.358
			c0,2.946,9.634,6.483,12.183,8.546c5.102,4.419,9.352,10.314,13.033,15.913c6.235,10.608,10.769,22.69,11.333,35.067
			L456.263,305.413z"/>
		<path opacity="0.2" fill="#E8E159" enable-background="new    " d="M447.198,307.181c-3.968-7.072-11.051-13.85-16.718-19.448
			c-10.2-9.724-19.266-14.144-32.583-13.26c0,2.946,10.481,5.009,13.316,7.957c-11.618-7.368-39.668-4.126-45.334,10.901
			c8.5,0.884,17.283-5.598,26.066-6.482c7.083-0.59,22.951-2.062,28.333,3.537c-4.533-0.884-9.633-2.062-14.167,0
			c2.551,1.474,7.65,1.474,10.767,2.357c3.682,1.178,7.65,2.356,11.051,3.831c6.232,2.651,12.184,7.072,16.717,12.376
			L447.198,307.181z"/>
		<path opacity="0.2" fill="#E8E159" enable-background="new    " d="M441.247,314.844c-14.167,2.946-26.917,8.25-39.1,17.089
			c0-3.829,3.683-6.481,6.231-8.839c-7.65,5.305-11.617,15.912-19.55,20.333c-0.283-8.251,10.767-17.976,16.433-22.689
			c6.519-5.306,13.318-6.482,20.685-8.544c-2.55,0.293-5.949,0.589-8.5,0c6.801-4.127,19.266-2.358,26.634-0.886L441.247,314.844z"
			/>
	</g>
	<g>
		<path fill="#7F3D2A" d="M376.712,474.844c-5.083-0.475-10.636-2.844-15.228-5.449c-3.365,9.875-6.983,21.039-10.454,32.633
			c3.868,2.967,9.209,6.078,15.421,7.076C370.152,495.379,373.601,484.104,376.712,474.844z"/>
		<path fill="#7F3D2A" d="M334.913,572.577c12.461-0.02,12.985-0.02,16.724,0c2.477-12.113,4.901-23.172,7.259-33.281
			c-6.24-0.07-12.205-2.701-16.625-5.328C338.88,547.772,336.205,561.11,334.913,572.577z"/>
		<path fill="#56241E" d="M351.031,502.028c-3.142,10.502-6.161,21.355-8.76,31.938c4.42,2.629,10.385,5.26,16.625,5.33
			c2.611-11.195,5.137-21.221,7.556-30.193C360.24,508.106,354.899,504.993,351.031,502.028z"/>
		<path fill="#7F3D2A" d="M393.447,432.918c-8.185-3.402-13.812-10.178-19.764,3.268c-0.795,1.914-1.793,4.432-2.944,7.439
			c3.756,3.256,9.235,6.881,15.071,6.975C390.622,439.245,393.447,434.809,393.447,432.918z"/>
		<path fill="#56241E" d="M370.739,443.625c-2.503,6.547-5.74,15.455-9.255,25.77c4.592,2.605,10.146,4.975,15.228,5.449
			c3.5-10.412,6.572-18.281,9.098-24.244C379.974,450.506,374.495,446.881,370.739,443.625z"/>
		<g>
			<path fill="#7F3D2A" d="M433.393,349.645c-2.437-1.448-4.347-3.935-5.571-6.745c-3.049,4.033-6.223,8.399-9.453,13.031
				c1.433,3.144,4.123,5.774,7.084,7.605C428.298,358.225,430.94,353.642,433.393,349.645z"/>
		</g>
		<g>
			<path fill="#56241E" d="M441.1,338.023c-1.753-1.654-3.318-3.884-4.49-6.234c-2.769,3.331-5.717,7.051-8.789,11.11
				c1.225,2.811,3.136,5.297,5.571,6.745C436.194,345.081,438.751,341.284,441.1,338.023z"/>
		</g>
		<g>
			<path fill="#56241E" d="M416.446,381.438c3.216-6.769,6.212-12.688,9.005-17.899c-2.961-1.832-5.651-4.463-7.084-7.605
				c-3.636,5.218-7.349,10.772-11.051,16.591C409.269,376.483,412.534,379.826,416.446,381.438z"/>
		</g>
		<g>
			<path fill="#7F3D2A" d="M454.417,321.233l-0.452-6.683c-3.601,1.992-9.803,8.15-17.355,17.238c1.171,2.351,2.737,4.58,4.49,6.234
				C446.53,330.477,450.834,325.804,454.417,321.233z"/>
		</g>
		<g>
			<path fill="#7F3D2A" d="M398.647,422.438c-5.857-0.59-11.62-3.166-15.006-8.082c-4.587,9.291-8.771,18.723-12.306,28.051
				c7.186-1.572,20.886-6.096,20.886-6.096C394.053,431.592,396.917,426.745,398.647,422.438z"/>
		</g>
		<g>
			<path fill="#7F3D2A" d="M416.446,381.438c-3.912-1.61-7.178-4.953-9.129-8.915c-3.973,6.235-7.93,12.77-11.771,19.498
				c3.115,3.797,7.657,7.385,11.935,9.225C410.647,393.928,413.633,387.356,416.446,381.438z"/>
		</g>
		<g>
			<path fill="#56241E" d="M398.647,422.438c3.093-7.688,6.035-14.73,8.831-21.193c-4.276-1.84-8.818-5.428-11.934-9.227
				c-4.148,7.268-8.161,14.756-11.903,22.34C387.028,419.272,392.791,421.848,398.647,422.438z"/>
		</g>
	</g>
	<g>
		<ellipse fill="#56241E" cx="458.838" cy="319.074" rx="7.346" ry="12.381"/>
	</g>
	<g>
		<path fill="#270B07" d="M440.993,307.512c-4.709,4.773-6.229,11.094-3.396,14.113c2.833,3.022,8.944,1.602,13.652-3.172
			c4.709-4.775,6.227-11.095,3.394-14.116C451.812,301.315,445.698,302.736,440.993,307.512z"/>
	</g>
</g>
<g>
	<g>
		<path fill="#007837" d="M375.756,191.384c45.881-7.213,82.29,51.477,68.195,93.639c-9.551-16.927-18.598-33.421-32.115-47.995
			c-11.441-12.37-25.557-28.334-41.102-34.945L375.756,191.384z"/>
	</g>
	<g>
		<path fill="#007837" d="M375.196,175.941c4.98-6.332,7.926-14.391,14.798-20.437c10.278-9.309,24.159-15.118,37.021-16.947
			c26.653-3.751,54.931,14.125,64.439,40.26c-11.254-5.605-18.958-8.192-31.593-8.81c-11.757-1.194-22.873-0.519-34.492-0.273
			c-18.538,0.967-41.044,4.286-57.271,14.699L375.196,175.941z"/>
	</g>
	<g>
		<path fill="#007837" d="M369.249,181.892c12.401-16.312,15.065-41.78,12.245-61.347c-3.191-23.403-15.512-40.042-37.096-46.506
			c11.306,15.774,10.485,41.049,11.832,59.801c0.509,10.12,0.926,19.28,0.472,29.017c0,4.844-0.964,9.305-1.427,14.197
			c0.092,0.958,0.188,6.761,0.231,2.398L369.249,181.892z"/>
	</g>
	<g>
		<path fill="#007837" d="M352.142,178.349c-1.956-44.363-57.863-83.092-95.898-57.319c20.523,5.122,36.759,9.241,53.137,24.485
			c8.208,7.862,16.008,16.251,23.85,25.122c2.63,3.115,5.215,5.752,7.889,9.35c0.509,0.43,2.907,5.991,1.663,2.732L352.142,178.349z
			"/>
	</g>
	<g>
		<path fill="#007837" d="M344.316,184.301c-27.032-19.46-94-8.882-96.242,30.592c27.39-10.613,63.781-19.45,93.662-18.697
			L344.316,184.301z"/>
	</g>
	<g>
		<g>
			<path fill="#009B56" d="M370.722,203.956c22.069,32.663,26.143,80.321,31.413,118.566
				c30.052-37.016,16.498-112.096-31.987-124.518c-1.558,0.163-3.173-0.216-4.264-0.648L370.722,203.956z"/>
		</g>
		<g>
			<path fill="#009B56" d="M366.975,197.789c14.145-5.849,36.048,3.338,49.315,10.148c15.971,7.622,30.694,18.652,42.979,31.576
				c6.45,6.975,13.008,15.033,17.952,22.713c1.771,1.999,10.984,21.255,12.023,21.146l0.572,0.487
				c4.365-14.662-0.637-33.809-4.648-48.144c-4.74-16.445-12.808-34.726-24.517-47.163c-17.586-18.928-57.279-27.35-80.159-14.032
				c-7.439,4.602-16.591,13.208-14.607,22.835L366.975,197.789z"/>
		</g>
		<g>
			<path fill="#009B56" d="M527.376,161.369c-28.984-33.583-76.425-35.186-113.918-15.425
				c-21.999,11.587-37.855,32.365-52.829,51.415c-2.031-10.17,19.014-58.811,24.107-71.364
				c9.926-22.346,29.317-50.052,57.357-42.599c20.441,4.969,42.403,20.162,56.45,35.086c11.762,12.978,21.961,26.12,28.312,42.941
				L527.376,161.369z"/>
		</g>
		<g>
			<path fill="#009B56" d="M356.625,199.416c-20.858,1.632-41.814,13.109-56.738,27.235c-15.963,14.233-35.564,34.311-45.286,53.358
				c-3.486-8.924,1.29-24.722,3.524-34.243c2.544-11.742,8.313-22.724,14.762-32.141c16.168-22.996,42.64-31.772,68.493-25.184
				c8.062,1.891,14.204,5.621,20.448,10.433c-0.106-1.082-1.147-0.974-1.199-1.514L356.625,199.416z"/>
		</g>
		<g>
			<path fill="#009B56" d="M362.553,195.519c-13.271-12.275-21.337-30.555-36.69-42.613c-26.691-20.708-50.048-28.651-79.688-9.162
				c-19.761,12.992-43.836,35.723-48.249,60.771c10.505-5.467,19.241-12.937,30.37-17.377c11.131-4.442,22.573-5.636,33.963-7.373
				c22.835-2.93,48.113-2.292,69.807,4.732c8.689,2.917,23.774,6.807,29.552,12.214L362.553,195.519z"/>
		</g>
		<g>
			<path fill="#009B56" d="M356.416,197.253c-7.916-27.588-19.682-51.493-41.328-68.904c-25.08-20.328-51.711-24.104-81.877-15.49
				c-10.246,2.709-17.734,6.77-26.003,13.643c20.644-20.186,43.104-37.833,71.14-46.77c12.794-3.521,26.266-5.475,39.685-2.506
				c13.993,3.458,20.294,14.274,27.266,26.659c8.33,15.523,12.654,33.103,14.845,50.358c0.784,8.115,7.455,33.646,2.722,39.057
				L356.416,197.253z"/>
		</g>
		<path opacity="0.2" fill="#FFEE6E" enable-background="new    " d="M374.086,202.183c6.226,6.11,13.521,9.856,18.589,17.442
			c4.592,7.184,13.91,22.889,12.541,31.146c-3.776-3.212-5.582-8.434-8.587-12.627c5.069,16.601,18.342,46.317,10.023,63.415
			c-6.1-18.296-7.223-38.914-12.037-57.345c-4.083-15.351-11.726-27.174-19.928-40.292L374.086,202.183z"/>
		<path opacity="0.2" fill="#FFEE6E" enable-background="new    " d="M370.39,186.34c15.317-7.459,38.184-17.51,54.625-8.859
			c-2.831,2.099-7.208,1.653-10.642,2.013c19.052-4.693,52.579,28.317,55.291,47.419c-3.775,1.295-8.713-4.951-11.589-7.806
			c7.427,9.593,19.319,20.522,18.895,34.09c-9.573-9.369-14.856-23.693-23.658-34.043c-9.317-11.198-21.38-19.404-34.127-25.737
			c4.979,2.185,11.074,6.958,14.123,11.598c-5.534,1.029-12.703-5.886-18.111-8.025c-5.453-2.586-11.675-4.19-17.855-5.348
			c-10.556-1.603-21.369-1.375-32.097-0.255L370.39,186.34z"/>
		<path opacity="0.2" fill="#FFEE6E" enable-background="new    " d="M366.915,186.253c0.896-13.167,10.33-27.675,15.304-39.014
			c6.43-14.195,14.229-41.154,31.739-43.884c0.817,3.971-3.902,8.972-6.175,12.365c10.682-10.582,44.405-24.923,56.428-8.146
			c-3.778,1.296-7.681,1.253-11.586,1.21c14.59-1.523,31.115,8.021,37.943,20.38c-4.936,2.769-12.877-3.164-17.382-4.947
			c-6.739-2.452-14.207-3.476-21.201-4.097c-13.52-0.841-27.508,2.422-38.445,10.326c4.291-0.448,26.989-3.27,14.676,3.877
			c-7.422,3.93-15.618,4.334-22.914,9.604c-10.939,7.905-28.698,21.481-33.928,34.649L366.915,186.253z"/>
		<path opacity="0.2" fill="#FFEE6E" enable-background="new    " d="M360.862,181.926c-0.734-12.095-4.129-24.812-6.581-36.729
			c-2.278-10.129-5.679-36.371-16.065-40.696c-1.156,5.98,5.071,16.6,6.961,22.714c-5.159-22.002-27.093-38.193-47.649-40.102
			c-7.854-0.533-34.759-0.879-38.146,8.941c14.589-1.523,39.006-4.523,49.011,9.308c-4.937-1.738-8.971-3.12-14.505-2.092
			c0.43,4.462,15.537,8.296,19.701,11.016c8.37,5.887,15.668,14.141,22.065,22.038c10.992,15.08,19.624,32.662,22.292,51.315
			L360.862,181.926z"/>
		<path opacity="0.2" fill="#FFEE6E" enable-background="new    " d="M347.389,186.039c-7.041-10.084-18.76-19.229-28.161-26.812
			c-16.869-13.115-31.248-18.375-51.287-14.931c0.431,4.463,16.61,5.929,21.331,9.943c-18.67-9.32-60.678,0.025-67.062,23.684
			c13.003-0.006,25.357-11.213,38.53-13.941c10.641-2.014,34.457-6.754,43.429,0.875c-6.995-0.622-14.892-1.6-21.457,2.241
			c4.078,1.828,11.801,1.021,16.651,1.867c5.75,1.203,11.931,2.361,17.295,4.055c9.828,3.03,19.486,8.784,27.125,16.098
			L347.389,186.039z"/>
		<path opacity="0.2" fill="#FFEE6E" enable-background="new    " d="M339.498,198.582c-21.025,6.704-39.559,16.753-56.718,32.069
			c-0.561-5.802,4.63-10.401,8.147-14.374c-10.811,9.242-15.267,25.936-26.635,33.884c-1.636-12.449,13.676-28.925,21.57-36.962
			c9.094-9.064,19.221-11.924,30.076-16.213c-3.819,0.849-8.925,1.834-12.873,1.344c9.695-7.323,28.834-6.618,40.207-5.551
			L339.498,198.582z"/>
	</g>
	<g>
		<path fill="#9B453A" d="M326.435,550.625c-2.145-28.748-3.497-51.662-4.262-70.439c-8.522,4.09-18.349,2.975-28.706-0.631
			c0.322,20.453,1.384,44.244,3.904,69.229C307.997,552.754,318.311,552.639,326.435,550.625z"/>
		<path fill="#743030" d="M328.033,571.272c-0.576-7.203-1.108-14.074-1.598-20.646c-8.125,2.014-18.438,2.129-29.064-1.842
			c0.597,5.922,1.274,11.908,2.045,17.938L328.033,571.272z"/>
		<path fill="#9B453A" d="M321.447,432.956c0.266-14.031,1.654-30.242,1.965-35.113c0,0-27.963,8.906-28.816,18.701
			c-0.131,2.797-0.383,7.736-0.627,14.426C301.593,434.217,311.665,435.856,321.447,432.956z"/>
		<path fill="#743030" d="M321.447,432.956c-9.783,2.9-19.854,1.262-27.479-1.986c-0.424,11.605-0.818,28.484-0.501,48.586
			c10.357,3.605,20.184,4.721,28.706,0.633C321.373,460.577,321.211,445.477,321.447,432.956z"/>
		<g>
			<path fill="#9B453A" d="M342.386,258.205c-4.179-0.917-8.068-3.59-11.103-7.064c-2.606,7.324-5.242,15.19-7.839,23.474
				c3.49,3.854,8.567,6.359,13.679,7.575C338.859,273.107,340.627,265.184,342.386,258.205z"/>
		</g>
		<g>
			<path fill="#743030" d="M348.328,237.622c-3.284-1.542-6.554-4.01-9.305-6.846c-2.514,6.171-5.113,12.991-7.74,20.364
				c3.035,3.474,6.924,6.147,11.103,7.064C344.393,250.233,346.391,243.488,348.328,237.622z"/>
		</g>
		<g>
			<path fill="#743030" d="M332.12,312.492c1.619-11.366,3.298-21.397,5.003-30.303c-5.112-1.216-10.189-3.721-13.679-7.575
				c-2.923,9.323-5.805,19.174-8.554,29.401C319.499,308.805,325.729,312.061,332.12,312.492z"/>
		</g>
		<g>
			<path fill="#9B453A" d="M360.076,206.828l-3.655-9.458c-4.322,4.635-10.54,16.57-17.397,33.406
				c2.751,2.835,6.021,5.304,9.305,6.846C352.804,224.05,356.938,215.192,360.076,206.828z"/>
		</g>
		<g>
			<path fill="#9B453A" d="M324.76,380.539c-8.75,1.996-18.255,1.056-25.37-4.414c-2.47,15.688-4.292,31.381-5.221,46.616
				c9.703-5.771,28.932-20.027,28.932-20.027C323.599,395.674,324.187,387.618,324.76,380.539z"/>
		</g>
		<g>
			<path fill="#9B453A" d="M332.12,312.492c-6.391-0.433-12.621-3.688-17.23-8.477c-2.95,10.963-5.746,22.354-8.292,33.967
				c6.218,3.984,14.412,6.973,21.435,7.562C329.333,333.406,330.706,322.435,332.12,312.492z"/>
		</g>
		<g>
			<path fill="#743030" d="M324.76,380.539c1.028-12.638,2.122-24.275,3.272-34.994c-7.022-0.589-15.216-3.578-21.435-7.562
				c-2.744,12.539-5.191,25.337-7.208,38.143C306.505,381.595,316.011,382.534,324.76,380.539z"/>
		</g>
	</g>
	<g>
		<path fill="#743030" d="M355.631,203.369c1,10.356,6.792,18.232,12.937,17.591c6.145-0.643,10.316-9.559,9.317-19.916
			c-1-10.356-6.792-18.231-12.937-17.591C358.802,184.096,354.632,193.012,355.631,203.369z"/>
	</g>
	<g>
		<path fill="#461717" d="M338.04,187.518c-6.433,7.975-7.812,17.787-3.079,21.913c4.733,4.129,13.781,1.01,20.214-6.965
			c6.432-7.977,7.808-17.786,3.075-21.915C353.521,176.423,344.469,179.542,338.04,187.518z"/>
	</g>
</g>
<g id="cloud">
	<circle fill="#FFD244" cx="732.353" cy="57.197" r="36.424"/>
	<g>
		<path fill="#DBEAFC" d="M675.628,99.877c3.02-5.178,8.199-4.838,11.648-5.7c3.02-0.863,5.607-5.609,8.629-6.903
			c7.334-3.882,14.236-0.862,20.275,3.883c3.453-4.314,1.729-9.923,6.904-13.374c3.885-2.589,10.785-2.157,15.102-0.863
			c-3.451-16.827,5.178-24.593,22.436-20.279c-2.156-19.415,29.338-27.611,43.576-25.455c19.846,3.451,22.867,26.319,21.141,42.713
			c4.746-0.431,10.785-3.452,14.67,0.431c3.883,3.021,3.883,10.355,1.727,14.238c12.512-7.334,19.846,6.904,31.062,7.336
			L675.628,99.877z"/>
	</g>
	<g display="none">
		<path display="inline" fill="#E9F2FF" d="M527.783,128.012c2.865-5.731,10.887-5.158,16.045-4.585l0,0
			c-0.572-9.168,8.596-14.899,16.619-14.326c0.57-16.045,31.518-20.629,29.225-1.719c8.596-2.293,13.752,4.011,12.605,12.033
			c5.156-1.719,9.742,0.573,11.461,5.158c4.012-1.719,10.314-1.146,10.314,3.438h-96.27V128.012z"/>
	</g>
	<g display="none">
		<path display="inline" fill="#E9F5FF" d="M113.94,266.542c4.336-3.373,10.118-4.336,15.9-3.854
			c1.928-10.119,11.563-12.527,20.237-9.637c-0.482-12.527,21.682-23.61,26.501-8.672c7.227-1.928,14.937,4.336,15.418,12.045
			c8.673-2.408,9.637,0,15.899,4.337c2.892,2.409,2.892,1.445,6.267,2.891c1.444,0.482,4.335,1.927,4.335,2.409L113.94,266.542z"/>
	</g>
	<g>
		<path fill="#F0F5FC" d="M673.158,188.361c22.197-1.107,44.322-2.155,66.516-2.393c1.443-0.015,2.953-0.07,4.217-0.768
			c1.266-0.697,2.186-2.243,1.691-3.601c-0.613-1.694-2.805-2.061-4.605-2.155c-6.594-0.344-13.188-0.688-19.783-1.032
			c0.531-5.198-4.764-13.196-10.844-11.123c-0.461,1.421-0.922,2.842-1.381,4.263c-1.592-4.491-4.105-9.133-8.514-10.942
			c-3.613-1.483-8.078-0.587-10.842,2.175c-2.764,2.762-3.658,7.228-2.176,10.842c-2-1.674-5.311,0.017-6.188,2.474
			c-0.873,2.457-0.104,5.161,0.668,7.652c-5.234-1.168-10.871-0.44-15.637,2.021C667.244,188.217,670.535,188.491,673.158,188.361z"
			/>
	</g>
</g>
<g id="XMLID_75_">
	<path id="XMLID_11_" fill="#E5B961" d="M310.667,403.034c1.141-0.035,15.529,10.01,30.397,15.791
		c7.51-0.961,27.123-4.066,34.458-3.117c20.336,1.938,43.94,11.932,43.94,11.932s6.478-4.186,35.296,0.604
		c15.377,1.203,37.158,9.398,37.158,9.398s14.871-6.043,27.238-4.613c1.105,0.174-11.285-8.143-22.705-12.111
		C485.029,416.95,310.667,403.034,310.667,403.034z"/>
	<g id="XMLID_1_">
		<path id="XMLID_10_" fill="#D0D2D3" d="M422.05,403.702c-0.49,7.99-18.058,171.309-18.107,171.775l-3.493-0.408
			c0.049-0.473,17.585-163.506,18.085-171.637L422.05,403.702z"/>
		<path id="XMLID_9_" fill="#C1C1BF" d="M400.459,574.967c0.427-3.982,17.582-163.496,18.075-171.535l1.759,0.133L402.335,575.29
			C402.334,575.29,401.644,575.167,400.459,574.967z"/>
		<g id="XMLID_2_">
			<g id="XMLID_6_">
				<polygon id="XMLID_8_" fill="#FCBC90" points="425.014,350.734 425.894,350.821 425.164,370.831 423.156,370.681 
					421.314,368.675 423.877,352.677 				"/>
				<polygon id="XMLID_7_" fill="#F9AE85" points="425.014,350.734 424.137,350.64 421.046,370.404 423.098,370.675 				"/>
			</g>
			<g id="XMLID_3_">
				<path id="XMLID_5_" fill="#FFF98F" d="M532.865,440.206c-5.689-35.607-50.824-67.266-108.504-73.674
					c-57.681-6.407-108.304,14.616-121.198,48.163c12.444-6.393,66.021-0.971,77.345,7.371c11.999-5.314,64.636,0.529,75.268,8.357
					C468.554,424.762,522.025,431.229,532.865,440.206z"/>
				<path id="XMLID_4_" fill="#FFEC5F" d="M429.455,367.167c-1.688-0.234-3.384-0.447-5.095-0.637
					c-1.718-0.191-3.425-0.354-5.126-0.499c-20.759,13.885-33.498,34.975-38.766,56.008l0.038,0.023
					c11.999-5.314,64.636,0.529,75.268,8.357l0.023-0.008C454.986,408.706,446.88,385.296,429.455,367.167z"/>
			</g>
		</g>
	</g>
</g>
<g id="person">
	<path id="XMLID_246_" opacity="0.2" fill="#C4804D" enable-background="new    " d="M621.458,559.7
		c-9.021-3.072-33.635-1.422-40.213-4.969c-6.58-3.543-18.574-13.859-44.889-12.246c-26.312,1.609-42.564,8.059-64.623,7.412
		c-38.522-1.125-117.888-14.189-92.869,36.746c3.483,7.09,15.771,11.455,37.922,13.859c22.148,2.406,63.228,2.85,78.195,0.045
		C513.548,597.073,673.375,577.37,621.458,559.7z"/>
	<path id="XMLID_245_" fill="#EF8050" d="M447.99,472.733L447.99,472.733c1.637-1.309,4.091-1.084,5.446,0.492l70.715,82.277
		c1.357,1.58,1.125,3.939-0.516,5.246l0,0c-1.639,1.305-4.092,1.084-5.447-0.496l-70.717-82.277
		C446.117,476.399,446.348,474.04,447.99,472.733z"/>
	<path id="XMLID_242_" fill="#F2855F" d="M474.631,491.668L474.631,491.668c2.018,0.623,3.136,2.727,2.488,4.666l-20.947,62.67
		c-0.648,1.939-2.83,3.02-4.849,2.395l0,0c-2.018-0.625-3.135-2.725-2.488-4.67l20.944-62.666
		C470.432,492.12,472.612,491.04,474.631,491.668z"/>
	<g id="XMLID_239_">
		<path id="XMLID_241_" fill="#F48567" d="M412.029,582.163L412.029,582.163c-0.979-1.82-0.233-4.09,1.664-5.021l122.894-60.281
			c1.896-0.928,4.238-0.219,5.215,1.602l0,0c0.977,1.822,0.232,4.09-1.664,5.021L417.244,583.76
			C415.347,584.694,413.008,583.981,412.029,582.163z"/>
		<path id="XMLID_240_" fill="#EF946C" d="M539.919,516.768c0.783,0.33,1.461,0.906,1.883,1.693l0,0
			c0.977,1.822,0.232,4.09-1.664,5.021L417.244,583.76c-0.51,0.252-1.051,0.383-1.592,0.406c-0.784-0.328-1.459-0.906-1.88-1.695
			l0,0c-0.979-1.82-0.233-4.088,1.66-5.02l122.897-60.279C538.839,516.922,539.38,516.79,539.919,516.768z"/>
	</g>
	<path id="XMLID_237_" fill="#00A551" d="M589.533,546.168c0,0,3.793,0.148,4.023,0.504s0.596,0.775,0.691,1.775
		c0.428,4.455-8.031,9.727-11.104,12.246c-1.475,1.209-3.287,2.887-4.4,3.283c-1.146,0.408-5.123-0.244-5.855-2.875
		C572.605,560.092,589.533,546.168,589.533,546.168z"/>
	<path id="XMLID_235_" fill="#FFF2EE" d="M567.558,551.571c6.434,5.074,3.994,8.979,7.354,10.662
		c1.221,0.611,2.205-0.162,3.803-1.188c1.598-1.023,2.59-2.604,4.621-4.232c2.031-1.631,6.426-3.057,7.539-4.498
		c1.111-1.441,0.568-2.988,1.014-3.584c1.357-1.801-0.756-3.953-2.094-2.072c-0.307,0.436-0.639,0.809-0.895,1.076
		c-0.262,0.273-0.445,0.438-0.445,0.438s1.162-2.293,0.727-2.561c-0.434-0.268-1.074,0-1.656,0.697
		c-0.58,0.701-1.318,1.373-1.318,1.373s0.699-1.885,0.023-2.025c-0.908-0.186-1.115,1.217-2.078,1.77c0,0,0.357-0.811,0.191-1.348
		s-0.871,0.09-1.207,0.512c-0.342,0.42-0.922,0.744-0.922,0.744s0.24-1-0.143-0.863c-0.389,0.145-0.68,0.443-0.967,1.004
		c-0.295,0.561-0.195,0.885-2.229,2.654c-2.031,1.771-4.473-1.398-4.473-1.398L567.558,551.571z"/>
	<path id="XMLID_234_" fill="#00A551" d="M588.986,548.274c0.037-0.131,0.061-0.631-0.336-0.732
		c-0.166-0.047-0.406-0.008-0.633,0.051c-0.631,0.049-8.521,1.48-8.754,1.701c-0.229,0.221-0.637,1.027-0.637,1.027
		s2.018-0.586,3.104-0.771c0.834-0.141,4.168-0.598,5.758-0.793c0.092,1.197,0.145,3.062-0.605,6.801
		c0.268,0.213,0.918,0.098,1.113-0.232C588.654,554.215,589.091,549.702,588.986,548.274z"/>
	<path id="XMLID_233_" fill="#FFF2EE" d="M553.062,516.639c0,0,7.102,11.482,12.531,18.744c5.43,7.264,12.619,18.137,12.619,18.137
		l-5.799,4.74c-4.535-8.297-29.918-32.051-30.959-31.662C540.126,527.098,553.062,516.639,553.062,516.639z"/>
	<path id="XMLID_231_" fill="#FFF2EE" d="M495.826,456.819c7.723,3.43,11.961,11.447,9.811,20.875
		c-0.869,3.816-1.395,6.688-7.393,8.553c-5.998,1.861-12.201,1-15.289-4.717c-3.092-5.715-7.155-9.254-4.156-15.867
		C481.798,459.051,495.826,456.819,495.826,456.819z"/>
	<path id="XMLID_229_" fill="#FFF2EE" d="M569.316,521.481c1.568,1.467,9.578-5.494,10.641-9.967
		c1.064-4.469-2.223-7.445-8.125-7.729c-5.902-0.279-14.512,4.936-14.898,5.959s-1.742,2.797,1.74,6.705
		C562.158,520.364,569.316,521.481,569.316,521.481z"/>
	<path id="XMLID_228_" fill="#51B8F2" d="M530.882,537.842c3.879,1.857,17.061-0.803,25.854-4.346
		c8.795-3.541,19.115-14.965,19.115-14.965s-1.674-7.834-5.35-10.439c-3.676-2.607-9.912-2.084-13.371,0.168
		c-2.141,1.393-10.262,2.451-16.426,5.137c-3.797,1.652-5.828,4.533-8.314,6.689C525.875,525.743,530.882,537.842,530.882,537.842z"
		/>
	<g id="XMLID_149_">
		<path id="XMLID_220_" fill="#E6EDF4" d="M530.882,477.635c5.506,0.279,11.045,0.555,16.617,0.832
			c5.605,0.279,11.248,0.559,16.924,0.842c1.152,0.059,1.986,0.984,1.854,2.064c-0.445,3.633-0.893,7.291-1.34,10.965
			c-0.447,3.693-0.898,7.414-1.352,11.154c-0.143,1.119-1.213,1.971-2.383,1.896c-5.781-0.367-11.537-0.736-17.246-1.105
			c-5.68-0.365-11.322-0.727-16.928-1.088c-1.123-0.074-1.896-1.027-1.732-2.121c0.549-3.656,1.107-7.293,1.652-10.904
			c0.547-3.59,1.098-7.164,1.641-10.721C528.748,478.399,529.781,477.575,530.882,477.635z"/>
		<path id="XMLID_219_" fill="#49798E" d="M527.195,501.292c5.633,0.357,11.314,0.723,17.025,1.084
			c5.742,0.361,11.537,0.73,17.355,1.1c0.463-3.77,0.924-7.521,1.381-11.244c0.451-3.707,0.906-7.393,1.361-11.055
			c-5.732-0.293-11.426-0.584-17.076-0.873c-5.621-0.281-11.205-0.576-16.754-0.859c-0.541,3.592-1.098,7.205-1.641,10.83
			C528.302,493.926,527.746,497.598,527.195,501.292z"/>
		<path id="XMLID_218_" fill="#6D6E70" d="M547.326,479.694c0.23,0.012,0.436-0.154,0.467-0.369c0.029-0.215-0.133-0.4-0.357-0.412
			c-0.225-0.01-0.436,0.156-0.463,0.371C546.941,479.499,547.103,479.682,547.326,479.694z"/>
		<path id="XMLID_217_" fill="#929497" d="M537.792,503.04c2.094,0.137,4.186,0.273,6.285,0.408c2.105,0.135,4.213,0.268,6.326,0.4
			c-0.002,0.018-0.008,0.027-0.008,0.039c-0.02,0.176-0.186,0.311-0.363,0.295c-2.012-0.127-4.008-0.254-6.004-0.381
			c-1.994-0.129-3.984-0.256-5.967-0.389c-0.18-0.012-0.303-0.16-0.277-0.328C537.785,503.071,537.787,503.059,537.792,503.04z"/>
		<path id="XMLID_216_" fill="#404041" d="M547.353,479.518c0.123,0.008,0.24-0.08,0.258-0.203c0.018-0.119-0.072-0.221-0.199-0.227
			c-0.125-0.008-0.238,0.084-0.256,0.201C547.136,479.409,547.228,479.51,547.353,479.518z"/>
		<path id="XMLID_215_" fill="#58595B" d="M530.488,479.444c5.549,0.281,11.133,0.576,16.754,0.859
			c5.652,0.289,11.346,0.578,17.076,0.873c-0.453,3.66-0.908,7.348-1.359,11.053c-0.457,3.723-0.92,7.477-1.381,11.244
			c-5.82-0.367-11.613-0.736-17.357-1.098c-5.709-0.361-11.393-0.727-17.025-1.086c0.551-3.691,1.107-7.365,1.654-11.018
			C529.392,486.649,529.947,483.036,530.488,479.444z"/>
		<path id="XMLID_214_" fill="#79BB70" d="M530.132,481.788c5.559,0.293,11.154,0.592,16.785,0.887
			c5.66,0.293,11.367,0.598,17.104,0.896c0.096-0.77,0.189-1.539,0.289-2.311c-5.732-0.289-11.426-0.584-17.078-0.873
			c-5.619-0.287-11.213-0.576-16.76-0.861C530.359,480.28,530.248,481.036,530.132,481.788z"/>
		<path id="XMLID_213_" fill="#E6E7E8" d="M540.136,482.542c0.729,0.043,1.457,0.082,2.188,0.119
			c0.047-0.338,0.092-0.672,0.141-1.006c-0.729-0.033-1.455-0.076-2.186-0.113C540.228,481.875,540.179,482.209,540.136,482.542z"/>
		<path id="XMLID_212_" fill="#E6E7E8" d="M542.41,482.657c0.732,0.041,1.465,0.078,2.191,0.111c0.043-0.332,0.09-0.67,0.141-1.004
			c-0.729-0.035-1.459-0.07-2.189-0.111C542.501,481.989,542.457,482.323,542.41,482.657z"/>
		<path id="XMLID_211_" fill="#E6E7E8" d="M544.695,482.776c0.729,0.041,1.463,0.076,2.197,0.113c0.047-0.336,0.09-0.67,0.141-1.006
			c-0.734-0.037-1.469-0.072-2.199-0.111C544.785,482.106,544.74,482.442,544.695,482.776z"/>
		<path id="XMLID_210_" fill="#E6E7E8" d="M546.986,482.897c0.73,0.039,1.465,0.076,2.203,0.111
			c0.043-0.332,0.088-0.672,0.135-1.006c-0.734-0.035-1.469-0.074-2.199-0.113C547.074,482.225,547.031,482.559,546.986,482.897z"/>
		<path id="XMLID_209_" fill="#FFFFFF" d="M530.207,481.792c-0.484,3.197-0.971,6.41-1.457,9.639
			c-0.488,3.246-0.973,6.514-1.467,9.791c5.611,0.355,11.264,0.715,16.945,1.074c5.721,0.363,11.48,0.73,17.273,1.096
			c0.41-3.348,0.822-6.68,1.232-9.988c0.4-3.297,0.807-6.576,1.213-9.836c-5.715-0.299-11.396-0.6-17.029-0.893
			C541.312,482.379,535.738,482.084,530.207,481.792z"/>
		<path id="XMLID_208_" fill="#E7EEEF" d="M552.296,500.774c3.018,0.186,6.043,0.375,9.086,0.564
			c0.188-1.529,0.373-3.051,0.562-4.572c0.188-1.52,0.371-3.031,0.561-4.543c-3.021-0.172-6.027-0.344-9.025-0.518
			c-0.201,1.502-0.396,3.01-0.594,4.518C552.689,497.739,552.494,499.254,552.296,500.774z"/>
		<path id="XMLID_207_" fill="#FFFFFF" d="M553.988,482.272c2.182,0.113,4.365,0.225,6.561,0.344c0.039-0.34,0.08-0.676,0.125-1.018
			c-2.191-0.111-4.373-0.225-6.553-0.338C554.074,481.598,554.031,481.934,553.988,482.272z"/>
		<path id="XMLID_206_" fill="#FFFFFF" d="M537.867,482.415c0.721,0.041,1.447,0.082,2.178,0.115
			c0.049-0.334,0.094-0.666,0.143-1.002c-0.729-0.033-1.455-0.074-2.182-0.115C537.96,481.747,537.912,482.081,537.867,482.415z"/>
		<path id="XMLID_205_" fill="#C96C38" d="M556.468,487.217c-0.01-0.027-0.035-0.049-0.068-0.057c0-0.012-0.012-0.021-0.025-0.021
			c-0.004,0-0.008,0-0.014,0c-0.012-0.014-0.037-0.02-0.061-0.021c-0.006-0.004-0.02-0.004-0.031,0.004
			c-0.004-0.008-0.014-0.012-0.02-0.01c-0.014-0.002-0.021,0-0.029,0.008c-0.016-0.016-0.031-0.021-0.053-0.021
			c-0.029-0.006-0.059,0.004-0.072,0.029c-0.006-0.006-0.01-0.008-0.016-0.008c-0.012-0.002-0.023,0.008-0.033,0.018
			c-0.002-0.006-0.006-0.006-0.012-0.004c-0.045-0.006-0.088,0.029-0.102,0.07c-0.012,0.002-0.023,0.012-0.027,0.027
			c0.002,0.002,0.002,0.002,0.002,0.004c-0.031,0.014-0.057,0.043-0.059,0.074c-0.002,0.02,0,0.035,0.01,0.051
			c-0.016,0.014-0.025,0.039-0.031,0.059c-0.002,0.023,0.002,0.045,0.016,0.057c-0.008,0.016-0.01,0.023-0.01,0.037
			c-0.012,0.037,0.01,0.068,0.041,0.084c0,0.002,0,0.002,0,0.002c-0.008,0.051,0.025,0.09,0.076,0.098
			c0.021,0.014,0.045,0.035,0.068,0.057c-0.004,0.018-0.006,0.029-0.006,0.041c-0.016,0-0.035,0-0.049-0.002
			c-0.021,0.029-0.041,0.053-0.059,0.076c0,0,0,0,0.006,0c-0.18,0.051-0.236,0.061-0.262,0.074
			c-0.049,0.033-0.104,0.227-0.143,0.344c0.07,0.006,0.143,0.01,0.213,0.014c0.006,0.002,0.008,0.002,0.014,0.002
			c0.088,0.004,0.18,0.01,0.266,0.016c0.021,0.002,0.045,0.002,0.066,0.002c0.02,0.002,0.041,0.002,0.061,0.004
			c0.09,0.008,0.176,0.012,0.271,0.016c0.006,0,0.01,0,0.012,0c0.07,0.004,0.141,0.012,0.213,0.016
			c-0.01-0.123-0.014-0.318-0.051-0.359c-0.025-0.02-0.08-0.031-0.238-0.104c0,0,0,0,0.002-0.002
			c-0.012-0.025-0.025-0.051-0.039-0.076c-0.016-0.004-0.033-0.004-0.045-0.006c-0.002-0.012-0.002-0.025,0-0.035
			c0.039-0.025,0.074-0.049,0.1-0.068c0.043-0.002,0.074-0.031,0.086-0.064c0.035-0.012,0.062-0.043,0.066-0.078
			c0-0.01,0-0.021-0.004-0.031c0.016-0.018,0.023-0.031,0.025-0.053c0.004-0.027-0.006-0.053-0.018-0.068
			c0.016-0.014,0.027-0.033,0.031-0.055c0-0.033-0.012-0.066-0.041-0.084c0.006-0.002,0.008-0.008,0.008-0.018
			c0.002-0.018-0.012-0.031-0.031-0.031C556.472,487.217,556.472,487.217,556.468,487.217z"/>
		<path id="XMLID_204_" fill="#F6EADB" d="M537.275,486.495c2.656,0.145,5.314,0.295,7.982,0.441
			c2.678,0.146,5.369,0.295,8.062,0.438c0.16-1.26,0.326-2.512,0.492-3.762c-2.688-0.145-5.367-0.283-8.037-0.424
			c-2.658-0.139-5.314-0.283-7.963-0.426C537.632,484.006,537.455,485.249,537.275,486.495z"/>
		<path id="XMLID_203_" fill="#A6A8AB" d="M538.703,484.129c2.314,0.121,4.631,0.254,6.951,0.375c2.328,0.125,4.66,0.25,7.008,0.371
			c0.02-0.158,0.037-0.316,0.061-0.482c-2.34-0.117-4.676-0.246-7.002-0.369c-2.32-0.121-4.639-0.248-6.947-0.373
			C538.746,483.813,538.724,483.969,538.703,484.129z"/>
		<path id="XMLID_202_" fill="#A6A8AB" d="M538.587,484.924c2.945,0.162,5.9,0.32,8.869,0.48c0.02-0.16,0.041-0.318,0.064-0.482
			c-2.967-0.156-5.922-0.314-8.863-0.479C538.63,484.604,538.609,484.766,538.587,484.924z"/>
		<path id="XMLID_201_" fill="#A6A8AB" d="M538.474,485.721c1.947,0.105,3.896,0.213,5.855,0.316
			c0.021-0.158,0.041-0.316,0.066-0.479c-1.957-0.107-3.906-0.215-5.852-0.316C538.517,485.401,538.496,485.559,538.474,485.721z"/>
		<path id="XMLID_200_" fill="#929497" d="M531.238,486.163c1.279,0.07,2.562,0.139,3.857,0.209
			c0.176-1.242,0.359-2.486,0.537-3.725c-1.281-0.066-2.562-0.137-3.842-0.199C531.601,483.684,531.419,484.917,531.238,486.163z"/>
		<path id="XMLID_199_" fill="#929497" d="M536.99,488.489c0.475,0.029,0.951,0.057,1.432,0.086
			c0.064-0.465,0.131-0.924,0.199-1.391c-0.48-0.025-0.953-0.053-1.436-0.082C537.121,487.567,537.054,488.028,536.99,488.489z"/>
		<path id="XMLID_198_" fill="#929497" d="M536.673,490.651c0.48,0.031,0.957,0.059,1.441,0.084
			c0.062-0.463,0.129-0.928,0.201-1.395c-0.486-0.023-0.963-0.053-1.439-0.078C536.808,489.725,536.742,490.19,536.673,490.651z"/>
		<path id="XMLID_197_" fill="#929497" d="M536.365,492.823c0.477,0.029,0.953,0.057,1.438,0.084
			c0.064-0.467,0.129-0.932,0.199-1.396c-0.48-0.025-0.957-0.051-1.434-0.082C536.494,491.893,536.431,492.356,536.365,492.823z"/>
		<path id="XMLID_196_" fill="#929497" d="M536.048,495.002c0.48,0.029,0.959,0.057,1.441,0.086c0.064-0.469,0.133-0.932,0.197-1.4
			c-0.479-0.029-0.959-0.057-1.438-0.088C536.181,494.069,536.117,494.534,536.048,495.002z"/>
		<path id="XMLID_195_" fill="#F6EADB" d="M535.369,499.721c2.678,0.168,5.371,0.34,8.062,0.506c2.699,0.168,5.41,0.334,8.133,0.502
			c0.172-1.283,0.338-2.564,0.51-3.846c-2.717-0.162-5.42-0.322-8.115-0.482c-2.688-0.162-5.369-0.326-8.037-0.488
			C535.732,497.178,535.554,498.448,535.369,499.721z"/>
		<path id="XMLID_194_" fill="#A6A8AB" d="M536.812,497.313c2.338,0.141,4.676,0.287,7.02,0.43c2.35,0.141,4.707,0.287,7.074,0.426
			c0.02-0.16,0.039-0.324,0.064-0.49c-2.365-0.139-4.723-0.287-7.072-0.426c-2.342-0.139-4.682-0.285-7.014-0.426
			C536.859,496.989,536.835,497.149,536.812,497.313z"/>
		<path id="XMLID_193_" fill="#A6A8AB" d="M536.695,498.124c1.828,0.111,3.658,0.225,5.492,0.336
			c1.842,0.113,3.686,0.229,5.527,0.34c0.021-0.162,0.043-0.326,0.068-0.486c-1.846-0.115-3.689-0.229-5.525-0.34
			c-1.834-0.109-3.666-0.225-5.492-0.336C536.74,497.797,536.716,497.961,536.695,498.124z"/>
		<path id="XMLID_192_" fill="#A6A8AB" d="M536.583,498.932c0.691,0.051,1.387,0.092,2.086,0.135c0.023-0.16,0.043-0.326,0.072-0.49
			c-0.703-0.041-1.396-0.086-2.088-0.131C536.628,498.612,536.607,498.774,536.583,498.932z"/>
		<path id="XMLID_191_" fill="#BBBDBF" d="M539.271,487.629c1.951,0.107,3.912,0.213,5.873,0.324c1.967,0.107,3.939,0.217,5.92,0.33
			c0.014-0.107,0.025-0.215,0.039-0.322c-1.979-0.107-3.953-0.219-5.92-0.328c-1.957-0.107-3.916-0.219-5.871-0.324
			C539.296,487.418,539.285,487.524,539.271,487.629z"/>
		<path id="XMLID_190_" fill="#BBBDBF" d="M539.203,488.11c2.15,0.121,4.312,0.24,6.477,0.357c0.016-0.105,0.029-0.209,0.047-0.318
			c-2.166-0.115-4.324-0.24-6.475-0.361C539.232,487.897,539.218,488.002,539.203,488.11z"/>
		<path id="XMLID_189_" fill="#BBBDBF" d="M538.941,489.952c1.4,0.082,2.811,0.16,4.221,0.24c0.016-0.105,0.029-0.211,0.047-0.322
			c-1.408-0.08-2.82-0.158-4.219-0.238C538.97,489.737,538.955,489.846,538.941,489.952z"/>
		<path id="XMLID_188_" fill="#BBBDBF" d="M538.576,492.495c1.986,0.123,3.975,0.238,5.971,0.352
			c0.016-0.105,0.029-0.215,0.045-0.322c-1.994-0.117-3.98-0.234-5.967-0.35C538.603,492.284,538.589,492.391,538.576,492.495z"/>
		<path id="XMLID_187_" fill="#BBBDBF" d="M538.64,492.042c0.99,0.057,1.98,0.115,2.971,0.17c0.012-0.105,0.027-0.211,0.041-0.322
			c-0.988-0.055-1.979-0.111-2.961-0.17C538.669,491.829,538.656,491.934,538.64,492.042z"/>
		<path id="XMLID_186_" fill="#BBBDBF" d="M538.351,494.084c2.201,0.131,4.404,0.262,6.619,0.391
			c0.016-0.104,0.029-0.213,0.045-0.324c-2.213-0.129-4.418-0.256-6.623-0.389C538.376,493.87,538.361,493.975,538.351,494.084z"/>
		<path id="XMLID_185_" fill="#BBBDBF" d="M538.289,494.543c2.201,0.133,4.408,0.262,6.619,0.391
			c0.014-0.105,0.025-0.213,0.045-0.322c-2.215-0.127-4.42-0.264-6.619-0.396C538.318,494.327,538.304,494.434,538.289,494.543z"/>
		<path id="XMLID_184_" fill="#BBBDBF" d="M538.222,495.002c0.879,0.053,1.758,0.104,2.639,0.154
			c0.014-0.109,0.029-0.215,0.047-0.322c-0.881-0.051-1.762-0.102-2.641-0.158C538.253,494.788,538.236,494.895,538.222,495.002z"/>
		<path id="XMLID_183_" fill="#C86F80" d="M561.011,488.915c0.125,0.01,0.219,0.045,0.281,0.176c0.064,0.137,0.031,0.402-0.039,0.58
			c-0.064-0.027-0.131-0.047-0.195-0.055c-0.004,0.008-0.002,0.018-0.002,0.025c0.23,0.111,0.307,0.094,0.33,0.117
			c0.039,0.043,0.035,0.266,0.049,0.389c-0.072-0.004-0.15-0.01-0.225-0.014c-0.01,0-0.021,0-0.027,0
			c-0.055,0-0.104-0.006-0.152-0.01c-0.031,0-0.061,0-0.09-0.004c-0.023,0-0.049-0.004-0.066-0.004
			c-0.031,0-0.051-0.002-0.072-0.004c-0.033,0-0.062,0-0.094-0.006c-0.053-0.002-0.104-0.002-0.154-0.01
			c-0.008,0.002-0.012,0.002-0.016,0c-0.08-0.002-0.156-0.008-0.232-0.014c0.041-0.121,0.092-0.34,0.141-0.375
			c0.033-0.025,0.107,0.002,0.357-0.082c0-0.008,0-0.018,0.002-0.025c-0.066,0.006-0.135,0.02-0.197,0.037
			c-0.021-0.1-0.039-0.34,0.098-0.561C560.769,488.975,560.886,488.905,561.011,488.915z"/>
		<path id="XMLID_182_" fill="#8CB8B7" d="M537.583,488.004c0.012,0.002,0.027,0.004,0.045,0.002c0-0.012,0.004-0.025,0.01-0.041
			c-0.043-0.035-0.086-0.076-0.1-0.102c0-0.006-0.01-0.023-0.014-0.047c-0.008-0.023-0.018-0.049-0.021-0.074
			c-0.018-0.01-0.027-0.027-0.031-0.051c-0.01-0.037,0.002-0.068,0.029-0.072l0,0c0.006-0.07,0.025-0.133,0.045-0.176
			c0.021-0.051,0.059-0.088,0.115-0.092c0.148-0.078,0.35-0.072,0.426,0.053c0.043,0.064,0.041,0.162,0.021,0.25
			c0.012,0.01,0.018,0.041,0.002,0.072c-0.012,0.023-0.033,0.041-0.045,0.049l0,0c-0.014,0.02-0.023,0.033-0.041,0.049
			c-0.014,0.035-0.025,0.057-0.031,0.062c-0.021,0.025-0.07,0.059-0.125,0.094c-0.002,0.014-0.004,0.025-0.004,0.035
			c0.016,0.002,0.033,0.004,0.047,0.008c0.01,0.025,0.021,0.053,0.037,0.078c0,0.006,0,0.006,0,0.006
			c0.154,0.068,0.203,0.078,0.225,0.1c0.045,0.041,0.039,0.232,0.051,0.354c-0.07-0.004-0.141-0.006-0.213-0.012
			c-0.006,0-0.01,0-0.012-0.004c-0.088-0.002-0.176-0.008-0.266-0.016c-0.02,0-0.041-0.002-0.059-0.002
			c-0.023-0.002-0.045-0.002-0.066-0.004c-0.086-0.004-0.176-0.008-0.264-0.016c-0.004,0-0.01,0-0.012,0
			c-0.072-0.002-0.141-0.008-0.209-0.016c0.043-0.115,0.094-0.303,0.145-0.338c0.029-0.02,0.084-0.021,0.258-0.074l0,0
			C537.542,488.057,537.562,488.03,537.583,488.004z"/>
		<path id="XMLID_181_" fill="#D0D2D3" d="M537.83,489.538c-0.01-0.031-0.033-0.055-0.072-0.062c0-0.01-0.014-0.023-0.025-0.023
			c-0.002,0-0.008,0-0.012,0c-0.018-0.01-0.035-0.02-0.057-0.021c-0.01-0.002-0.023-0.002-0.033,0.006
			c-0.008-0.008-0.016-0.012-0.023-0.012c-0.012-0.004-0.02,0.002-0.027,0.004c-0.016-0.01-0.035-0.021-0.059-0.021
			c-0.027,0-0.057,0.014-0.076,0.029c-0.004-0.002-0.014,0-0.018-0.006c-0.014,0.004-0.023,0.008-0.035,0.016
			c-0.002,0-0.006,0-0.006,0c-0.053-0.002-0.1,0.033-0.111,0.078c-0.012,0.002-0.027,0.012-0.033,0.025c0,0,0,0.004,0,0.006
			c-0.029,0.018-0.053,0.041-0.061,0.078c0,0.021,0.004,0.037,0.016,0.059c-0.021,0.014-0.033,0.035-0.033,0.059
			c-0.006,0.023,0,0.045,0.01,0.062c-0.008,0.01-0.008,0.025-0.008,0.037c-0.008,0.039,0.01,0.066,0.039,0.084l0,0
			c-0.008,0.055,0.027,0.098,0.08,0.102c0.021,0.02,0.041,0.041,0.07,0.064c-0.006,0.018-0.006,0.025-0.006,0.041
			c-0.02,0-0.039,0-0.055-0.002c-0.021,0.025-0.041,0.053-0.061,0.08c0,0,0,0,0.002-0.002c-0.176,0.057-0.24,0.066-0.27,0.084
			c-0.051,0.037-0.107,0.238-0.152,0.361c0.07,0.004,0.146,0.012,0.223,0.014c0.006-0.002,0.01-0.002,0.016-0.002
			c0.088,0.008,0.18,0.016,0.273,0.018c0.02,0.002,0.043,0.002,0.066,0.006c0.021,0,0.043,0.002,0.066,0.002
			c0.092,0.008,0.184,0.014,0.275,0.018c0.006,0,0.01,0,0.014,0c0.076,0.004,0.15,0.01,0.227,0.012
			c-0.012-0.129-0.008-0.332-0.049-0.373c-0.02-0.023-0.08-0.031-0.244-0.109c0,0,0,0,0.002,0c-0.008-0.029-0.021-0.061-0.035-0.09
			c-0.02,0.002-0.037,0-0.055,0c0-0.016,0.006-0.023,0.01-0.041c0.039-0.023,0.078-0.047,0.098-0.066
			c0.043-0.008,0.078-0.037,0.092-0.068c0.033-0.014,0.066-0.049,0.072-0.084c0.002-0.014-0.004-0.021-0.004-0.031
			c0.018-0.02,0.023-0.035,0.025-0.053c0.008-0.027-0.004-0.055-0.02-0.07c0.02-0.018,0.033-0.039,0.035-0.062
			c0.006-0.033-0.012-0.066-0.035-0.084c0-0.006,0.002-0.012,0.004-0.018c0-0.02-0.012-0.035-0.031-0.035
			C537.839,489.538,537.835,489.538,537.83,489.538z"/>
		<path id="XMLID_180_" fill="#A5CD39" d="M536.943,492.331c0.018,0,0.033,0.004,0.051,0.006c0-0.014,0-0.027,0.004-0.041
			c-0.043-0.035-0.08-0.08-0.096-0.104c-0.002-0.004-0.008-0.025-0.012-0.055c-0.016-0.018-0.021-0.045-0.025-0.07
			c-0.016-0.008-0.025-0.023-0.031-0.051c-0.006-0.033,0.008-0.066,0.025-0.072l0,0c0.012-0.066,0.033-0.135,0.049-0.172
			c0.02-0.053,0.061-0.09,0.119-0.096c0.145-0.082,0.346-0.068,0.428,0.057c0.043,0.064,0.037,0.16,0.018,0.248
			c0.018,0.012,0.018,0.041,0,0.072c-0.012,0.021-0.025,0.039-0.043,0.051l0,0c-0.012,0.016-0.023,0.037-0.037,0.049
			c-0.016,0.037-0.027,0.059-0.037,0.064c-0.018,0.021-0.066,0.061-0.123,0.09c-0.002,0.016-0.002,0.027-0.002,0.037
			c0.012,0.004,0.027,0.006,0.045,0.004c0.014,0.027,0.027,0.059,0.039,0.084c-0.006,0.006-0.006,0.006-0.006,0.006
			c0.156,0.068,0.213,0.076,0.234,0.098c0.035,0.049,0.035,0.238,0.045,0.361c-0.072-0.006-0.145-0.012-0.211-0.016
			c-0.006,0-0.008,0-0.01,0c-0.096-0.002-0.184-0.008-0.268-0.018c-0.02,0-0.045,0-0.062-0.002c-0.02,0-0.041-0.002-0.062-0.004
			c-0.092-0.004-0.18-0.01-0.27-0.014c-0.002,0-0.008,0-0.012,0c-0.066-0.006-0.139-0.01-0.205-0.018
			c0.043-0.115,0.096-0.311,0.143-0.344c0.025-0.02,0.086-0.023,0.256-0.076c0,0,0,0,0-0.002
			C536.902,492.381,536.923,492.358,536.943,492.331z"/>
		<path id="XMLID_179_" fill="#8CB8B7" d="M536.896,493.786c0.129,0.01,0.223,0.041,0.283,0.184c0.062,0.145,0.021,0.42-0.051,0.604
			c-0.068-0.023-0.135-0.041-0.201-0.057c0,0.012,0,0.021,0,0.027c0.236,0.119,0.309,0.096,0.334,0.127
			c0.043,0.041,0.033,0.277,0.045,0.404c-0.082-0.002-0.156-0.01-0.234-0.012c-0.008,0-0.018,0-0.021-0.004
			c-0.053,0-0.107-0.004-0.164-0.012c-0.033,0-0.061,0-0.092-0.002c-0.025,0-0.051-0.004-0.072-0.006
			c-0.025-0.002-0.049-0.002-0.066-0.002c-0.033,0-0.062-0.008-0.094-0.01c-0.053,0-0.107-0.002-0.16-0.004
			c-0.01,0-0.018,0-0.021-0.004c-0.08-0.006-0.158-0.01-0.24-0.018c0.047-0.123,0.107-0.354,0.16-0.391
			c0.035-0.025,0.105,0,0.369-0.086c0-0.006,0-0.014,0.004-0.025c-0.064,0.008-0.135,0.02-0.207,0.039
			c-0.02-0.104-0.033-0.357,0.115-0.584C536.646,493.846,536.761,493.776,536.896,493.786z"/>
		<path id="XMLID_178_" fill="#47A4AD" d="M534.638,488.194c0.355,0.02,0.719,0.041,1.084,0.061
			c0.039-0.291,0.084-0.584,0.127-0.881c-0.361-0.021-0.729-0.041-1.092-0.062C534.712,487.608,534.671,487.899,534.638,488.194z"/>
		<path id="XMLID_177_" fill="#80806F" d="M534.445,489.471c0.363,0.023,0.727,0.041,1.094,0.061
			c0.041-0.291,0.078-0.582,0.123-0.877c-0.363-0.018-0.729-0.037-1.086-0.062C534.533,488.887,534.486,489.18,534.445,489.471z"/>
		<path id="XMLID_176_" fill="#AABD91" d="M534.253,490.797c0.357,0.021,0.723,0.043,1.086,0.062
			c0.043-0.293,0.086-0.588,0.131-0.883c-0.361-0.018-0.729-0.037-1.09-0.061C534.337,490.213,534.291,490.506,534.253,490.797z"/>
		<path id="XMLID_175_" fill="#BBBDBF" d="M555.066,485.004c2.512,0.137,5.035,0.271,7.561,0.406c0.02-0.162,0.037-0.32,0.059-0.484
			c-2.525-0.135-5.045-0.264-7.557-0.4C555.105,484.684,555.087,484.848,555.066,485.004z"/>
		<path id="XMLID_174_" fill="#BBBDBF" d="M554.964,485.807c2.51,0.141,5.033,0.273,7.559,0.408
			c0.021-0.158,0.041-0.318,0.062-0.482c-2.529-0.135-5.049-0.27-7.559-0.406C555.003,485.487,554.984,485.649,554.964,485.807z"/>
		<path id="XMLID_173_" fill="#BBBDBF" d="M554.861,486.61c1.467,0.08,2.939,0.16,4.418,0.242c0.02-0.16,0.037-0.324,0.061-0.488
			c-1.477-0.076-2.949-0.156-4.416-0.234C554.896,486.29,554.88,486.448,554.861,486.61z"/>
		<path id="XMLID_172_" fill="#BBBDBF" d="M554.05,492.84c2.521,0.15,5.057,0.295,7.598,0.441c0.018-0.107,0.027-0.213,0.047-0.318
			c-2.545-0.148-5.078-0.295-7.604-0.441C554.08,492.627,554.066,492.735,554.05,492.84z"/>
		<path id="XMLID_171_" fill="#BBBDBF" d="M553.894,494.024c2.527,0.148,5.062,0.299,7.607,0.443
			c0.012-0.107,0.025-0.213,0.043-0.32c-2.543-0.146-5.08-0.297-7.605-0.445C553.921,493.813,553.908,493.918,553.894,494.024z"/>
		<path id="XMLID_170_" fill="#BBBDBF" d="M553.74,495.208c2.535,0.15,5.07,0.299,7.617,0.449c0.012-0.111,0.023-0.217,0.035-0.322
			c-2.545-0.152-5.076-0.299-7.605-0.453C553.767,494.991,553.755,495.098,553.74,495.208z"/>
		<path id="XMLID_169_" fill="#BBBDBF" d="M553.591,496.389c2.527,0.152,5.07,0.307,7.619,0.457c0.012-0.107,0.023-0.217,0.035-0.32
			c-2.549-0.154-5.086-0.307-7.615-0.457C553.619,496.172,553.603,496.284,553.591,496.389z"/>
		<path id="XMLID_168_" fill="#BBBDBF" d="M553.433,497.577c2.533,0.156,5.074,0.311,7.625,0.463
			c0.014-0.107,0.027-0.217,0.043-0.322c-2.551-0.154-5.088-0.309-7.627-0.465C553.458,497.36,553.447,497.469,553.433,497.577z"/>
		<path id="XMLID_167_" fill="#BBBDBF" d="M553.279,498.768c2.537,0.156,5.08,0.312,7.633,0.469
			c0.012-0.111,0.023-0.219,0.043-0.326c-2.553-0.152-5.098-0.309-7.633-0.467C553.306,498.553,553.292,498.659,553.279,498.768z"/>
		<path id="XMLID_166_" fill="#BBBDBF" d="M553.126,499.959c2.537,0.158,5.08,0.314,7.639,0.471
			c0.014-0.109,0.023-0.215,0.039-0.326c-2.559-0.156-5.102-0.312-7.637-0.469C553.154,499.741,553.142,499.852,553.126,499.959z"/>
		<path id="XMLID_165_" fill="#4EA291" d="M555.574,490.805c0.018,0.002,0.035,0.002,0.051,0.002c0-0.014,0-0.025,0.004-0.043
			c-0.045-0.031-0.088-0.08-0.094-0.1c-0.006-0.006-0.01-0.025-0.02-0.055c-0.012-0.021-0.02-0.045-0.025-0.072
			c-0.014-0.006-0.025-0.029-0.031-0.051c-0.014-0.033,0.008-0.068,0.027-0.074l0,0c0.004-0.068,0.023-0.131,0.043-0.176
			c0.02-0.051,0.059-0.088,0.121-0.094c0.145-0.082,0.35-0.068,0.438,0.057c0.037,0.066,0.037,0.162,0.02,0.25
			c0.02,0.012,0.02,0.041,0.004,0.074c-0.012,0.023-0.027,0.043-0.045,0.045l0,0c-0.014,0.023-0.021,0.041-0.039,0.059
			c-0.012,0.031-0.023,0.057-0.035,0.064c-0.021,0.02-0.068,0.059-0.123,0.09c-0.004,0.012-0.004,0.025-0.002,0.035
			c0.012,0.002,0.027,0.004,0.045,0.008c0.01,0.027,0.023,0.055,0.037,0.082l0,0c0.162,0.07,0.217,0.08,0.236,0.104
			c0.039,0.039,0.039,0.236,0.055,0.355c-0.072-0.002-0.146-0.006-0.217-0.012c-0.006,0-0.008,0-0.01-0.004
			c-0.094-0.002-0.184-0.006-0.271-0.012c-0.02-0.002-0.043-0.002-0.062-0.006c-0.021,0-0.043-0.004-0.062-0.004
			c-0.094-0.004-0.186-0.01-0.273-0.012c-0.004,0-0.008,0-0.012-0.002c-0.072-0.004-0.145-0.008-0.209-0.014
			c0.041-0.119,0.088-0.311,0.137-0.344c0.029-0.02,0.084-0.021,0.264-0.078l0,0C555.537,490.858,555.556,490.831,555.574,490.805z"
			/>
		<path id="XMLID_162_" fill="#FFFFFF" d="M562.328,481.737c-0.148-0.01-0.285,0.102-0.307,0.244
			c-0.02,0.141,0.096,0.268,0.244,0.273c0.156,0.008,0.287-0.104,0.309-0.246C562.587,481.864,562.482,481.745,562.328,481.737
			L562.328,481.737z M562.07,481.745L562.07,481.745c0.156-0.129,0.393-0.115,0.518,0.021c0.127,0.145,0.104,0.355-0.059,0.484
			c-0.162,0.123-0.393,0.109-0.523-0.029C561.88,482.081,561.91,481.864,562.07,481.745z"/>
		<path id="XMLID_161_" fill="#FFFFFF" d="M562.576,482.381c-0.027-0.023-0.053-0.051-0.074-0.08
			c0.016-0.006,0.033-0.016,0.047-0.027c0.018-0.016,0.035-0.029,0.051-0.047c0.021,0.029,0.049,0.051,0.072,0.076
			C562.64,482.331,562.607,482.358,562.576,482.381z"/>
		<path id="XMLID_160_" fill="#FFFFFF" d="M562.976,482.631c0.031,0.029,0.025,0.072-0.012,0.096
			c-0.031,0.027-0.076,0.023-0.104-0.004c-0.1-0.105-0.191-0.209-0.285-0.314c0.039-0.031,0.076-0.062,0.123-0.098
			C562.789,482.422,562.88,482.528,562.976,482.631z"/>
		<path id="XMLID_159_" fill="#FFFFFF" d="M562.246,482.208c0.031,0,0.057-0.002,0.084-0.01c0.012-0.004,0.02-0.018,0.018-0.031
			c-0.006-0.014-0.02-0.02-0.031-0.014c-0.021,0.002-0.041,0.01-0.062,0.004c-0.047-0.002-0.09-0.031-0.104-0.072
			c-0.006-0.014-0.021-0.018-0.031-0.016c-0.014,0.004-0.021,0.016-0.016,0.029C562.121,482.165,562.181,482.204,562.246,482.208z"
			/>
		<path id="XMLID_158_" fill="#CBE6D2" d="M534.066,492.067c0.359,0.023,0.723,0.043,1.086,0.064
			c0.043-0.293,0.086-0.588,0.133-0.883c-0.363-0.02-0.73-0.041-1.088-0.062C534.152,491.483,534.107,491.778,534.066,492.067z"/>
		<path id="XMLID_157_" fill="#BBBDBF" d="M530.566,487.682c1.229,0.072,2.463,0.141,3.701,0.209
			c0.016-0.105,0.031-0.215,0.051-0.318c-1.238-0.07-2.473-0.137-3.705-0.205C530.597,487.473,530.582,487.581,530.566,487.682z"/>
		<path id="XMLID_156_" fill="#BBBDBF" d="M530.363,489.014c1.234,0.07,2.475,0.141,3.715,0.207
			c0.018-0.104,0.031-0.209,0.045-0.316c-1.24-0.066-2.479-0.141-3.709-0.213C530.394,488.799,530.38,488.909,530.363,489.014z"/>
		<path id="XMLID_155_" fill="#BBBDBF" d="M530.169,490.34c1.23,0.074,2.469,0.146,3.709,0.215c0.014-0.105,0.029-0.211,0.047-0.316
			c-1.24-0.07-2.475-0.143-3.711-0.211C530.201,490.131,530.183,490.235,530.169,490.34z"/>
		<path id="XMLID_154_" fill="#BBBDBF" d="M529.964,491.696c1.238,0.076,2.473,0.146,3.719,0.215
			c0.016-0.105,0.029-0.211,0.051-0.316c-1.244-0.072-2.48-0.146-3.719-0.219C529.994,491.483,529.982,491.594,529.964,491.696z"/>
		<path id="XMLID_153_" fill="#D0D2D3" d="M534.175,483.612c-0.016-0.07-0.08-0.125-0.162-0.141
			c-0.006-0.025-0.029-0.047-0.062-0.053c-0.012-0.002-0.021-0.002-0.029,0.006c-0.033-0.031-0.08-0.055-0.135-0.059
			c-0.023,0-0.053,0.004-0.074,0.008c-0.012-0.012-0.033-0.021-0.055-0.021c-0.023-0.006-0.049,0.006-0.064,0.014
			c-0.033-0.027-0.08-0.045-0.133-0.045c-0.066-0.008-0.129,0.02-0.176,0.061c-0.01-0.006-0.02-0.008-0.033-0.008
			c-0.027,0-0.055,0.016-0.072,0.033c-0.012-0.002-0.02,0-0.027-0.002c-0.117-0.004-0.221,0.072-0.248,0.176
			c-0.031-0.002-0.07,0.021-0.074,0.061c0,0.002,0,0.008,0,0.012c-0.072,0.033-0.131,0.102-0.141,0.184
			c-0.01,0.045,0.002,0.086,0.025,0.123c-0.045,0.035-0.074,0.092-0.086,0.145c-0.008,0.047,0.006,0.098,0.033,0.139
			c-0.018,0.023-0.025,0.055-0.027,0.082c-0.018,0.088,0.025,0.164,0.098,0.205c0,0.002,0,0.002,0,0.002
			c-0.02,0.113,0.064,0.219,0.189,0.221c0.039,0.049,0.098,0.102,0.152,0.152c-0.01,0.029-0.014,0.061-0.018,0.09
			c-0.041,0.004-0.078,0-0.109-0.002c-0.053,0.061-0.1,0.123-0.146,0.184c0,0.002,0,0.002,0.006,0.002
			c-0.416,0.133-0.559,0.141-0.619,0.186c-0.119,0.086-0.25,0.547-0.354,0.832c0.166,0.01,0.336,0.02,0.502,0.027
			c0.01,0,0.018,0.004,0.031,0.004c0.211,0.014,0.428,0.023,0.643,0.033c0.047,0.004,0.1,0.006,0.15,0.006
			c0.051,0.006,0.102,0.012,0.154,0.014c0.211,0.012,0.43,0.02,0.643,0.031c0.006,0.002,0.016,0.006,0.027,0.006
			c0.174,0.012,0.338,0.018,0.514,0.027c-0.021-0.297-0.014-0.762-0.111-0.859c-0.049-0.055-0.184-0.072-0.551-0.25c0,0,0,0,0-0.004
			c-0.031-0.061-0.061-0.127-0.086-0.197c-0.043-0.002-0.08-0.004-0.119-0.006c0.006-0.031,0.008-0.062,0.02-0.092
			c0.088-0.051,0.172-0.111,0.23-0.16c0.092-0.01,0.18-0.076,0.205-0.156c0.084-0.029,0.148-0.104,0.162-0.191
			c0.002-0.025,0.002-0.047-0.004-0.072c0.035-0.031,0.059-0.078,0.064-0.129c0.008-0.061-0.012-0.115-0.049-0.158
			c0.045-0.033,0.072-0.084,0.08-0.137c0.014-0.082-0.025-0.16-0.088-0.197c0.006-0.01,0.014-0.021,0.014-0.039
			c0.01-0.043-0.025-0.078-0.072-0.084C534.187,483.61,534.181,483.61,534.175,483.612z"/>
		<path id="XMLID_152_" fill="#FDCF9D" d="M556.958,488.17c0.016-0.125,0.029-0.248,0.045-0.371
			c-0.123-0.074-0.248-0.158-0.369-0.234c0.131,0.008,0.266,0.012,0.396,0.018l0,0c0.016-0.109,0.096-0.193,0.184-0.186
			c0.969,0.053,1.938,0.107,2.904,0.154c0.09,0.006,0.15,0.104,0.133,0.207c-0.021,0.197-0.045,0.393-0.066,0.588
			c-0.02,0.107-0.104,0.191-0.189,0.188c-0.969-0.053-1.939-0.105-2.902-0.158C557.003,488.37,556.945,488.278,556.958,488.17z"/>
		<path id="XMLID_151_" fill="#FDCF9D" d="M556.75,489.766c0.025-0.195,0.051-0.395,0.076-0.588
			c0.016-0.111,0.096-0.195,0.188-0.188c0.965,0.053,1.934,0.105,2.904,0.16c0.086,0.004,0.146,0.102,0.133,0.207l0,0
			c0.098,0.016,0.197,0.035,0.293,0.057c-0.104,0.057-0.217,0.109-0.318,0.164c-0.016,0.123-0.031,0.246-0.049,0.371
			c-0.012,0.104-0.092,0.191-0.186,0.184c-0.969-0.053-1.939-0.105-2.904-0.162C556.796,489.965,556.736,489.874,556.75,489.766z"/>
		<path id="XMLID_150_" fill="#FDCF9D" d="M556.572,491.153c0.018-0.125,0.035-0.246,0.051-0.369
			c-0.113-0.096-0.221-0.193-0.324-0.291c0.113,0.025,0.236,0.047,0.35,0.072l0,0c0.018-0.111,0.098-0.195,0.188-0.189
			c0.967,0.053,1.939,0.109,2.904,0.164c0.092,0.002,0.154,0.098,0.139,0.205c-0.023,0.199-0.051,0.393-0.076,0.59
			c-0.012,0.109-0.094,0.195-0.184,0.188c-0.975-0.055-1.941-0.111-2.908-0.164C556.623,491.352,556.558,491.258,556.572,491.153z"
			/>
	</g>
	<path id="XMLID_148_" fill="#FFF2EE" d="M504.246,487.225c4.633-2.408,3.746,8.67,27.121,19.457
		c1.543,0.711,7.428-0.83,11.723-2.117c0.582-0.609,1.477-1.305,1.566-1.93c0.146-0.977,1.58-1.531,3.281-2.277
		s5.436-0.594,6.785,0.543c1.352,1.133,1.447,3.754,0.527,4.902c-0.572,0.713-2.99,1.441-4.74,1.887l-13.922,9.172
		c-3.84,2.529-26.389-12.131-29.871-13.436c-3.484-1.305-4.303-11.924-3.389-14.062
		C504.246,487.225,504.246,487.225,504.246,487.225z"/>
	<path id="XMLID_147_" fill="#806A50" d="M496.839,466.352c-0.168,0.482-0.256,1.025-0.242,1.645
		c0.082,3.463,1.451,6.426-1.547,9.686c-3,3.258-13.158,6.428-18.283,6.055c-1.578-0.115-2.994-1.822-4.194-4.129
		c-2.077-1.496-4.258-3.244-5.633-4.771c-1.375-1.523-2.529-10.514-0.35-11.938c0.561-0.365,0.957-0.59,1.065-0.857
		c5.828-14.438,36.919-6.002,37.791-10.178c0.006-0.043,0.426,0.994,0.566,2.559c0.605-0.65,1.115-1.256,1.176-1.471
		c0.145-0.51,0.291,1.631-0.482,4.658c-0.777,3.023-2.516,3.764-2.227,3.957c0.291,0.193,2.902-0.836,3.191-1.164
		c0.291-0.326-3.668,3.785-5.902,4.936C500.408,466.04,498.455,466.317,496.839,466.352z"/>
	<path id="XMLID_263_" fill="#79644B" d="M485.462,482.452c0,0-1.969-6.494-1.674-10.568c0.299-4.078,2.453-7.787,1.674-7.49
		c-0.785,0.297-4.494,7.578-4.494,7.578l1.633-8.912c0,0-2.652,4.293-4.814,8.824c-2.165,4.525-2.459,8.279-2.609,7.811
		c-0.148-0.467,0.594-15.004,0-14.111c-0.594,0.889-2.077,4.324-3.118,8.393c-1.039,4.068-0.444,5.809-0.739,4.938
		c-0.299-0.869-1.677-12.736-1.58-11.697c0.094,1.035-1.539,5.936-1.391,12.088c0.146,6.154,3.233,8.301,3.187,8.094
		c-0.048-0.209,14.094-0.506,14.094-0.506L485.462,482.452z"/>
	<path id="XMLID_129_" fill="#FFF2EE" d="M491.384,483.725c2.166,0,3.939-2.293,3.939-5.105s-1.773-5.109-3.939-5.109
		c-2.17,0-3.939,2.297-3.939,5.109S489.214,483.725,491.384,483.725z"/>
	<path id="XMLID_128_" fill="#FFF98F" d="M512.558,477.45l-60.624-3.477c-1.605,0.645-1.619,2.854-1.168,4.328
		c9.066,29.521,21.755,49.463,41.999,60.053c24.723,12.938,59.385,11.195,95.9-13.223
		C534.232,549.762,507.193,499.78,512.558,477.45z"/>
	<path id="XMLID_127_" fill="#FFEC5F" d="M512.558,477.45l-19.576-1.123c8.348,28.184,20.361,62.824,55.977,67.088
		c8.936-2.26,18.207-5.877,27.666-11c0.219-1,0.48-2.055,0.762-3.109C530.525,542.723,507.578,498.178,512.558,477.45z"/>
	<path id="XMLID_126_" fill="#FFEC5F" d="M481.537,475.67l-11.797-0.674c1.046,26.016,22.075,60.91,41.303,69.801
		c5.977,1.217,12.301,1.725,18.904,1.449C521.062,539.981,486.173,517.235,481.537,475.67z"/>
	<path id="XMLID_124_" fill="#F48567" d="M467.407,595.065L467.407,595.065c-1.084-1.764-0.481-4.068,1.355-5.105l119.045-67.061
		c1.836-1.035,4.217-0.457,5.301,1.305l0,0c1.088,1.762,0.48,4.07-1.355,5.104L472.71,596.37
		C470.874,597.407,468.492,596.829,467.407,595.065z"/>
	<path id="XMLID_123_" fill="#EF946C" d="M592.589,523.542c0.195,0.197,0.371,0.42,0.521,0.662l0,0
		c1.086,1.764,0.479,4.07-1.355,5.104L472.71,596.37c-0.976,0.549-2.101,0.645-3.106,0.352c-0.194-0.197-0.369-0.418-0.519-0.664
		l0,0c-1.087-1.762-0.481-4.066,1.356-5.104l119.042-67.062C590.46,523.344,591.585,523.249,592.589,523.542z"/>
	<path id="XMLID_121_" fill="#EF946C" d="M509.65,475.178c1.709-0.596,3.689,0.037,4.66,1.586l57.182,91.32
		c0.932,1.484,0.646,3.363-0.574,4.541c-1.709,0.594-3.689-0.037-4.662-1.588l-57.182-91.318
		C508.144,478.231,508.427,476.356,509.65,475.178z"/>
	<path id="XMLID_120_" fill="#ED7D56" d="M455.123,552.575l54.712,14.393l-1.08,3.811c-18.24-4.799-36.477-9.6-54.714-14.395
		C451.767,555.985,453.072,552.442,455.123,552.575z"/>
	<path id="XMLID_265_" fill="#79644B" d="M474.992,458.745c0.211-0.422,5.474-3.369,10.638-3.789s9.693,0.631,13.17,0
		c3.477-0.629,5.16-1.367,5.16-1.367s-2.738,2.104-6.32,2.578s-8.164,0.652-8.164,0.652s5.32-0.248,8.586,0
		c3.268,0.242,7.775-1.863,7.775-1.863s-0.332,2.527-4.422,3.789c-4.092,1.264-11.99,1.367-11.99,1.367s4.213,1.791,7.795,1.791
		s5.373-0.105,4.848,0c-0.529,0.104-4.58,1.684-9.084,1.789c-4.506,0.105-11.035-2.209-13.461-1.895
		c-2.424,0.316-4.424,2.215-4.529,1.898c-0.104-0.32,0.95-2.529,5.056-3.689c4.107-1.158,5.688-1.117,5.059-1.348
		c-0.633-0.23-3.205-0.125-6.5,0.504c-3.296,0.633-6.985,3.895-6.985,3.895L474.992,458.745z"/>
</g>
<g>
	<g>
		<g>
			<path fill="#FFA457" d="M626.115,581.151c0,0.002,0,0.002,0,0.002c0.443,1.367,1.912,2.117,3.279,1.674
				c1.369-0.445,2.117-1.914,1.674-3.281c0,0,0,0,0-0.002L626.115,581.151z"/>
		</g>
		<g>
			<path fill="#026838" d="M626.115,581.151c0,0.002,0,0.002,0,0.002c0.443,1.367,1.912,2.117,3.279,1.674
				c1.369-0.445,2.117-1.914,1.674-3.281c0,0,0,0,0-0.002L626.115,581.151z"/>
		</g>
		<g>
			<path fill="#EEFFD6" d="M626.207,581.122v0.004c0.428,1.316,1.842,2.037,3.16,1.609c1.314-0.43,2.039-1.842,1.607-3.16l0,0
				L626.207,581.122z"/>
		</g>
		<g>
			<polygon fill="#F8C26F" points="628.578,580.354 626.361,581.071 626.363,581.075 626.363,581.079 			"/>
			<path fill="#8AC440" d="M628.585,580.364l0.006-0.014l-0.008,0.01c-0.004,0-0.004-0.002-0.004-0.002l-2.051,1.109
				c0.27,0.498,0.713,0.881,1.246,1.082l0.812-2.188h-0.002V580.364z"/>
			<path fill="#8AC440" d="M628.603,580.356l-0.004-0.004L628.603,580.356c0,0.002-0.002,0.002-0.002,0.004l-0.006-0.008
				l-0.004-0.002l0,0l0,0l0,0l0,0l0.002,0.014c-0.002,0-0.002,0-0.004,0l-0.412,2.293c0.553,0.102,1.143-0.008,1.623-0.297
				l-1.197-1.994l1.535,1.746c0.428-0.375,0.703-0.891,0.779-1.451l-2.314-0.311C628.603,580.354,628.603,580.356,628.603,580.356z"
				/>
			<path fill="#8AC440" d="M628.603,580.344L628.603,580.344l-0.004,0.002h0.004c0,0,0,0.002,0,0.004l2.332-0.109
				c-0.014-0.209-0.049-0.416-0.113-0.615c0,0,0,0,0-0.002L628.603,580.344z"/>
		</g>
	</g>
	<g>
		<g>
			<path fill="#FFA457" d="M628.162,578.35v-0.004c-1.066-0.965-2.713-0.883-3.678,0.182c-0.967,1.064-0.887,2.711,0.18,3.676
				c0,0.004,0,0.004,0.002,0.004L628.162,578.35z"/>
		</g>
		<g>
			<path fill="#026838" d="M628.162,578.35v-0.004c-1.066-0.965-2.713-0.883-3.678,0.182c-0.967,1.064-0.887,2.711,0.18,3.676
				c0,0.004,0,0.004,0.002,0.004L628.162,578.35z"/>
		</g>
		<g>
			<path fill="#EEFFD6" d="M628.099,578.418h-0.002c-1.025-0.932-2.611-0.854-3.545,0.172c-0.93,1.027-0.85,2.613,0.176,3.543l0,0
				L628.099,578.418z"/>
		</g>
		<g>
			<polygon fill="#F8C26F" points="626.423,580.266 627.99,578.54 627.99,578.54 627.984,578.534 626.419,580.266 			"/>
			<path fill="#8AC440" d="M626.414,580.262v0.012l0.002-0.012h0.002l1.229-1.982c-0.48-0.297-1.055-0.41-1.617-0.316l0.381,2.299
				H626.414z"/>
			<path fill="#8AC440" d="M626.398,580.276h0.008l-0.008-0.002c0,0,0,0,0-0.002l0.01,0.002h0.002l0,0l0,0l0,0l0,0l-0.006-0.01
				l0.002-0.004l-0.783-2.191c-0.529,0.188-0.986,0.572-1.258,1.061l2.029,1.141l-2.201-0.752c-0.184,0.533-0.166,1.119,0.047,1.643
				l2.16-0.879C626.398,580.282,626.398,580.278,626.398,580.276z"/>
			<path fill="#8AC440" d="M626.404,580.286L626.404,580.286l0.002-0.004L626.404,580.286c0,0-0.004-0.002-0.004-0.004l-1.969,1.254
				c0.113,0.178,0.25,0.336,0.404,0.477c0,0.002,0,0.002,0,0.002L626.404,580.286z"/>
		</g>
	</g>
	<g>
		<g>
			<path fill="#FFA457" d="M632.093,579.94l0.002-0.002c1.176-0.826,1.459-2.451,0.631-3.631c-0.826-1.174-2.451-1.457-3.629-0.629
				l0,0L632.093,579.94z"/>
		</g>
		<g>
			<path fill="#026838" d="M632.093,579.94l0.002-0.002c1.176-0.826,1.459-2.451,0.631-3.631c-0.826-1.174-2.451-1.457-3.629-0.629
				l0,0L632.093,579.94z"/>
		</g>
		<g>
			<path fill="#EEFFD6" d="M632.039,579.86c0,0,0,0,0.002,0c1.131-0.797,1.402-2.361,0.607-3.496
				c-0.799-1.131-2.361-1.404-3.496-0.607c0,0.002,0,0.002,0,0.002L632.039,579.86z"/>
		</g>
		<g>
			<polygon fill="#F8C26F" points="630.601,577.821 631.945,579.729 631.947,579.725 631.951,579.723 630.603,577.821 			"/>
			<path fill="#8AC440" d="M630.611,577.813l-0.016-0.006l0.014,0.008c0,0,0,0-0.004,0.004l1.668,1.631
				c0.396-0.406,0.635-0.941,0.664-1.51l-2.326-0.133C630.611,577.809,630.611,577.811,630.611,577.813z"/>
			<path fill="#8AC440" d="M630.599,577.793l-0.002,0.008L630.599,577.793c0.002,0,0.002,0.004,0.004,0.004l-0.006,0.006v0.002
				h0.002h-0.002l0,0h0.002l0.01-0.004c0,0.002,0,0.002,0.002,0.004l2.314-0.283c-0.066-0.557-0.346-1.088-0.762-1.459l-1.559,1.729
				l1.217-1.98c-0.48-0.297-1.057-0.41-1.615-0.316l0.387,2.301C630.593,577.793,630.597,577.793,630.599,577.793z"/>
			<path fill="#8AC440" d="M630.587,577.799v-0.002l0.004,0.004l-0.002-0.004c0,0,0,0,0.002,0l-0.791-2.193
				c-0.197,0.068-0.385,0.168-0.555,0.287l0,0L630.587,577.799z"/>
		</g>
	</g>
	<g>
		
			<rect x="621.999" y="565.803" transform="matrix(0.979 -0.204 0.204 0.979 -104.1819 138.9833)" fill="#F4911E" width="0.383" height="18.26"/>
		
			<rect x="622.028" y="565.815" transform="matrix(0.9793 -0.2023 0.2023 0.9793 -103.4274 137.7082)" opacity="0.05" enable-background="new    " width="0.183" height="18.261"/>
		<polygon fill="#F4911E" points="617.14,565.715 617.154,566.096 620.126,566.075 620.134,565.694 		"/>
		<polygon opacity="0.05" enable-background="new    " points="617.14,565.893 617.154,566.096 620.126,566.075 620.134,565.874 		
			"/>
		<path fill="#F4911E" d="M620.126,565.694c0.207,0,0.377,0.145,0.377,0.354l-0.377,0.023V565.694z"/>
		<g>
			<path fill="#A66414" d="M620.509,566.034c0,0-0.086,0.117-0.182,0.119c-0.094,0.018-0.201-0.08-0.201-0.08
				s0.086-0.117,0.182-0.119C620.402,565.938,620.509,566.034,620.509,566.034z"/>
		</g>
		<g>
			<path fill="#A66414" d="M620.49,565.95c0,0-0.059,0.133-0.15,0.156c-0.088,0.037-0.213-0.033-0.213-0.033s0.057-0.133,0.15-0.156
				C620.365,565.879,620.49,565.95,620.49,565.95z"/>
		</g>
		<g>
			<path fill="#A66414" d="M620.437,565.842c0,0-0.014,0.145-0.096,0.195c-0.072,0.062-0.215,0.035-0.215,0.035
				s0.014-0.145,0.096-0.195C620.294,565.813,620.437,565.842,620.437,565.842z"/>
		</g>
		<g>
			<path fill="#A66414" d="M620.365,565.77c0,0,0.023,0.143-0.041,0.213c-0.055,0.08-0.197,0.09-0.197,0.09
				s-0.025-0.143,0.041-0.213C620.22,565.78,620.365,565.77,620.365,565.77z"/>
		</g>
		<g>
			<path fill="#A66414" d="M620.253,565.715c0,0,0.07,0.125,0.031,0.211c-0.025,0.092-0.158,0.146-0.158,0.146
				s-0.068-0.125-0.029-0.211C620.121,565.768,620.253,565.715,620.253,565.715z"/>
		</g>
		<g>
			<path fill="#A66414" d="M620.126,565.694c0,0,0.107,0.094,0.1,0.188c0.01,0.096-0.1,0.189-0.1,0.189s-0.107-0.094-0.1-0.189
				C620.019,565.788,620.126,565.694,620.126,565.694z"/>
		</g>
	</g>
	<g>
		
			<rect x="622.625" y="565.26" transform="matrix(0.9848 -0.1735 0.1735 0.9848 -90.2083 116.7658)" fill="#D76111" width="0.383" height="18.259"/>
		
			<rect x="622.64" y="565.237" transform="matrix(0.9852 -0.1713 0.1713 0.9852 -89.2034 115.1934)" opacity="0.05" enable-background="new    " width="0.182" height="18.258"/>
		<polygon fill="#D76111" points="618.039,564.956 618.039,565.336 621.009,565.415 621.031,565.034 		"/>
		<polygon opacity="0.05" enable-background="new    " points="618.031,565.133 618.039,565.336 621.009,565.415 621.025,565.211 		
			"/>
		<path fill="#D76111" d="M621.021,565.034c0.213,0.006,0.375,0.156,0.367,0.365l-0.379,0.014L621.021,565.034z"/>
		<g>
			<path fill="#AE4704" d="M621.392,565.385c0,0-0.088,0.113-0.186,0.113c-0.094,0.014-0.197-0.086-0.197-0.086
				s0.088-0.115,0.186-0.113C621.289,565.286,621.392,565.385,621.392,565.385z"/>
		</g>
		<g>
			<path fill="#AE4704" d="M621.376,565.301c0,0-0.061,0.131-0.154,0.15c-0.09,0.035-0.213-0.039-0.213-0.039
				s0.061-0.131,0.154-0.15C621.253,565.225,621.376,565.301,621.376,565.301z"/>
		</g>
		<g>
			<path fill="#AE4704" d="M621.326,565.19c0,0-0.018,0.145-0.102,0.191c-0.074,0.062-0.217,0.029-0.217,0.029
				s0.02-0.145,0.104-0.191C621.185,565.159,621.326,565.19,621.326,565.19z"/>
		</g>
		<g>
			<path fill="#AE4704" d="M621.259,565.116c0,0,0.02,0.145-0.049,0.213c-0.057,0.078-0.201,0.084-0.201,0.084
				s-0.02-0.145,0.049-0.213C621.115,565.122,621.259,565.116,621.259,565.116z"/>
		</g>
		<g>
			<path fill="#AE4704" d="M621.146,565.055c0,0,0.066,0.129,0.023,0.215c-0.027,0.094-0.162,0.143-0.162,0.143
				s-0.064-0.127-0.021-0.213C621.013,565.106,621.146,565.055,621.146,565.055z"/>
		</g>
		<g>
			<path fill="#AE4704" d="M621.021,565.034c0,0,0.104,0.098,0.094,0.191c0.006,0.096-0.105,0.188-0.105,0.188
				s-0.104-0.098-0.094-0.193C620.91,565.125,621.021,565.034,621.021,565.034z"/>
		</g>
	</g>
	<polygon opacity="0.7" fill="#43FFF1" enable-background="new    " points="621.429,573.637 622.857,585.999 632.798,585.999 
		634.224,573.637 	"/>
	
		<polygon opacity="0.8" fill="none" stroke="#F3F0EB" stroke-width="1.0435" stroke-miterlimit="10" enable-background="new    " points="
		632.798,585.999 622.857,585.999 621.187,571.551 634.468,571.551 	"/>
	<polygon opacity="0.1" fill="#FFFFFF" enable-background="new    " points="632.798,585.999 622.857,585.999 621.187,571.551 
		634.468,571.551 	"/>
	<polygon opacity="0.8" fill="#F3F0EB" enable-background="new    " points="622.599,583.772 622.857,585.999 632.798,585.999 
		633.054,583.772 	"/>
	<g opacity="0.5">
		<path fill="#FFFFFF" d="M631.623,576.321l-0.582,1.053c-0.01,0.02-0.021,0.033-0.035,0.049l-1.107-0.611
			c-0.133-0.07-0.184-0.232-0.115-0.354l0.582-1.053c0.014-0.027,0.035-0.053,0.059-0.07l1.072,0.592
			C631.642,576.006,631.699,576.184,631.623,576.321z"/>
		<path fill="#FFFFFF" d="M630.263,575.342c-0.01,0.014-0.018,0.025-0.023,0.037l-0.582,1.053c-0.031,0.057-0.041,0.115-0.033,0.174
			c-0.115,0.002-0.23,0.004-0.344,0.002c-0.002-0.049,0.008-0.1,0.029-0.145l0.582-1.053c0.076-0.137,0.258-0.184,0.404-0.105
			c-0.012,0.012-0.02,0.021-0.029,0.031C630.267,575.338,630.265,575.342,630.263,575.342z"/>
		<path fill="#FFFFFF" d="M629.646,576.735c0.031,0.057,0.08,0.109,0.143,0.145l1.09,0.605c-0.09,0.059-0.213,0.068-0.32,0.01
			l-1.127-0.623c-0.059-0.031-0.102-0.08-0.131-0.133C629.416,576.739,629.533,576.737,629.646,576.735z"/>
	</g>
	<g opacity="0.5">
		<path fill="#FFFFFF" d="M628.558,576.297l-0.58,1.053c-0.014,0.02-0.023,0.035-0.039,0.051l-1.107-0.613
			c-0.129-0.072-0.182-0.23-0.113-0.355l0.582-1.053c0.016-0.025,0.037-0.049,0.061-0.068l1.068,0.594
			C628.576,575.983,628.632,576.161,628.558,576.297z"/>
		<path fill="#FFFFFF" d="M627.197,575.321c-0.01,0.01-0.018,0.021-0.025,0.035l-0.58,1.051c-0.029,0.057-0.041,0.115-0.035,0.174
			c-0.111,0.004-0.227,0.004-0.344,0.004c-0.002-0.049,0.008-0.1,0.031-0.145l0.582-1.053c0.078-0.139,0.258-0.184,0.402-0.102
			c-0.01,0.01-0.018,0.018-0.027,0.029C627.201,575.317,627.199,575.319,627.197,575.321z"/>
		<path fill="#FFFFFF" d="M626.582,576.709c0.031,0.062,0.078,0.113,0.145,0.148l1.088,0.602c-0.09,0.062-0.215,0.072-0.322,0.012
			l-1.123-0.621c-0.062-0.033-0.105-0.078-0.131-0.135C626.353,576.715,626.468,576.713,626.582,576.709z"/>
	</g>
	<g opacity="0.5">
		<path fill="#FFFFFF" d="M625.861,576.469l-0.582,1.055c-0.012,0.016-0.021,0.033-0.037,0.047l-1.107-0.611
			c-0.131-0.072-0.182-0.23-0.115-0.355l0.582-1.053c0.018-0.027,0.035-0.049,0.061-0.068l1.072,0.592
			C625.878,576.155,625.937,576.333,625.861,576.469z"/>
		<path fill="#FFFFFF" d="M624.5,575.493c-0.01,0.012-0.016,0.02-0.023,0.035l-0.582,1.053c-0.029,0.053-0.041,0.113-0.035,0.17
			c-0.113,0.006-0.229,0.008-0.342,0.006c-0.002-0.051,0.008-0.102,0.031-0.145l0.582-1.053c0.076-0.137,0.254-0.184,0.4-0.104
			c-0.01,0.01-0.02,0.02-0.025,0.027C624.503,575.487,624.5,575.489,624.5,575.493z"/>
		<path fill="#FFFFFF" d="M623.884,576.881c0.029,0.061,0.078,0.113,0.143,0.148l1.092,0.604c-0.09,0.061-0.217,0.07-0.322,0.01
			l-1.127-0.621c-0.057-0.035-0.102-0.082-0.129-0.137C623.654,576.885,623.769,576.885,623.884,576.881z"/>
	</g>
	<g opacity="0.5">
		<path fill="#FFFFFF" d="M632.214,572.977l1.037,1.039c0.018,0.018,0.031,0.037,0.045,0.059l-1.096,1.094
			c-0.129,0.127-0.334,0.135-0.455,0.014l-1.037-1.041c-0.025-0.025-0.047-0.059-0.062-0.094l1.061-1.053
			C631.851,572.846,632.08,572.838,632.214,572.977z"/>
		<path fill="#FFFFFF" d="M630.605,574.241c0.01,0.014,0.02,0.025,0.033,0.041l1.035,1.037c0.055,0.055,0.121,0.086,0.193,0.102
			c-0.037,0.135-0.074,0.27-0.113,0.402c-0.061-0.014-0.115-0.043-0.16-0.086l-1.037-1.043c-0.135-0.135-0.127-0.359,0.018-0.504
			c0.008,0.014,0.016,0.027,0.025,0.043C630.601,574.235,630.603,574.237,630.605,574.241z"/>
		<path fill="#FFFFFF" d="M632.027,575.434c0.08-0.016,0.156-0.055,0.221-0.117l1.078-1.07c0.041,0.121,0.01,0.273-0.098,0.379
			l-1.113,1.109c-0.059,0.059-0.127,0.092-0.199,0.105C631.955,575.706,631.992,575.569,632.027,575.434z"/>
	</g>
	<g opacity="0.7">
		<path fill="#FFFFFF" d="M624.666,574.997l-0.061-1.467c-0.002-0.027,0.004-0.053,0.008-0.076l1.543-0.064
			c0.182-0.008,0.338,0.127,0.346,0.299l0.061,1.469c0.004,0.039-0.006,0.076-0.018,0.109l-1.494,0.062
			C624.849,575.336,624.675,575.19,624.666,574.997z"/>
		<path fill="#FFFFFF" d="M626.707,575.153c0.002-0.02,0.002-0.033,0.002-0.053l-0.061-1.469c-0.006-0.074-0.031-0.145-0.074-0.201
			c0.117-0.074,0.234-0.148,0.355-0.223c0.033,0.051,0.059,0.109,0.061,0.174l0.061,1.469c0.01,0.189-0.148,0.352-0.354,0.359
			c0.004-0.016,0.006-0.031,0.01-0.047C626.707,575.161,626.707,575.155,626.707,575.153z"/>
		<path fill="#FFFFFF" d="M626.468,573.313c-0.068-0.045-0.152-0.068-0.242-0.064l-1.52,0.064c0.053-0.123,0.176-0.213,0.326-0.217
			l1.568-0.064c0.082-0.006,0.158,0.016,0.223,0.057C626.703,573.161,626.583,573.235,626.468,573.313z"/>
	</g>
	<g opacity="0.5">
		<path fill="#FFFFFF" d="M628.505,572.897l1.305,0.627c0.025,0.01,0.043,0.023,0.062,0.041l-0.658,1.371
			c-0.078,0.164-0.266,0.236-0.42,0.164l-1.305-0.627c-0.033-0.018-0.062-0.041-0.088-0.066l0.639-1.33
			C628.128,572.897,628.335,572.815,628.505,572.897z"/>
		<path fill="#FFFFFF" d="M627.427,574.6c0.016,0.012,0.029,0.018,0.043,0.027l1.305,0.625c0.066,0.033,0.141,0.041,0.209,0.031
			c0.014,0.137,0.021,0.27,0.029,0.41c-0.061,0.008-0.121-0.002-0.178-0.029l-1.305-0.627c-0.172-0.078-0.236-0.293-0.15-0.475
			c0.014,0.012,0.025,0.02,0.039,0.029C627.421,574.596,627.425,574.598,627.427,574.6z"/>
		<path fill="#FFFFFF" d="M629.138,575.243c0.068-0.041,0.129-0.102,0.168-0.182l0.648-1.35c0.08,0.104,0.1,0.252,0.037,0.383
			l-0.672,1.396c-0.035,0.074-0.092,0.127-0.152,0.166C629.16,575.518,629.15,575.381,629.138,575.243z"/>
	</g>
	<g opacity="0.7">
		<path fill="#FFFFFF" d="M624.113,573.426l0.311,1.354c0.004,0.023,0.008,0.047,0.008,0.072l-1.426,0.322
			c-0.168,0.039-0.336-0.057-0.369-0.215l-0.311-1.354c-0.008-0.037-0.008-0.072-0.002-0.105l1.377-0.314
			C623.888,573.141,624.076,573.25,624.113,573.426z"/>
		<path fill="#FFFFFF" d="M622.191,573.631c0.002,0.02,0.004,0.031,0.008,0.049l0.309,1.354c0.016,0.07,0.053,0.131,0.105,0.176
			c-0.098,0.092-0.195,0.18-0.293,0.268c-0.041-0.041-0.072-0.092-0.084-0.148l-0.312-1.354c-0.041-0.176,0.08-0.354,0.268-0.396
			c0,0.016,0,0.029,0,0.047C622.191,573.627,622.191,573.629,622.191,573.631z"/>
		<path fill="#FFFFFF" d="M622.732,575.303c0.07,0.025,0.152,0.033,0.234,0.018l1.4-0.322c-0.029,0.121-0.129,0.225-0.268,0.256
			l-1.447,0.332c-0.076,0.018-0.15,0.01-0.215-0.014C622.537,575.483,622.636,575.393,622.732,575.303z"/>
	</g>
	<g>
		<circle opacity="0.5" fill="#F1F2D5" enable-background="new    " cx="631.265" cy="583.852" r="0.115"/>
		<circle opacity="0.5" fill="#F1F2D5" enable-background="new    " cx="627.916" cy="584.733" r="0.115"/>
		<circle opacity="0.5" fill="#F1F2D5" enable-background="new    " cx="625.931" cy="585.102" r="0.055"/>
		<circle opacity="0.5" fill="#F1F2D5" enable-background="new    " cx="628.443" cy="583.375" r="0.054"/>
		<circle opacity="0.5" fill="#F1F2D5" enable-background="new    " cx="630.929" cy="585.102" r="0.055"/>
		<circle opacity="0.5" fill="#F1F2D5" enable-background="new    " cx="627.039" cy="583.266" r="0.055"/>
		<path opacity="0.5" fill="#F1F2D5" enable-background="new    " d="M628.107,580.606c0,0.062,0.053,0.113,0.113,0.113
			c0.066,0,0.119-0.051,0.119-0.113s-0.053-0.115-0.119-0.115C628.16,580.491,628.107,580.543,628.107,580.606z"/>
		<circle opacity="0.5" fill="#F1F2D5" enable-background="new    " cx="624.873" cy="581.487" r="0.115"/>
		<circle opacity="0.5" fill="#F1F2D5" enable-background="new    " cx="626.503" cy="583.25" r="0.088"/>
		<circle opacity="0.5" fill="#F1F2D5" enable-background="new    " cx="625.91" cy="582.196" r="0.055"/>
		<circle opacity="0.5" fill="#F1F2D5" enable-background="new    " cx="622.89" cy="581.857" r="0.054"/>
		<circle opacity="0.5" fill="#F1F2D5" enable-background="new    " cx="624.289" cy="583.111" r="0.054"/>
		<circle opacity="0.5" fill="#F1F2D5" enable-background="new    " cx="625.347" cy="583.744" r="0.054"/>
		<circle opacity="0.5" fill="#F1F2D5" enable-background="new    " cx="625.4" cy="580.13" r="0.054"/>
		<circle opacity="0.5" fill="#F1F2D5" enable-background="new    " cx="627.886" cy="581.857" r="0.054"/>
		<circle opacity="0.5" fill="#F1F2D5" enable-background="new    " cx="623.998" cy="580.021" r="0.054"/>
		<circle opacity="0.5" fill="#F1F2D5" enable-background="new    " cx="631.587" cy="578.799" r="0.117"/>
		<path opacity="0.5" fill="#F1F2D5" enable-background="new    " d="M628.121,579.68c0,0.062,0.051,0.113,0.115,0.113
			c0.062,0,0.115-0.051,0.115-0.113c0-0.064-0.053-0.113-0.115-0.113C628.171,579.565,628.121,579.616,628.121,579.68z"/>
		<circle opacity="0.5" fill="#F1F2D5" enable-background="new    " cx="629.867" cy="581.444" r="0.088"/>
		<circle opacity="0.5" fill="#F1F2D5" enable-background="new    " cx="629.273" cy="580.39" r="0.054"/>
		<circle opacity="0.5" fill="#F1F2D5" enable-background="new    " cx="626.253" cy="580.051" r="0.055"/>
		<circle opacity="0.5" fill="#F1F2D5" enable-background="new    " cx="627.652" cy="581.305" r="0.055"/>
		<circle opacity="0.5" fill="#F1F2D5" enable-background="new    " cx="628.708" cy="581.937" r="0.054"/>
		<circle opacity="0.5" fill="#F1F2D5" enable-background="new    " cx="628.763" cy="578.32" r="0.054"/>
		<circle opacity="0.5" fill="#F1F2D5" enable-background="new    " cx="631.251" cy="580.051" r="0.055"/>
		<circle opacity="0.5" fill="#F1F2D5" enable-background="new    " cx="627.361" cy="578.215" r="0.055"/>
		<circle opacity="0.5" fill="#F1F2D5" enable-background="new    " cx="632.921" cy="574.333" r="0.116"/>
		<circle opacity="0.5" fill="#F1F2D5" enable-background="new    " cx="629.574" cy="575.216" r="0.116"/>
		<circle opacity="0.5" fill="#F1F2D5" enable-background="new    " cx="631.203" cy="576.979" r="0.086"/>
		<circle opacity="0.5" fill="#F1F2D5" enable-background="new    " cx="630.609" cy="575.925" r="0.054"/>
		<circle opacity="0.5" fill="#F1F2D5" enable-background="new    " cx="627.591" cy="575.583" r="0.054"/>
		<circle opacity="0.5" fill="#F1F2D5" enable-background="new    " cx="628.988" cy="576.84" r="0.055"/>
		<circle opacity="0.5" fill="#F1F2D5" enable-background="new    " cx="630.046" cy="577.472" r="0.056"/>
		<circle opacity="0.5" fill="#F1F2D5" enable-background="new    " cx="630.099" cy="573.858" r="0.055"/>
		<circle opacity="0.5" fill="#F1F2D5" enable-background="new    " cx="632.587" cy="575.583" r="0.054"/>
		<circle opacity="0.5" fill="#F1F2D5" enable-background="new    " cx="628.697" cy="573.75" r="0.054"/>
		<circle opacity="0.5" fill="#F1F2D5" enable-background="new    " cx="626.869" cy="574.705" r="0.116"/>
		<circle opacity="0.5" fill="#F1F2D5" enable-background="new    " cx="623.519" cy="575.583" r="0.115"/>
		<path opacity="0.5" fill="#F1F2D5" enable-background="new    " d="M625.062,577.346c0,0.053,0.037,0.088,0.086,0.088
			s0.088-0.035,0.088-0.088c0-0.047-0.039-0.084-0.088-0.084C625.101,577.262,625.062,577.299,625.062,577.346z"/>
		<circle opacity="0.5" fill="#F1F2D5" enable-background="new    " cx="624.554" cy="576.292" r="0.055"/>
		<circle opacity="0.5" fill="#F1F2D5" enable-background="new    " cx="622.931" cy="577.208" r="0.054"/>
		<circle opacity="0.5" fill="#F1F2D5" enable-background="new    " cx="623.992" cy="577.84" r="0.055"/>
		<circle opacity="0.5" fill="#F1F2D5" enable-background="new    " cx="624.046" cy="574.226" r="0.056"/>
		<circle opacity="0.5" fill="#F1F2D5" enable-background="new    " cx="626.533" cy="575.953" r="0.054"/>
		<circle opacity="0.5" fill="#F1F2D5" enable-background="new    " cx="622.644" cy="574.117" r="0.054"/>
	</g>
</g>
<g id="stars">
	<path opacity="0.1" fill="#5D5D5D" enable-background="new    " d="M426.135,525.346l7.812-3.209c0,0,1.753-1.459,3.977-1.459
		c2.225,0,4.717,1.057,4.717,1.057s10.515,1.213,9.502,2.629c-1.011,1.414-7.683,0.604-7.683,0.604s6.065,4.65,5.863,5.662
		c-0.202,1.01-8.491-3.438-10.918-2.426c-2.426,1.01-13.343,10.107-6.873-1.213C432.533,526.991,423.304,527.975,426.135,525.346z"
		/>
	<path opacity="0.1" fill="#5D5D5D" enable-background="new    " d="M424.358,533.5l-5.796-2.381c0,0-1.301-1.082-2.949-1.082
		c-1.65,0-3.5,0.783-3.5,0.783s-7.799,0.9-7.049,1.949c0.75,1.051,5.698,0.451,5.698,0.451s-4.5,3.449-4.35,4.199
		c0.149,0.75,6.3-2.551,8.099-1.801c1.801,0.75,9.899,7.5,5.101-0.898C419.612,534.721,426.458,535.45,424.358,533.5z"/>
	<g>
		<path fill="#EAC3CB" d="M424.646,523.563l7.812-3.209c0,0,1.752-1.463,3.977-1.463s4.717,1.059,4.717,1.059
			s10.514,1.213,9.503,2.627c-1.013,1.416-7.684,0.605-7.684,0.605s6.064,4.65,5.862,5.662s-8.491-3.438-10.917-2.428
			c-2.426,1.012-13.344,10.109-6.874-1.213C431.042,525.204,421.815,526.19,424.646,523.563z"/>
		<path fill="#BEA6B4" d="M422.869,531.715l-5.796-2.381c0,0-1.3-1.082-2.95-1.082s-3.499,0.783-3.499,0.783s-7.8,0.9-7.05,1.949
			c0.75,1.051,5.7,0.451,5.7,0.451s-4.5,3.449-4.351,4.199s6.298-2.551,8.1-1.801c1.8,0.75,9.897,7.5,5.1-0.898
			C418.123,532.938,424.968,533.665,422.869,531.715z"/>
		<path opacity="0.5" fill="#BEA6B4" enable-background="new    " d="M386.74,513.479l-4.72-1.939c0,0-1.06-0.881-2.402-0.881
			c-1.344,0-2.85,0.637-2.85,0.637s-6.352,0.732-5.741,1.588c0.611,0.855,4.643,0.367,4.643,0.367s-3.665,2.809-3.543,3.42
			c0.123,0.611,5.13-2.076,6.596-1.467c1.465,0.611,8.062,6.105,4.152-0.732C382.875,514.469,388.45,515.065,386.74,513.479z"/>
	</g>
</g>
<g id="shelles">
	<path id="XMLID_72_" fill="#FFFFFF" d="M609.812,523.008c-1.369-0.584-5.623-1.314-7.295-0.145s-0.912,3.219,0.455,3.363
		c1.369,0.146,5.32,2.193,7.6,0.73C612.851,525.497,609.812,523.008,609.812,523.008z"/>
	<path id="XMLID_41_" fill="#FFFFFF" d="M362.638,580.696c-1.367-0.584-5.621-1.314-7.293-0.146
		c-1.672,1.17-0.912,3.217,0.455,3.363c1.369,0.146,5.318,2.195,7.6,0.732C365.679,583.184,362.638,580.696,362.638,580.696z"/>
	<path id="XMLID_40_" fill="#FFFFFF" d="M635.962,537.042c-1.367-0.586-5.621-1.316-7.293-0.145
		c-1.672,1.17-0.912,3.219,0.455,3.363c1.367,0.146,5.318,2.193,7.598,0.73S635.962,537.042,635.962,537.042z"/>
</g>
<g id="birds">
	<path fill="#617B8E" d="M608.714,243.822c3.744,0.447,7.645-0.831,11.258,0.241c1.477,0.436,2.812,1.241,4.125,2.039
		c2,1.21,4,2.424,5.998,3.634c1.477-1.65,2.859-3.435,4.414-5.01c0.467-0.471,0.955-0.953,1.58-1.173
		c0.488-0.174,11.518-0.093,11.518-0.093l-7.621,2.63c0,0-7.518,3.472-11.119,5.515c-0.705-0.531-1.25-0.923-1.98-1.416
		C621.794,246.749,614.816,244.553,608.714,243.822z"/>
	<path fill="#617B8E" d="M605.826,213.505c-2.426-0.797-4.932-1.604-7.477-1.412c-2.074,0.157-4.51,0.708-6.08,2.071
		c-1.16-1.13-2.395-2.301-3.957-2.722c-0.896-0.243-1.842-0.219-2.768-0.17c-2.371,0.125-4.736,0.412-7.068,0.852
		c1.791,0.57,3.582,1.139,5.373,1.708c3.508,1.115,6.92,2.61,9.938,4.713c1.092-0.114,2.166-0.152,3.256-0.267
		c-0.346-0.759-0.807-1.465-1.361-2.089c3.873-1.138,7.85-1.595,11.877-1.356c0.457,0.028,0.959,0.085,1.266,0.427
		C607.933,214.41,606.994,213.887,605.826,213.505z"/>
	<path display="none" fill="#0792A0" d="M501.32,48.052c-1.855-0.61-3.771-1.227-5.721-1.081c-1.588,0.12-3.451,0.541-4.652,1.585
		c-0.891-0.864-1.832-1.76-3.027-2.083c-0.686-0.184-1.408-0.167-2.117-0.128c-1.814,0.095-3.623,0.313-5.408,0.65
		c1.371,0.437,2.742,0.873,4.111,1.308c2.682,0.853,5.295,1.997,7.604,3.607c0.834-0.088,1.656-0.118,2.49-0.205
		c-0.266-0.582-0.615-1.123-1.043-1.599c2.965-0.871,6.008-1.219,9.09-1.039c0.35,0.021,0.734,0.067,0.967,0.327
		C502.931,48.744,502.214,48.346,501.32,48.052z"/>
	<path display="none" fill="#617B8E" d="M783.964,164.171c4.428,0.529,9.041-0.981,13.318,0.284c1.744,0.516,3.32,1.47,4.879,2.413
		c2.365,1.433,4.729,2.866,7.094,4.299c1.746-1.952,3.381-4.063,5.225-5.926c0.549-0.558,1.129-1.127,1.867-1.39
		c0.578-0.204,13.623-0.108,13.623-0.108l-9.014,3.112c0,0-8.895,4.107-13.154,6.523c-0.832-0.628-1.479-1.089-2.342-1.675
		C799.437,167.633,791.181,165.035,783.964,164.171z"/>
	<path display="none" fill="#0792A0" d="M493.738,76.081c0.215,0.144-0.273,0.263-0.443,0.068c-0.928-1.067-1.529-2.369-2.289-3.562
		c-2.719-4.271-6.473-7.002-9.1-11.332c5.184,1.801,9.529,5.866,11.678,10.913c0.906-2.752,2.246-5.425,3.912-7.795
		c0.773-1.102,1.77-2.237,3.113-2.38c1.934-0.207,3.029-0.784,4.875-1.402c-2.742,3.077-5.828,6.291-9.066,8.841
		C495.476,72.099,495.146,73.626,493.738,76.081z"/>
	<path fill="#8B99A0" d="M123.209,121.221c4.014,0.481,8.191-0.888,12.068,0.259c1.58,0.468,3.01,1.331,4.419,2.186
		c2.143,1.298,4.286,2.597,6.428,3.895c1.582-1.768,3.063-3.683,4.73-5.369c0.499-0.504,1.025-1.021,1.695-1.26
		c0.521-0.185,12.341-0.098,12.341-0.098l-8.169,2.82c0,0-8.057,3.72-11.916,5.911c-0.755-0.571-1.339-0.99-2.123-1.519
		C137.23,124.359,129.749,122.005,123.209,121.221z"/>
	<path fill="#9CA9AF" d="M160.452,152.063c0.189,0.125-0.24,0.23-0.389,0.06c-0.813-0.937-1.344-2.082-2.01-3.127
		c-2.385-3.75-5.682-6.147-7.987-9.947c4.548,1.58,8.365,5.149,10.249,9.58c0.797-2.416,1.973-4.764,3.435-6.843
		c0.681-0.969,1.555-1.964,2.733-2.091c1.698-0.183,2.659-0.688,4.279-1.229c-2.409,2.7-5.113,5.521-7.957,7.761
		C161.978,148.568,161.687,149.909,160.452,152.063z"/>
</g>
</svg>
