<?xml version="1.0" encoding="utf-8"?>
<!-- Generator: Adobe Illustrator 16.0.0, SVG Export Plug-In . SVG Version: 6.00 Build 0)  -->
<!DOCTYPE svg PUBLIC "-//W3C//DTD SVG 1.1//EN" "http://www.w3.org/Graphics/SVG/1.1/DTD/svg11.dtd">
<svg version="1.1" xmlns="http://www.w3.org/2000/svg" xmlns:xlink="http://www.w3.org/1999/xlink" x="0px" y="0px"
	 width="200px" height="200px" viewBox="0 0 200 200" enable-background="new 0 0 200 200" xml:space="preserve">
<g>
	<g>
		<path fill="#DFDEDD" d="M200,37.993c-7.361,3.262-15.26,5.474-23.559,6.461c8.475-5.074,14.961-13.123,18.034-22.683
			c-7.948,4.699-16.722,8.111-26.069,9.96c-7.486-7.986-18.135-12.96-29.945-12.96c-22.658,0-41.03,18.372-41.03,41.018
			c0,3.211,0.363,6.349,1.062,9.348C64.4,67.425,34.168,51.09,13.935,26.27c-3.537,6.049-5.549,13.097-5.549,20.621
			c0,14.235,7.249,26.795,18.247,34.144c-6.724-0.225-13.048-2.075-18.584-5.149v0.512c0,19.872,14.147,36.456,32.906,40.23
			c-3.437,0.925-7.062,1.438-10.811,1.438c-2.649,0-5.211-0.263-7.724-0.763c5.224,16.31,20.371,28.17,38.318,28.495
			c-14.035,10.998-31.731,17.534-50.953,17.534c-3.312,0-6.574-0.2-9.786-0.562c18.159,11.66,39.717,18.459,62.888,18.459
			c75.473,0,116.729-62.514,116.729-116.728l-0.139-5.311C187.54,53.44,194.514,46.216,200,37.993z"/>
	</g>
</g>
</svg>
