<?xml version="1.0" encoding="utf-8"?>
<!-- Generator: Adobe Illustrator 16.0.0, SVG Export Plug-In . SVG Version: 6.00 Build 0)  -->
<!DOCTYPE svg PUBLIC "-//W3C//DTD SVG 1.1//EN" "http://www.w3.org/Graphics/SVG/1.1/DTD/svg11.dtd">
<svg version="1.1" id="Capa_1" xmlns="http://www.w3.org/2000/svg" xmlns:xlink="http://www.w3.org/1999/xlink" x="0px" y="0px"
	 width="60px" height="60px" viewBox="20 20 60 60" enable-background="new 20 20 60 60" xml:space="preserve">
<g>
	<path fill="#838489" d="M64.134,50.206c-0.828-0.251-1.396-0.425-0.962-1.531c0.938-2.403,1.036-4.476,0.019-5.954
		c-1.907-2.774-7.127-2.625-13.106-0.074c0-0.003-1.879,0.836-1.399-0.681c0.92-3.012,0.78-5.532-0.65-6.988
		c-3.244-3.305-11.874,0.125-19.276,7.656C23.216,48.274,20,54.255,20,59.426c0,9.888,12.458,16.504,24.648,16.504
		c15.977,0,26.609-10.052,26.609-17.555C71.257,53.842,67.505,51.27,64.134,50.206z M44.681,71.496
		c-9.727,0.963-18.121-3.455-18.753-9.878c-0.631-6.42,6.743-12.409,16.468-13.375c9.727-0.968,18.123,3.454,18.754,9.874
		C61.778,64.538,54.409,70.528,44.681,71.496z M80,42.153c-0.005-9.987-8.102-18.083-18.09-18.083c-1.166,0-2.111,0.945-2.111,2.111
		s0.945,2.11,2.111,2.11c7.659,0,13.869,6.21,13.869,13.869c0,1.167,0.945,2.11,2.11,2.11c1.166,0,2.11-0.944,2.11-2.11
		C80,42.161,80,42.156,80,42.153z M71.614,41.843c-0.965-4.709-4.677-8.421-9.387-9.386c-1.14-0.234-2.256,0.5-2.49,1.642
		s0.5,2.256,1.641,2.492c3.062,0.627,5.475,3.039,6.102,6.101c0.235,1.141,1.351,1.875,2.493,1.642
		C71.112,44.099,71.848,42.984,71.614,41.843z M39.692,54.531c-3.918,0.787-6.562,4.073-5.906,7.338
		c0.655,3.266,4.364,5.273,8.282,4.485c3.917-0.787,6.562-4.072,5.905-7.338C47.319,55.752,43.609,53.743,39.692,54.531z"/>
</g>
</svg>
